<?xml version="1.0" encoding="utf-8" standalone="no"?>
<!DOCTYPE svg PUBLIC "-//W3C//DTD SVG 1.1//EN"
  "http://www.w3.org/Graphics/SVG/1.1/DTD/svg11.dtd">
<svg xmlns:xlink="http://www.w3.org/1999/xlink" width="567.45625pt" height="406.914375pt" viewBox="0 0 567.45625 406.914375" xmlns="http://www.w3.org/2000/svg" version="1.1">
 <metadata>
  <rdf:RDF xmlns:dc="http://purl.org/dc/elements/1.1/" xmlns:cc="http://creativecommons.org/ns#" xmlns:rdf="http://www.w3.org/1999/02/22-rdf-syntax-ns#">
   <cc:Work>
    <dc:type rdf:resource="http://purl.org/dc/dcmitype/StillImage"/>
    <dc:date>2021-12-27T08:21:20.495821</dc:date>
    <dc:format>image/svg+xml</dc:format>
    <dc:creator>
     <cc:Agent>
      <dc:title>Matplotlib v3.5.1, https://matplotlib.org/</dc:title>
     </cc:Agent>
    </dc:creator>
   </cc:Work>
  </rdf:RDF>
 </metadata>
 <defs>
  <style type="text/css">*{stroke-linejoin: round; stroke-linecap: butt}</style>
 </defs>
 <g id="figure_1">
  <g id="patch_1">
   <path d="M 0 406.914375 
L 567.45625 406.914375 
L 567.45625 0 
L 0 0 
z
" style="fill: #ffffff"/>
  </g>
  <g id="axes_1">
   <g id="patch_2">
    <path d="M 60.528125 362.158125 
L 506.928125 362.158125 
L 506.928125 29.518125 
L 60.528125 29.518125 
z
" style="fill: #ffffff"/>
   </g>
   <g id="axes_2">
    <g id="patch_3">
     <path d="M 506.928125 362.158125 
L 506.928125 362.158125 
L 506.928125 29.518125 
L 506.928125 29.518125 
z
" style="fill: #ffffff"/>
    </g>
    <g id="matplotlib.axis_1"/>
    <g id="matplotlib.axis_2">
     <g id="ytick_1">
      <g id="line2d_1">
       <defs>
        <path id="m25e1c5b142" d="M 0 0 
L 3.5 0 
" style="stroke: #000000; stroke-width: 0.8"/>
       </defs>
       <g>
        <use xlink:href="#m25e1c5b142" x="506.928125" y="362.158125" style="stroke: #000000; stroke-width: 0.8"/>
       </g>
      </g>
      <g id="text_1">
       <!-- 0 -->
       <g transform="translate(513.928125 365.957344)scale(0.1 -0.1)">
        <defs>
         <path id="DejaVuSans-30" d="M 2034 4250 
Q 1547 4250 1301 3770 
Q 1056 3291 1056 2328 
Q 1056 1369 1301 889 
Q 1547 409 2034 409 
Q 2525 409 2770 889 
Q 3016 1369 3016 2328 
Q 3016 3291 2770 3770 
Q 2525 4250 2034 4250 
z
M 2034 4750 
Q 2819 4750 3233 4129 
Q 3647 3509 3647 2328 
Q 3647 1150 3233 529 
Q 2819 -91 2034 -91 
Q 1250 -91 836 529 
Q 422 1150 422 2328 
Q 422 3509 836 4129 
Q 1250 4750 2034 4750 
z
" transform="scale(0.015625)"/>
        </defs>
        <use xlink:href="#DejaVuSans-30"/>
       </g>
      </g>
     </g>
     <g id="ytick_2">
      <g id="line2d_2">
       <g>
        <use xlink:href="#m25e1c5b142" x="506.928125" y="319.00953" style="stroke: #000000; stroke-width: 0.8"/>
       </g>
      </g>
      <g id="text_2">
       <!-- 500 -->
       <g transform="translate(513.928125 322.808749)scale(0.1 -0.1)">
        <defs>
         <path id="DejaVuSans-35" d="M 691 4666 
L 3169 4666 
L 3169 4134 
L 1269 4134 
L 1269 2991 
Q 1406 3038 1543 3061 
Q 1681 3084 1819 3084 
Q 2600 3084 3056 2656 
Q 3513 2228 3513 1497 
Q 3513 744 3044 326 
Q 2575 -91 1722 -91 
Q 1428 -91 1123 -41 
Q 819 9 494 109 
L 494 744 
Q 775 591 1075 516 
Q 1375 441 1709 441 
Q 2250 441 2565 725 
Q 2881 1009 2881 1497 
Q 2881 1984 2565 2268 
Q 2250 2553 1709 2553 
Q 1456 2553 1204 2497 
Q 953 2441 691 2322 
L 691 4666 
z
" transform="scale(0.015625)"/>
        </defs>
        <use xlink:href="#DejaVuSans-35"/>
        <use xlink:href="#DejaVuSans-30" x="63.623047"/>
        <use xlink:href="#DejaVuSans-30" x="127.246094"/>
       </g>
      </g>
     </g>
     <g id="ytick_3">
      <g id="line2d_3">
       <g>
        <use xlink:href="#m25e1c5b142" x="506.928125" y="275.860935" style="stroke: #000000; stroke-width: 0.8"/>
       </g>
      </g>
      <g id="text_3">
       <!-- 1000 -->
       <g transform="translate(513.928125 279.660154)scale(0.1 -0.1)">
        <defs>
         <path id="DejaVuSans-31" d="M 794 531 
L 1825 531 
L 1825 4091 
L 703 3866 
L 703 4441 
L 1819 4666 
L 2450 4666 
L 2450 531 
L 3481 531 
L 3481 0 
L 794 0 
L 794 531 
z
" transform="scale(0.015625)"/>
        </defs>
        <use xlink:href="#DejaVuSans-31"/>
        <use xlink:href="#DejaVuSans-30" x="63.623047"/>
        <use xlink:href="#DejaVuSans-30" x="127.246094"/>
        <use xlink:href="#DejaVuSans-30" x="190.869141"/>
       </g>
      </g>
     </g>
     <g id="ytick_4">
      <g id="line2d_4">
       <g>
        <use xlink:href="#m25e1c5b142" x="506.928125" y="232.712341" style="stroke: #000000; stroke-width: 0.8"/>
       </g>
      </g>
      <g id="text_4">
       <!-- 1500 -->
       <g transform="translate(513.928125 236.511559)scale(0.1 -0.1)">
        <use xlink:href="#DejaVuSans-31"/>
        <use xlink:href="#DejaVuSans-35" x="63.623047"/>
        <use xlink:href="#DejaVuSans-30" x="127.246094"/>
        <use xlink:href="#DejaVuSans-30" x="190.869141"/>
       </g>
      </g>
     </g>
     <g id="ytick_5">
      <g id="line2d_5">
       <g>
        <use xlink:href="#m25e1c5b142" x="506.928125" y="189.563746" style="stroke: #000000; stroke-width: 0.8"/>
       </g>
      </g>
      <g id="text_5">
       <!-- 2000 -->
       <g transform="translate(513.928125 193.362965)scale(0.1 -0.1)">
        <defs>
         <path id="DejaVuSans-32" d="M 1228 531 
L 3431 531 
L 3431 0 
L 469 0 
L 469 531 
Q 828 903 1448 1529 
Q 2069 2156 2228 2338 
Q 2531 2678 2651 2914 
Q 2772 3150 2772 3378 
Q 2772 3750 2511 3984 
Q 2250 4219 1831 4219 
Q 1534 4219 1204 4116 
Q 875 4013 500 3803 
L 500 4441 
Q 881 4594 1212 4672 
Q 1544 4750 1819 4750 
Q 2544 4750 2975 4387 
Q 3406 4025 3406 3419 
Q 3406 3131 3298 2873 
Q 3191 2616 2906 2266 
Q 2828 2175 2409 1742 
Q 1991 1309 1228 531 
z
" transform="scale(0.015625)"/>
        </defs>
        <use xlink:href="#DejaVuSans-32"/>
        <use xlink:href="#DejaVuSans-30" x="63.623047"/>
        <use xlink:href="#DejaVuSans-30" x="127.246094"/>
        <use xlink:href="#DejaVuSans-30" x="190.869141"/>
       </g>
      </g>
     </g>
     <g id="ytick_6">
      <g id="line2d_6">
       <g>
        <use xlink:href="#m25e1c5b142" x="506.928125" y="146.415151" style="stroke: #000000; stroke-width: 0.8"/>
       </g>
      </g>
      <g id="text_6">
       <!-- 2500 -->
       <g transform="translate(513.928125 150.21437)scale(0.1 -0.1)">
        <use xlink:href="#DejaVuSans-32"/>
        <use xlink:href="#DejaVuSans-35" x="63.623047"/>
        <use xlink:href="#DejaVuSans-30" x="127.246094"/>
        <use xlink:href="#DejaVuSans-30" x="190.869141"/>
       </g>
      </g>
     </g>
     <g id="ytick_7">
      <g id="line2d_7">
       <g>
        <use xlink:href="#m25e1c5b142" x="506.928125" y="103.266556" style="stroke: #000000; stroke-width: 0.8"/>
       </g>
      </g>
      <g id="text_7">
       <!-- 3000 -->
       <g transform="translate(513.928125 107.065775)scale(0.1 -0.1)">
        <defs>
         <path id="DejaVuSans-33" d="M 2597 2516 
Q 3050 2419 3304 2112 
Q 3559 1806 3559 1356 
Q 3559 666 3084 287 
Q 2609 -91 1734 -91 
Q 1441 -91 1130 -33 
Q 819 25 488 141 
L 488 750 
Q 750 597 1062 519 
Q 1375 441 1716 441 
Q 2309 441 2620 675 
Q 2931 909 2931 1356 
Q 2931 1769 2642 2001 
Q 2353 2234 1838 2234 
L 1294 2234 
L 1294 2753 
L 1863 2753 
Q 2328 2753 2575 2939 
Q 2822 3125 2822 3475 
Q 2822 3834 2567 4026 
Q 2313 4219 1838 4219 
Q 1578 4219 1281 4162 
Q 984 4106 628 3988 
L 628 4550 
Q 988 4650 1302 4700 
Q 1616 4750 1894 4750 
Q 2613 4750 3031 4423 
Q 3450 4097 3450 3541 
Q 3450 3153 3228 2886 
Q 3006 2619 2597 2516 
z
" transform="scale(0.015625)"/>
        </defs>
        <use xlink:href="#DejaVuSans-33"/>
        <use xlink:href="#DejaVuSans-30" x="63.623047"/>
        <use xlink:href="#DejaVuSans-30" x="127.246094"/>
        <use xlink:href="#DejaVuSans-30" x="190.869141"/>
       </g>
      </g>
     </g>
     <g id="ytick_8">
      <g id="line2d_8">
       <g>
        <use xlink:href="#m25e1c5b142" x="506.928125" y="60.117962" style="stroke: #000000; stroke-width: 0.8"/>
       </g>
      </g>
      <g id="text_8">
       <!-- 3500 -->
       <g transform="translate(513.928125 63.91718)scale(0.1 -0.1)">
        <use xlink:href="#DejaVuSans-33"/>
        <use xlink:href="#DejaVuSans-35" x="63.623047"/>
        <use xlink:href="#DejaVuSans-30" x="127.246094"/>
        <use xlink:href="#DejaVuSans-30" x="190.869141"/>
       </g>
      </g>
     </g>
     <g id="text_9">
      <!-- Estradiol concentrations (pmol/L) -->
      <g transform="translate(550.976563 278.970156)rotate(-90)scale(0.1 -0.1)">
       <defs>
        <path id="DejaVuSans-45" d="M 628 4666 
L 3578 4666 
L 3578 4134 
L 1259 4134 
L 1259 2753 
L 3481 2753 
L 3481 2222 
L 1259 2222 
L 1259 531 
L 3634 531 
L 3634 0 
L 628 0 
L 628 4666 
z
" transform="scale(0.015625)"/>
        <path id="DejaVuSans-73" d="M 2834 3397 
L 2834 2853 
Q 2591 2978 2328 3040 
Q 2066 3103 1784 3103 
Q 1356 3103 1142 2972 
Q 928 2841 928 2578 
Q 928 2378 1081 2264 
Q 1234 2150 1697 2047 
L 1894 2003 
Q 2506 1872 2764 1633 
Q 3022 1394 3022 966 
Q 3022 478 2636 193 
Q 2250 -91 1575 -91 
Q 1294 -91 989 -36 
Q 684 19 347 128 
L 347 722 
Q 666 556 975 473 
Q 1284 391 1588 391 
Q 1994 391 2212 530 
Q 2431 669 2431 922 
Q 2431 1156 2273 1281 
Q 2116 1406 1581 1522 
L 1381 1569 
Q 847 1681 609 1914 
Q 372 2147 372 2553 
Q 372 3047 722 3315 
Q 1072 3584 1716 3584 
Q 2034 3584 2315 3537 
Q 2597 3491 2834 3397 
z
" transform="scale(0.015625)"/>
        <path id="DejaVuSans-74" d="M 1172 4494 
L 1172 3500 
L 2356 3500 
L 2356 3053 
L 1172 3053 
L 1172 1153 
Q 1172 725 1289 603 
Q 1406 481 1766 481 
L 2356 481 
L 2356 0 
L 1766 0 
Q 1100 0 847 248 
Q 594 497 594 1153 
L 594 3053 
L 172 3053 
L 172 3500 
L 594 3500 
L 594 4494 
L 1172 4494 
z
" transform="scale(0.015625)"/>
        <path id="DejaVuSans-72" d="M 2631 2963 
Q 2534 3019 2420 3045 
Q 2306 3072 2169 3072 
Q 1681 3072 1420 2755 
Q 1159 2438 1159 1844 
L 1159 0 
L 581 0 
L 581 3500 
L 1159 3500 
L 1159 2956 
Q 1341 3275 1631 3429 
Q 1922 3584 2338 3584 
Q 2397 3584 2469 3576 
Q 2541 3569 2628 3553 
L 2631 2963 
z
" transform="scale(0.015625)"/>
        <path id="DejaVuSans-61" d="M 2194 1759 
Q 1497 1759 1228 1600 
Q 959 1441 959 1056 
Q 959 750 1161 570 
Q 1363 391 1709 391 
Q 2188 391 2477 730 
Q 2766 1069 2766 1631 
L 2766 1759 
L 2194 1759 
z
M 3341 1997 
L 3341 0 
L 2766 0 
L 2766 531 
Q 2569 213 2275 61 
Q 1981 -91 1556 -91 
Q 1019 -91 701 211 
Q 384 513 384 1019 
Q 384 1609 779 1909 
Q 1175 2209 1959 2209 
L 2766 2209 
L 2766 2266 
Q 2766 2663 2505 2880 
Q 2244 3097 1772 3097 
Q 1472 3097 1187 3025 
Q 903 2953 641 2809 
L 641 3341 
Q 956 3463 1253 3523 
Q 1550 3584 1831 3584 
Q 2591 3584 2966 3190 
Q 3341 2797 3341 1997 
z
" transform="scale(0.015625)"/>
        <path id="DejaVuSans-64" d="M 2906 2969 
L 2906 4863 
L 3481 4863 
L 3481 0 
L 2906 0 
L 2906 525 
Q 2725 213 2448 61 
Q 2172 -91 1784 -91 
Q 1150 -91 751 415 
Q 353 922 353 1747 
Q 353 2572 751 3078 
Q 1150 3584 1784 3584 
Q 2172 3584 2448 3432 
Q 2725 3281 2906 2969 
z
M 947 1747 
Q 947 1113 1208 752 
Q 1469 391 1925 391 
Q 2381 391 2643 752 
Q 2906 1113 2906 1747 
Q 2906 2381 2643 2742 
Q 2381 3103 1925 3103 
Q 1469 3103 1208 2742 
Q 947 2381 947 1747 
z
" transform="scale(0.015625)"/>
        <path id="DejaVuSans-69" d="M 603 3500 
L 1178 3500 
L 1178 0 
L 603 0 
L 603 3500 
z
M 603 4863 
L 1178 4863 
L 1178 4134 
L 603 4134 
L 603 4863 
z
" transform="scale(0.015625)"/>
        <path id="DejaVuSans-6f" d="M 1959 3097 
Q 1497 3097 1228 2736 
Q 959 2375 959 1747 
Q 959 1119 1226 758 
Q 1494 397 1959 397 
Q 2419 397 2687 759 
Q 2956 1122 2956 1747 
Q 2956 2369 2687 2733 
Q 2419 3097 1959 3097 
z
M 1959 3584 
Q 2709 3584 3137 3096 
Q 3566 2609 3566 1747 
Q 3566 888 3137 398 
Q 2709 -91 1959 -91 
Q 1206 -91 779 398 
Q 353 888 353 1747 
Q 353 2609 779 3096 
Q 1206 3584 1959 3584 
z
" transform="scale(0.015625)"/>
        <path id="DejaVuSans-6c" d="M 603 4863 
L 1178 4863 
L 1178 0 
L 603 0 
L 603 4863 
z
" transform="scale(0.015625)"/>
        <path id="DejaVuSans-20" transform="scale(0.015625)"/>
        <path id="DejaVuSans-63" d="M 3122 3366 
L 3122 2828 
Q 2878 2963 2633 3030 
Q 2388 3097 2138 3097 
Q 1578 3097 1268 2742 
Q 959 2388 959 1747 
Q 959 1106 1268 751 
Q 1578 397 2138 397 
Q 2388 397 2633 464 
Q 2878 531 3122 666 
L 3122 134 
Q 2881 22 2623 -34 
Q 2366 -91 2075 -91 
Q 1284 -91 818 406 
Q 353 903 353 1747 
Q 353 2603 823 3093 
Q 1294 3584 2113 3584 
Q 2378 3584 2631 3529 
Q 2884 3475 3122 3366 
z
" transform="scale(0.015625)"/>
        <path id="DejaVuSans-6e" d="M 3513 2113 
L 3513 0 
L 2938 0 
L 2938 2094 
Q 2938 2591 2744 2837 
Q 2550 3084 2163 3084 
Q 1697 3084 1428 2787 
Q 1159 2491 1159 1978 
L 1159 0 
L 581 0 
L 581 3500 
L 1159 3500 
L 1159 2956 
Q 1366 3272 1645 3428 
Q 1925 3584 2291 3584 
Q 2894 3584 3203 3211 
Q 3513 2838 3513 2113 
z
" transform="scale(0.015625)"/>
        <path id="DejaVuSans-65" d="M 3597 1894 
L 3597 1613 
L 953 1613 
Q 991 1019 1311 708 
Q 1631 397 2203 397 
Q 2534 397 2845 478 
Q 3156 559 3463 722 
L 3463 178 
Q 3153 47 2828 -22 
Q 2503 -91 2169 -91 
Q 1331 -91 842 396 
Q 353 884 353 1716 
Q 353 2575 817 3079 
Q 1281 3584 2069 3584 
Q 2775 3584 3186 3129 
Q 3597 2675 3597 1894 
z
M 3022 2063 
Q 3016 2534 2758 2815 
Q 2500 3097 2075 3097 
Q 1594 3097 1305 2825 
Q 1016 2553 972 2059 
L 3022 2063 
z
" transform="scale(0.015625)"/>
        <path id="DejaVuSans-28" d="M 1984 4856 
Q 1566 4138 1362 3434 
Q 1159 2731 1159 2009 
Q 1159 1288 1364 580 
Q 1569 -128 1984 -844 
L 1484 -844 
Q 1016 -109 783 600 
Q 550 1309 550 2009 
Q 550 2706 781 3412 
Q 1013 4119 1484 4856 
L 1984 4856 
z
" transform="scale(0.015625)"/>
        <path id="DejaVuSans-70" d="M 1159 525 
L 1159 -1331 
L 581 -1331 
L 581 3500 
L 1159 3500 
L 1159 2969 
Q 1341 3281 1617 3432 
Q 1894 3584 2278 3584 
Q 2916 3584 3314 3078 
Q 3713 2572 3713 1747 
Q 3713 922 3314 415 
Q 2916 -91 2278 -91 
Q 1894 -91 1617 61 
Q 1341 213 1159 525 
z
M 3116 1747 
Q 3116 2381 2855 2742 
Q 2594 3103 2138 3103 
Q 1681 3103 1420 2742 
Q 1159 2381 1159 1747 
Q 1159 1113 1420 752 
Q 1681 391 2138 391 
Q 2594 391 2855 752 
Q 3116 1113 3116 1747 
z
" transform="scale(0.015625)"/>
        <path id="DejaVuSans-6d" d="M 3328 2828 
Q 3544 3216 3844 3400 
Q 4144 3584 4550 3584 
Q 5097 3584 5394 3201 
Q 5691 2819 5691 2113 
L 5691 0 
L 5113 0 
L 5113 2094 
Q 5113 2597 4934 2840 
Q 4756 3084 4391 3084 
Q 3944 3084 3684 2787 
Q 3425 2491 3425 1978 
L 3425 0 
L 2847 0 
L 2847 2094 
Q 2847 2600 2669 2842 
Q 2491 3084 2119 3084 
Q 1678 3084 1418 2786 
Q 1159 2488 1159 1978 
L 1159 0 
L 581 0 
L 581 3500 
L 1159 3500 
L 1159 2956 
Q 1356 3278 1631 3431 
Q 1906 3584 2284 3584 
Q 2666 3584 2933 3390 
Q 3200 3197 3328 2828 
z
" transform="scale(0.015625)"/>
        <path id="DejaVuSans-2f" d="M 1625 4666 
L 2156 4666 
L 531 -594 
L 0 -594 
L 1625 4666 
z
" transform="scale(0.015625)"/>
        <path id="DejaVuSans-4c" d="M 628 4666 
L 1259 4666 
L 1259 531 
L 3531 531 
L 3531 0 
L 628 0 
L 628 4666 
z
" transform="scale(0.015625)"/>
        <path id="DejaVuSans-29" d="M 513 4856 
L 1013 4856 
Q 1481 4119 1714 3412 
Q 1947 2706 1947 2009 
Q 1947 1309 1714 600 
Q 1481 -109 1013 -844 
L 513 -844 
Q 928 -128 1133 580 
Q 1338 1288 1338 2009 
Q 1338 2731 1133 3434 
Q 928 4138 513 4856 
z
" transform="scale(0.015625)"/>
       </defs>
       <use xlink:href="#DejaVuSans-45"/>
       <use xlink:href="#DejaVuSans-73" x="63.183594"/>
       <use xlink:href="#DejaVuSans-74" x="115.283203"/>
       <use xlink:href="#DejaVuSans-72" x="154.492188"/>
       <use xlink:href="#DejaVuSans-61" x="195.605469"/>
       <use xlink:href="#DejaVuSans-64" x="256.884766"/>
       <use xlink:href="#DejaVuSans-69" x="320.361328"/>
       <use xlink:href="#DejaVuSans-6f" x="348.144531"/>
       <use xlink:href="#DejaVuSans-6c" x="409.326172"/>
       <use xlink:href="#DejaVuSans-20" x="437.109375"/>
       <use xlink:href="#DejaVuSans-63" x="468.896484"/>
       <use xlink:href="#DejaVuSans-6f" x="523.876953"/>
       <use xlink:href="#DejaVuSans-6e" x="585.058594"/>
       <use xlink:href="#DejaVuSans-63" x="648.4375"/>
       <use xlink:href="#DejaVuSans-65" x="703.417969"/>
       <use xlink:href="#DejaVuSans-6e" x="764.941406"/>
       <use xlink:href="#DejaVuSans-74" x="828.320312"/>
       <use xlink:href="#DejaVuSans-72" x="867.529297"/>
       <use xlink:href="#DejaVuSans-61" x="908.642578"/>
       <use xlink:href="#DejaVuSans-74" x="969.921875"/>
       <use xlink:href="#DejaVuSans-69" x="1009.130859"/>
       <use xlink:href="#DejaVuSans-6f" x="1036.914062"/>
       <use xlink:href="#DejaVuSans-6e" x="1098.095703"/>
       <use xlink:href="#DejaVuSans-73" x="1161.474609"/>
       <use xlink:href="#DejaVuSans-20" x="1213.574219"/>
       <use xlink:href="#DejaVuSans-28" x="1245.361328"/>
       <use xlink:href="#DejaVuSans-70" x="1284.375"/>
       <use xlink:href="#DejaVuSans-6d" x="1347.851562"/>
       <use xlink:href="#DejaVuSans-6f" x="1445.263672"/>
       <use xlink:href="#DejaVuSans-6c" x="1506.445312"/>
       <use xlink:href="#DejaVuSans-2f" x="1534.228516"/>
       <use xlink:href="#DejaVuSans-4c" x="1567.919922"/>
       <use xlink:href="#DejaVuSans-29" x="1623.632812"/>
      </g>
     </g>
    </g>
    <g id="patch_4">
     <path d="M 506.928125 362.158125 
L 506.928125 29.518125 
" style="fill: none; stroke: #000000; stroke-width: 0.8; stroke-linejoin: miter; stroke-linecap: square"/>
    </g>
   </g>
   <g id="matplotlib.axis_3">
    <g id="xtick_1">
     <g id="line2d_9">
      <defs>
       <path id="m4debab62db" d="M 0 0 
L 0 3.5 
" style="stroke: #000000; stroke-width: 0.8"/>
      </defs>
      <g>
       <use xlink:href="#m4debab62db" x="60.528125" y="362.158125" style="stroke: #000000; stroke-width: 0.8"/>
      </g>
     </g>
     <g id="text_10">
      <!-- 0 -->
      <g transform="translate(57.346875 376.756563)scale(0.1 -0.1)">
       <use xlink:href="#DejaVuSans-30"/>
      </g>
     </g>
    </g>
    <g id="xtick_2">
     <g id="line2d_10">
      <g>
       <use xlink:href="#m4debab62db" x="81.77515" y="362.158125" style="stroke: #000000; stroke-width: 0.8"/>
      </g>
     </g>
     <g id="text_11">
      <!-- 1 -->
      <g transform="translate(78.5939 376.756563)scale(0.1 -0.1)">
       <use xlink:href="#DejaVuSans-31"/>
      </g>
     </g>
    </g>
    <g id="xtick_3">
     <g id="line2d_11">
      <g>
       <use xlink:href="#m4debab62db" x="103.022175" y="362.158125" style="stroke: #000000; stroke-width: 0.8"/>
      </g>
     </g>
     <g id="text_12">
      <!-- 2 -->
      <g transform="translate(99.840925 376.756563)scale(0.1 -0.1)">
       <use xlink:href="#DejaVuSans-32"/>
      </g>
     </g>
    </g>
    <g id="xtick_4">
     <g id="line2d_12">
      <g>
       <use xlink:href="#m4debab62db" x="124.269201" y="362.158125" style="stroke: #000000; stroke-width: 0.8"/>
      </g>
     </g>
     <g id="text_13">
      <!-- 3 -->
      <g transform="translate(121.087951 376.756563)scale(0.1 -0.1)">
       <use xlink:href="#DejaVuSans-33"/>
      </g>
     </g>
    </g>
    <g id="xtick_5">
     <g id="line2d_13">
      <g>
       <use xlink:href="#m4debab62db" x="145.516226" y="362.158125" style="stroke: #000000; stroke-width: 0.8"/>
      </g>
     </g>
     <g id="text_14">
      <!-- 4 -->
      <g transform="translate(142.334976 376.756563)scale(0.1 -0.1)">
       <defs>
        <path id="DejaVuSans-34" d="M 2419 4116 
L 825 1625 
L 2419 1625 
L 2419 4116 
z
M 2253 4666 
L 3047 4666 
L 3047 1625 
L 3713 1625 
L 3713 1100 
L 3047 1100 
L 3047 0 
L 2419 0 
L 2419 1100 
L 313 1100 
L 313 1709 
L 2253 4666 
z
" transform="scale(0.015625)"/>
       </defs>
       <use xlink:href="#DejaVuSans-34"/>
      </g>
     </g>
    </g>
    <g id="xtick_6">
     <g id="line2d_14">
      <g>
       <use xlink:href="#m4debab62db" x="166.763251" y="362.158125" style="stroke: #000000; stroke-width: 0.8"/>
      </g>
     </g>
     <g id="text_15">
      <!-- 5 -->
      <g transform="translate(163.582001 376.756563)scale(0.1 -0.1)">
       <use xlink:href="#DejaVuSans-35"/>
      </g>
     </g>
    </g>
    <g id="xtick_7">
     <g id="line2d_15">
      <g>
       <use xlink:href="#m4debab62db" x="188.010276" y="362.158125" style="stroke: #000000; stroke-width: 0.8"/>
      </g>
     </g>
     <g id="text_16">
      <!-- 6 -->
      <g transform="translate(184.829026 376.756563)scale(0.1 -0.1)">
       <defs>
        <path id="DejaVuSans-36" d="M 2113 2584 
Q 1688 2584 1439 2293 
Q 1191 2003 1191 1497 
Q 1191 994 1439 701 
Q 1688 409 2113 409 
Q 2538 409 2786 701 
Q 3034 994 3034 1497 
Q 3034 2003 2786 2293 
Q 2538 2584 2113 2584 
z
M 3366 4563 
L 3366 3988 
Q 3128 4100 2886 4159 
Q 2644 4219 2406 4219 
Q 1781 4219 1451 3797 
Q 1122 3375 1075 2522 
Q 1259 2794 1537 2939 
Q 1816 3084 2150 3084 
Q 2853 3084 3261 2657 
Q 3669 2231 3669 1497 
Q 3669 778 3244 343 
Q 2819 -91 2113 -91 
Q 1303 -91 875 529 
Q 447 1150 447 2328 
Q 447 3434 972 4092 
Q 1497 4750 2381 4750 
Q 2619 4750 2861 4703 
Q 3103 4656 3366 4563 
z
" transform="scale(0.015625)"/>
       </defs>
       <use xlink:href="#DejaVuSans-36"/>
      </g>
     </g>
    </g>
    <g id="xtick_8">
     <g id="line2d_16">
      <g>
       <use xlink:href="#m4debab62db" x="209.257302" y="362.158125" style="stroke: #000000; stroke-width: 0.8"/>
      </g>
     </g>
     <g id="text_17">
      <!-- 0 -->
      <g transform="translate(206.076052 376.756563)scale(0.1 -0.1)">
       <use xlink:href="#DejaVuSans-30"/>
      </g>
     </g>
    </g>
    <g id="xtick_9">
     <g id="line2d_17">
      <g>
       <use xlink:href="#m4debab62db" x="230.504327" y="362.158125" style="stroke: #000000; stroke-width: 0.8"/>
      </g>
     </g>
     <g id="text_18">
      <!-- 1 -->
      <g transform="translate(227.323077 376.756563)scale(0.1 -0.1)">
       <use xlink:href="#DejaVuSans-31"/>
      </g>
     </g>
    </g>
    <g id="xtick_10">
     <g id="line2d_18">
      <g>
       <use xlink:href="#m4debab62db" x="251.751352" y="362.158125" style="stroke: #000000; stroke-width: 0.8"/>
      </g>
     </g>
     <g id="text_19">
      <!-- 2 -->
      <g transform="translate(248.570102 376.756563)scale(0.1 -0.1)">
       <use xlink:href="#DejaVuSans-32"/>
      </g>
     </g>
    </g>
    <g id="xtick_11">
     <g id="line2d_19">
      <g>
       <use xlink:href="#m4debab62db" x="272.998377" y="362.158125" style="stroke: #000000; stroke-width: 0.8"/>
      </g>
     </g>
     <g id="text_20">
      <!-- 3 -->
      <g transform="translate(269.817127 376.756563)scale(0.1 -0.1)">
       <use xlink:href="#DejaVuSans-33"/>
      </g>
     </g>
    </g>
    <g id="xtick_12">
     <g id="line2d_20">
      <g>
       <use xlink:href="#m4debab62db" x="294.245402" y="362.158125" style="stroke: #000000; stroke-width: 0.8"/>
      </g>
     </g>
     <g id="text_21">
      <!-- 4 -->
      <g transform="translate(291.064152 376.756563)scale(0.1 -0.1)">
       <use xlink:href="#DejaVuSans-34"/>
      </g>
     </g>
    </g>
    <g id="xtick_13">
     <g id="line2d_21">
      <g>
       <use xlink:href="#m4debab62db" x="315.492428" y="362.158125" style="stroke: #000000; stroke-width: 0.8"/>
      </g>
     </g>
     <g id="text_22">
      <!-- 5 -->
      <g transform="translate(312.311178 376.756563)scale(0.1 -0.1)">
       <use xlink:href="#DejaVuSans-35"/>
      </g>
     </g>
    </g>
    <g id="xtick_14">
     <g id="line2d_22">
      <g>
       <use xlink:href="#m4debab62db" x="336.739453" y="362.158125" style="stroke: #000000; stroke-width: 0.8"/>
      </g>
     </g>
     <g id="text_23">
      <!-- 6 -->
      <g transform="translate(333.558203 376.756563)scale(0.1 -0.1)">
       <use xlink:href="#DejaVuSans-36"/>
      </g>
     </g>
    </g>
    <g id="xtick_15">
     <g id="line2d_23">
      <g>
       <use xlink:href="#m4debab62db" x="357.986478" y="362.158125" style="stroke: #000000; stroke-width: 0.8"/>
      </g>
     </g>
     <g id="text_24">
      <!-- 0 -->
      <g transform="translate(354.805228 376.756563)scale(0.1 -0.1)">
       <use xlink:href="#DejaVuSans-30"/>
      </g>
     </g>
    </g>
    <g id="xtick_16">
     <g id="line2d_24">
      <g>
       <use xlink:href="#m4debab62db" x="379.233503" y="362.158125" style="stroke: #000000; stroke-width: 0.8"/>
      </g>
     </g>
     <g id="text_25">
      <!-- 1 -->
      <g transform="translate(376.052253 376.756563)scale(0.1 -0.1)">
       <use xlink:href="#DejaVuSans-31"/>
      </g>
     </g>
    </g>
    <g id="xtick_17">
     <g id="line2d_25">
      <g>
       <use xlink:href="#m4debab62db" x="400.480529" y="362.158125" style="stroke: #000000; stroke-width: 0.8"/>
      </g>
     </g>
     <g id="text_26">
      <!-- 2 -->
      <g transform="translate(397.299279 376.756563)scale(0.1 -0.1)">
       <use xlink:href="#DejaVuSans-32"/>
      </g>
     </g>
    </g>
    <g id="xtick_18">
     <g id="line2d_26">
      <g>
       <use xlink:href="#m4debab62db" x="421.727554" y="362.158125" style="stroke: #000000; stroke-width: 0.8"/>
      </g>
     </g>
     <g id="text_27">
      <!-- 3 -->
      <g transform="translate(418.546304 376.756563)scale(0.1 -0.1)">
       <use xlink:href="#DejaVuSans-33"/>
      </g>
     </g>
    </g>
    <g id="xtick_19">
     <g id="line2d_27">
      <g>
       <use xlink:href="#m4debab62db" x="442.974579" y="362.158125" style="stroke: #000000; stroke-width: 0.8"/>
      </g>
     </g>
     <g id="text_28">
      <!-- 4 -->
      <g transform="translate(439.793329 376.756563)scale(0.1 -0.1)">
       <use xlink:href="#DejaVuSans-34"/>
      </g>
     </g>
    </g>
    <g id="xtick_20">
     <g id="line2d_28">
      <g>
       <use xlink:href="#m4debab62db" x="464.221604" y="362.158125" style="stroke: #000000; stroke-width: 0.8"/>
      </g>
     </g>
     <g id="text_29">
      <!-- 5 -->
      <g transform="translate(461.040354 376.756563)scale(0.1 -0.1)">
       <use xlink:href="#DejaVuSans-35"/>
      </g>
     </g>
    </g>
    <g id="xtick_21">
     <g id="line2d_29">
      <g>
       <use xlink:href="#m4debab62db" x="485.46863" y="362.158125" style="stroke: #000000; stroke-width: 0.8"/>
      </g>
     </g>
     <g id="text_30">
      <!-- 6 -->
      <g transform="translate(482.28738 376.756563)scale(0.1 -0.1)">
       <use xlink:href="#DejaVuSans-36"/>
      </g>
     </g>
    </g>
    <g id="xtick_22">
     <g id="line2d_30">
      <g>
       <use xlink:href="#m4debab62db" x="506.715655" y="362.158125" style="stroke: #000000; stroke-width: 0.8"/>
      </g>
     </g>
     <g id="text_31">
      <!-- 7 -->
      <g transform="translate(503.534405 376.756563)scale(0.1 -0.1)">
       <defs>
        <path id="DejaVuSans-37" d="M 525 4666 
L 3525 4666 
L 3525 4397 
L 1831 0 
L 1172 0 
L 2766 4134 
L 525 4134 
L 525 4666 
z
" transform="scale(0.015625)"/>
       </defs>
       <use xlink:href="#DejaVuSans-37"/>
      </g>
     </g>
    </g>
    <g id="text_32">
     <!-- Time (days) -->
     <g transform="translate(254.201562 390.434688)scale(0.1 -0.1)">
      <defs>
       <path id="DejaVuSans-54" d="M -19 4666 
L 3928 4666 
L 3928 4134 
L 2272 4134 
L 2272 0 
L 1638 0 
L 1638 4134 
L -19 4134 
L -19 4666 
z
" transform="scale(0.015625)"/>
       <path id="DejaVuSans-79" d="M 2059 -325 
Q 1816 -950 1584 -1140 
Q 1353 -1331 966 -1331 
L 506 -1331 
L 506 -850 
L 844 -850 
Q 1081 -850 1212 -737 
Q 1344 -625 1503 -206 
L 1606 56 
L 191 3500 
L 800 3500 
L 1894 763 
L 2988 3500 
L 3597 3500 
L 2059 -325 
z
" transform="scale(0.015625)"/>
      </defs>
      <use xlink:href="#DejaVuSans-54"/>
      <use xlink:href="#DejaVuSans-69" x="57.958984"/>
      <use xlink:href="#DejaVuSans-6d" x="85.742188"/>
      <use xlink:href="#DejaVuSans-65" x="183.154297"/>
      <use xlink:href="#DejaVuSans-20" x="244.677734"/>
      <use xlink:href="#DejaVuSans-28" x="276.464844"/>
      <use xlink:href="#DejaVuSans-64" x="315.478516"/>
      <use xlink:href="#DejaVuSans-61" x="378.955078"/>
      <use xlink:href="#DejaVuSans-79" x="440.234375"/>
      <use xlink:href="#DejaVuSans-73" x="499.414062"/>
      <use xlink:href="#DejaVuSans-29" x="551.513672"/>
     </g>
    </g>
   </g>
   <g id="matplotlib.axis_4">
    <g id="ytick_9">
     <g id="line2d_31">
      <defs>
       <path id="ma1362952ca" d="M 0 0 
L -3.5 0 
" style="stroke: #000000; stroke-width: 0.8"/>
      </defs>
      <g>
       <use xlink:href="#ma1362952ca" x="60.528125" y="362.158125" style="stroke: #000000; stroke-width: 0.8"/>
      </g>
     </g>
     <g id="text_33">
      <!-- 0 -->
      <g transform="translate(47.165625 365.957344)scale(0.1 -0.1)">
       <use xlink:href="#DejaVuSans-30"/>
      </g>
     </g>
    </g>
    <g id="ytick_10">
     <g id="line2d_32">
      <g>
       <use xlink:href="#ma1362952ca" x="60.528125" y="330.478427" style="stroke: #000000; stroke-width: 0.8"/>
      </g>
     </g>
     <g id="text_34">
      <!-- 100 -->
      <g transform="translate(34.440625 334.277645)scale(0.1 -0.1)">
       <use xlink:href="#DejaVuSans-31"/>
       <use xlink:href="#DejaVuSans-30" x="63.623047"/>
       <use xlink:href="#DejaVuSans-30" x="127.246094"/>
      </g>
     </g>
    </g>
    <g id="ytick_11">
     <g id="line2d_33">
      <g>
       <use xlink:href="#ma1362952ca" x="60.528125" y="298.798728" style="stroke: #000000; stroke-width: 0.8"/>
      </g>
     </g>
     <g id="text_35">
      <!-- 200 -->
      <g transform="translate(34.440625 302.597947)scale(0.1 -0.1)">
       <use xlink:href="#DejaVuSans-32"/>
       <use xlink:href="#DejaVuSans-30" x="63.623047"/>
       <use xlink:href="#DejaVuSans-30" x="127.246094"/>
      </g>
     </g>
    </g>
    <g id="ytick_12">
     <g id="line2d_34">
      <g>
       <use xlink:href="#ma1362952ca" x="60.528125" y="267.11903" style="stroke: #000000; stroke-width: 0.8"/>
      </g>
     </g>
     <g id="text_36">
      <!-- 300 -->
      <g transform="translate(34.440625 270.918249)scale(0.1 -0.1)">
       <use xlink:href="#DejaVuSans-33"/>
       <use xlink:href="#DejaVuSans-30" x="63.623047"/>
       <use xlink:href="#DejaVuSans-30" x="127.246094"/>
      </g>
     </g>
    </g>
    <g id="ytick_13">
     <g id="line2d_35">
      <g>
       <use xlink:href="#ma1362952ca" x="60.528125" y="235.439332" style="stroke: #000000; stroke-width: 0.8"/>
      </g>
     </g>
     <g id="text_37">
      <!-- 400 -->
      <g transform="translate(34.440625 239.238551)scale(0.1 -0.1)">
       <use xlink:href="#DejaVuSans-34"/>
       <use xlink:href="#DejaVuSans-30" x="63.623047"/>
       <use xlink:href="#DejaVuSans-30" x="127.246094"/>
      </g>
     </g>
    </g>
    <g id="ytick_14">
     <g id="line2d_36">
      <g>
       <use xlink:href="#ma1362952ca" x="60.528125" y="203.759634" style="stroke: #000000; stroke-width: 0.8"/>
      </g>
     </g>
     <g id="text_38">
      <!-- 500 -->
      <g transform="translate(34.440625 207.558852)scale(0.1 -0.1)">
       <use xlink:href="#DejaVuSans-35"/>
       <use xlink:href="#DejaVuSans-30" x="63.623047"/>
       <use xlink:href="#DejaVuSans-30" x="127.246094"/>
      </g>
     </g>
    </g>
    <g id="ytick_15">
     <g id="line2d_37">
      <g>
       <use xlink:href="#ma1362952ca" x="60.528125" y="172.079935" style="stroke: #000000; stroke-width: 0.8"/>
      </g>
     </g>
     <g id="text_39">
      <!-- 600 -->
      <g transform="translate(34.440625 175.879154)scale(0.1 -0.1)">
       <use xlink:href="#DejaVuSans-36"/>
       <use xlink:href="#DejaVuSans-30" x="63.623047"/>
       <use xlink:href="#DejaVuSans-30" x="127.246094"/>
      </g>
     </g>
    </g>
    <g id="ytick_16">
     <g id="line2d_38">
      <g>
       <use xlink:href="#ma1362952ca" x="60.528125" y="140.400237" style="stroke: #000000; stroke-width: 0.8"/>
      </g>
     </g>
     <g id="text_40">
      <!-- 700 -->
      <g transform="translate(34.440625 144.199456)scale(0.1 -0.1)">
       <use xlink:href="#DejaVuSans-37"/>
       <use xlink:href="#DejaVuSans-30" x="63.623047"/>
       <use xlink:href="#DejaVuSans-30" x="127.246094"/>
      </g>
     </g>
    </g>
    <g id="ytick_17">
     <g id="line2d_39">
      <g>
       <use xlink:href="#ma1362952ca" x="60.528125" y="108.720539" style="stroke: #000000; stroke-width: 0.8"/>
      </g>
     </g>
     <g id="text_41">
      <!-- 800 -->
      <g transform="translate(34.440625 112.519757)scale(0.1 -0.1)">
       <defs>
        <path id="DejaVuSans-38" d="M 2034 2216 
Q 1584 2216 1326 1975 
Q 1069 1734 1069 1313 
Q 1069 891 1326 650 
Q 1584 409 2034 409 
Q 2484 409 2743 651 
Q 3003 894 3003 1313 
Q 3003 1734 2745 1975 
Q 2488 2216 2034 2216 
z
M 1403 2484 
Q 997 2584 770 2862 
Q 544 3141 544 3541 
Q 544 4100 942 4425 
Q 1341 4750 2034 4750 
Q 2731 4750 3128 4425 
Q 3525 4100 3525 3541 
Q 3525 3141 3298 2862 
Q 3072 2584 2669 2484 
Q 3125 2378 3379 2068 
Q 3634 1759 3634 1313 
Q 3634 634 3220 271 
Q 2806 -91 2034 -91 
Q 1263 -91 848 271 
Q 434 634 434 1313 
Q 434 1759 690 2068 
Q 947 2378 1403 2484 
z
M 1172 3481 
Q 1172 3119 1398 2916 
Q 1625 2713 2034 2713 
Q 2441 2713 2670 2916 
Q 2900 3119 2900 3481 
Q 2900 3844 2670 4047 
Q 2441 4250 2034 4250 
Q 1625 4250 1398 4047 
Q 1172 3844 1172 3481 
z
" transform="scale(0.015625)"/>
       </defs>
       <use xlink:href="#DejaVuSans-38"/>
       <use xlink:href="#DejaVuSans-30" x="63.623047"/>
       <use xlink:href="#DejaVuSans-30" x="127.246094"/>
      </g>
     </g>
    </g>
    <g id="ytick_18">
     <g id="line2d_40">
      <g>
       <use xlink:href="#ma1362952ca" x="60.528125" y="77.04084" style="stroke: #000000; stroke-width: 0.8"/>
      </g>
     </g>
     <g id="text_42">
      <!-- 900 -->
      <g transform="translate(34.440625 80.840059)scale(0.1 -0.1)">
       <defs>
        <path id="DejaVuSans-39" d="M 703 97 
L 703 672 
Q 941 559 1184 500 
Q 1428 441 1663 441 
Q 2288 441 2617 861 
Q 2947 1281 2994 2138 
Q 2813 1869 2534 1725 
Q 2256 1581 1919 1581 
Q 1219 1581 811 2004 
Q 403 2428 403 3163 
Q 403 3881 828 4315 
Q 1253 4750 1959 4750 
Q 2769 4750 3195 4129 
Q 3622 3509 3622 2328 
Q 3622 1225 3098 567 
Q 2575 -91 1691 -91 
Q 1453 -91 1209 -44 
Q 966 3 703 97 
z
M 1959 2075 
Q 2384 2075 2632 2365 
Q 2881 2656 2881 3163 
Q 2881 3666 2632 3958 
Q 2384 4250 1959 4250 
Q 1534 4250 1286 3958 
Q 1038 3666 1038 3163 
Q 1038 2656 1286 2365 
Q 1534 2075 1959 2075 
z
" transform="scale(0.015625)"/>
       </defs>
       <use xlink:href="#DejaVuSans-39"/>
       <use xlink:href="#DejaVuSans-30" x="63.623047"/>
       <use xlink:href="#DejaVuSans-30" x="127.246094"/>
      </g>
     </g>
    </g>
    <g id="ytick_19">
     <g id="line2d_41">
      <g>
       <use xlink:href="#ma1362952ca" x="60.528125" y="45.361142" style="stroke: #000000; stroke-width: 0.8"/>
      </g>
     </g>
     <g id="text_43">
      <!-- 1000 -->
      <g transform="translate(28.078125 49.160361)scale(0.1 -0.1)">
       <use xlink:href="#DejaVuSans-31"/>
       <use xlink:href="#DejaVuSans-30" x="63.623047"/>
       <use xlink:href="#DejaVuSans-30" x="127.246094"/>
       <use xlink:href="#DejaVuSans-30" x="190.869141"/>
      </g>
     </g>
    </g>
    <g id="text_44">
     <!-- Estradiol concentrations (pg/mL) -->
     <g transform="translate(21.998438 277.695938)rotate(-90)scale(0.1 -0.1)">
      <defs>
       <path id="DejaVuSans-67" d="M 2906 1791 
Q 2906 2416 2648 2759 
Q 2391 3103 1925 3103 
Q 1463 3103 1205 2759 
Q 947 2416 947 1791 
Q 947 1169 1205 825 
Q 1463 481 1925 481 
Q 2391 481 2648 825 
Q 2906 1169 2906 1791 
z
M 3481 434 
Q 3481 -459 3084 -895 
Q 2688 -1331 1869 -1331 
Q 1566 -1331 1297 -1286 
Q 1028 -1241 775 -1147 
L 775 -588 
Q 1028 -725 1275 -790 
Q 1522 -856 1778 -856 
Q 2344 -856 2625 -561 
Q 2906 -266 2906 331 
L 2906 616 
Q 2728 306 2450 153 
Q 2172 0 1784 0 
Q 1141 0 747 490 
Q 353 981 353 1791 
Q 353 2603 747 3093 
Q 1141 3584 1784 3584 
Q 2172 3584 2450 3431 
Q 2728 3278 2906 2969 
L 2906 3500 
L 3481 3500 
L 3481 434 
z
" transform="scale(0.015625)"/>
      </defs>
      <use xlink:href="#DejaVuSans-45"/>
      <use xlink:href="#DejaVuSans-73" x="63.183594"/>
      <use xlink:href="#DejaVuSans-74" x="115.283203"/>
      <use xlink:href="#DejaVuSans-72" x="154.492188"/>
      <use xlink:href="#DejaVuSans-61" x="195.605469"/>
      <use xlink:href="#DejaVuSans-64" x="256.884766"/>
      <use xlink:href="#DejaVuSans-69" x="320.361328"/>
      <use xlink:href="#DejaVuSans-6f" x="348.144531"/>
      <use xlink:href="#DejaVuSans-6c" x="409.326172"/>
      <use xlink:href="#DejaVuSans-20" x="437.109375"/>
      <use xlink:href="#DejaVuSans-63" x="468.896484"/>
      <use xlink:href="#DejaVuSans-6f" x="523.876953"/>
      <use xlink:href="#DejaVuSans-6e" x="585.058594"/>
      <use xlink:href="#DejaVuSans-63" x="648.4375"/>
      <use xlink:href="#DejaVuSans-65" x="703.417969"/>
      <use xlink:href="#DejaVuSans-6e" x="764.941406"/>
      <use xlink:href="#DejaVuSans-74" x="828.320312"/>
      <use xlink:href="#DejaVuSans-72" x="867.529297"/>
      <use xlink:href="#DejaVuSans-61" x="908.642578"/>
      <use xlink:href="#DejaVuSans-74" x="969.921875"/>
      <use xlink:href="#DejaVuSans-69" x="1009.130859"/>
      <use xlink:href="#DejaVuSans-6f" x="1036.914062"/>
      <use xlink:href="#DejaVuSans-6e" x="1098.095703"/>
      <use xlink:href="#DejaVuSans-73" x="1161.474609"/>
      <use xlink:href="#DejaVuSans-20" x="1213.574219"/>
      <use xlink:href="#DejaVuSans-28" x="1245.361328"/>
      <use xlink:href="#DejaVuSans-70" x="1284.375"/>
      <use xlink:href="#DejaVuSans-67" x="1347.851562"/>
      <use xlink:href="#DejaVuSans-2f" x="1411.328125"/>
      <use xlink:href="#DejaVuSans-6d" x="1445.019531"/>
      <use xlink:href="#DejaVuSans-4c" x="1542.431641"/>
      <use xlink:href="#DejaVuSans-29" x="1598.144531"/>
     </g>
    </g>
   </g>
   <g id="line2d_42">
    <path d="M 60.528118 353.083324 
L 61.708509 280.888353 
L 62.888899 222.886247 
L 64.069289 176.690786 
L 65.24968 140.292001 
L 66.43007 112.011903 
L 67.315363 95.278117 
L 68.200655 81.815148 
L 69.085948 71.183569 
L 69.971241 62.999872 
L 70.856533 56.929424 
L 71.741826 52.680309 
L 72.332021 50.732307 
L 72.922216 49.412765 
L 73.512412 48.660362 
L 74.102607 48.419149 
L 74.692802 48.638093 
L 75.282997 49.270645 
L 75.873192 50.274363 
L 76.758485 52.392179 
L 77.643778 55.142411 
L 78.824168 59.620055 
L 80.299656 66.239519 
L 82.070241 75.265582 
L 84.726119 90.161131 
L 96.530022 158.282406 
L 99.776096 175.111885 
L 103.022169 190.768675 
L 105.973145 203.978509 
L 108.92412 216.240049 
L 111.875096 227.595686 
L 114.826072 238.096057 
L 117.777047 247.795216 
L 120.728023 256.7477 
L 123.678999 265.006785 
L 126.629975 272.623493 
L 129.58095 279.646074 
L 132.531926 286.119777 
L 135.482902 292.086805 
L 138.433878 297.586366 
L 141.384853 302.654797 
L 144.630927 307.77216 
L 147.877 312.44966 
L 151.123073 316.725014 
L 154.369146 320.632739 
L 157.61522 324.204412 
L 160.861293 327.468913 
L 164.402464 330.710822 
L 167.943635 333.64977 
L 171.484806 336.314064 
L 175.321074 338.920147 
L 179.157343 341.26344 
L 183.288709 343.523428 
L 187.420075 345.538975 
L 191.846538 347.457213 
L 196.568099 349.259934 
L 201.584758 350.933746 
L 206.896514 352.469885 
L 209.257295 353.083324 
L 210.437685 280.888358 
L 211.618075 222.886251 
L 212.798466 176.69079 
L 213.978856 140.292004 
L 215.159246 112.011905 
L 216.044539 95.278118 
L 216.929832 81.81515 
L 217.815125 71.18357 
L 218.700417 62.999873 
L 219.58571 56.929424 
L 220.471003 52.680309 
L 221.061198 50.732307 
L 221.651393 49.412765 
L 222.241588 48.660362 
L 222.831783 48.419149 
L 223.421978 48.638093 
L 224.012174 49.270645 
L 224.602369 50.274363 
L 225.487661 52.392178 
L 226.372954 55.14241 
L 227.553344 59.620055 
L 229.028832 66.239519 
L 230.799418 75.265581 
L 233.455296 90.16113 
L 245.259199 158.282406 
L 248.505272 175.111884 
L 251.751345 190.768675 
L 254.702321 203.978509 
L 257.653297 216.240049 
L 260.604273 227.595686 
L 263.555248 238.096057 
L 266.506224 247.795216 
L 269.4572 256.7477 
L 272.408175 265.006785 
L 275.359151 272.623493 
L 278.310127 279.646073 
L 281.261103 286.119777 
L 284.212078 292.086805 
L 287.163054 297.586365 
L 290.11403 302.654797 
L 293.360103 307.77216 
L 296.606176 312.44966 
L 299.85225 316.725014 
L 303.098323 320.632739 
L 306.344396 324.204412 
L 309.59047 327.468913 
L 313.13164 330.710822 
L 316.672811 333.64977 
L 320.213982 336.314063 
L 324.050251 338.920147 
L 327.886519 341.26344 
L 332.017885 343.523428 
L 336.149251 345.538975 
L 340.575715 347.457213 
L 345.297276 349.259934 
L 350.313935 350.933746 
L 355.625691 352.469885 
L 357.986471 353.083324 
L 359.166862 280.888363 
L 360.347252 222.886255 
L 361.527642 176.690793 
L 362.708033 140.292006 
L 363.888423 112.011907 
L 364.773716 95.27812 
L 365.659008 81.815151 
L 366.544301 71.183572 
L 367.429594 62.999873 
L 368.314886 56.929425 
L 369.200179 52.68031 
L 369.790374 50.732307 
L 370.380569 49.412765 
L 370.970765 48.660362 
L 371.56096 48.419149 
L 372.151155 48.638093 
L 372.74135 49.270645 
L 373.331545 50.274363 
L 374.216838 52.392178 
L 375.102131 55.14241 
L 376.282521 59.620055 
L 377.758009 66.239518 
L 379.528594 75.265581 
L 382.184472 90.16113 
L 393.988375 158.282405 
L 397.234449 175.111884 
L 400.480522 190.768674 
L 403.431498 203.978508 
L 406.382473 216.240048 
L 409.333449 227.595686 
L 412.284425 238.096056 
L 415.2354 247.795215 
L 418.186376 256.7477 
L 421.137352 265.006785 
L 424.088328 272.623492 
L 427.039303 279.646073 
L 429.990279 286.119777 
L 432.941255 292.086804 
L 435.892231 297.586365 
L 438.843206 302.654797 
L 442.08928 307.77216 
L 445.335353 312.44966 
L 448.581426 316.725013 
L 451.827499 320.632738 
L 455.073573 324.204412 
L 458.319646 327.468913 
L 461.860817 330.710822 
L 465.401988 333.64977 
L 468.943159 336.314063 
L 472.779427 338.920147 
L 476.615696 341.26344 
L 480.747062 343.523428 
L 484.878428 345.538975 
L 489.304891 347.457213 
L 494.026452 349.259934 
L 499.043111 350.933746 
L 504.354867 352.469885 
L 506.715648 353.083324 
L 506.715648 353.083324 
" clip-path="url(#p8dd8c07674)" style="fill: none; stroke: #d62728; stroke-width: 1.5; stroke-linecap: square"/>
   </g>
   <g id="line2d_43">
    <path d="M 60.528118 317.040445 
L 61.118314 317.161205 
L 61.708509 316.964504 
L 62.298704 316.484962 
L 62.888899 315.75443 
L 63.774192 314.25141 
L 64.954582 311.622629 
L 66.43007 307.582186 
L 68.200655 302.002453 
L 71.446729 290.86378 
L 75.282997 277.922978 
L 77.643778 270.67669 
L 79.709461 264.955674 
L 81.775144 259.870337 
L 83.545729 256.032257 
L 85.316315 252.672364 
L 87.0869 249.778195 
L 88.857485 247.330581 
L 90.628071 245.305836 
L 92.103559 243.922506 
L 93.579047 242.798263 
L 95.054534 241.916585 
L 96.530022 241.260934 
L 98.00551 240.814997 
L 99.776096 240.534335 
L 101.546681 240.506346 
L 103.317266 240.705937 
L 105.087852 241.10951 
L 107.153535 241.80885 
L 109.514315 242.870183 
L 112.170194 244.34671 
L 115.121169 246.274389 
L 118.367243 248.669502 
L 122.203511 251.775496 
L 127.22017 256.135848 
L 135.482902 263.666062 
L 147.581902 274.658835 
L 154.959342 281.050528 
L 161.746586 286.632728 
L 168.238732 291.678664 
L 174.435781 296.220278 
L 180.63283 300.495164 
L 186.829879 304.510267 
L 193.322026 308.448827 
L 199.814173 312.126668 
L 206.601417 315.708521 
L 209.552392 317.142785 
L 210.142588 317.100306 
L 210.732783 316.758035 
L 211.322978 316.149182 
L 212.208271 314.802184 
L 213.093563 313.016314 
L 214.273954 310.092005 
L 215.749442 305.792226 
L 217.815125 299.030016 
L 225.192564 274.212547 
L 227.553344 267.331881 
L 229.619027 261.970074 
L 231.68471 257.258114 
L 233.455296 253.739803 
L 235.225881 250.692243 
L 236.996467 248.098225 
L 238.767052 245.93536 
L 240.24254 244.44383 
L 241.718028 243.217924 
L 243.193516 242.24121 
L 244.669004 241.497123 
L 246.144491 240.969235 
L 247.619979 240.641459 
L 249.390565 240.490358 
L 251.16115 240.579205 
L 252.931736 240.88364 
L 254.997419 241.480936 
L 257.063102 242.30716 
L 259.423882 243.492637 
L 262.07976 245.085093 
L 265.030736 247.115876 
L 268.571907 249.83396 
L 272.998371 253.538745 
L 278.900322 258.796711 
L 300.737542 278.53146 
L 307.524787 284.243206 
L 314.016933 289.421429 
L 320.213982 294.091134 
L 326.411031 298.49242 
L 332.60808 302.630132 
L 339.100227 306.691732 
L 345.592373 310.486337 
L 352.08452 314.027997 
L 357.986471 317.040445 
L 358.576667 317.161205 
L 359.166862 316.964504 
L 359.757057 316.484963 
L 360.347252 315.75443 
L 361.232545 314.25141 
L 362.412935 311.62263 
L 363.888423 307.582187 
L 365.659008 302.002454 
L 368.905082 290.863781 
L 372.74135 277.922978 
L 375.102131 270.676691 
L 377.167814 264.955675 
L 379.233497 259.870337 
L 381.004082 256.032258 
L 382.774667 252.672364 
L 384.545253 249.778195 
L 386.315838 247.330581 
L 388.086424 245.305837 
L 389.561912 243.922506 
L 391.0374 242.798263 
L 392.512887 241.916585 
L 393.988375 241.260934 
L 395.463863 240.814997 
L 397.234449 240.534335 
L 399.005034 240.506346 
L 400.775619 240.705937 
L 402.546205 241.10951 
L 404.611888 241.80885 
L 406.972668 242.870183 
L 409.628547 244.34671 
L 412.579522 246.274389 
L 415.825596 248.669502 
L 419.661864 251.775496 
L 424.678523 256.135848 
L 432.941255 263.666062 
L 445.040255 274.658835 
L 452.417695 281.050528 
L 459.204939 286.632728 
L 465.697085 291.678664 
L 471.894134 296.220278 
L 478.091183 300.495163 
L 484.288232 304.510267 
L 490.780379 308.448827 
L 497.272526 312.126668 
L 504.05977 315.708521 
L 506.715648 317.040445 
L 506.715648 317.040445 
" clip-path="url(#p8dd8c07674)" style="fill: none; stroke: #2ca02c; stroke-width: 1.5; stroke-linecap: square"/>
   </g>
   <g id="line2d_44">
    <path d="M 60.528118 278.539675 
L 62.003606 278.956152 
L 63.479094 279.133038 
L 64.954582 279.101252 
L 66.725167 278.826947 
L 68.495753 278.335839 
L 70.561436 277.539971 
L 72.922216 276.401306 
L 75.873192 274.732733 
L 80.299656 271.937078 
L 90.628071 265.315361 
L 94.759437 262.961302 
L 98.595705 261.01858 
L 102.136876 259.456756 
L 105.678047 258.127426 
L 109.219218 257.032764 
L 112.760389 256.16924 
L 116.30156 255.529174 
L 119.84273 255.101964 
L 123.678999 254.864766 
L 127.515267 254.845114 
L 131.646633 255.046241 
L 136.073097 255.491995 
L 140.794658 256.199499 
L 145.811317 257.178604 
L 151.418171 258.507138 
L 157.61522 260.210826 
L 164.697561 262.394049 
L 173.255391 265.275807 
L 184.469099 269.304966 
L 208.372002 278.211053 
L 210.437685 278.893067 
L 211.913173 279.115301 
L 213.388661 279.122917 
L 215.159246 278.88883 
L 216.929832 278.431055 
L 218.995515 277.666425 
L 221.356295 276.554735 
L 224.307271 274.908917 
L 228.438637 272.321306 
L 239.947442 264.964214 
L 244.078808 262.646276 
L 247.915077 260.742437 
L 251.456248 259.218914 
L 254.997419 257.92872 
L 258.53859 256.872955 
L 262.07976 256.0473 
L 265.620931 255.44351 
L 269.4572 255.026981 
L 273.293468 254.841581 
L 277.424834 254.88001 
L 281.5562 255.142918 
L 285.982664 255.647636 
L 290.704225 256.410107 
L 296.015981 257.506018 
L 301.622835 258.892338 
L 308.114982 260.735598 
L 315.492421 263.068727 
L 324.640446 266.209768 
L 337.034544 270.721786 
L 359.461959 278.956152 
L 360.937447 279.133038 
L 362.412935 279.101252 
L 364.18352 278.826947 
L 365.954106 278.335839 
L 368.019789 277.539971 
L 370.380569 276.401306 
L 373.331545 274.732733 
L 377.758009 271.937078 
L 388.086424 265.315361 
L 392.21779 262.961303 
L 396.054058 261.01858 
L 399.595229 259.456756 
L 403.1364 258.127426 
L 406.677571 257.032764 
L 410.218742 256.16924 
L 413.759913 255.529174 
L 417.301083 255.101964 
L 421.137352 254.864766 
L 424.97362 254.845114 
L 429.104986 255.046241 
L 433.53145 255.491995 
L 438.253011 256.199499 
L 443.26967 257.178604 
L 448.876524 258.507138 
L 455.073573 260.210826 
L 462.155914 262.394049 
L 470.713744 265.275807 
L 481.927452 269.304966 
L 505.830355 278.211053 
L 506.715648 278.539675 
L 506.715648 278.539675 
" clip-path="url(#p8dd8c07674)" style="fill: none; stroke: #9467bd; stroke-width: 1.5; stroke-linecap: square"/>
   </g>
   <g id="line2d_45">
    <path d="M 60.528118 302.133148 
L 62.003606 288.299951 
L 63.479094 276.903486 
L 64.954582 267.553416 
L 66.134972 261.322939 
L 67.315363 256.045451 
L 68.495753 251.595507 
L 69.676143 247.864042 
L 70.856533 244.756238 
L 72.036924 242.189659 
L 73.217314 240.092639 
L 74.397704 238.402873 
L 75.578095 237.066199 
L 76.758485 236.035529 
L 77.938875 235.269932 
L 79.119265 234.733825 
L 80.594753 234.339684 
L 82.070241 234.20442 
L 83.545729 234.284669 
L 85.316315 234.614629 
L 87.381998 235.257253 
L 89.742778 236.252325 
L 92.398656 237.615299 
L 95.939827 239.704381 
L 100.661388 242.774004 
L 109.514315 248.856955 
L 121.318218 256.898853 
L 130.171146 262.650005 
L 138.433878 267.757019 
L 146.69661 272.610085 
L 155.254439 277.376818 
L 163.812269 281.891009 
L 172.665196 286.308537 
L 181.813221 290.618232 
L 190.961245 294.683114 
L 200.404368 298.63703 
L 209.257295 302.133148 
L 210.732783 288.299952 
L 212.208271 276.903487 
L 213.683759 267.553416 
L 214.864149 261.322939 
L 216.044539 256.045452 
L 217.224929 251.595507 
L 218.40532 247.864043 
L 219.58571 244.756238 
L 220.7661 242.189659 
L 221.946491 240.092639 
L 223.126881 238.402874 
L 224.307271 237.066199 
L 225.487661 236.035529 
L 226.668052 235.269932 
L 227.848442 234.733825 
L 229.32393 234.339684 
L 230.799418 234.20442 
L 232.274906 234.284669 
L 234.045491 234.614629 
L 236.111174 235.257253 
L 238.471955 236.252325 
L 241.127833 237.615299 
L 244.669004 239.704381 
L 249.390565 242.774003 
L 258.243492 248.856955 
L 270.047395 256.898853 
L 278.900322 262.650004 
L 287.163054 267.757019 
L 295.425786 272.610085 
L 303.983616 277.376818 
L 312.541445 281.891009 
L 321.394372 286.308537 
L 330.542397 290.618232 
L 339.690422 294.683113 
L 349.133544 298.63703 
L 357.986471 302.133148 
L 359.461959 288.299953 
L 360.937447 276.903488 
L 362.412935 267.553417 
L 363.593325 261.32294 
L 364.773716 256.045452 
L 365.954106 251.595508 
L 367.134496 247.864043 
L 368.314886 244.756238 
L 369.495277 242.189659 
L 370.675667 240.092639 
L 371.856057 238.402874 
L 373.036448 237.066199 
L 374.216838 236.035529 
L 375.397228 235.269932 
L 376.577618 234.733825 
L 378.053106 234.339684 
L 379.528594 234.20442 
L 381.004082 234.284669 
L 382.774667 234.614629 
L 384.84035 235.257253 
L 387.201131 236.252324 
L 389.857009 237.615299 
L 393.39818 239.704381 
L 398.119741 242.774003 
L 406.972668 248.856955 
L 418.776571 256.898853 
L 427.629498 262.650004 
L 435.892231 267.757019 
L 444.154963 272.610085 
L 452.712792 277.376818 
L 461.270622 281.891009 
L 470.123549 286.308536 
L 479.271574 290.618232 
L 488.419598 294.683113 
L 497.862721 298.63703 
L 506.715648 302.133148 
L 506.715648 302.133148 
" clip-path="url(#p8dd8c07674)" style="fill: none; stroke: #bcbd22; stroke-width: 1.5; stroke-linecap: square"/>
   </g>
   <g id="line2d_46">
    <path d="M 60.528118 269.379667 
L 62.888899 270.015819 
L 65.544777 270.492077 
L 68.200655 270.746351 
L 71.151631 270.804824 
L 74.397704 270.639474 
L 77.938875 270.234935 
L 82.070241 269.532795 
L 87.0869 268.441769 
L 94.169242 266.643295 
L 110.989803 262.281281 
L 117.777047 260.801625 
L 123.678999 259.733191 
L 129.285853 258.931715 
L 134.892707 258.351907 
L 140.499561 257.999968 
L 146.106414 257.876468 
L 151.713268 257.977549 
L 157.320122 258.295937 
L 163.222074 258.854989 
L 169.419123 259.674332 
L 175.911269 260.768911 
L 182.698513 262.148437 
L 189.780855 263.817032 
L 197.453392 265.855492 
L 206.011222 268.369382 
L 211.913173 270.080693 
L 214.569051 270.530721 
L 217.224929 270.762227 
L 220.175905 270.799092 
L 223.421978 270.61401 
L 226.963149 270.192235 
L 231.094515 269.474927 
L 236.111174 268.37157 
L 243.193516 266.564861 
L 259.423882 262.350892 
L 266.211126 260.860691 
L 272.408175 259.733191 
L 278.015029 258.931715 
L 283.621883 258.351907 
L 289.228737 257.999968 
L 294.835591 257.876468 
L 300.442445 257.977549 
L 306.049299 258.295937 
L 311.95125 258.854989 
L 318.148299 259.674332 
L 324.640446 260.768911 
L 331.42769 262.148437 
L 338.510032 263.817031 
L 346.182569 265.855492 
L 354.740398 268.369382 
L 360.64235 270.080693 
L 363.298228 270.530721 
L 365.954106 270.762227 
L 368.905082 270.799092 
L 372.151155 270.61401 
L 375.692326 270.192235 
L 379.823692 269.474927 
L 384.84035 268.37157 
L 391.922692 266.564861 
L 408.153059 262.350892 
L 414.940303 260.860691 
L 421.137352 259.733191 
L 426.744206 258.931715 
L 432.35106 258.351907 
L 437.957914 257.999968 
L 443.564767 257.876468 
L 449.171621 257.977549 
L 454.778475 258.295937 
L 460.680427 258.854989 
L 466.877476 259.674332 
L 473.369622 260.768911 
L 480.156866 262.148437 
L 487.239208 263.817031 
L 494.911745 265.855492 
L 503.469575 268.369382 
L 506.715648 269.379667 
L 506.715648 269.379667 
" clip-path="url(#p8dd8c07674)" style="fill: none; stroke: #1f77b4; stroke-width: 1.5; stroke-linecap: square"/>
   </g>
   <g id="line2d_47">
    <path d="M 60.528118 267.348836 
L 77.053582 266.679288 
L 94.464339 266.197743 
L 112.760389 265.915043 
L 132.236829 265.839336 
L 152.893659 265.984446 
L 175.025977 266.366266 
L 198.633782 266.997767 
L 210.732783 267.27998 
L 227.258247 266.629759 
L 244.669004 266.166656 
L 262.965053 265.90138 
L 282.441493 265.842219 
L 303.098323 266.002839 
L 325.230641 266.399186 
L 349.133544 267.05343 
L 359.461959 267.279873 
L 375.987423 266.629654 
L 393.39818 266.166553 
L 411.69423 265.901279 
L 431.170669 265.84212 
L 451.827499 266.002743 
L 473.959817 266.399092 
L 497.862721 267.053339 
L 506.715648 267.348511 
L 506.715648 267.348511 
" clip-path="url(#p8dd8c07674)" style="fill: none; stroke: #e377c2; stroke-width: 1.5; stroke-linecap: square"/>
   </g>
   <g id="patch_5">
    <path d="M 60.528125 362.158125 
L 60.528125 29.518125 
" style="fill: none; stroke: #000000; stroke-width: 0.8; stroke-linejoin: miter; stroke-linecap: square"/>
   </g>
   <g id="patch_6">
    <path d="M 506.928125 362.158125 
L 506.928125 29.518125 
" style="fill: none; stroke: #000000; stroke-width: 0.8; stroke-linejoin: miter; stroke-linecap: square"/>
   </g>
   <g id="patch_7">
    <path d="M 60.528125 362.158125 
L 506.928125 362.158125 
" style="fill: none; stroke: #000000; stroke-width: 0.8; stroke-linejoin: miter; stroke-linecap: square"/>
   </g>
   <g id="patch_8">
    <path d="M 60.528125 29.518125 
L 506.928125 29.518125 
" style="fill: none; stroke: #000000; stroke-width: 0.8; stroke-linejoin: miter; stroke-linecap: square"/>
   </g>
   <g id="text_45">
    <!-- All estradiol esters at steady state (scaled to 5 mg/7 days or equivalent) -->
    <g transform="translate(66.095 23.518125)scale(0.12 -0.12)">
     <defs>
      <path id="DejaVuSans-41" d="M 2188 4044 
L 1331 1722 
L 3047 1722 
L 2188 4044 
z
M 1831 4666 
L 2547 4666 
L 4325 0 
L 3669 0 
L 3244 1197 
L 1141 1197 
L 716 0 
L 50 0 
L 1831 4666 
z
" transform="scale(0.015625)"/>
      <path id="DejaVuSans-71" d="M 947 1747 
Q 947 1113 1208 752 
Q 1469 391 1925 391 
Q 2381 391 2643 752 
Q 2906 1113 2906 1747 
Q 2906 2381 2643 2742 
Q 2381 3103 1925 3103 
Q 1469 3103 1208 2742 
Q 947 2381 947 1747 
z
M 2906 525 
Q 2725 213 2448 61 
Q 2172 -91 1784 -91 
Q 1150 -91 751 415 
Q 353 922 353 1747 
Q 353 2572 751 3078 
Q 1150 3584 1784 3584 
Q 2172 3584 2448 3432 
Q 2725 3281 2906 2969 
L 2906 3500 
L 3481 3500 
L 3481 -1331 
L 2906 -1331 
L 2906 525 
z
" transform="scale(0.015625)"/>
      <path id="DejaVuSans-75" d="M 544 1381 
L 544 3500 
L 1119 3500 
L 1119 1403 
Q 1119 906 1312 657 
Q 1506 409 1894 409 
Q 2359 409 2629 706 
Q 2900 1003 2900 1516 
L 2900 3500 
L 3475 3500 
L 3475 0 
L 2900 0 
L 2900 538 
Q 2691 219 2414 64 
Q 2138 -91 1772 -91 
Q 1169 -91 856 284 
Q 544 659 544 1381 
z
M 1991 3584 
L 1991 3584 
z
" transform="scale(0.015625)"/>
      <path id="DejaVuSans-76" d="M 191 3500 
L 800 3500 
L 1894 563 
L 2988 3500 
L 3597 3500 
L 2284 0 
L 1503 0 
L 191 3500 
z
" transform="scale(0.015625)"/>
     </defs>
     <use xlink:href="#DejaVuSans-41"/>
     <use xlink:href="#DejaVuSans-6c" x="68.408203"/>
     <use xlink:href="#DejaVuSans-6c" x="96.191406"/>
     <use xlink:href="#DejaVuSans-20" x="123.974609"/>
     <use xlink:href="#DejaVuSans-65" x="155.761719"/>
     <use xlink:href="#DejaVuSans-73" x="217.285156"/>
     <use xlink:href="#DejaVuSans-74" x="269.384766"/>
     <use xlink:href="#DejaVuSans-72" x="308.59375"/>
     <use xlink:href="#DejaVuSans-61" x="349.707031"/>
     <use xlink:href="#DejaVuSans-64" x="410.986328"/>
     <use xlink:href="#DejaVuSans-69" x="474.462891"/>
     <use xlink:href="#DejaVuSans-6f" x="502.246094"/>
     <use xlink:href="#DejaVuSans-6c" x="563.427734"/>
     <use xlink:href="#DejaVuSans-20" x="591.210938"/>
     <use xlink:href="#DejaVuSans-65" x="622.998047"/>
     <use xlink:href="#DejaVuSans-73" x="684.521484"/>
     <use xlink:href="#DejaVuSans-74" x="736.621094"/>
     <use xlink:href="#DejaVuSans-65" x="775.830078"/>
     <use xlink:href="#DejaVuSans-72" x="837.353516"/>
     <use xlink:href="#DejaVuSans-73" x="878.466797"/>
     <use xlink:href="#DejaVuSans-20" x="930.566406"/>
     <use xlink:href="#DejaVuSans-61" x="962.353516"/>
     <use xlink:href="#DejaVuSans-74" x="1023.632812"/>
     <use xlink:href="#DejaVuSans-20" x="1062.841797"/>
     <use xlink:href="#DejaVuSans-73" x="1094.628906"/>
     <use xlink:href="#DejaVuSans-74" x="1146.728516"/>
     <use xlink:href="#DejaVuSans-65" x="1185.9375"/>
     <use xlink:href="#DejaVuSans-61" x="1247.460938"/>
     <use xlink:href="#DejaVuSans-64" x="1308.740234"/>
     <use xlink:href="#DejaVuSans-79" x="1372.216797"/>
     <use xlink:href="#DejaVuSans-20" x="1431.396484"/>
     <use xlink:href="#DejaVuSans-73" x="1463.183594"/>
     <use xlink:href="#DejaVuSans-74" x="1515.283203"/>
     <use xlink:href="#DejaVuSans-61" x="1554.492188"/>
     <use xlink:href="#DejaVuSans-74" x="1615.771484"/>
     <use xlink:href="#DejaVuSans-65" x="1654.980469"/>
     <use xlink:href="#DejaVuSans-20" x="1716.503906"/>
     <use xlink:href="#DejaVuSans-28" x="1748.291016"/>
     <use xlink:href="#DejaVuSans-73" x="1787.304688"/>
     <use xlink:href="#DejaVuSans-63" x="1839.404297"/>
     <use xlink:href="#DejaVuSans-61" x="1894.384766"/>
     <use xlink:href="#DejaVuSans-6c" x="1955.664062"/>
     <use xlink:href="#DejaVuSans-65" x="1983.447266"/>
     <use xlink:href="#DejaVuSans-64" x="2044.970703"/>
     <use xlink:href="#DejaVuSans-20" x="2108.447266"/>
     <use xlink:href="#DejaVuSans-74" x="2140.234375"/>
     <use xlink:href="#DejaVuSans-6f" x="2179.443359"/>
     <use xlink:href="#DejaVuSans-20" x="2240.625"/>
     <use xlink:href="#DejaVuSans-35" x="2272.412109"/>
     <use xlink:href="#DejaVuSans-20" x="2336.035156"/>
     <use xlink:href="#DejaVuSans-6d" x="2367.822266"/>
     <use xlink:href="#DejaVuSans-67" x="2465.234375"/>
     <use xlink:href="#DejaVuSans-2f" x="2528.710938"/>
     <use xlink:href="#DejaVuSans-37" x="2562.402344"/>
     <use xlink:href="#DejaVuSans-20" x="2626.025391"/>
     <use xlink:href="#DejaVuSans-64" x="2657.8125"/>
     <use xlink:href="#DejaVuSans-61" x="2721.289062"/>
     <use xlink:href="#DejaVuSans-79" x="2782.568359"/>
     <use xlink:href="#DejaVuSans-73" x="2841.748047"/>
     <use xlink:href="#DejaVuSans-20" x="2893.847656"/>
     <use xlink:href="#DejaVuSans-6f" x="2925.634766"/>
     <use xlink:href="#DejaVuSans-72" x="2986.816406"/>
     <use xlink:href="#DejaVuSans-20" x="3027.929688"/>
     <use xlink:href="#DejaVuSans-65" x="3059.716797"/>
     <use xlink:href="#DejaVuSans-71" x="3121.240234"/>
     <use xlink:href="#DejaVuSans-75" x="3184.716797"/>
     <use xlink:href="#DejaVuSans-69" x="3248.095703"/>
     <use xlink:href="#DejaVuSans-76" x="3275.878906"/>
     <use xlink:href="#DejaVuSans-61" x="3335.058594"/>
     <use xlink:href="#DejaVuSans-6c" x="3396.337891"/>
     <use xlink:href="#DejaVuSans-65" x="3424.121094"/>
     <use xlink:href="#DejaVuSans-6e" x="3485.644531"/>
     <use xlink:href="#DejaVuSans-74" x="3549.023438"/>
     <use xlink:href="#DejaVuSans-29" x="3588.232422"/>
    </g>
   </g>
   <g id="legend_1">
    <g id="patch_9">
     <path d="M 266.595312 125.586875 
L 499.928125 125.586875 
Q 501.928125 125.586875 501.928125 123.586875 
L 501.928125 36.518125 
Q 501.928125 34.518125 499.928125 34.518125 
L 266.595312 34.518125 
Q 264.595312 34.518125 264.595312 36.518125 
L 264.595312 123.586875 
Q 264.595312 125.586875 266.595312 125.586875 
z
" style="fill: #ffffff; opacity: 0.95; stroke: #cccccc; stroke-linejoin: miter"/>
    </g>
    <g id="line2d_48">
     <path d="M 268.595312 42.616563 
L 278.595312 42.616563 
L 288.595312 42.616563 
" style="fill: none; stroke: #d62728; stroke-width: 1.5; stroke-linecap: square"/>
    </g>
    <g id="text_46">
     <!-- Estradiol benzoate 5 mg/7 days -->
     <g transform="translate(296.595312 46.116563)scale(0.1 -0.1)">
      <defs>
       <path id="DejaVuSans-62" d="M 3116 1747 
Q 3116 2381 2855 2742 
Q 2594 3103 2138 3103 
Q 1681 3103 1420 2742 
Q 1159 2381 1159 1747 
Q 1159 1113 1420 752 
Q 1681 391 2138 391 
Q 2594 391 2855 752 
Q 3116 1113 3116 1747 
z
M 1159 2969 
Q 1341 3281 1617 3432 
Q 1894 3584 2278 3584 
Q 2916 3584 3314 3078 
Q 3713 2572 3713 1747 
Q 3713 922 3314 415 
Q 2916 -91 2278 -91 
Q 1894 -91 1617 61 
Q 1341 213 1159 525 
L 1159 0 
L 581 0 
L 581 4863 
L 1159 4863 
L 1159 2969 
z
" transform="scale(0.015625)"/>
       <path id="DejaVuSans-7a" d="M 353 3500 
L 3084 3500 
L 3084 2975 
L 922 459 
L 3084 459 
L 3084 0 
L 275 0 
L 275 525 
L 2438 3041 
L 353 3041 
L 353 3500 
z
" transform="scale(0.015625)"/>
      </defs>
      <use xlink:href="#DejaVuSans-45"/>
      <use xlink:href="#DejaVuSans-73" x="63.183594"/>
      <use xlink:href="#DejaVuSans-74" x="115.283203"/>
      <use xlink:href="#DejaVuSans-72" x="154.492188"/>
      <use xlink:href="#DejaVuSans-61" x="195.605469"/>
      <use xlink:href="#DejaVuSans-64" x="256.884766"/>
      <use xlink:href="#DejaVuSans-69" x="320.361328"/>
      <use xlink:href="#DejaVuSans-6f" x="348.144531"/>
      <use xlink:href="#DejaVuSans-6c" x="409.326172"/>
      <use xlink:href="#DejaVuSans-20" x="437.109375"/>
      <use xlink:href="#DejaVuSans-62" x="468.896484"/>
      <use xlink:href="#DejaVuSans-65" x="532.373047"/>
      <use xlink:href="#DejaVuSans-6e" x="593.896484"/>
      <use xlink:href="#DejaVuSans-7a" x="657.275391"/>
      <use xlink:href="#DejaVuSans-6f" x="709.765625"/>
      <use xlink:href="#DejaVuSans-61" x="770.947266"/>
      <use xlink:href="#DejaVuSans-74" x="832.226562"/>
      <use xlink:href="#DejaVuSans-65" x="871.435547"/>
      <use xlink:href="#DejaVuSans-20" x="932.958984"/>
      <use xlink:href="#DejaVuSans-35" x="964.746094"/>
      <use xlink:href="#DejaVuSans-20" x="1028.369141"/>
      <use xlink:href="#DejaVuSans-6d" x="1060.15625"/>
      <use xlink:href="#DejaVuSans-67" x="1157.568359"/>
      <use xlink:href="#DejaVuSans-2f" x="1221.044922"/>
      <use xlink:href="#DejaVuSans-37" x="1254.736328"/>
      <use xlink:href="#DejaVuSans-20" x="1318.359375"/>
      <use xlink:href="#DejaVuSans-64" x="1350.146484"/>
      <use xlink:href="#DejaVuSans-61" x="1413.623047"/>
      <use xlink:href="#DejaVuSans-79" x="1474.902344"/>
      <use xlink:href="#DejaVuSans-73" x="1534.082031"/>
     </g>
    </g>
    <g id="line2d_49">
     <path d="M 268.595312 57.294688 
L 278.595312 57.294688 
L 288.595312 57.294688 
" style="fill: none; stroke: #2ca02c; stroke-width: 1.5; stroke-linecap: square"/>
    </g>
    <g id="text_47">
     <!-- Estradiol valerate 5 mg/7 days -->
     <g transform="translate(296.595312 60.794688)scale(0.1 -0.1)">
      <use xlink:href="#DejaVuSans-45"/>
      <use xlink:href="#DejaVuSans-73" x="63.183594"/>
      <use xlink:href="#DejaVuSans-74" x="115.283203"/>
      <use xlink:href="#DejaVuSans-72" x="154.492188"/>
      <use xlink:href="#DejaVuSans-61" x="195.605469"/>
      <use xlink:href="#DejaVuSans-64" x="256.884766"/>
      <use xlink:href="#DejaVuSans-69" x="320.361328"/>
      <use xlink:href="#DejaVuSans-6f" x="348.144531"/>
      <use xlink:href="#DejaVuSans-6c" x="409.326172"/>
      <use xlink:href="#DejaVuSans-20" x="437.109375"/>
      <use xlink:href="#DejaVuSans-76" x="468.896484"/>
      <use xlink:href="#DejaVuSans-61" x="528.076172"/>
      <use xlink:href="#DejaVuSans-6c" x="589.355469"/>
      <use xlink:href="#DejaVuSans-65" x="617.138672"/>
      <use xlink:href="#DejaVuSans-72" x="678.662109"/>
      <use xlink:href="#DejaVuSans-61" x="719.775391"/>
      <use xlink:href="#DejaVuSans-74" x="781.054688"/>
      <use xlink:href="#DejaVuSans-65" x="820.263672"/>
      <use xlink:href="#DejaVuSans-20" x="881.787109"/>
      <use xlink:href="#DejaVuSans-35" x="913.574219"/>
      <use xlink:href="#DejaVuSans-20" x="977.197266"/>
      <use xlink:href="#DejaVuSans-6d" x="1008.984375"/>
      <use xlink:href="#DejaVuSans-67" x="1106.396484"/>
      <use xlink:href="#DejaVuSans-2f" x="1169.873047"/>
      <use xlink:href="#DejaVuSans-37" x="1203.564453"/>
      <use xlink:href="#DejaVuSans-20" x="1267.1875"/>
      <use xlink:href="#DejaVuSans-64" x="1298.974609"/>
      <use xlink:href="#DejaVuSans-61" x="1362.451172"/>
      <use xlink:href="#DejaVuSans-79" x="1423.730469"/>
      <use xlink:href="#DejaVuSans-73" x="1482.910156"/>
     </g>
    </g>
    <g id="line2d_50">
     <path d="M 268.595312 71.972813 
L 278.595312 71.972813 
L 288.595312 71.972813 
" style="fill: none; stroke: #9467bd; stroke-width: 1.5; stroke-linecap: square"/>
    </g>
    <g id="text_48">
     <!-- Estradiol cypionate oil 5 mg/7 days -->
     <g transform="translate(296.595312 75.472813)scale(0.1 -0.1)">
      <use xlink:href="#DejaVuSans-45"/>
      <use xlink:href="#DejaVuSans-73" x="63.183594"/>
      <use xlink:href="#DejaVuSans-74" x="115.283203"/>
      <use xlink:href="#DejaVuSans-72" x="154.492188"/>
      <use xlink:href="#DejaVuSans-61" x="195.605469"/>
      <use xlink:href="#DejaVuSans-64" x="256.884766"/>
      <use xlink:href="#DejaVuSans-69" x="320.361328"/>
      <use xlink:href="#DejaVuSans-6f" x="348.144531"/>
      <use xlink:href="#DejaVuSans-6c" x="409.326172"/>
      <use xlink:href="#DejaVuSans-20" x="437.109375"/>
      <use xlink:href="#DejaVuSans-63" x="468.896484"/>
      <use xlink:href="#DejaVuSans-79" x="523.876953"/>
      <use xlink:href="#DejaVuSans-70" x="583.056641"/>
      <use xlink:href="#DejaVuSans-69" x="646.533203"/>
      <use xlink:href="#DejaVuSans-6f" x="674.316406"/>
      <use xlink:href="#DejaVuSans-6e" x="735.498047"/>
      <use xlink:href="#DejaVuSans-61" x="798.876953"/>
      <use xlink:href="#DejaVuSans-74" x="860.15625"/>
      <use xlink:href="#DejaVuSans-65" x="899.365234"/>
      <use xlink:href="#DejaVuSans-20" x="960.888672"/>
      <use xlink:href="#DejaVuSans-6f" x="992.675781"/>
      <use xlink:href="#DejaVuSans-69" x="1053.857422"/>
      <use xlink:href="#DejaVuSans-6c" x="1081.640625"/>
      <use xlink:href="#DejaVuSans-20" x="1109.423828"/>
      <use xlink:href="#DejaVuSans-35" x="1141.210938"/>
      <use xlink:href="#DejaVuSans-20" x="1204.833984"/>
      <use xlink:href="#DejaVuSans-6d" x="1236.621094"/>
      <use xlink:href="#DejaVuSans-67" x="1334.033203"/>
      <use xlink:href="#DejaVuSans-2f" x="1397.509766"/>
      <use xlink:href="#DejaVuSans-37" x="1431.201172"/>
      <use xlink:href="#DejaVuSans-20" x="1494.824219"/>
      <use xlink:href="#DejaVuSans-64" x="1526.611328"/>
      <use xlink:href="#DejaVuSans-61" x="1590.087891"/>
      <use xlink:href="#DejaVuSans-79" x="1651.367188"/>
      <use xlink:href="#DejaVuSans-73" x="1710.546875"/>
     </g>
    </g>
    <g id="line2d_51">
     <path d="M 268.595312 86.650938 
L 278.595312 86.650938 
L 288.595312 86.650938 
" style="fill: none; stroke: #bcbd22; stroke-width: 1.5; stroke-linecap: square"/>
    </g>
    <g id="text_49">
     <!-- Estradiol cypionate susp. 5 mg/7 days -->
     <g transform="translate(296.595312 90.150938)scale(0.1 -0.1)">
      <defs>
       <path id="DejaVuSans-2e" d="M 684 794 
L 1344 794 
L 1344 0 
L 684 0 
L 684 794 
z
" transform="scale(0.015625)"/>
      </defs>
      <use xlink:href="#DejaVuSans-45"/>
      <use xlink:href="#DejaVuSans-73" x="63.183594"/>
      <use xlink:href="#DejaVuSans-74" x="115.283203"/>
      <use xlink:href="#DejaVuSans-72" x="154.492188"/>
      <use xlink:href="#DejaVuSans-61" x="195.605469"/>
      <use xlink:href="#DejaVuSans-64" x="256.884766"/>
      <use xlink:href="#DejaVuSans-69" x="320.361328"/>
      <use xlink:href="#DejaVuSans-6f" x="348.144531"/>
      <use xlink:href="#DejaVuSans-6c" x="409.326172"/>
      <use xlink:href="#DejaVuSans-20" x="437.109375"/>
      <use xlink:href="#DejaVuSans-63" x="468.896484"/>
      <use xlink:href="#DejaVuSans-79" x="523.876953"/>
      <use xlink:href="#DejaVuSans-70" x="583.056641"/>
      <use xlink:href="#DejaVuSans-69" x="646.533203"/>
      <use xlink:href="#DejaVuSans-6f" x="674.316406"/>
      <use xlink:href="#DejaVuSans-6e" x="735.498047"/>
      <use xlink:href="#DejaVuSans-61" x="798.876953"/>
      <use xlink:href="#DejaVuSans-74" x="860.15625"/>
      <use xlink:href="#DejaVuSans-65" x="899.365234"/>
      <use xlink:href="#DejaVuSans-20" x="960.888672"/>
      <use xlink:href="#DejaVuSans-73" x="992.675781"/>
      <use xlink:href="#DejaVuSans-75" x="1044.775391"/>
      <use xlink:href="#DejaVuSans-73" x="1108.154297"/>
      <use xlink:href="#DejaVuSans-70" x="1160.253906"/>
      <use xlink:href="#DejaVuSans-2e" x="1223.730469"/>
      <use xlink:href="#DejaVuSans-20" x="1255.517578"/>
      <use xlink:href="#DejaVuSans-35" x="1287.304688"/>
      <use xlink:href="#DejaVuSans-20" x="1350.927734"/>
      <use xlink:href="#DejaVuSans-6d" x="1382.714844"/>
      <use xlink:href="#DejaVuSans-67" x="1480.126953"/>
      <use xlink:href="#DejaVuSans-2f" x="1543.603516"/>
      <use xlink:href="#DejaVuSans-37" x="1577.294922"/>
      <use xlink:href="#DejaVuSans-20" x="1640.917969"/>
      <use xlink:href="#DejaVuSans-64" x="1672.705078"/>
      <use xlink:href="#DejaVuSans-61" x="1736.181641"/>
      <use xlink:href="#DejaVuSans-79" x="1797.460938"/>
      <use xlink:href="#DejaVuSans-73" x="1856.640625"/>
     </g>
    </g>
    <g id="line2d_52">
     <path d="M 268.595312 101.329063 
L 278.595312 101.329063 
L 288.595312 101.329063 
" style="fill: none; stroke: #1f77b4; stroke-width: 1.5; stroke-linecap: square"/>
    </g>
    <g id="text_50">
     <!-- Estradiol enanthate 5 mg/7 days -->
     <g transform="translate(296.595312 104.829063)scale(0.1 -0.1)">
      <defs>
       <path id="DejaVuSans-68" d="M 3513 2113 
L 3513 0 
L 2938 0 
L 2938 2094 
Q 2938 2591 2744 2837 
Q 2550 3084 2163 3084 
Q 1697 3084 1428 2787 
Q 1159 2491 1159 1978 
L 1159 0 
L 581 0 
L 581 4863 
L 1159 4863 
L 1159 2956 
Q 1366 3272 1645 3428 
Q 1925 3584 2291 3584 
Q 2894 3584 3203 3211 
Q 3513 2838 3513 2113 
z
" transform="scale(0.015625)"/>
      </defs>
      <use xlink:href="#DejaVuSans-45"/>
      <use xlink:href="#DejaVuSans-73" x="63.183594"/>
      <use xlink:href="#DejaVuSans-74" x="115.283203"/>
      <use xlink:href="#DejaVuSans-72" x="154.492188"/>
      <use xlink:href="#DejaVuSans-61" x="195.605469"/>
      <use xlink:href="#DejaVuSans-64" x="256.884766"/>
      <use xlink:href="#DejaVuSans-69" x="320.361328"/>
      <use xlink:href="#DejaVuSans-6f" x="348.144531"/>
      <use xlink:href="#DejaVuSans-6c" x="409.326172"/>
      <use xlink:href="#DejaVuSans-20" x="437.109375"/>
      <use xlink:href="#DejaVuSans-65" x="468.896484"/>
      <use xlink:href="#DejaVuSans-6e" x="530.419922"/>
      <use xlink:href="#DejaVuSans-61" x="593.798828"/>
      <use xlink:href="#DejaVuSans-6e" x="655.078125"/>
      <use xlink:href="#DejaVuSans-74" x="718.457031"/>
      <use xlink:href="#DejaVuSans-68" x="757.666016"/>
      <use xlink:href="#DejaVuSans-61" x="821.044922"/>
      <use xlink:href="#DejaVuSans-74" x="882.324219"/>
      <use xlink:href="#DejaVuSans-65" x="921.533203"/>
      <use xlink:href="#DejaVuSans-20" x="983.056641"/>
      <use xlink:href="#DejaVuSans-35" x="1014.84375"/>
      <use xlink:href="#DejaVuSans-20" x="1078.466797"/>
      <use xlink:href="#DejaVuSans-6d" x="1110.253906"/>
      <use xlink:href="#DejaVuSans-67" x="1207.666016"/>
      <use xlink:href="#DejaVuSans-2f" x="1271.142578"/>
      <use xlink:href="#DejaVuSans-37" x="1304.833984"/>
      <use xlink:href="#DejaVuSans-20" x="1368.457031"/>
      <use xlink:href="#DejaVuSans-64" x="1400.244141"/>
      <use xlink:href="#DejaVuSans-61" x="1463.720703"/>
      <use xlink:href="#DejaVuSans-79" x="1525"/>
      <use xlink:href="#DejaVuSans-73" x="1584.179688"/>
     </g>
    </g>
    <g id="line2d_53">
     <path d="M 268.595312 116.007188 
L 278.595312 116.007188 
L 288.595312 116.007188 
" style="fill: none; stroke: #e377c2; stroke-width: 1.5; stroke-linecap: square"/>
    </g>
    <g id="text_51">
     <!-- Polyestradiol phosphate 32.5 mg/7 days -->
     <g transform="translate(296.595312 119.507188)scale(0.1 -0.1)">
      <defs>
       <path id="DejaVuSans-50" d="M 1259 4147 
L 1259 2394 
L 2053 2394 
Q 2494 2394 2734 2622 
Q 2975 2850 2975 3272 
Q 2975 3691 2734 3919 
Q 2494 4147 2053 4147 
L 1259 4147 
z
M 628 4666 
L 2053 4666 
Q 2838 4666 3239 4311 
Q 3641 3956 3641 3272 
Q 3641 2581 3239 2228 
Q 2838 1875 2053 1875 
L 1259 1875 
L 1259 0 
L 628 0 
L 628 4666 
z
" transform="scale(0.015625)"/>
      </defs>
      <use xlink:href="#DejaVuSans-50"/>
      <use xlink:href="#DejaVuSans-6f" x="56.677734"/>
      <use xlink:href="#DejaVuSans-6c" x="117.859375"/>
      <use xlink:href="#DejaVuSans-79" x="145.642578"/>
      <use xlink:href="#DejaVuSans-65" x="204.822266"/>
      <use xlink:href="#DejaVuSans-73" x="266.345703"/>
      <use xlink:href="#DejaVuSans-74" x="318.445312"/>
      <use xlink:href="#DejaVuSans-72" x="357.654297"/>
      <use xlink:href="#DejaVuSans-61" x="398.767578"/>
      <use xlink:href="#DejaVuSans-64" x="460.046875"/>
      <use xlink:href="#DejaVuSans-69" x="523.523438"/>
      <use xlink:href="#DejaVuSans-6f" x="551.306641"/>
      <use xlink:href="#DejaVuSans-6c" x="612.488281"/>
      <use xlink:href="#DejaVuSans-20" x="640.271484"/>
      <use xlink:href="#DejaVuSans-70" x="672.058594"/>
      <use xlink:href="#DejaVuSans-68" x="735.535156"/>
      <use xlink:href="#DejaVuSans-6f" x="798.914062"/>
      <use xlink:href="#DejaVuSans-73" x="860.095703"/>
      <use xlink:href="#DejaVuSans-70" x="912.195312"/>
      <use xlink:href="#DejaVuSans-68" x="975.671875"/>
      <use xlink:href="#DejaVuSans-61" x="1039.050781"/>
      <use xlink:href="#DejaVuSans-74" x="1100.330078"/>
      <use xlink:href="#DejaVuSans-65" x="1139.539062"/>
      <use xlink:href="#DejaVuSans-20" x="1201.0625"/>
      <use xlink:href="#DejaVuSans-33" x="1232.849609"/>
      <use xlink:href="#DejaVuSans-32" x="1296.472656"/>
      <use xlink:href="#DejaVuSans-2e" x="1360.095703"/>
      <use xlink:href="#DejaVuSans-35" x="1391.882812"/>
      <use xlink:href="#DejaVuSans-20" x="1455.505859"/>
      <use xlink:href="#DejaVuSans-6d" x="1487.292969"/>
      <use xlink:href="#DejaVuSans-67" x="1584.705078"/>
      <use xlink:href="#DejaVuSans-2f" x="1648.181641"/>
      <use xlink:href="#DejaVuSans-37" x="1681.873047"/>
      <use xlink:href="#DejaVuSans-20" x="1745.496094"/>
      <use xlink:href="#DejaVuSans-64" x="1777.283203"/>
      <use xlink:href="#DejaVuSans-61" x="1840.759766"/>
      <use xlink:href="#DejaVuSans-79" x="1902.039062"/>
      <use xlink:href="#DejaVuSans-73" x="1961.21875"/>
     </g>
    </g>
   </g>
  </g>
 </g>
 <defs>
  <clipPath id="p8dd8c07674">
   <rect x="60.528125" y="29.518125" width="446.4" height="332.64"/>
  </clipPath>
 </defs>
</svg>
