<?xml version="1.0" encoding="utf-8" standalone="no"?>
<!DOCTYPE svg PUBLIC "-//W3C//DTD SVG 1.1//EN"
  "http://www.w3.org/Graphics/SVG/1.1/DTD/svg11.dtd">
<svg xmlns:xlink="http://www.w3.org/1999/xlink" width="561.09375pt" height="406.914375pt" viewBox="0 0 561.09375 406.914375" xmlns="http://www.w3.org/2000/svg" version="1.1">
 <metadata>
  <rdf:RDF xmlns:dc="http://purl.org/dc/elements/1.1/" xmlns:cc="http://creativecommons.org/ns#" xmlns:rdf="http://www.w3.org/1999/02/22-rdf-syntax-ns#">
   <cc:Work>
    <dc:type rdf:resource="http://purl.org/dc/dcmitype/StillImage"/>
    <dc:date>2021-12-27T07:39:06.200913</dc:date>
    <dc:format>image/svg+xml</dc:format>
    <dc:creator>
     <cc:Agent>
      <dc:title>Matplotlib v3.5.1, https://matplotlib.org/</dc:title>
     </cc:Agent>
    </dc:creator>
   </cc:Work>
  </rdf:RDF>
 </metadata>
 <defs>
  <style type="text/css">*{stroke-linejoin: round; stroke-linecap: butt}</style>
 </defs>
 <g id="figure_1">
  <g id="patch_1">
   <path d="M 0 406.914375 
L 561.09375 406.914375 
L 561.09375 0 
L 0 0 
z
" style="fill: #ffffff"/>
  </g>
  <g id="axes_1">
   <g id="patch_2">
    <path d="M 54.165625 362.158125 
L 500.565625 362.158125 
L 500.565625 29.518125 
L 54.165625 29.518125 
z
" style="fill: #ffffff"/>
   </g>
   <g id="axes_2">
    <g id="patch_3">
     <path d="M 500.565625 362.158125 
L 500.565625 362.158125 
L 500.565625 29.518125 
L 500.565625 29.518125 
z
" style="fill: #ffffff"/>
    </g>
    <g id="matplotlib.axis_1"/>
    <g id="matplotlib.axis_2">
     <g id="ytick_1">
      <g id="line2d_1">
       <defs>
        <path id="mcced4c6c38" d="M 0 0 
L 3.5 0 
" style="stroke: #000000; stroke-width: 0.8"/>
       </defs>
       <g>
        <use xlink:href="#mcced4c6c38" x="500.565625" y="362.158125" style="stroke: #000000; stroke-width: 0.8"/>
       </g>
      </g>
      <g id="text_1">
       <!-- 0 -->
       <g transform="translate(507.565625 365.957344)scale(0.1 -0.1)">
        <defs>
         <path id="DejaVuSans-30" d="M 2034 4250 
Q 1547 4250 1301 3770 
Q 1056 3291 1056 2328 
Q 1056 1369 1301 889 
Q 1547 409 2034 409 
Q 2525 409 2770 889 
Q 3016 1369 3016 2328 
Q 3016 3291 2770 3770 
Q 2525 4250 2034 4250 
z
M 2034 4750 
Q 2819 4750 3233 4129 
Q 3647 3509 3647 2328 
Q 3647 1150 3233 529 
Q 2819 -91 2034 -91 
Q 1250 -91 836 529 
Q 422 1150 422 2328 
Q 422 3509 836 4129 
Q 1250 4750 2034 4750 
z
" transform="scale(0.015625)"/>
        </defs>
        <use xlink:href="#DejaVuSans-30"/>
       </g>
      </g>
     </g>
     <g id="ytick_2">
      <g id="line2d_2">
       <g>
        <use xlink:href="#mcced4c6c38" x="500.565625" y="321.886615" style="stroke: #000000; stroke-width: 0.8"/>
       </g>
      </g>
      <g id="text_2">
       <!-- 200 -->
       <g transform="translate(507.565625 325.685833)scale(0.1 -0.1)">
        <defs>
         <path id="DejaVuSans-32" d="M 1228 531 
L 3431 531 
L 3431 0 
L 469 0 
L 469 531 
Q 828 903 1448 1529 
Q 2069 2156 2228 2338 
Q 2531 2678 2651 2914 
Q 2772 3150 2772 3378 
Q 2772 3750 2511 3984 
Q 2250 4219 1831 4219 
Q 1534 4219 1204 4116 
Q 875 4013 500 3803 
L 500 4441 
Q 881 4594 1212 4672 
Q 1544 4750 1819 4750 
Q 2544 4750 2975 4387 
Q 3406 4025 3406 3419 
Q 3406 3131 3298 2873 
Q 3191 2616 2906 2266 
Q 2828 2175 2409 1742 
Q 1991 1309 1228 531 
z
" transform="scale(0.015625)"/>
        </defs>
        <use xlink:href="#DejaVuSans-32"/>
        <use xlink:href="#DejaVuSans-30" x="63.623047"/>
        <use xlink:href="#DejaVuSans-30" x="127.246094"/>
       </g>
      </g>
     </g>
     <g id="ytick_3">
      <g id="line2d_3">
       <g>
        <use xlink:href="#mcced4c6c38" x="500.565625" y="281.615104" style="stroke: #000000; stroke-width: 0.8"/>
       </g>
      </g>
      <g id="text_3">
       <!-- 400 -->
       <g transform="translate(507.565625 285.414323)scale(0.1 -0.1)">
        <defs>
         <path id="DejaVuSans-34" d="M 2419 4116 
L 825 1625 
L 2419 1625 
L 2419 4116 
z
M 2253 4666 
L 3047 4666 
L 3047 1625 
L 3713 1625 
L 3713 1100 
L 3047 1100 
L 3047 0 
L 2419 0 
L 2419 1100 
L 313 1100 
L 313 1709 
L 2253 4666 
z
" transform="scale(0.015625)"/>
        </defs>
        <use xlink:href="#DejaVuSans-34"/>
        <use xlink:href="#DejaVuSans-30" x="63.623047"/>
        <use xlink:href="#DejaVuSans-30" x="127.246094"/>
       </g>
      </g>
     </g>
     <g id="ytick_4">
      <g id="line2d_4">
       <g>
        <use xlink:href="#mcced4c6c38" x="500.565625" y="241.343594" style="stroke: #000000; stroke-width: 0.8"/>
       </g>
      </g>
      <g id="text_4">
       <!-- 600 -->
       <g transform="translate(507.565625 245.142812)scale(0.1 -0.1)">
        <defs>
         <path id="DejaVuSans-36" d="M 2113 2584 
Q 1688 2584 1439 2293 
Q 1191 2003 1191 1497 
Q 1191 994 1439 701 
Q 1688 409 2113 409 
Q 2538 409 2786 701 
Q 3034 994 3034 1497 
Q 3034 2003 2786 2293 
Q 2538 2584 2113 2584 
z
M 3366 4563 
L 3366 3988 
Q 3128 4100 2886 4159 
Q 2644 4219 2406 4219 
Q 1781 4219 1451 3797 
Q 1122 3375 1075 2522 
Q 1259 2794 1537 2939 
Q 1816 3084 2150 3084 
Q 2853 3084 3261 2657 
Q 3669 2231 3669 1497 
Q 3669 778 3244 343 
Q 2819 -91 2113 -91 
Q 1303 -91 875 529 
Q 447 1150 447 2328 
Q 447 3434 972 4092 
Q 1497 4750 2381 4750 
Q 2619 4750 2861 4703 
Q 3103 4656 3366 4563 
z
" transform="scale(0.015625)"/>
        </defs>
        <use xlink:href="#DejaVuSans-36"/>
        <use xlink:href="#DejaVuSans-30" x="63.623047"/>
        <use xlink:href="#DejaVuSans-30" x="127.246094"/>
       </g>
      </g>
     </g>
     <g id="ytick_5">
      <g id="line2d_5">
       <g>
        <use xlink:href="#mcced4c6c38" x="500.565625" y="201.072083" style="stroke: #000000; stroke-width: 0.8"/>
       </g>
      </g>
      <g id="text_5">
       <!-- 800 -->
       <g transform="translate(507.565625 204.871302)scale(0.1 -0.1)">
        <defs>
         <path id="DejaVuSans-38" d="M 2034 2216 
Q 1584 2216 1326 1975 
Q 1069 1734 1069 1313 
Q 1069 891 1326 650 
Q 1584 409 2034 409 
Q 2484 409 2743 651 
Q 3003 894 3003 1313 
Q 3003 1734 2745 1975 
Q 2488 2216 2034 2216 
z
M 1403 2484 
Q 997 2584 770 2862 
Q 544 3141 544 3541 
Q 544 4100 942 4425 
Q 1341 4750 2034 4750 
Q 2731 4750 3128 4425 
Q 3525 4100 3525 3541 
Q 3525 3141 3298 2862 
Q 3072 2584 2669 2484 
Q 3125 2378 3379 2068 
Q 3634 1759 3634 1313 
Q 3634 634 3220 271 
Q 2806 -91 2034 -91 
Q 1263 -91 848 271 
Q 434 634 434 1313 
Q 434 1759 690 2068 
Q 947 2378 1403 2484 
z
M 1172 3481 
Q 1172 3119 1398 2916 
Q 1625 2713 2034 2713 
Q 2441 2713 2670 2916 
Q 2900 3119 2900 3481 
Q 2900 3844 2670 4047 
Q 2441 4250 2034 4250 
Q 1625 4250 1398 4047 
Q 1172 3844 1172 3481 
z
" transform="scale(0.015625)"/>
        </defs>
        <use xlink:href="#DejaVuSans-38"/>
        <use xlink:href="#DejaVuSans-30" x="63.623047"/>
        <use xlink:href="#DejaVuSans-30" x="127.246094"/>
       </g>
      </g>
     </g>
     <g id="ytick_6">
      <g id="line2d_6">
       <g>
        <use xlink:href="#mcced4c6c38" x="500.565625" y="160.800573" style="stroke: #000000; stroke-width: 0.8"/>
       </g>
      </g>
      <g id="text_6">
       <!-- 1000 -->
       <g transform="translate(507.565625 164.599792)scale(0.1 -0.1)">
        <defs>
         <path id="DejaVuSans-31" d="M 794 531 
L 1825 531 
L 1825 4091 
L 703 3866 
L 703 4441 
L 1819 4666 
L 2450 4666 
L 2450 531 
L 3481 531 
L 3481 0 
L 794 0 
L 794 531 
z
" transform="scale(0.015625)"/>
        </defs>
        <use xlink:href="#DejaVuSans-31"/>
        <use xlink:href="#DejaVuSans-30" x="63.623047"/>
        <use xlink:href="#DejaVuSans-30" x="127.246094"/>
        <use xlink:href="#DejaVuSans-30" x="190.869141"/>
       </g>
      </g>
     </g>
     <g id="ytick_7">
      <g id="line2d_7">
       <g>
        <use xlink:href="#mcced4c6c38" x="500.565625" y="120.529062" style="stroke: #000000; stroke-width: 0.8"/>
       </g>
      </g>
      <g id="text_7">
       <!-- 1200 -->
       <g transform="translate(507.565625 124.328281)scale(0.1 -0.1)">
        <use xlink:href="#DejaVuSans-31"/>
        <use xlink:href="#DejaVuSans-32" x="63.623047"/>
        <use xlink:href="#DejaVuSans-30" x="127.246094"/>
        <use xlink:href="#DejaVuSans-30" x="190.869141"/>
       </g>
      </g>
     </g>
     <g id="ytick_8">
      <g id="line2d_8">
       <g>
        <use xlink:href="#mcced4c6c38" x="500.565625" y="80.257552" style="stroke: #000000; stroke-width: 0.8"/>
       </g>
      </g>
      <g id="text_8">
       <!-- 1400 -->
       <g transform="translate(507.565625 84.056771)scale(0.1 -0.1)">
        <use xlink:href="#DejaVuSans-31"/>
        <use xlink:href="#DejaVuSans-34" x="63.623047"/>
        <use xlink:href="#DejaVuSans-30" x="127.246094"/>
        <use xlink:href="#DejaVuSans-30" x="190.869141"/>
       </g>
      </g>
     </g>
     <g id="ytick_9">
      <g id="line2d_9">
       <g>
        <use xlink:href="#mcced4c6c38" x="500.565625" y="39.986042" style="stroke: #000000; stroke-width: 0.8"/>
       </g>
      </g>
      <g id="text_9">
       <!-- 1600 -->
       <g transform="translate(507.565625 43.78526)scale(0.1 -0.1)">
        <use xlink:href="#DejaVuSans-31"/>
        <use xlink:href="#DejaVuSans-36" x="63.623047"/>
        <use xlink:href="#DejaVuSans-30" x="127.246094"/>
        <use xlink:href="#DejaVuSans-30" x="190.869141"/>
       </g>
      </g>
     </g>
     <g id="text_10">
      <!-- Estradiol concentrations (pmol/L) -->
      <g transform="translate(544.614063 278.970156)rotate(-90)scale(0.1 -0.1)">
       <defs>
        <path id="DejaVuSans-45" d="M 628 4666 
L 3578 4666 
L 3578 4134 
L 1259 4134 
L 1259 2753 
L 3481 2753 
L 3481 2222 
L 1259 2222 
L 1259 531 
L 3634 531 
L 3634 0 
L 628 0 
L 628 4666 
z
" transform="scale(0.015625)"/>
        <path id="DejaVuSans-73" d="M 2834 3397 
L 2834 2853 
Q 2591 2978 2328 3040 
Q 2066 3103 1784 3103 
Q 1356 3103 1142 2972 
Q 928 2841 928 2578 
Q 928 2378 1081 2264 
Q 1234 2150 1697 2047 
L 1894 2003 
Q 2506 1872 2764 1633 
Q 3022 1394 3022 966 
Q 3022 478 2636 193 
Q 2250 -91 1575 -91 
Q 1294 -91 989 -36 
Q 684 19 347 128 
L 347 722 
Q 666 556 975 473 
Q 1284 391 1588 391 
Q 1994 391 2212 530 
Q 2431 669 2431 922 
Q 2431 1156 2273 1281 
Q 2116 1406 1581 1522 
L 1381 1569 
Q 847 1681 609 1914 
Q 372 2147 372 2553 
Q 372 3047 722 3315 
Q 1072 3584 1716 3584 
Q 2034 3584 2315 3537 
Q 2597 3491 2834 3397 
z
" transform="scale(0.015625)"/>
        <path id="DejaVuSans-74" d="M 1172 4494 
L 1172 3500 
L 2356 3500 
L 2356 3053 
L 1172 3053 
L 1172 1153 
Q 1172 725 1289 603 
Q 1406 481 1766 481 
L 2356 481 
L 2356 0 
L 1766 0 
Q 1100 0 847 248 
Q 594 497 594 1153 
L 594 3053 
L 172 3053 
L 172 3500 
L 594 3500 
L 594 4494 
L 1172 4494 
z
" transform="scale(0.015625)"/>
        <path id="DejaVuSans-72" d="M 2631 2963 
Q 2534 3019 2420 3045 
Q 2306 3072 2169 3072 
Q 1681 3072 1420 2755 
Q 1159 2438 1159 1844 
L 1159 0 
L 581 0 
L 581 3500 
L 1159 3500 
L 1159 2956 
Q 1341 3275 1631 3429 
Q 1922 3584 2338 3584 
Q 2397 3584 2469 3576 
Q 2541 3569 2628 3553 
L 2631 2963 
z
" transform="scale(0.015625)"/>
        <path id="DejaVuSans-61" d="M 2194 1759 
Q 1497 1759 1228 1600 
Q 959 1441 959 1056 
Q 959 750 1161 570 
Q 1363 391 1709 391 
Q 2188 391 2477 730 
Q 2766 1069 2766 1631 
L 2766 1759 
L 2194 1759 
z
M 3341 1997 
L 3341 0 
L 2766 0 
L 2766 531 
Q 2569 213 2275 61 
Q 1981 -91 1556 -91 
Q 1019 -91 701 211 
Q 384 513 384 1019 
Q 384 1609 779 1909 
Q 1175 2209 1959 2209 
L 2766 2209 
L 2766 2266 
Q 2766 2663 2505 2880 
Q 2244 3097 1772 3097 
Q 1472 3097 1187 3025 
Q 903 2953 641 2809 
L 641 3341 
Q 956 3463 1253 3523 
Q 1550 3584 1831 3584 
Q 2591 3584 2966 3190 
Q 3341 2797 3341 1997 
z
" transform="scale(0.015625)"/>
        <path id="DejaVuSans-64" d="M 2906 2969 
L 2906 4863 
L 3481 4863 
L 3481 0 
L 2906 0 
L 2906 525 
Q 2725 213 2448 61 
Q 2172 -91 1784 -91 
Q 1150 -91 751 415 
Q 353 922 353 1747 
Q 353 2572 751 3078 
Q 1150 3584 1784 3584 
Q 2172 3584 2448 3432 
Q 2725 3281 2906 2969 
z
M 947 1747 
Q 947 1113 1208 752 
Q 1469 391 1925 391 
Q 2381 391 2643 752 
Q 2906 1113 2906 1747 
Q 2906 2381 2643 2742 
Q 2381 3103 1925 3103 
Q 1469 3103 1208 2742 
Q 947 2381 947 1747 
z
" transform="scale(0.015625)"/>
        <path id="DejaVuSans-69" d="M 603 3500 
L 1178 3500 
L 1178 0 
L 603 0 
L 603 3500 
z
M 603 4863 
L 1178 4863 
L 1178 4134 
L 603 4134 
L 603 4863 
z
" transform="scale(0.015625)"/>
        <path id="DejaVuSans-6f" d="M 1959 3097 
Q 1497 3097 1228 2736 
Q 959 2375 959 1747 
Q 959 1119 1226 758 
Q 1494 397 1959 397 
Q 2419 397 2687 759 
Q 2956 1122 2956 1747 
Q 2956 2369 2687 2733 
Q 2419 3097 1959 3097 
z
M 1959 3584 
Q 2709 3584 3137 3096 
Q 3566 2609 3566 1747 
Q 3566 888 3137 398 
Q 2709 -91 1959 -91 
Q 1206 -91 779 398 
Q 353 888 353 1747 
Q 353 2609 779 3096 
Q 1206 3584 1959 3584 
z
" transform="scale(0.015625)"/>
        <path id="DejaVuSans-6c" d="M 603 4863 
L 1178 4863 
L 1178 0 
L 603 0 
L 603 4863 
z
" transform="scale(0.015625)"/>
        <path id="DejaVuSans-20" transform="scale(0.015625)"/>
        <path id="DejaVuSans-63" d="M 3122 3366 
L 3122 2828 
Q 2878 2963 2633 3030 
Q 2388 3097 2138 3097 
Q 1578 3097 1268 2742 
Q 959 2388 959 1747 
Q 959 1106 1268 751 
Q 1578 397 2138 397 
Q 2388 397 2633 464 
Q 2878 531 3122 666 
L 3122 134 
Q 2881 22 2623 -34 
Q 2366 -91 2075 -91 
Q 1284 -91 818 406 
Q 353 903 353 1747 
Q 353 2603 823 3093 
Q 1294 3584 2113 3584 
Q 2378 3584 2631 3529 
Q 2884 3475 3122 3366 
z
" transform="scale(0.015625)"/>
        <path id="DejaVuSans-6e" d="M 3513 2113 
L 3513 0 
L 2938 0 
L 2938 2094 
Q 2938 2591 2744 2837 
Q 2550 3084 2163 3084 
Q 1697 3084 1428 2787 
Q 1159 2491 1159 1978 
L 1159 0 
L 581 0 
L 581 3500 
L 1159 3500 
L 1159 2956 
Q 1366 3272 1645 3428 
Q 1925 3584 2291 3584 
Q 2894 3584 3203 3211 
Q 3513 2838 3513 2113 
z
" transform="scale(0.015625)"/>
        <path id="DejaVuSans-65" d="M 3597 1894 
L 3597 1613 
L 953 1613 
Q 991 1019 1311 708 
Q 1631 397 2203 397 
Q 2534 397 2845 478 
Q 3156 559 3463 722 
L 3463 178 
Q 3153 47 2828 -22 
Q 2503 -91 2169 -91 
Q 1331 -91 842 396 
Q 353 884 353 1716 
Q 353 2575 817 3079 
Q 1281 3584 2069 3584 
Q 2775 3584 3186 3129 
Q 3597 2675 3597 1894 
z
M 3022 2063 
Q 3016 2534 2758 2815 
Q 2500 3097 2075 3097 
Q 1594 3097 1305 2825 
Q 1016 2553 972 2059 
L 3022 2063 
z
" transform="scale(0.015625)"/>
        <path id="DejaVuSans-28" d="M 1984 4856 
Q 1566 4138 1362 3434 
Q 1159 2731 1159 2009 
Q 1159 1288 1364 580 
Q 1569 -128 1984 -844 
L 1484 -844 
Q 1016 -109 783 600 
Q 550 1309 550 2009 
Q 550 2706 781 3412 
Q 1013 4119 1484 4856 
L 1984 4856 
z
" transform="scale(0.015625)"/>
        <path id="DejaVuSans-70" d="M 1159 525 
L 1159 -1331 
L 581 -1331 
L 581 3500 
L 1159 3500 
L 1159 2969 
Q 1341 3281 1617 3432 
Q 1894 3584 2278 3584 
Q 2916 3584 3314 3078 
Q 3713 2572 3713 1747 
Q 3713 922 3314 415 
Q 2916 -91 2278 -91 
Q 1894 -91 1617 61 
Q 1341 213 1159 525 
z
M 3116 1747 
Q 3116 2381 2855 2742 
Q 2594 3103 2138 3103 
Q 1681 3103 1420 2742 
Q 1159 2381 1159 1747 
Q 1159 1113 1420 752 
Q 1681 391 2138 391 
Q 2594 391 2855 752 
Q 3116 1113 3116 1747 
z
" transform="scale(0.015625)"/>
        <path id="DejaVuSans-6d" d="M 3328 2828 
Q 3544 3216 3844 3400 
Q 4144 3584 4550 3584 
Q 5097 3584 5394 3201 
Q 5691 2819 5691 2113 
L 5691 0 
L 5113 0 
L 5113 2094 
Q 5113 2597 4934 2840 
Q 4756 3084 4391 3084 
Q 3944 3084 3684 2787 
Q 3425 2491 3425 1978 
L 3425 0 
L 2847 0 
L 2847 2094 
Q 2847 2600 2669 2842 
Q 2491 3084 2119 3084 
Q 1678 3084 1418 2786 
Q 1159 2488 1159 1978 
L 1159 0 
L 581 0 
L 581 3500 
L 1159 3500 
L 1159 2956 
Q 1356 3278 1631 3431 
Q 1906 3584 2284 3584 
Q 2666 3584 2933 3390 
Q 3200 3197 3328 2828 
z
" transform="scale(0.015625)"/>
        <path id="DejaVuSans-2f" d="M 1625 4666 
L 2156 4666 
L 531 -594 
L 0 -594 
L 1625 4666 
z
" transform="scale(0.015625)"/>
        <path id="DejaVuSans-4c" d="M 628 4666 
L 1259 4666 
L 1259 531 
L 3531 531 
L 3531 0 
L 628 0 
L 628 4666 
z
" transform="scale(0.015625)"/>
        <path id="DejaVuSans-29" d="M 513 4856 
L 1013 4856 
Q 1481 4119 1714 3412 
Q 1947 2706 1947 2009 
Q 1947 1309 1714 600 
Q 1481 -109 1013 -844 
L 513 -844 
Q 928 -128 1133 580 
Q 1338 1288 1338 2009 
Q 1338 2731 1133 3434 
Q 928 4138 513 4856 
z
" transform="scale(0.015625)"/>
       </defs>
       <use xlink:href="#DejaVuSans-45"/>
       <use xlink:href="#DejaVuSans-73" x="63.183594"/>
       <use xlink:href="#DejaVuSans-74" x="115.283203"/>
       <use xlink:href="#DejaVuSans-72" x="154.492188"/>
       <use xlink:href="#DejaVuSans-61" x="195.605469"/>
       <use xlink:href="#DejaVuSans-64" x="256.884766"/>
       <use xlink:href="#DejaVuSans-69" x="320.361328"/>
       <use xlink:href="#DejaVuSans-6f" x="348.144531"/>
       <use xlink:href="#DejaVuSans-6c" x="409.326172"/>
       <use xlink:href="#DejaVuSans-20" x="437.109375"/>
       <use xlink:href="#DejaVuSans-63" x="468.896484"/>
       <use xlink:href="#DejaVuSans-6f" x="523.876953"/>
       <use xlink:href="#DejaVuSans-6e" x="585.058594"/>
       <use xlink:href="#DejaVuSans-63" x="648.4375"/>
       <use xlink:href="#DejaVuSans-65" x="703.417969"/>
       <use xlink:href="#DejaVuSans-6e" x="764.941406"/>
       <use xlink:href="#DejaVuSans-74" x="828.320312"/>
       <use xlink:href="#DejaVuSans-72" x="867.529297"/>
       <use xlink:href="#DejaVuSans-61" x="908.642578"/>
       <use xlink:href="#DejaVuSans-74" x="969.921875"/>
       <use xlink:href="#DejaVuSans-69" x="1009.130859"/>
       <use xlink:href="#DejaVuSans-6f" x="1036.914062"/>
       <use xlink:href="#DejaVuSans-6e" x="1098.095703"/>
       <use xlink:href="#DejaVuSans-73" x="1161.474609"/>
       <use xlink:href="#DejaVuSans-20" x="1213.574219"/>
       <use xlink:href="#DejaVuSans-28" x="1245.361328"/>
       <use xlink:href="#DejaVuSans-70" x="1284.375"/>
       <use xlink:href="#DejaVuSans-6d" x="1347.851562"/>
       <use xlink:href="#DejaVuSans-6f" x="1445.263672"/>
       <use xlink:href="#DejaVuSans-6c" x="1506.445312"/>
       <use xlink:href="#DejaVuSans-2f" x="1534.228516"/>
       <use xlink:href="#DejaVuSans-4c" x="1567.919922"/>
       <use xlink:href="#DejaVuSans-29" x="1623.632812"/>
      </g>
     </g>
    </g>
    <g id="patch_4">
     <path d="M 500.565625 362.158125 
L 500.565625 29.518125 
" style="fill: none; stroke: #000000; stroke-width: 0.8; stroke-linejoin: miter; stroke-linecap: square"/>
    </g>
   </g>
   <g id="matplotlib.axis_3">
    <g id="xtick_1">
     <g id="line2d_10">
      <defs>
       <path id="m4bfed0560d" d="M 0 0 
L 0 3.5 
" style="stroke: #000000; stroke-width: 0.8"/>
      </defs>
      <g>
       <use xlink:href="#m4bfed0560d" x="54.165625" y="362.158125" style="stroke: #000000; stroke-width: 0.8"/>
      </g>
     </g>
     <g id="text_11">
      <!-- 0 -->
      <g transform="translate(50.984375 376.756563)scale(0.1 -0.1)">
       <use xlink:href="#DejaVuSans-30"/>
      </g>
     </g>
    </g>
    <g id="xtick_2">
     <g id="line2d_11">
      <g>
       <use xlink:href="#m4bfed0560d" x="75.41265" y="362.158125" style="stroke: #000000; stroke-width: 0.8"/>
      </g>
     </g>
     <g id="text_12">
      <!-- 1 -->
      <g transform="translate(72.2314 376.756563)scale(0.1 -0.1)">
       <use xlink:href="#DejaVuSans-31"/>
      </g>
     </g>
    </g>
    <g id="xtick_3">
     <g id="line2d_12">
      <g>
       <use xlink:href="#m4bfed0560d" x="96.659675" y="362.158125" style="stroke: #000000; stroke-width: 0.8"/>
      </g>
     </g>
     <g id="text_13">
      <!-- 2 -->
      <g transform="translate(93.478425 376.756563)scale(0.1 -0.1)">
       <use xlink:href="#DejaVuSans-32"/>
      </g>
     </g>
    </g>
    <g id="xtick_4">
     <g id="line2d_13">
      <g>
       <use xlink:href="#m4bfed0560d" x="117.906701" y="362.158125" style="stroke: #000000; stroke-width: 0.8"/>
      </g>
     </g>
     <g id="text_14">
      <!-- 3 -->
      <g transform="translate(114.725451 376.756563)scale(0.1 -0.1)">
       <defs>
        <path id="DejaVuSans-33" d="M 2597 2516 
Q 3050 2419 3304 2112 
Q 3559 1806 3559 1356 
Q 3559 666 3084 287 
Q 2609 -91 1734 -91 
Q 1441 -91 1130 -33 
Q 819 25 488 141 
L 488 750 
Q 750 597 1062 519 
Q 1375 441 1716 441 
Q 2309 441 2620 675 
Q 2931 909 2931 1356 
Q 2931 1769 2642 2001 
Q 2353 2234 1838 2234 
L 1294 2234 
L 1294 2753 
L 1863 2753 
Q 2328 2753 2575 2939 
Q 2822 3125 2822 3475 
Q 2822 3834 2567 4026 
Q 2313 4219 1838 4219 
Q 1578 4219 1281 4162 
Q 984 4106 628 3988 
L 628 4550 
Q 988 4650 1302 4700 
Q 1616 4750 1894 4750 
Q 2613 4750 3031 4423 
Q 3450 4097 3450 3541 
Q 3450 3153 3228 2886 
Q 3006 2619 2597 2516 
z
" transform="scale(0.015625)"/>
       </defs>
       <use xlink:href="#DejaVuSans-33"/>
      </g>
     </g>
    </g>
    <g id="xtick_5">
     <g id="line2d_14">
      <g>
       <use xlink:href="#m4bfed0560d" x="139.153726" y="362.158125" style="stroke: #000000; stroke-width: 0.8"/>
      </g>
     </g>
     <g id="text_15">
      <!-- 4 -->
      <g transform="translate(135.972476 376.756563)scale(0.1 -0.1)">
       <use xlink:href="#DejaVuSans-34"/>
      </g>
     </g>
    </g>
    <g id="xtick_6">
     <g id="line2d_15">
      <g>
       <use xlink:href="#m4bfed0560d" x="160.400751" y="362.158125" style="stroke: #000000; stroke-width: 0.8"/>
      </g>
     </g>
     <g id="text_16">
      <!-- 5 -->
      <g transform="translate(157.219501 376.756563)scale(0.1 -0.1)">
       <defs>
        <path id="DejaVuSans-35" d="M 691 4666 
L 3169 4666 
L 3169 4134 
L 1269 4134 
L 1269 2991 
Q 1406 3038 1543 3061 
Q 1681 3084 1819 3084 
Q 2600 3084 3056 2656 
Q 3513 2228 3513 1497 
Q 3513 744 3044 326 
Q 2575 -91 1722 -91 
Q 1428 -91 1123 -41 
Q 819 9 494 109 
L 494 744 
Q 775 591 1075 516 
Q 1375 441 1709 441 
Q 2250 441 2565 725 
Q 2881 1009 2881 1497 
Q 2881 1984 2565 2268 
Q 2250 2553 1709 2553 
Q 1456 2553 1204 2497 
Q 953 2441 691 2322 
L 691 4666 
z
" transform="scale(0.015625)"/>
       </defs>
       <use xlink:href="#DejaVuSans-35"/>
      </g>
     </g>
    </g>
    <g id="xtick_7">
     <g id="line2d_16">
      <g>
       <use xlink:href="#m4bfed0560d" x="181.647776" y="362.158125" style="stroke: #000000; stroke-width: 0.8"/>
      </g>
     </g>
     <g id="text_17">
      <!-- 6 -->
      <g transform="translate(178.466526 376.756563)scale(0.1 -0.1)">
       <use xlink:href="#DejaVuSans-36"/>
      </g>
     </g>
    </g>
    <g id="xtick_8">
     <g id="line2d_17">
      <g>
       <use xlink:href="#m4bfed0560d" x="202.894802" y="362.158125" style="stroke: #000000; stroke-width: 0.8"/>
      </g>
     </g>
     <g id="text_18">
      <!-- 0 -->
      <g transform="translate(199.713552 376.756563)scale(0.1 -0.1)">
       <use xlink:href="#DejaVuSans-30"/>
      </g>
     </g>
    </g>
    <g id="xtick_9">
     <g id="line2d_18">
      <g>
       <use xlink:href="#m4bfed0560d" x="224.141827" y="362.158125" style="stroke: #000000; stroke-width: 0.8"/>
      </g>
     </g>
     <g id="text_19">
      <!-- 1 -->
      <g transform="translate(220.960577 376.756563)scale(0.1 -0.1)">
       <use xlink:href="#DejaVuSans-31"/>
      </g>
     </g>
    </g>
    <g id="xtick_10">
     <g id="line2d_19">
      <g>
       <use xlink:href="#m4bfed0560d" x="245.388852" y="362.158125" style="stroke: #000000; stroke-width: 0.8"/>
      </g>
     </g>
     <g id="text_20">
      <!-- 2 -->
      <g transform="translate(242.207602 376.756563)scale(0.1 -0.1)">
       <use xlink:href="#DejaVuSans-32"/>
      </g>
     </g>
    </g>
    <g id="xtick_11">
     <g id="line2d_20">
      <g>
       <use xlink:href="#m4bfed0560d" x="266.635877" y="362.158125" style="stroke: #000000; stroke-width: 0.8"/>
      </g>
     </g>
     <g id="text_21">
      <!-- 3 -->
      <g transform="translate(263.454627 376.756563)scale(0.1 -0.1)">
       <use xlink:href="#DejaVuSans-33"/>
      </g>
     </g>
    </g>
    <g id="xtick_12">
     <g id="line2d_21">
      <g>
       <use xlink:href="#m4bfed0560d" x="287.882902" y="362.158125" style="stroke: #000000; stroke-width: 0.8"/>
      </g>
     </g>
     <g id="text_22">
      <!-- 4 -->
      <g transform="translate(284.701652 376.756563)scale(0.1 -0.1)">
       <use xlink:href="#DejaVuSans-34"/>
      </g>
     </g>
    </g>
    <g id="xtick_13">
     <g id="line2d_22">
      <g>
       <use xlink:href="#m4bfed0560d" x="309.129928" y="362.158125" style="stroke: #000000; stroke-width: 0.8"/>
      </g>
     </g>
     <g id="text_23">
      <!-- 5 -->
      <g transform="translate(305.948678 376.756563)scale(0.1 -0.1)">
       <use xlink:href="#DejaVuSans-35"/>
      </g>
     </g>
    </g>
    <g id="xtick_14">
     <g id="line2d_23">
      <g>
       <use xlink:href="#m4bfed0560d" x="330.376953" y="362.158125" style="stroke: #000000; stroke-width: 0.8"/>
      </g>
     </g>
     <g id="text_24">
      <!-- 6 -->
      <g transform="translate(327.195703 376.756563)scale(0.1 -0.1)">
       <use xlink:href="#DejaVuSans-36"/>
      </g>
     </g>
    </g>
    <g id="xtick_15">
     <g id="line2d_24">
      <g>
       <use xlink:href="#m4bfed0560d" x="351.623978" y="362.158125" style="stroke: #000000; stroke-width: 0.8"/>
      </g>
     </g>
     <g id="text_25">
      <!-- 0 -->
      <g transform="translate(348.442728 376.756563)scale(0.1 -0.1)">
       <use xlink:href="#DejaVuSans-30"/>
      </g>
     </g>
    </g>
    <g id="xtick_16">
     <g id="line2d_25">
      <g>
       <use xlink:href="#m4bfed0560d" x="372.871003" y="362.158125" style="stroke: #000000; stroke-width: 0.8"/>
      </g>
     </g>
     <g id="text_26">
      <!-- 1 -->
      <g transform="translate(369.689753 376.756563)scale(0.1 -0.1)">
       <use xlink:href="#DejaVuSans-31"/>
      </g>
     </g>
    </g>
    <g id="xtick_17">
     <g id="line2d_26">
      <g>
       <use xlink:href="#m4bfed0560d" x="394.118029" y="362.158125" style="stroke: #000000; stroke-width: 0.8"/>
      </g>
     </g>
     <g id="text_27">
      <!-- 2 -->
      <g transform="translate(390.936779 376.756563)scale(0.1 -0.1)">
       <use xlink:href="#DejaVuSans-32"/>
      </g>
     </g>
    </g>
    <g id="xtick_18">
     <g id="line2d_27">
      <g>
       <use xlink:href="#m4bfed0560d" x="415.365054" y="362.158125" style="stroke: #000000; stroke-width: 0.8"/>
      </g>
     </g>
     <g id="text_28">
      <!-- 3 -->
      <g transform="translate(412.183804 376.756563)scale(0.1 -0.1)">
       <use xlink:href="#DejaVuSans-33"/>
      </g>
     </g>
    </g>
    <g id="xtick_19">
     <g id="line2d_28">
      <g>
       <use xlink:href="#m4bfed0560d" x="436.612079" y="362.158125" style="stroke: #000000; stroke-width: 0.8"/>
      </g>
     </g>
     <g id="text_29">
      <!-- 4 -->
      <g transform="translate(433.430829 376.756563)scale(0.1 -0.1)">
       <use xlink:href="#DejaVuSans-34"/>
      </g>
     </g>
    </g>
    <g id="xtick_20">
     <g id="line2d_29">
      <g>
       <use xlink:href="#m4bfed0560d" x="457.859104" y="362.158125" style="stroke: #000000; stroke-width: 0.8"/>
      </g>
     </g>
     <g id="text_30">
      <!-- 5 -->
      <g transform="translate(454.677854 376.756563)scale(0.1 -0.1)">
       <use xlink:href="#DejaVuSans-35"/>
      </g>
     </g>
    </g>
    <g id="xtick_21">
     <g id="line2d_30">
      <g>
       <use xlink:href="#m4bfed0560d" x="479.10613" y="362.158125" style="stroke: #000000; stroke-width: 0.8"/>
      </g>
     </g>
     <g id="text_31">
      <!-- 6 -->
      <g transform="translate(475.92488 376.756563)scale(0.1 -0.1)">
       <use xlink:href="#DejaVuSans-36"/>
      </g>
     </g>
    </g>
    <g id="xtick_22">
     <g id="line2d_31">
      <g>
       <use xlink:href="#m4bfed0560d" x="500.353155" y="362.158125" style="stroke: #000000; stroke-width: 0.8"/>
      </g>
     </g>
     <g id="text_32">
      <!-- 7 -->
      <g transform="translate(497.171905 376.756563)scale(0.1 -0.1)">
       <defs>
        <path id="DejaVuSans-37" d="M 525 4666 
L 3525 4666 
L 3525 4397 
L 1831 0 
L 1172 0 
L 2766 4134 
L 525 4134 
L 525 4666 
z
" transform="scale(0.015625)"/>
       </defs>
       <use xlink:href="#DejaVuSans-37"/>
      </g>
     </g>
    </g>
    <g id="text_33">
     <!-- Time (days) -->
     <g transform="translate(247.839063 390.434688)scale(0.1 -0.1)">
      <defs>
       <path id="DejaVuSans-54" d="M -19 4666 
L 3928 4666 
L 3928 4134 
L 2272 4134 
L 2272 0 
L 1638 0 
L 1638 4134 
L -19 4134 
L -19 4666 
z
" transform="scale(0.015625)"/>
       <path id="DejaVuSans-79" d="M 2059 -325 
Q 1816 -950 1584 -1140 
Q 1353 -1331 966 -1331 
L 506 -1331 
L 506 -850 
L 844 -850 
Q 1081 -850 1212 -737 
Q 1344 -625 1503 -206 
L 1606 56 
L 191 3500 
L 800 3500 
L 1894 763 
L 2988 3500 
L 3597 3500 
L 2059 -325 
z
" transform="scale(0.015625)"/>
      </defs>
      <use xlink:href="#DejaVuSans-54"/>
      <use xlink:href="#DejaVuSans-69" x="57.958984"/>
      <use xlink:href="#DejaVuSans-6d" x="85.742188"/>
      <use xlink:href="#DejaVuSans-65" x="183.154297"/>
      <use xlink:href="#DejaVuSans-20" x="244.677734"/>
      <use xlink:href="#DejaVuSans-28" x="276.464844"/>
      <use xlink:href="#DejaVuSans-64" x="315.478516"/>
      <use xlink:href="#DejaVuSans-61" x="378.955078"/>
      <use xlink:href="#DejaVuSans-79" x="440.234375"/>
      <use xlink:href="#DejaVuSans-73" x="499.414062"/>
      <use xlink:href="#DejaVuSans-29" x="551.513672"/>
     </g>
    </g>
   </g>
   <g id="matplotlib.axis_4">
    <g id="ytick_10">
     <g id="line2d_32">
      <defs>
       <path id="m094b027527" d="M 0 0 
L -3.5 0 
" style="stroke: #000000; stroke-width: 0.8"/>
      </defs>
      <g>
       <use xlink:href="#m094b027527" x="54.165625" y="362.158125" style="stroke: #000000; stroke-width: 0.8"/>
      </g>
     </g>
     <g id="text_34">
      <!-- 0 -->
      <g transform="translate(40.803125 365.957344)scale(0.1 -0.1)">
       <use xlink:href="#DejaVuSans-30"/>
      </g>
     </g>
    </g>
    <g id="ytick_11">
     <g id="line2d_33">
      <g>
       <use xlink:href="#m094b027527" x="54.165625" y="325.198946" style="stroke: #000000; stroke-width: 0.8"/>
      </g>
     </g>
     <g id="text_35">
      <!-- 50 -->
      <g transform="translate(34.440625 328.998165)scale(0.1 -0.1)">
       <use xlink:href="#DejaVuSans-35"/>
       <use xlink:href="#DejaVuSans-30" x="63.623047"/>
      </g>
     </g>
    </g>
    <g id="ytick_12">
     <g id="line2d_34">
      <g>
       <use xlink:href="#m094b027527" x="54.165625" y="288.239768" style="stroke: #000000; stroke-width: 0.8"/>
      </g>
     </g>
     <g id="text_36">
      <!-- 100 -->
      <g transform="translate(28.078125 292.038986)scale(0.1 -0.1)">
       <use xlink:href="#DejaVuSans-31"/>
       <use xlink:href="#DejaVuSans-30" x="63.623047"/>
       <use xlink:href="#DejaVuSans-30" x="127.246094"/>
      </g>
     </g>
    </g>
    <g id="ytick_13">
     <g id="line2d_35">
      <g>
       <use xlink:href="#m094b027527" x="54.165625" y="251.280589" style="stroke: #000000; stroke-width: 0.8"/>
      </g>
     </g>
     <g id="text_37">
      <!-- 150 -->
      <g transform="translate(28.078125 255.079808)scale(0.1 -0.1)">
       <use xlink:href="#DejaVuSans-31"/>
       <use xlink:href="#DejaVuSans-35" x="63.623047"/>
       <use xlink:href="#DejaVuSans-30" x="127.246094"/>
      </g>
     </g>
    </g>
    <g id="ytick_14">
     <g id="line2d_36">
      <g>
       <use xlink:href="#m094b027527" x="54.165625" y="214.32141" style="stroke: #000000; stroke-width: 0.8"/>
      </g>
     </g>
     <g id="text_38">
      <!-- 200 -->
      <g transform="translate(28.078125 218.120629)scale(0.1 -0.1)">
       <use xlink:href="#DejaVuSans-32"/>
       <use xlink:href="#DejaVuSans-30" x="63.623047"/>
       <use xlink:href="#DejaVuSans-30" x="127.246094"/>
      </g>
     </g>
    </g>
    <g id="ytick_15">
     <g id="line2d_37">
      <g>
       <use xlink:href="#m094b027527" x="54.165625" y="177.362232" style="stroke: #000000; stroke-width: 0.8"/>
      </g>
     </g>
     <g id="text_39">
      <!-- 250 -->
      <g transform="translate(28.078125 181.16145)scale(0.1 -0.1)">
       <use xlink:href="#DejaVuSans-32"/>
       <use xlink:href="#DejaVuSans-35" x="63.623047"/>
       <use xlink:href="#DejaVuSans-30" x="127.246094"/>
      </g>
     </g>
    </g>
    <g id="ytick_16">
     <g id="line2d_38">
      <g>
       <use xlink:href="#m094b027527" x="54.165625" y="140.403053" style="stroke: #000000; stroke-width: 0.8"/>
      </g>
     </g>
     <g id="text_40">
      <!-- 300 -->
      <g transform="translate(28.078125 144.202272)scale(0.1 -0.1)">
       <use xlink:href="#DejaVuSans-33"/>
       <use xlink:href="#DejaVuSans-30" x="63.623047"/>
       <use xlink:href="#DejaVuSans-30" x="127.246094"/>
      </g>
     </g>
    </g>
    <g id="ytick_17">
     <g id="line2d_39">
      <g>
       <use xlink:href="#m094b027527" x="54.165625" y="103.443874" style="stroke: #000000; stroke-width: 0.8"/>
      </g>
     </g>
     <g id="text_41">
      <!-- 350 -->
      <g transform="translate(28.078125 107.243093)scale(0.1 -0.1)">
       <use xlink:href="#DejaVuSans-33"/>
       <use xlink:href="#DejaVuSans-35" x="63.623047"/>
       <use xlink:href="#DejaVuSans-30" x="127.246094"/>
      </g>
     </g>
    </g>
    <g id="ytick_18">
     <g id="line2d_40">
      <g>
       <use xlink:href="#m094b027527" x="54.165625" y="66.484696" style="stroke: #000000; stroke-width: 0.8"/>
      </g>
     </g>
     <g id="text_42">
      <!-- 400 -->
      <g transform="translate(28.078125 70.283914)scale(0.1 -0.1)">
       <use xlink:href="#DejaVuSans-34"/>
       <use xlink:href="#DejaVuSans-30" x="63.623047"/>
       <use xlink:href="#DejaVuSans-30" x="127.246094"/>
      </g>
     </g>
    </g>
    <g id="ytick_19">
     <g id="line2d_41">
      <g>
       <use xlink:href="#m094b027527" x="54.165625" y="29.525517" style="stroke: #000000; stroke-width: 0.8"/>
      </g>
     </g>
     <g id="text_43">
      <!-- 450 -->
      <g transform="translate(28.078125 33.324736)scale(0.1 -0.1)">
       <use xlink:href="#DejaVuSans-34"/>
       <use xlink:href="#DejaVuSans-35" x="63.623047"/>
       <use xlink:href="#DejaVuSans-30" x="127.246094"/>
      </g>
     </g>
    </g>
    <g id="text_44">
     <!-- Estradiol concentrations (pg/mL) -->
     <g transform="translate(21.998438 277.695938)rotate(-90)scale(0.1 -0.1)">
      <defs>
       <path id="DejaVuSans-67" d="M 2906 1791 
Q 2906 2416 2648 2759 
Q 2391 3103 1925 3103 
Q 1463 3103 1205 2759 
Q 947 2416 947 1791 
Q 947 1169 1205 825 
Q 1463 481 1925 481 
Q 2391 481 2648 825 
Q 2906 1169 2906 1791 
z
M 3481 434 
Q 3481 -459 3084 -895 
Q 2688 -1331 1869 -1331 
Q 1566 -1331 1297 -1286 
Q 1028 -1241 775 -1147 
L 775 -588 
Q 1028 -725 1275 -790 
Q 1522 -856 1778 -856 
Q 2344 -856 2625 -561 
Q 2906 -266 2906 331 
L 2906 616 
Q 2728 306 2450 153 
Q 2172 0 1784 0 
Q 1141 0 747 490 
Q 353 981 353 1791 
Q 353 2603 747 3093 
Q 1141 3584 1784 3584 
Q 2172 3584 2450 3431 
Q 2728 3278 2906 2969 
L 2906 3500 
L 3481 3500 
L 3481 434 
z
" transform="scale(0.015625)"/>
      </defs>
      <use xlink:href="#DejaVuSans-45"/>
      <use xlink:href="#DejaVuSans-73" x="63.183594"/>
      <use xlink:href="#DejaVuSans-74" x="115.283203"/>
      <use xlink:href="#DejaVuSans-72" x="154.492188"/>
      <use xlink:href="#DejaVuSans-61" x="195.605469"/>
      <use xlink:href="#DejaVuSans-64" x="256.884766"/>
      <use xlink:href="#DejaVuSans-69" x="320.361328"/>
      <use xlink:href="#DejaVuSans-6f" x="348.144531"/>
      <use xlink:href="#DejaVuSans-6c" x="409.326172"/>
      <use xlink:href="#DejaVuSans-20" x="437.109375"/>
      <use xlink:href="#DejaVuSans-63" x="468.896484"/>
      <use xlink:href="#DejaVuSans-6f" x="523.876953"/>
      <use xlink:href="#DejaVuSans-6e" x="585.058594"/>
      <use xlink:href="#DejaVuSans-63" x="648.4375"/>
      <use xlink:href="#DejaVuSans-65" x="703.417969"/>
      <use xlink:href="#DejaVuSans-6e" x="764.941406"/>
      <use xlink:href="#DejaVuSans-74" x="828.320312"/>
      <use xlink:href="#DejaVuSans-72" x="867.529297"/>
      <use xlink:href="#DejaVuSans-61" x="908.642578"/>
      <use xlink:href="#DejaVuSans-74" x="969.921875"/>
      <use xlink:href="#DejaVuSans-69" x="1009.130859"/>
      <use xlink:href="#DejaVuSans-6f" x="1036.914062"/>
      <use xlink:href="#DejaVuSans-6e" x="1098.095703"/>
      <use xlink:href="#DejaVuSans-73" x="1161.474609"/>
      <use xlink:href="#DejaVuSans-20" x="1213.574219"/>
      <use xlink:href="#DejaVuSans-28" x="1245.361328"/>
      <use xlink:href="#DejaVuSans-70" x="1284.375"/>
      <use xlink:href="#DejaVuSans-67" x="1347.851562"/>
      <use xlink:href="#DejaVuSans-2f" x="1411.328125"/>
      <use xlink:href="#DejaVuSans-6d" x="1445.019531"/>
      <use xlink:href="#DejaVuSans-4c" x="1542.431641"/>
      <use xlink:href="#DejaVuSans-29" x="1598.144531"/>
     </g>
    </g>
   </g>
   <g id="line2d_42">
    <path d="M 54.165618 256.884876 
L 54.460716 257.123666 
L 54.755814 257.166645 
L 55.050911 257.024549 
L 55.346009 256.707682 
L 55.936204 255.588765 
L 56.526399 253.884211 
L 57.411692 250.377208 
L 58.296984 245.912404 
L 59.477375 238.781135 
L 60.952863 228.483524 
L 63.313643 210.144885 
L 69.215595 163.411975 
L 71.576375 146.710024 
L 73.642058 133.567621 
L 75.707741 121.91898 
L 77.478327 113.150703 
L 79.248912 105.494678 
L 81.019498 98.918809 
L 82.494985 94.230591 
L 83.970473 90.227684 
L 85.445961 86.874476 
L 86.921449 84.133441 
L 88.101839 82.355542 
L 89.28223 80.925023 
L 90.46262 79.822218 
L 91.64301 79.027755 
L 92.8234 78.522683 
L 94.003791 78.28857 
L 95.184181 78.307578 
L 96.364571 78.562521 
L 97.544962 79.036903 
L 99.020449 79.914496 
L 100.495937 81.081144 
L 101.971425 82.509424 
L 103.742011 84.532725 
L 105.807694 87.268314 
L 108.168474 90.817354 
L 110.824352 95.255545 
L 113.775328 100.626427 
L 117.316499 107.528292 
L 122.03806 117.245243 
L 130.005695 134.24743 
L 140.039012 155.546 
L 146.531159 168.807967 
L 152.43311 180.358955 
L 158.039964 190.833608 
L 163.35172 200.28816 
L 168.663477 209.281695 
L 173.680135 217.356181 
L 178.696794 225.032053 
L 183.713453 232.321169 
L 188.730111 239.237379 
L 193.74677 245.795696 
L 199.058526 252.367029 
L 202.894795 256.884876 
L 203.189892 257.123666 
L 203.48499 257.166645 
L 203.780088 257.024549 
L 204.075185 256.707682 
L 204.66538 255.588766 
L 205.255575 253.884211 
L 206.140868 250.377209 
L 207.026161 245.912405 
L 208.206551 238.781136 
L 209.682039 228.483524 
L 212.04282 210.144886 
L 217.944771 163.411975 
L 220.305552 146.710024 
L 222.371235 133.567622 
L 224.436918 121.918981 
L 226.207503 113.150703 
L 227.978089 105.494678 
L 229.748674 98.918809 
L 231.224162 94.230592 
L 232.69965 90.227685 
L 234.175138 86.874476 
L 235.650625 84.133441 
L 236.831016 82.355542 
L 238.011406 80.925023 
L 239.191796 79.822218 
L 240.372187 79.027755 
L 241.552577 78.522683 
L 242.732967 78.28857 
L 243.913357 78.307578 
L 245.093748 78.562521 
L 246.274138 79.036903 
L 247.749626 79.914496 
L 249.225114 81.081144 
L 250.700602 82.509424 
L 252.471187 84.532725 
L 254.53687 87.268314 
L 256.897651 90.817354 
L 259.553529 95.255545 
L 262.504505 100.626427 
L 266.045675 107.528292 
L 270.767237 117.245242 
L 278.734871 134.24743 
L 288.768188 155.545999 
L 295.260335 168.807967 
L 301.162287 180.358955 
L 306.76914 190.833608 
L 312.080897 200.28816 
L 317.392653 209.281695 
L 322.409312 217.356181 
L 327.42597 225.032053 
L 332.442629 232.321169 
L 337.459288 239.237379 
L 342.475947 245.795696 
L 347.787703 252.367029 
L 351.623971 256.884876 
L 351.919069 257.123666 
L 352.214167 257.166645 
L 352.509264 257.024549 
L 352.804362 256.707682 
L 353.394557 255.588766 
L 353.984752 253.884211 
L 354.870045 250.377209 
L 355.755337 245.912405 
L 356.935728 238.781136 
L 358.411216 228.483525 
L 360.771996 210.144887 
L 366.673948 163.411976 
L 369.034728 146.710025 
L 371.100411 133.567622 
L 373.166094 121.918981 
L 374.93668 113.150704 
L 376.707265 105.494679 
L 378.47785 98.91881 
L 379.953338 94.230592 
L 381.428826 90.227685 
L 382.904314 86.874476 
L 384.379802 84.133441 
L 385.560192 82.355542 
L 386.740583 80.925023 
L 387.920973 79.822218 
L 389.101363 79.027755 
L 390.281753 78.522683 
L 391.462144 78.28857 
L 392.642534 78.307578 
L 393.822924 78.562521 
L 395.003315 79.036903 
L 396.478802 79.914496 
L 397.95429 81.081144 
L 399.429778 82.509424 
L 401.200364 84.532725 
L 403.266047 87.268313 
L 405.626827 90.817353 
L 408.282705 95.255545 
L 411.233681 100.626427 
L 414.774852 107.528292 
L 419.496413 117.245242 
L 427.464048 134.247429 
L 437.497365 155.545999 
L 443.989512 168.807966 
L 449.891463 180.358955 
L 455.498317 190.833608 
L 460.810073 200.288159 
L 466.121829 209.281694 
L 471.138488 217.356181 
L 476.155147 225.032053 
L 481.171806 232.321169 
L 486.188464 239.237379 
L 491.205123 245.795696 
L 496.516879 252.367029 
L 500.353148 256.884876 
L 500.353148 256.884876 
" clip-path="url(#pf6d8438ed7)" style="fill: none; stroke: #2ca02c; stroke-width: 1.5; stroke-linecap: square"/>
   </g>
   <g id="line2d_43">
    <path d="M 54.165618 167.050885 
L 55.050911 167.70531 
L 55.936204 168.147511 
L 56.821497 168.393995 
L 57.706789 168.460334 
L 58.88718 168.293823 
L 60.06757 167.865569 
L 61.24796 167.205589 
L 62.723448 166.096728 
L 64.198936 164.718273 
L 65.969521 162.770622 
L 68.035204 160.179392 
L 70.691082 156.48648 
L 74.822448 150.292663 
L 82.494985 138.712966 
L 86.036156 133.769603 
L 89.28223 129.604221 
L 92.233205 126.16885 
L 94.889083 123.385385 
L 97.544962 120.905288 
L 100.20084 118.733157 
L 102.856718 116.86873 
L 105.217498 115.466505 
L 107.578279 114.299216 
L 109.93906 113.360398 
L 112.29984 112.64241 
L 114.660621 112.13672 
L 117.316499 111.810133 
L 119.972377 111.726871 
L 122.628255 111.872788 
L 125.284133 112.23357 
L 128.235109 112.869078 
L 131.186085 113.732925 
L 134.432158 114.92447 
L 137.678231 116.345474 
L 141.219402 118.130411 
L 145.055671 120.308894 
L 149.187037 122.902618 
L 153.908598 126.133855 
L 159.220354 130.048598 
L 165.417403 134.908066 
L 172.794843 140.989592 
L 182.82816 149.576184 
L 204.075185 167.875456 
L 204.960478 168.250631 
L 205.845771 168.435381 
L 207.026161 168.411767 
L 208.206551 168.110482 
L 209.386942 167.562762 
L 210.862429 166.575275 
L 212.337917 165.299054 
L 214.108503 163.451468 
L 216.174186 160.949517 
L 218.830064 157.33432 
L 222.371235 152.093894 
L 232.404552 137.024287 
L 235.945723 132.21083 
L 239.191796 128.188069 
L 242.142772 124.894828 
L 244.79865 122.245268 
L 247.454528 119.901791 
L 250.110406 117.866702 
L 252.766285 116.137901 
L 255.127065 114.853867 
L 257.487846 113.801702 
L 259.848626 112.974315 
L 262.209407 112.363589 
L 264.570188 111.960638 
L 267.226066 111.743922 
L 269.881944 111.764279 
L 272.537822 112.00746 
L 275.1937 112.459146 
L 278.144676 113.188282 
L 281.095652 114.138167 
L 284.341725 115.415883 
L 287.882896 117.060984 
L 291.719164 119.10619 
L 295.85053 121.575994 
L 300.276994 124.48569 
L 305.293653 128.058118 
L 310.900506 132.328503 
L 317.687751 137.794126 
L 326.24558 144.997848 
L 339.524971 156.515125 
L 352.509264 167.70531 
L 353.394557 168.147511 
L 354.27985 168.393995 
L 355.165142 168.460334 
L 356.345533 168.293823 
L 357.525923 167.86557 
L 358.706313 167.205589 
L 360.181801 166.096728 
L 361.657289 164.718274 
L 363.427874 162.770623 
L 365.493557 160.179392 
L 368.149435 156.48648 
L 372.280801 150.292664 
L 379.953338 138.712966 
L 383.494509 133.769603 
L 386.740583 129.604221 
L 389.691558 126.16885 
L 392.347436 123.385386 
L 395.003315 120.905288 
L 397.659193 118.733157 
L 400.315071 116.868731 
L 402.675851 115.466505 
L 405.036632 114.299216 
L 407.397413 113.360398 
L 409.758193 112.64241 
L 412.118974 112.13672 
L 414.774852 111.810133 
L 417.43073 111.726871 
L 420.086608 111.872788 
L 422.742486 112.23357 
L 425.693462 112.869078 
L 428.644438 113.732925 
L 431.890511 114.92447 
L 435.136584 116.345474 
L 438.677755 118.130411 
L 442.514024 120.308894 
L 446.64539 122.902617 
L 451.366951 126.133855 
L 456.678707 130.048598 
L 462.875756 134.908066 
L 470.253196 140.989592 
L 480.286513 149.576184 
L 500.353148 167.050885 
L 500.353148 167.050885 
" clip-path="url(#pf6d8438ed7)" style="fill: none; stroke: #9467bd; stroke-width: 1.5; stroke-linecap: square"/>
   </g>
   <g id="line2d_44">
    <path d="M 54.165618 222.101624 
L 55.641106 189.824575 
L 57.116594 163.233161 
L 58.592082 141.416606 
L 59.772472 126.879011 
L 60.952863 114.56503 
L 62.133253 104.181959 
L 63.313643 95.475318 
L 64.494033 88.223867 
L 65.674424 82.235259 
L 66.854814 77.342274 
L 68.035204 73.399538 
L 69.215595 70.280671 
L 70.395985 67.875805 
L 71.576375 66.089434 
L 72.461668 65.105176 
L 73.346961 64.390947 
L 74.232253 63.918883 
L 75.117546 63.663902 
L 76.002839 63.603425 
L 77.183229 63.790515 
L 78.363619 64.24483 
L 79.54401 64.929294 
L 81.019498 66.05985 
L 82.790083 67.75003 
L 84.855766 70.086421 
L 87.216547 73.120352 
L 90.167522 77.299062 
L 94.003791 83.137057 
L 100.20084 93.023878 
L 113.48023 114.258055 
L 120.562572 125.131541 
L 127.349816 135.155476 
L 134.137061 144.777668 
L 140.924305 154.001913 
L 147.711549 162.839176 
L 154.498793 171.303239 
L 161.286037 179.408764 
L 168.073281 187.170448 
L 174.860526 194.602658 
L 181.942867 202.021749 
L 189.025209 209.112371 
L 196.107551 215.889047 
L 202.894795 222.101624 
L 204.370283 189.824577 
L 205.845771 163.233162 
L 207.321259 141.416607 
L 208.501649 126.879012 
L 209.682039 114.565031 
L 210.862429 104.181959 
L 212.04282 95.475319 
L 213.22321 88.223867 
L 214.4036 82.235259 
L 215.583991 77.342274 
L 216.764381 73.399538 
L 217.944771 70.280671 
L 219.125161 67.875805 
L 220.305552 66.089434 
L 221.190844 65.105176 
L 222.076137 64.390947 
L 222.96143 63.918883 
L 223.846723 63.663902 
L 224.732015 63.603425 
L 225.912406 63.790515 
L 227.092796 64.24483 
L 228.273186 64.929294 
L 229.748674 66.05985 
L 231.519259 67.75003 
L 233.584942 70.086421 
L 235.945723 73.120352 
L 238.896699 77.299062 
L 242.732967 83.137057 
L 248.930016 93.023878 
L 262.209407 114.258055 
L 269.291749 125.131541 
L 276.078993 135.155476 
L 282.866237 144.777668 
L 289.653481 154.001912 
L 296.440725 162.839176 
L 303.22797 171.303238 
L 310.015214 179.408764 
L 316.802458 187.170448 
L 323.589702 194.602658 
L 330.672044 202.021749 
L 337.754385 209.112371 
L 344.836727 215.889047 
L 351.623971 222.101623 
L 353.099459 189.824579 
L 354.574947 163.233164 
L 356.050435 141.416608 
L 357.230825 126.879013 
L 358.411216 114.565032 
L 359.591606 104.18196 
L 360.771996 95.47532 
L 361.952386 88.223868 
L 363.132777 82.235259 
L 364.313167 77.342275 
L 365.493557 73.399539 
L 366.673948 70.280671 
L 367.854338 67.875806 
L 369.034728 66.089434 
L 369.920021 65.105176 
L 370.805314 64.390947 
L 371.690606 63.918883 
L 372.575899 63.663902 
L 373.461192 63.603425 
L 374.641582 63.790515 
L 375.821972 64.24483 
L 377.002363 64.929294 
L 378.47785 66.05985 
L 380.248436 67.750029 
L 382.314119 70.086421 
L 384.6749 73.120352 
L 387.625875 77.299062 
L 391.462144 83.137057 
L 397.659193 93.023878 
L 410.938583 114.258055 
L 418.020925 125.13154 
L 424.808169 135.155476 
L 431.595414 144.777668 
L 438.382658 154.001912 
L 445.169902 162.839176 
L 451.957146 171.303238 
L 458.74439 179.408763 
L 465.531634 187.170448 
L 472.318879 194.602658 
L 479.40122 202.021749 
L 486.483562 209.112371 
L 493.565904 215.889047 
L 500.353148 222.101623 
L 500.353148 222.101623 
" clip-path="url(#pf6d8438ed7)" style="fill: none; stroke: #bcbd22; stroke-width: 1.5; stroke-linecap: square"/>
   </g>
   <g id="line2d_45">
    <path d="M 54.165618 145.677806 
L 55.936204 146.837294 
L 57.706789 147.724717 
L 59.477375 148.363564 
L 61.24796 148.775935 
L 63.018546 148.982614 
L 65.084229 148.989754 
L 67.149912 148.772432 
L 69.510692 148.28363 
L 71.871473 147.573772 
L 74.527351 146.553106 
L 77.773424 145.047722 
L 81.609693 142.994271 
L 86.626351 140.020953 
L 104.037108 129.440877 
L 108.758669 126.945075 
L 113.185133 124.861248 
L 117.316499 123.169648 
L 121.152767 121.83534 
L 124.989036 120.739871 
L 128.825304 119.890154 
L 132.366475 119.327081 
L 135.907646 118.977173 
L 139.448817 118.839334 
L 142.989988 118.910957 
L 146.826256 119.220387 
L 150.662525 119.764708 
L 154.498793 120.536353 
L 158.335061 121.526783 
L 162.466427 122.827391 
L 166.597794 124.35857 
L 171.024257 126.240298 
L 175.745818 128.504451 
L 180.467379 131.01417 
L 185.484038 133.927278 
L 190.795794 137.262527 
L 196.697746 141.237707 
L 205.550673 147.313512 
L 207.321259 148.073799 
L 209.091844 148.59673 
L 210.862429 148.903737 
L 212.928112 149.01582 
L 214.993795 148.891284 
L 217.059478 148.557903 
L 219.420259 147.954141 
L 222.076137 147.033063 
L 225.027113 145.762954 
L 228.568284 143.972752 
L 232.69965 141.625204 
L 238.896699 137.821095 
L 249.520211 131.293687 
L 254.831968 128.317239 
L 259.258431 126.079652 
L 263.389797 124.227822 
L 267.226066 122.734219 
L 271.062334 121.472443 
L 274.898603 120.452018 
L 278.439773 119.729406 
L 281.980944 119.219635 
L 285.522115 118.92291 
L 289.063286 118.837734 
L 292.604457 118.961161 
L 296.440725 119.325409 
L 300.276994 119.9229 
L 304.113262 120.745823 
L 307.949531 121.785444 
L 312.080897 123.136523 
L 316.212263 124.715445 
L 320.638726 126.645193 
L 325.360287 128.956927 
L 330.376946 131.677606 
L 335.688702 134.829011 
L 341.295556 138.426886 
L 347.197508 142.48024 
L 353.984752 147.162142 
L 355.755337 147.964166 
L 357.525923 148.525132 
L 359.296508 148.866693 
L 361.362191 149.014969 
L 363.427874 148.922487 
L 365.493557 148.617318 
L 367.854338 148.04145 
L 370.510216 147.146671 
L 373.461192 145.900076 
L 376.707265 144.287829 
L 380.838631 141.97336 
L 386.740583 138.374849 
L 398.544485 131.121298 
L 403.561144 128.317239 
L 407.987608 126.079652 
L 412.118974 124.227822 
L 415.955242 122.734219 
L 419.791511 121.472443 
L 423.627779 120.452018 
L 427.16895 119.729406 
L 430.710121 119.219635 
L 434.251292 118.92291 
L 437.792463 118.837734 
L 441.333633 118.961161 
L 445.169902 119.325409 
L 449.00617 119.9229 
L 452.842439 120.745823 
L 456.678707 121.785444 
L 460.810073 123.136523 
L 464.941439 124.715445 
L 469.367903 126.645193 
L 474.089464 128.956926 
L 479.106123 131.677606 
L 484.417879 134.829011 
L 490.024733 138.426886 
L 495.926684 142.48024 
L 500.353148 145.677806 
L 500.353148 145.677806 
" clip-path="url(#pf6d8438ed7)" style="fill: none; stroke: #1f77b4; stroke-width: 1.5; stroke-linecap: square"/>
   </g>
   <g id="line2d_46">
    <path d="M 54.165618 140.939259 
L 65.084229 139.850478 
L 76.297936 138.959172 
L 87.806742 138.268276 
L 99.610645 137.779704 
L 112.004743 137.490039 
L 124.989036 137.414263 
L 138.268427 137.559501 
L 152.138012 137.93257 
L 166.597794 138.542281 
L 181.942867 139.413976 
L 198.173234 140.563854 
L 203.48499 140.874327 
L 214.4036 139.797669 
L 225.617308 138.918063 
L 237.126113 138.238397 
L 249.225114 137.751338 
L 261.619212 137.477393 
L 274.603505 137.416864 
L 287.882896 137.576485 
L 301.752482 137.963359 
L 316.50736 138.601136 
L 331.852434 139.489732 
L 348.082801 140.65573 
L 352.214167 140.874078 
L 363.132777 139.797422 
L 374.346484 138.91782 
L 385.85529 138.238157 
L 397.95429 137.7511 
L 410.348388 137.477159 
L 423.332681 137.416634 
L 436.612072 137.576259 
L 450.481658 137.963136 
L 465.236537 138.600916 
L 480.581611 139.489517 
L 496.811977 140.655519 
L 500.353148 140.938501 
L 500.353148 140.938501 
" clip-path="url(#pf6d8438ed7)" style="fill: none; stroke: #e377c2; stroke-width: 1.5; stroke-linecap: square"/>
   </g>
   <g id="patch_5">
    <path d="M 54.165625 362.158125 
L 54.165625 29.518125 
" style="fill: none; stroke: #000000; stroke-width: 0.8; stroke-linejoin: miter; stroke-linecap: square"/>
   </g>
   <g id="patch_6">
    <path d="M 500.565625 362.158125 
L 500.565625 29.518125 
" style="fill: none; stroke: #000000; stroke-width: 0.8; stroke-linejoin: miter; stroke-linecap: square"/>
   </g>
   <g id="patch_7">
    <path d="M 54.165625 362.158125 
L 500.565625 362.158125 
" style="fill: none; stroke: #000000; stroke-width: 0.8; stroke-linejoin: miter; stroke-linecap: square"/>
   </g>
   <g id="patch_8">
    <path d="M 54.165625 29.518125 
L 500.565625 29.518125 
" style="fill: none; stroke: #000000; stroke-width: 0.8; stroke-linejoin: miter; stroke-linecap: square"/>
   </g>
   <g id="text_45">
    <!-- All estradiol esters at steady state (scaled to 5 mg/7 days or equivalent) -->
    <g transform="translate(59.7325 23.518125)scale(0.12 -0.12)">
     <defs>
      <path id="DejaVuSans-41" d="M 2188 4044 
L 1331 1722 
L 3047 1722 
L 2188 4044 
z
M 1831 4666 
L 2547 4666 
L 4325 0 
L 3669 0 
L 3244 1197 
L 1141 1197 
L 716 0 
L 50 0 
L 1831 4666 
z
" transform="scale(0.015625)"/>
      <path id="DejaVuSans-71" d="M 947 1747 
Q 947 1113 1208 752 
Q 1469 391 1925 391 
Q 2381 391 2643 752 
Q 2906 1113 2906 1747 
Q 2906 2381 2643 2742 
Q 2381 3103 1925 3103 
Q 1469 3103 1208 2742 
Q 947 2381 947 1747 
z
M 2906 525 
Q 2725 213 2448 61 
Q 2172 -91 1784 -91 
Q 1150 -91 751 415 
Q 353 922 353 1747 
Q 353 2572 751 3078 
Q 1150 3584 1784 3584 
Q 2172 3584 2448 3432 
Q 2725 3281 2906 2969 
L 2906 3500 
L 3481 3500 
L 3481 -1331 
L 2906 -1331 
L 2906 525 
z
" transform="scale(0.015625)"/>
      <path id="DejaVuSans-75" d="M 544 1381 
L 544 3500 
L 1119 3500 
L 1119 1403 
Q 1119 906 1312 657 
Q 1506 409 1894 409 
Q 2359 409 2629 706 
Q 2900 1003 2900 1516 
L 2900 3500 
L 3475 3500 
L 3475 0 
L 2900 0 
L 2900 538 
Q 2691 219 2414 64 
Q 2138 -91 1772 -91 
Q 1169 -91 856 284 
Q 544 659 544 1381 
z
M 1991 3584 
L 1991 3584 
z
" transform="scale(0.015625)"/>
      <path id="DejaVuSans-76" d="M 191 3500 
L 800 3500 
L 1894 563 
L 2988 3500 
L 3597 3500 
L 2284 0 
L 1503 0 
L 191 3500 
z
" transform="scale(0.015625)"/>
     </defs>
     <use xlink:href="#DejaVuSans-41"/>
     <use xlink:href="#DejaVuSans-6c" x="68.408203"/>
     <use xlink:href="#DejaVuSans-6c" x="96.191406"/>
     <use xlink:href="#DejaVuSans-20" x="123.974609"/>
     <use xlink:href="#DejaVuSans-65" x="155.761719"/>
     <use xlink:href="#DejaVuSans-73" x="217.285156"/>
     <use xlink:href="#DejaVuSans-74" x="269.384766"/>
     <use xlink:href="#DejaVuSans-72" x="308.59375"/>
     <use xlink:href="#DejaVuSans-61" x="349.707031"/>
     <use xlink:href="#DejaVuSans-64" x="410.986328"/>
     <use xlink:href="#DejaVuSans-69" x="474.462891"/>
     <use xlink:href="#DejaVuSans-6f" x="502.246094"/>
     <use xlink:href="#DejaVuSans-6c" x="563.427734"/>
     <use xlink:href="#DejaVuSans-20" x="591.210938"/>
     <use xlink:href="#DejaVuSans-65" x="622.998047"/>
     <use xlink:href="#DejaVuSans-73" x="684.521484"/>
     <use xlink:href="#DejaVuSans-74" x="736.621094"/>
     <use xlink:href="#DejaVuSans-65" x="775.830078"/>
     <use xlink:href="#DejaVuSans-72" x="837.353516"/>
     <use xlink:href="#DejaVuSans-73" x="878.466797"/>
     <use xlink:href="#DejaVuSans-20" x="930.566406"/>
     <use xlink:href="#DejaVuSans-61" x="962.353516"/>
     <use xlink:href="#DejaVuSans-74" x="1023.632812"/>
     <use xlink:href="#DejaVuSans-20" x="1062.841797"/>
     <use xlink:href="#DejaVuSans-73" x="1094.628906"/>
     <use xlink:href="#DejaVuSans-74" x="1146.728516"/>
     <use xlink:href="#DejaVuSans-65" x="1185.9375"/>
     <use xlink:href="#DejaVuSans-61" x="1247.460938"/>
     <use xlink:href="#DejaVuSans-64" x="1308.740234"/>
     <use xlink:href="#DejaVuSans-79" x="1372.216797"/>
     <use xlink:href="#DejaVuSans-20" x="1431.396484"/>
     <use xlink:href="#DejaVuSans-73" x="1463.183594"/>
     <use xlink:href="#DejaVuSans-74" x="1515.283203"/>
     <use xlink:href="#DejaVuSans-61" x="1554.492188"/>
     <use xlink:href="#DejaVuSans-74" x="1615.771484"/>
     <use xlink:href="#DejaVuSans-65" x="1654.980469"/>
     <use xlink:href="#DejaVuSans-20" x="1716.503906"/>
     <use xlink:href="#DejaVuSans-28" x="1748.291016"/>
     <use xlink:href="#DejaVuSans-73" x="1787.304688"/>
     <use xlink:href="#DejaVuSans-63" x="1839.404297"/>
     <use xlink:href="#DejaVuSans-61" x="1894.384766"/>
     <use xlink:href="#DejaVuSans-6c" x="1955.664062"/>
     <use xlink:href="#DejaVuSans-65" x="1983.447266"/>
     <use xlink:href="#DejaVuSans-64" x="2044.970703"/>
     <use xlink:href="#DejaVuSans-20" x="2108.447266"/>
     <use xlink:href="#DejaVuSans-74" x="2140.234375"/>
     <use xlink:href="#DejaVuSans-6f" x="2179.443359"/>
     <use xlink:href="#DejaVuSans-20" x="2240.625"/>
     <use xlink:href="#DejaVuSans-35" x="2272.412109"/>
     <use xlink:href="#DejaVuSans-20" x="2336.035156"/>
     <use xlink:href="#DejaVuSans-6d" x="2367.822266"/>
     <use xlink:href="#DejaVuSans-67" x="2465.234375"/>
     <use xlink:href="#DejaVuSans-2f" x="2528.710938"/>
     <use xlink:href="#DejaVuSans-37" x="2562.402344"/>
     <use xlink:href="#DejaVuSans-20" x="2626.025391"/>
     <use xlink:href="#DejaVuSans-64" x="2657.8125"/>
     <use xlink:href="#DejaVuSans-61" x="2721.289062"/>
     <use xlink:href="#DejaVuSans-79" x="2782.568359"/>
     <use xlink:href="#DejaVuSans-73" x="2841.748047"/>
     <use xlink:href="#DejaVuSans-20" x="2893.847656"/>
     <use xlink:href="#DejaVuSans-6f" x="2925.634766"/>
     <use xlink:href="#DejaVuSans-72" x="2986.816406"/>
     <use xlink:href="#DejaVuSans-20" x="3027.929688"/>
     <use xlink:href="#DejaVuSans-65" x="3059.716797"/>
     <use xlink:href="#DejaVuSans-71" x="3121.240234"/>
     <use xlink:href="#DejaVuSans-75" x="3184.716797"/>
     <use xlink:href="#DejaVuSans-69" x="3248.095703"/>
     <use xlink:href="#DejaVuSans-76" x="3275.878906"/>
     <use xlink:href="#DejaVuSans-61" x="3335.058594"/>
     <use xlink:href="#DejaVuSans-6c" x="3396.337891"/>
     <use xlink:href="#DejaVuSans-65" x="3424.121094"/>
     <use xlink:href="#DejaVuSans-6e" x="3485.644531"/>
     <use xlink:href="#DejaVuSans-74" x="3549.023438"/>
     <use xlink:href="#DejaVuSans-29" x="3588.232422"/>
    </g>
   </g>
   <g id="legend_1">
    <g id="patch_9">
     <path d="M 61.165625 357.158125 
L 313.795313 357.158125 
Q 315.795313 357.158125 315.795313 355.158125 
L 315.795313 282.7675 
Q 315.795313 280.7675 313.795313 280.7675 
L 61.165625 280.7675 
Q 59.165625 280.7675 59.165625 282.7675 
L 59.165625 355.158125 
Q 59.165625 357.158125 61.165625 357.158125 
z
" style="fill: #ffffff; opacity: 0.95; stroke: #cccccc; stroke-linejoin: miter"/>
    </g>
    <g id="line2d_47">
     <path d="M 63.165625 288.865938 
L 73.165625 288.865938 
L 83.165625 288.865938 
" style="fill: none; stroke: #2ca02c; stroke-width: 1.5; stroke-linecap: square"/>
    </g>
    <g id="text_46">
     <!-- Estradiol valerate 5 mg/7 days -->
     <g transform="translate(91.165625 292.365938)scale(0.1 -0.1)">
      <use xlink:href="#DejaVuSans-45"/>
      <use xlink:href="#DejaVuSans-73" x="63.183594"/>
      <use xlink:href="#DejaVuSans-74" x="115.283203"/>
      <use xlink:href="#DejaVuSans-72" x="154.492188"/>
      <use xlink:href="#DejaVuSans-61" x="195.605469"/>
      <use xlink:href="#DejaVuSans-64" x="256.884766"/>
      <use xlink:href="#DejaVuSans-69" x="320.361328"/>
      <use xlink:href="#DejaVuSans-6f" x="348.144531"/>
      <use xlink:href="#DejaVuSans-6c" x="409.326172"/>
      <use xlink:href="#DejaVuSans-20" x="437.109375"/>
      <use xlink:href="#DejaVuSans-76" x="468.896484"/>
      <use xlink:href="#DejaVuSans-61" x="528.076172"/>
      <use xlink:href="#DejaVuSans-6c" x="589.355469"/>
      <use xlink:href="#DejaVuSans-65" x="617.138672"/>
      <use xlink:href="#DejaVuSans-72" x="678.662109"/>
      <use xlink:href="#DejaVuSans-61" x="719.775391"/>
      <use xlink:href="#DejaVuSans-74" x="781.054688"/>
      <use xlink:href="#DejaVuSans-65" x="820.263672"/>
      <use xlink:href="#DejaVuSans-20" x="881.787109"/>
      <use xlink:href="#DejaVuSans-35" x="913.574219"/>
      <use xlink:href="#DejaVuSans-20" x="977.197266"/>
      <use xlink:href="#DejaVuSans-6d" x="1008.984375"/>
      <use xlink:href="#DejaVuSans-67" x="1106.396484"/>
      <use xlink:href="#DejaVuSans-2f" x="1169.873047"/>
      <use xlink:href="#DejaVuSans-37" x="1203.564453"/>
      <use xlink:href="#DejaVuSans-20" x="1267.1875"/>
      <use xlink:href="#DejaVuSans-64" x="1298.974609"/>
      <use xlink:href="#DejaVuSans-61" x="1362.451172"/>
      <use xlink:href="#DejaVuSans-79" x="1423.730469"/>
      <use xlink:href="#DejaVuSans-73" x="1482.910156"/>
     </g>
    </g>
    <g id="line2d_48">
     <path d="M 63.165625 303.544063 
L 73.165625 303.544063 
L 83.165625 303.544063 
" style="fill: none; stroke: #9467bd; stroke-width: 1.5; stroke-linecap: square"/>
    </g>
    <g id="text_47">
     <!-- Estradiol cypionate oil 5 mg/7 days -->
     <g transform="translate(91.165625 307.044063)scale(0.1 -0.1)">
      <use xlink:href="#DejaVuSans-45"/>
      <use xlink:href="#DejaVuSans-73" x="63.183594"/>
      <use xlink:href="#DejaVuSans-74" x="115.283203"/>
      <use xlink:href="#DejaVuSans-72" x="154.492188"/>
      <use xlink:href="#DejaVuSans-61" x="195.605469"/>
      <use xlink:href="#DejaVuSans-64" x="256.884766"/>
      <use xlink:href="#DejaVuSans-69" x="320.361328"/>
      <use xlink:href="#DejaVuSans-6f" x="348.144531"/>
      <use xlink:href="#DejaVuSans-6c" x="409.326172"/>
      <use xlink:href="#DejaVuSans-20" x="437.109375"/>
      <use xlink:href="#DejaVuSans-63" x="468.896484"/>
      <use xlink:href="#DejaVuSans-79" x="523.876953"/>
      <use xlink:href="#DejaVuSans-70" x="583.056641"/>
      <use xlink:href="#DejaVuSans-69" x="646.533203"/>
      <use xlink:href="#DejaVuSans-6f" x="674.316406"/>
      <use xlink:href="#DejaVuSans-6e" x="735.498047"/>
      <use xlink:href="#DejaVuSans-61" x="798.876953"/>
      <use xlink:href="#DejaVuSans-74" x="860.15625"/>
      <use xlink:href="#DejaVuSans-65" x="899.365234"/>
      <use xlink:href="#DejaVuSans-20" x="960.888672"/>
      <use xlink:href="#DejaVuSans-6f" x="992.675781"/>
      <use xlink:href="#DejaVuSans-69" x="1053.857422"/>
      <use xlink:href="#DejaVuSans-6c" x="1081.640625"/>
      <use xlink:href="#DejaVuSans-20" x="1109.423828"/>
      <use xlink:href="#DejaVuSans-35" x="1141.210938"/>
      <use xlink:href="#DejaVuSans-20" x="1204.833984"/>
      <use xlink:href="#DejaVuSans-6d" x="1236.621094"/>
      <use xlink:href="#DejaVuSans-67" x="1334.033203"/>
      <use xlink:href="#DejaVuSans-2f" x="1397.509766"/>
      <use xlink:href="#DejaVuSans-37" x="1431.201172"/>
      <use xlink:href="#DejaVuSans-20" x="1494.824219"/>
      <use xlink:href="#DejaVuSans-64" x="1526.611328"/>
      <use xlink:href="#DejaVuSans-61" x="1590.087891"/>
      <use xlink:href="#DejaVuSans-79" x="1651.367188"/>
      <use xlink:href="#DejaVuSans-73" x="1710.546875"/>
     </g>
    </g>
    <g id="line2d_49">
     <path d="M 63.165625 318.222188 
L 73.165625 318.222188 
L 83.165625 318.222188 
" style="fill: none; stroke: #bcbd22; stroke-width: 1.5; stroke-linecap: square"/>
    </g>
    <g id="text_48">
     <!-- Estradiol cypionate suspension 5 mg/7 days -->
     <g transform="translate(91.165625 321.722188)scale(0.1 -0.1)">
      <use xlink:href="#DejaVuSans-45"/>
      <use xlink:href="#DejaVuSans-73" x="63.183594"/>
      <use xlink:href="#DejaVuSans-74" x="115.283203"/>
      <use xlink:href="#DejaVuSans-72" x="154.492188"/>
      <use xlink:href="#DejaVuSans-61" x="195.605469"/>
      <use xlink:href="#DejaVuSans-64" x="256.884766"/>
      <use xlink:href="#DejaVuSans-69" x="320.361328"/>
      <use xlink:href="#DejaVuSans-6f" x="348.144531"/>
      <use xlink:href="#DejaVuSans-6c" x="409.326172"/>
      <use xlink:href="#DejaVuSans-20" x="437.109375"/>
      <use xlink:href="#DejaVuSans-63" x="468.896484"/>
      <use xlink:href="#DejaVuSans-79" x="523.876953"/>
      <use xlink:href="#DejaVuSans-70" x="583.056641"/>
      <use xlink:href="#DejaVuSans-69" x="646.533203"/>
      <use xlink:href="#DejaVuSans-6f" x="674.316406"/>
      <use xlink:href="#DejaVuSans-6e" x="735.498047"/>
      <use xlink:href="#DejaVuSans-61" x="798.876953"/>
      <use xlink:href="#DejaVuSans-74" x="860.15625"/>
      <use xlink:href="#DejaVuSans-65" x="899.365234"/>
      <use xlink:href="#DejaVuSans-20" x="960.888672"/>
      <use xlink:href="#DejaVuSans-73" x="992.675781"/>
      <use xlink:href="#DejaVuSans-75" x="1044.775391"/>
      <use xlink:href="#DejaVuSans-73" x="1108.154297"/>
      <use xlink:href="#DejaVuSans-70" x="1160.253906"/>
      <use xlink:href="#DejaVuSans-65" x="1223.730469"/>
      <use xlink:href="#DejaVuSans-6e" x="1285.253906"/>
      <use xlink:href="#DejaVuSans-73" x="1348.632812"/>
      <use xlink:href="#DejaVuSans-69" x="1400.732422"/>
      <use xlink:href="#DejaVuSans-6f" x="1428.515625"/>
      <use xlink:href="#DejaVuSans-6e" x="1489.697266"/>
      <use xlink:href="#DejaVuSans-20" x="1553.076172"/>
      <use xlink:href="#DejaVuSans-35" x="1584.863281"/>
      <use xlink:href="#DejaVuSans-20" x="1648.486328"/>
      <use xlink:href="#DejaVuSans-6d" x="1680.273438"/>
      <use xlink:href="#DejaVuSans-67" x="1777.685547"/>
      <use xlink:href="#DejaVuSans-2f" x="1841.162109"/>
      <use xlink:href="#DejaVuSans-37" x="1874.853516"/>
      <use xlink:href="#DejaVuSans-20" x="1938.476562"/>
      <use xlink:href="#DejaVuSans-64" x="1970.263672"/>
      <use xlink:href="#DejaVuSans-61" x="2033.740234"/>
      <use xlink:href="#DejaVuSans-79" x="2095.019531"/>
      <use xlink:href="#DejaVuSans-73" x="2154.199219"/>
     </g>
    </g>
    <g id="line2d_50">
     <path d="M 63.165625 332.900313 
L 73.165625 332.900313 
L 83.165625 332.900313 
" style="fill: none; stroke: #1f77b4; stroke-width: 1.5; stroke-linecap: square"/>
    </g>
    <g id="text_49">
     <!-- Estradiol enanthate 5 mg/7 days -->
     <g transform="translate(91.165625 336.400313)scale(0.1 -0.1)">
      <defs>
       <path id="DejaVuSans-68" d="M 3513 2113 
L 3513 0 
L 2938 0 
L 2938 2094 
Q 2938 2591 2744 2837 
Q 2550 3084 2163 3084 
Q 1697 3084 1428 2787 
Q 1159 2491 1159 1978 
L 1159 0 
L 581 0 
L 581 4863 
L 1159 4863 
L 1159 2956 
Q 1366 3272 1645 3428 
Q 1925 3584 2291 3584 
Q 2894 3584 3203 3211 
Q 3513 2838 3513 2113 
z
" transform="scale(0.015625)"/>
      </defs>
      <use xlink:href="#DejaVuSans-45"/>
      <use xlink:href="#DejaVuSans-73" x="63.183594"/>
      <use xlink:href="#DejaVuSans-74" x="115.283203"/>
      <use xlink:href="#DejaVuSans-72" x="154.492188"/>
      <use xlink:href="#DejaVuSans-61" x="195.605469"/>
      <use xlink:href="#DejaVuSans-64" x="256.884766"/>
      <use xlink:href="#DejaVuSans-69" x="320.361328"/>
      <use xlink:href="#DejaVuSans-6f" x="348.144531"/>
      <use xlink:href="#DejaVuSans-6c" x="409.326172"/>
      <use xlink:href="#DejaVuSans-20" x="437.109375"/>
      <use xlink:href="#DejaVuSans-65" x="468.896484"/>
      <use xlink:href="#DejaVuSans-6e" x="530.419922"/>
      <use xlink:href="#DejaVuSans-61" x="593.798828"/>
      <use xlink:href="#DejaVuSans-6e" x="655.078125"/>
      <use xlink:href="#DejaVuSans-74" x="718.457031"/>
      <use xlink:href="#DejaVuSans-68" x="757.666016"/>
      <use xlink:href="#DejaVuSans-61" x="821.044922"/>
      <use xlink:href="#DejaVuSans-74" x="882.324219"/>
      <use xlink:href="#DejaVuSans-65" x="921.533203"/>
      <use xlink:href="#DejaVuSans-20" x="983.056641"/>
      <use xlink:href="#DejaVuSans-35" x="1014.84375"/>
      <use xlink:href="#DejaVuSans-20" x="1078.466797"/>
      <use xlink:href="#DejaVuSans-6d" x="1110.253906"/>
      <use xlink:href="#DejaVuSans-67" x="1207.666016"/>
      <use xlink:href="#DejaVuSans-2f" x="1271.142578"/>
      <use xlink:href="#DejaVuSans-37" x="1304.833984"/>
      <use xlink:href="#DejaVuSans-20" x="1368.457031"/>
      <use xlink:href="#DejaVuSans-64" x="1400.244141"/>
      <use xlink:href="#DejaVuSans-61" x="1463.720703"/>
      <use xlink:href="#DejaVuSans-79" x="1525"/>
      <use xlink:href="#DejaVuSans-73" x="1584.179688"/>
     </g>
    </g>
    <g id="line2d_51">
     <path d="M 63.165625 347.578438 
L 73.165625 347.578438 
L 83.165625 347.578438 
" style="fill: none; stroke: #e377c2; stroke-width: 1.5; stroke-linecap: square"/>
    </g>
    <g id="text_50">
     <!-- Polyestradiol phosphate 32.5 mg/7 days -->
     <g transform="translate(91.165625 351.078438)scale(0.1 -0.1)">
      <defs>
       <path id="DejaVuSans-50" d="M 1259 4147 
L 1259 2394 
L 2053 2394 
Q 2494 2394 2734 2622 
Q 2975 2850 2975 3272 
Q 2975 3691 2734 3919 
Q 2494 4147 2053 4147 
L 1259 4147 
z
M 628 4666 
L 2053 4666 
Q 2838 4666 3239 4311 
Q 3641 3956 3641 3272 
Q 3641 2581 3239 2228 
Q 2838 1875 2053 1875 
L 1259 1875 
L 1259 0 
L 628 0 
L 628 4666 
z
" transform="scale(0.015625)"/>
       <path id="DejaVuSans-2e" d="M 684 794 
L 1344 794 
L 1344 0 
L 684 0 
L 684 794 
z
" transform="scale(0.015625)"/>
      </defs>
      <use xlink:href="#DejaVuSans-50"/>
      <use xlink:href="#DejaVuSans-6f" x="56.677734"/>
      <use xlink:href="#DejaVuSans-6c" x="117.859375"/>
      <use xlink:href="#DejaVuSans-79" x="145.642578"/>
      <use xlink:href="#DejaVuSans-65" x="204.822266"/>
      <use xlink:href="#DejaVuSans-73" x="266.345703"/>
      <use xlink:href="#DejaVuSans-74" x="318.445312"/>
      <use xlink:href="#DejaVuSans-72" x="357.654297"/>
      <use xlink:href="#DejaVuSans-61" x="398.767578"/>
      <use xlink:href="#DejaVuSans-64" x="460.046875"/>
      <use xlink:href="#DejaVuSans-69" x="523.523438"/>
      <use xlink:href="#DejaVuSans-6f" x="551.306641"/>
      <use xlink:href="#DejaVuSans-6c" x="612.488281"/>
      <use xlink:href="#DejaVuSans-20" x="640.271484"/>
      <use xlink:href="#DejaVuSans-70" x="672.058594"/>
      <use xlink:href="#DejaVuSans-68" x="735.535156"/>
      <use xlink:href="#DejaVuSans-6f" x="798.914062"/>
      <use xlink:href="#DejaVuSans-73" x="860.095703"/>
      <use xlink:href="#DejaVuSans-70" x="912.195312"/>
      <use xlink:href="#DejaVuSans-68" x="975.671875"/>
      <use xlink:href="#DejaVuSans-61" x="1039.050781"/>
      <use xlink:href="#DejaVuSans-74" x="1100.330078"/>
      <use xlink:href="#DejaVuSans-65" x="1139.539062"/>
      <use xlink:href="#DejaVuSans-20" x="1201.0625"/>
      <use xlink:href="#DejaVuSans-33" x="1232.849609"/>
      <use xlink:href="#DejaVuSans-32" x="1296.472656"/>
      <use xlink:href="#DejaVuSans-2e" x="1360.095703"/>
      <use xlink:href="#DejaVuSans-35" x="1391.882812"/>
      <use xlink:href="#DejaVuSans-20" x="1455.505859"/>
      <use xlink:href="#DejaVuSans-6d" x="1487.292969"/>
      <use xlink:href="#DejaVuSans-67" x="1584.705078"/>
      <use xlink:href="#DejaVuSans-2f" x="1648.181641"/>
      <use xlink:href="#DejaVuSans-37" x="1681.873047"/>
      <use xlink:href="#DejaVuSans-20" x="1745.496094"/>
      <use xlink:href="#DejaVuSans-64" x="1777.283203"/>
      <use xlink:href="#DejaVuSans-61" x="1840.759766"/>
      <use xlink:href="#DejaVuSans-79" x="1902.039062"/>
      <use xlink:href="#DejaVuSans-73" x="1961.21875"/>
     </g>
    </g>
   </g>
  </g>
 </g>
 <defs>
  <clipPath id="pf6d8438ed7">
   <rect x="54.165625" y="29.518125" width="446.4" height="332.64"/>
  </clipPath>
 </defs>
</svg>
