<?xml version="1.0" encoding="utf-8" standalone="no"?>
<!DOCTYPE svg PUBLIC "-//W3C//DTD SVG 1.1//EN"
  "http://www.w3.org/Graphics/SVG/1.1/DTD/svg11.dtd">
<svg height="406.914375pt" version="1.1" viewBox="0 0 561.09375 406.914375" width="561.09375pt" xmlns="http://www.w3.org/2000/svg" xmlns:xlink="http://www.w3.org/1999/xlink">
 <metadata>
  <rdf:RDF xmlns:cc="http://creativecommons.org/ns#" xmlns:dc="http://purl.org/dc/elements/1.1/" xmlns:rdf="http://www.w3.org/1999/02/22-rdf-syntax-ns#">
   <cc:Work>
    <dc:type rdf:resource="http://purl.org/dc/dcmitype/StillImage"/>
    <dc:date>2021-08-19T15:30:51.464424</dc:date>
    <dc:format>image/svg+xml</dc:format>
    <dc:creator>
     <cc:Agent>
      <dc:title>Matplotlib v3.4.1, https://matplotlib.org/</dc:title>
     </cc:Agent>
    </dc:creator>
   </cc:Work>
  </rdf:RDF>
 </metadata>
 <defs>
  <style type="text/css">*{stroke-linecap:butt;stroke-linejoin:round;}</style>
 </defs>
 <g id="figure_1">
  <g id="patch_1">
   <path d="M 0 406.914375 
L 561.09375 406.914375 
L 561.09375 0 
L 0 0 
z
" style="fill:#ffffff;"/>
  </g>
  <g id="axes_1">
   <g id="patch_2">
    <path d="M 54.165625 362.158125 
L 500.565625 362.158125 
L 500.565625 29.518125 
L 54.165625 29.518125 
z
" style="fill:#ffffff;"/>
   </g>
   <g id="axes_2">
    <g id="patch_3">
     <path d="M 500.565625 362.158125 
L 500.565625 362.158125 
L 500.565625 29.518125 
L 500.565625 29.518125 
z
" style="fill:#ffffff;"/>
    </g>
    <g id="matplotlib.axis_1"/>
    <g id="matplotlib.axis_2">
     <g id="ytick_1">
      <g id="line2d_1">
       <defs>
        <path d="M 0 0 
L 3.5 0 
" id="m315a612f74" style="stroke:#000000;stroke-width:0.8;"/>
       </defs>
       <g>
        <use style="stroke:#000000;stroke-width:0.8;" x="500.565625" xlink:href="#m315a612f74" y="362.158125"/>
       </g>
      </g>
      <g id="text_1">
       <!-- 0 -->
       <g transform="translate(507.565625 365.957344)scale(0.1 -0.1)">
        <defs>
         <path d="M 2034 4250 
Q 1547 4250 1301 3770 
Q 1056 3291 1056 2328 
Q 1056 1369 1301 889 
Q 1547 409 2034 409 
Q 2525 409 2770 889 
Q 3016 1369 3016 2328 
Q 3016 3291 2770 3770 
Q 2525 4250 2034 4250 
z
M 2034 4750 
Q 2819 4750 3233 4129 
Q 3647 3509 3647 2328 
Q 3647 1150 3233 529 
Q 2819 -91 2034 -91 
Q 1250 -91 836 529 
Q 422 1150 422 2328 
Q 422 3509 836 4129 
Q 1250 4750 2034 4750 
z
" id="DejaVuSans-30" transform="scale(0.015625)"/>
        </defs>
        <use xlink:href="#DejaVuSans-30"/>
       </g>
      </g>
     </g>
     <g id="ytick_2">
      <g id="line2d_2">
       <g>
        <use style="stroke:#000000;stroke-width:0.8;" x="500.565625" xlink:href="#m315a612f74" y="306.396333"/>
       </g>
      </g>
      <g id="text_2">
       <!-- 200 -->
       <g transform="translate(507.565625 310.195552)scale(0.1 -0.1)">
        <defs>
         <path d="M 1228 531 
L 3431 531 
L 3431 0 
L 469 0 
L 469 531 
Q 828 903 1448 1529 
Q 2069 2156 2228 2338 
Q 2531 2678 2651 2914 
Q 2772 3150 2772 3378 
Q 2772 3750 2511 3984 
Q 2250 4219 1831 4219 
Q 1534 4219 1204 4116 
Q 875 4013 500 3803 
L 500 4441 
Q 881 4594 1212 4672 
Q 1544 4750 1819 4750 
Q 2544 4750 2975 4387 
Q 3406 4025 3406 3419 
Q 3406 3131 3298 2873 
Q 3191 2616 2906 2266 
Q 2828 2175 2409 1742 
Q 1991 1309 1228 531 
z
" id="DejaVuSans-32" transform="scale(0.015625)"/>
        </defs>
        <use xlink:href="#DejaVuSans-32"/>
        <use x="63.623047" xlink:href="#DejaVuSans-30"/>
        <use x="127.246094" xlink:href="#DejaVuSans-30"/>
       </g>
      </g>
     </g>
     <g id="ytick_3">
      <g id="line2d_3">
       <g>
        <use style="stroke:#000000;stroke-width:0.8;" x="500.565625" xlink:href="#m315a612f74" y="250.634541"/>
       </g>
      </g>
      <g id="text_3">
       <!-- 400 -->
       <g transform="translate(507.565625 254.43376)scale(0.1 -0.1)">
        <defs>
         <path d="M 2419 4116 
L 825 1625 
L 2419 1625 
L 2419 4116 
z
M 2253 4666 
L 3047 4666 
L 3047 1625 
L 3713 1625 
L 3713 1100 
L 3047 1100 
L 3047 0 
L 2419 0 
L 2419 1100 
L 313 1100 
L 313 1709 
L 2253 4666 
z
" id="DejaVuSans-34" transform="scale(0.015625)"/>
        </defs>
        <use xlink:href="#DejaVuSans-34"/>
        <use x="63.623047" xlink:href="#DejaVuSans-30"/>
        <use x="127.246094" xlink:href="#DejaVuSans-30"/>
       </g>
      </g>
     </g>
     <g id="ytick_4">
      <g id="line2d_4">
       <g>
        <use style="stroke:#000000;stroke-width:0.8;" x="500.565625" xlink:href="#m315a612f74" y="194.872749"/>
       </g>
      </g>
      <g id="text_4">
       <!-- 600 -->
       <g transform="translate(507.565625 198.671968)scale(0.1 -0.1)">
        <defs>
         <path d="M 2113 2584 
Q 1688 2584 1439 2293 
Q 1191 2003 1191 1497 
Q 1191 994 1439 701 
Q 1688 409 2113 409 
Q 2538 409 2786 701 
Q 3034 994 3034 1497 
Q 3034 2003 2786 2293 
Q 2538 2584 2113 2584 
z
M 3366 4563 
L 3366 3988 
Q 3128 4100 2886 4159 
Q 2644 4219 2406 4219 
Q 1781 4219 1451 3797 
Q 1122 3375 1075 2522 
Q 1259 2794 1537 2939 
Q 1816 3084 2150 3084 
Q 2853 3084 3261 2657 
Q 3669 2231 3669 1497 
Q 3669 778 3244 343 
Q 2819 -91 2113 -91 
Q 1303 -91 875 529 
Q 447 1150 447 2328 
Q 447 3434 972 4092 
Q 1497 4750 2381 4750 
Q 2619 4750 2861 4703 
Q 3103 4656 3366 4563 
z
" id="DejaVuSans-36" transform="scale(0.015625)"/>
        </defs>
        <use xlink:href="#DejaVuSans-36"/>
        <use x="63.623047" xlink:href="#DejaVuSans-30"/>
        <use x="127.246094" xlink:href="#DejaVuSans-30"/>
       </g>
      </g>
     </g>
     <g id="ytick_5">
      <g id="line2d_5">
       <g>
        <use style="stroke:#000000;stroke-width:0.8;" x="500.565625" xlink:href="#m315a612f74" y="139.110957"/>
       </g>
      </g>
      <g id="text_5">
       <!-- 800 -->
       <g transform="translate(507.565625 142.910176)scale(0.1 -0.1)">
        <defs>
         <path d="M 2034 2216 
Q 1584 2216 1326 1975 
Q 1069 1734 1069 1313 
Q 1069 891 1326 650 
Q 1584 409 2034 409 
Q 2484 409 2743 651 
Q 3003 894 3003 1313 
Q 3003 1734 2745 1975 
Q 2488 2216 2034 2216 
z
M 1403 2484 
Q 997 2584 770 2862 
Q 544 3141 544 3541 
Q 544 4100 942 4425 
Q 1341 4750 2034 4750 
Q 2731 4750 3128 4425 
Q 3525 4100 3525 3541 
Q 3525 3141 3298 2862 
Q 3072 2584 2669 2484 
Q 3125 2378 3379 2068 
Q 3634 1759 3634 1313 
Q 3634 634 3220 271 
Q 2806 -91 2034 -91 
Q 1263 -91 848 271 
Q 434 634 434 1313 
Q 434 1759 690 2068 
Q 947 2378 1403 2484 
z
M 1172 3481 
Q 1172 3119 1398 2916 
Q 1625 2713 2034 2713 
Q 2441 2713 2670 2916 
Q 2900 3119 2900 3481 
Q 2900 3844 2670 4047 
Q 2441 4250 2034 4250 
Q 1625 4250 1398 4047 
Q 1172 3844 1172 3481 
z
" id="DejaVuSans-38" transform="scale(0.015625)"/>
        </defs>
        <use xlink:href="#DejaVuSans-38"/>
        <use x="63.623047" xlink:href="#DejaVuSans-30"/>
        <use x="127.246094" xlink:href="#DejaVuSans-30"/>
       </g>
      </g>
     </g>
     <g id="ytick_6">
      <g id="line2d_6">
       <g>
        <use style="stroke:#000000;stroke-width:0.8;" x="500.565625" xlink:href="#m315a612f74" y="83.349165"/>
       </g>
      </g>
      <g id="text_6">
       <!-- 1000 -->
       <g transform="translate(507.565625 87.148384)scale(0.1 -0.1)">
        <defs>
         <path d="M 794 531 
L 1825 531 
L 1825 4091 
L 703 3866 
L 703 4441 
L 1819 4666 
L 2450 4666 
L 2450 531 
L 3481 531 
L 3481 0 
L 794 0 
L 794 531 
z
" id="DejaVuSans-31" transform="scale(0.015625)"/>
        </defs>
        <use xlink:href="#DejaVuSans-31"/>
        <use x="63.623047" xlink:href="#DejaVuSans-30"/>
        <use x="127.246094" xlink:href="#DejaVuSans-30"/>
        <use x="190.869141" xlink:href="#DejaVuSans-30"/>
       </g>
      </g>
     </g>
     <g id="text_7">
      <!-- Estradiol concentrations (pmol/L) -->
      <g transform="translate(544.614063 278.970156)rotate(-90)scale(0.1 -0.1)">
       <defs>
        <path d="M 628 4666 
L 3578 4666 
L 3578 4134 
L 1259 4134 
L 1259 2753 
L 3481 2753 
L 3481 2222 
L 1259 2222 
L 1259 531 
L 3634 531 
L 3634 0 
L 628 0 
L 628 4666 
z
" id="DejaVuSans-45" transform="scale(0.015625)"/>
        <path d="M 2834 3397 
L 2834 2853 
Q 2591 2978 2328 3040 
Q 2066 3103 1784 3103 
Q 1356 3103 1142 2972 
Q 928 2841 928 2578 
Q 928 2378 1081 2264 
Q 1234 2150 1697 2047 
L 1894 2003 
Q 2506 1872 2764 1633 
Q 3022 1394 3022 966 
Q 3022 478 2636 193 
Q 2250 -91 1575 -91 
Q 1294 -91 989 -36 
Q 684 19 347 128 
L 347 722 
Q 666 556 975 473 
Q 1284 391 1588 391 
Q 1994 391 2212 530 
Q 2431 669 2431 922 
Q 2431 1156 2273 1281 
Q 2116 1406 1581 1522 
L 1381 1569 
Q 847 1681 609 1914 
Q 372 2147 372 2553 
Q 372 3047 722 3315 
Q 1072 3584 1716 3584 
Q 2034 3584 2315 3537 
Q 2597 3491 2834 3397 
z
" id="DejaVuSans-73" transform="scale(0.015625)"/>
        <path d="M 1172 4494 
L 1172 3500 
L 2356 3500 
L 2356 3053 
L 1172 3053 
L 1172 1153 
Q 1172 725 1289 603 
Q 1406 481 1766 481 
L 2356 481 
L 2356 0 
L 1766 0 
Q 1100 0 847 248 
Q 594 497 594 1153 
L 594 3053 
L 172 3053 
L 172 3500 
L 594 3500 
L 594 4494 
L 1172 4494 
z
" id="DejaVuSans-74" transform="scale(0.015625)"/>
        <path d="M 2631 2963 
Q 2534 3019 2420 3045 
Q 2306 3072 2169 3072 
Q 1681 3072 1420 2755 
Q 1159 2438 1159 1844 
L 1159 0 
L 581 0 
L 581 3500 
L 1159 3500 
L 1159 2956 
Q 1341 3275 1631 3429 
Q 1922 3584 2338 3584 
Q 2397 3584 2469 3576 
Q 2541 3569 2628 3553 
L 2631 2963 
z
" id="DejaVuSans-72" transform="scale(0.015625)"/>
        <path d="M 2194 1759 
Q 1497 1759 1228 1600 
Q 959 1441 959 1056 
Q 959 750 1161 570 
Q 1363 391 1709 391 
Q 2188 391 2477 730 
Q 2766 1069 2766 1631 
L 2766 1759 
L 2194 1759 
z
M 3341 1997 
L 3341 0 
L 2766 0 
L 2766 531 
Q 2569 213 2275 61 
Q 1981 -91 1556 -91 
Q 1019 -91 701 211 
Q 384 513 384 1019 
Q 384 1609 779 1909 
Q 1175 2209 1959 2209 
L 2766 2209 
L 2766 2266 
Q 2766 2663 2505 2880 
Q 2244 3097 1772 3097 
Q 1472 3097 1187 3025 
Q 903 2953 641 2809 
L 641 3341 
Q 956 3463 1253 3523 
Q 1550 3584 1831 3584 
Q 2591 3584 2966 3190 
Q 3341 2797 3341 1997 
z
" id="DejaVuSans-61" transform="scale(0.015625)"/>
        <path d="M 2906 2969 
L 2906 4863 
L 3481 4863 
L 3481 0 
L 2906 0 
L 2906 525 
Q 2725 213 2448 61 
Q 2172 -91 1784 -91 
Q 1150 -91 751 415 
Q 353 922 353 1747 
Q 353 2572 751 3078 
Q 1150 3584 1784 3584 
Q 2172 3584 2448 3432 
Q 2725 3281 2906 2969 
z
M 947 1747 
Q 947 1113 1208 752 
Q 1469 391 1925 391 
Q 2381 391 2643 752 
Q 2906 1113 2906 1747 
Q 2906 2381 2643 2742 
Q 2381 3103 1925 3103 
Q 1469 3103 1208 2742 
Q 947 2381 947 1747 
z
" id="DejaVuSans-64" transform="scale(0.015625)"/>
        <path d="M 603 3500 
L 1178 3500 
L 1178 0 
L 603 0 
L 603 3500 
z
M 603 4863 
L 1178 4863 
L 1178 4134 
L 603 4134 
L 603 4863 
z
" id="DejaVuSans-69" transform="scale(0.015625)"/>
        <path d="M 1959 3097 
Q 1497 3097 1228 2736 
Q 959 2375 959 1747 
Q 959 1119 1226 758 
Q 1494 397 1959 397 
Q 2419 397 2687 759 
Q 2956 1122 2956 1747 
Q 2956 2369 2687 2733 
Q 2419 3097 1959 3097 
z
M 1959 3584 
Q 2709 3584 3137 3096 
Q 3566 2609 3566 1747 
Q 3566 888 3137 398 
Q 2709 -91 1959 -91 
Q 1206 -91 779 398 
Q 353 888 353 1747 
Q 353 2609 779 3096 
Q 1206 3584 1959 3584 
z
" id="DejaVuSans-6f" transform="scale(0.015625)"/>
        <path d="M 603 4863 
L 1178 4863 
L 1178 0 
L 603 0 
L 603 4863 
z
" id="DejaVuSans-6c" transform="scale(0.015625)"/>
        <path id="DejaVuSans-20" transform="scale(0.015625)"/>
        <path d="M 3122 3366 
L 3122 2828 
Q 2878 2963 2633 3030 
Q 2388 3097 2138 3097 
Q 1578 3097 1268 2742 
Q 959 2388 959 1747 
Q 959 1106 1268 751 
Q 1578 397 2138 397 
Q 2388 397 2633 464 
Q 2878 531 3122 666 
L 3122 134 
Q 2881 22 2623 -34 
Q 2366 -91 2075 -91 
Q 1284 -91 818 406 
Q 353 903 353 1747 
Q 353 2603 823 3093 
Q 1294 3584 2113 3584 
Q 2378 3584 2631 3529 
Q 2884 3475 3122 3366 
z
" id="DejaVuSans-63" transform="scale(0.015625)"/>
        <path d="M 3513 2113 
L 3513 0 
L 2938 0 
L 2938 2094 
Q 2938 2591 2744 2837 
Q 2550 3084 2163 3084 
Q 1697 3084 1428 2787 
Q 1159 2491 1159 1978 
L 1159 0 
L 581 0 
L 581 3500 
L 1159 3500 
L 1159 2956 
Q 1366 3272 1645 3428 
Q 1925 3584 2291 3584 
Q 2894 3584 3203 3211 
Q 3513 2838 3513 2113 
z
" id="DejaVuSans-6e" transform="scale(0.015625)"/>
        <path d="M 3597 1894 
L 3597 1613 
L 953 1613 
Q 991 1019 1311 708 
Q 1631 397 2203 397 
Q 2534 397 2845 478 
Q 3156 559 3463 722 
L 3463 178 
Q 3153 47 2828 -22 
Q 2503 -91 2169 -91 
Q 1331 -91 842 396 
Q 353 884 353 1716 
Q 353 2575 817 3079 
Q 1281 3584 2069 3584 
Q 2775 3584 3186 3129 
Q 3597 2675 3597 1894 
z
M 3022 2063 
Q 3016 2534 2758 2815 
Q 2500 3097 2075 3097 
Q 1594 3097 1305 2825 
Q 1016 2553 972 2059 
L 3022 2063 
z
" id="DejaVuSans-65" transform="scale(0.015625)"/>
        <path d="M 1984 4856 
Q 1566 4138 1362 3434 
Q 1159 2731 1159 2009 
Q 1159 1288 1364 580 
Q 1569 -128 1984 -844 
L 1484 -844 
Q 1016 -109 783 600 
Q 550 1309 550 2009 
Q 550 2706 781 3412 
Q 1013 4119 1484 4856 
L 1984 4856 
z
" id="DejaVuSans-28" transform="scale(0.015625)"/>
        <path d="M 1159 525 
L 1159 -1331 
L 581 -1331 
L 581 3500 
L 1159 3500 
L 1159 2969 
Q 1341 3281 1617 3432 
Q 1894 3584 2278 3584 
Q 2916 3584 3314 3078 
Q 3713 2572 3713 1747 
Q 3713 922 3314 415 
Q 2916 -91 2278 -91 
Q 1894 -91 1617 61 
Q 1341 213 1159 525 
z
M 3116 1747 
Q 3116 2381 2855 2742 
Q 2594 3103 2138 3103 
Q 1681 3103 1420 2742 
Q 1159 2381 1159 1747 
Q 1159 1113 1420 752 
Q 1681 391 2138 391 
Q 2594 391 2855 752 
Q 3116 1113 3116 1747 
z
" id="DejaVuSans-70" transform="scale(0.015625)"/>
        <path d="M 3328 2828 
Q 3544 3216 3844 3400 
Q 4144 3584 4550 3584 
Q 5097 3584 5394 3201 
Q 5691 2819 5691 2113 
L 5691 0 
L 5113 0 
L 5113 2094 
Q 5113 2597 4934 2840 
Q 4756 3084 4391 3084 
Q 3944 3084 3684 2787 
Q 3425 2491 3425 1978 
L 3425 0 
L 2847 0 
L 2847 2094 
Q 2847 2600 2669 2842 
Q 2491 3084 2119 3084 
Q 1678 3084 1418 2786 
Q 1159 2488 1159 1978 
L 1159 0 
L 581 0 
L 581 3500 
L 1159 3500 
L 1159 2956 
Q 1356 3278 1631 3431 
Q 1906 3584 2284 3584 
Q 2666 3584 2933 3390 
Q 3200 3197 3328 2828 
z
" id="DejaVuSans-6d" transform="scale(0.015625)"/>
        <path d="M 1625 4666 
L 2156 4666 
L 531 -594 
L 0 -594 
L 1625 4666 
z
" id="DejaVuSans-2f" transform="scale(0.015625)"/>
        <path d="M 628 4666 
L 1259 4666 
L 1259 531 
L 3531 531 
L 3531 0 
L 628 0 
L 628 4666 
z
" id="DejaVuSans-4c" transform="scale(0.015625)"/>
        <path d="M 513 4856 
L 1013 4856 
Q 1481 4119 1714 3412 
Q 1947 2706 1947 2009 
Q 1947 1309 1714 600 
Q 1481 -109 1013 -844 
L 513 -844 
Q 928 -128 1133 580 
Q 1338 1288 1338 2009 
Q 1338 2731 1133 3434 
Q 928 4138 513 4856 
z
" id="DejaVuSans-29" transform="scale(0.015625)"/>
       </defs>
       <use xlink:href="#DejaVuSans-45"/>
       <use x="63.183594" xlink:href="#DejaVuSans-73"/>
       <use x="115.283203" xlink:href="#DejaVuSans-74"/>
       <use x="154.492188" xlink:href="#DejaVuSans-72"/>
       <use x="195.605469" xlink:href="#DejaVuSans-61"/>
       <use x="256.884766" xlink:href="#DejaVuSans-64"/>
       <use x="320.361328" xlink:href="#DejaVuSans-69"/>
       <use x="348.144531" xlink:href="#DejaVuSans-6f"/>
       <use x="409.326172" xlink:href="#DejaVuSans-6c"/>
       <use x="437.109375" xlink:href="#DejaVuSans-20"/>
       <use x="468.896484" xlink:href="#DejaVuSans-63"/>
       <use x="523.876953" xlink:href="#DejaVuSans-6f"/>
       <use x="585.058594" xlink:href="#DejaVuSans-6e"/>
       <use x="648.4375" xlink:href="#DejaVuSans-63"/>
       <use x="703.417969" xlink:href="#DejaVuSans-65"/>
       <use x="764.941406" xlink:href="#DejaVuSans-6e"/>
       <use x="828.320312" xlink:href="#DejaVuSans-74"/>
       <use x="867.529297" xlink:href="#DejaVuSans-72"/>
       <use x="908.642578" xlink:href="#DejaVuSans-61"/>
       <use x="969.921875" xlink:href="#DejaVuSans-74"/>
       <use x="1009.130859" xlink:href="#DejaVuSans-69"/>
       <use x="1036.914062" xlink:href="#DejaVuSans-6f"/>
       <use x="1098.095703" xlink:href="#DejaVuSans-6e"/>
       <use x="1161.474609" xlink:href="#DejaVuSans-73"/>
       <use x="1213.574219" xlink:href="#DejaVuSans-20"/>
       <use x="1245.361328" xlink:href="#DejaVuSans-28"/>
       <use x="1284.375" xlink:href="#DejaVuSans-70"/>
       <use x="1347.851562" xlink:href="#DejaVuSans-6d"/>
       <use x="1445.263672" xlink:href="#DejaVuSans-6f"/>
       <use x="1506.445312" xlink:href="#DejaVuSans-6c"/>
       <use x="1534.228516" xlink:href="#DejaVuSans-2f"/>
       <use x="1567.919922" xlink:href="#DejaVuSans-4c"/>
       <use x="1623.632812" xlink:href="#DejaVuSans-29"/>
      </g>
     </g>
    </g>
    <g id="patch_4">
     <path d="M 500.565625 362.158125 
L 500.565625 29.518125 
" style="fill:none;stroke:#000000;stroke-linecap:square;stroke-linejoin:miter;stroke-width:0.8;"/>
    </g>
   </g>
   <g id="matplotlib.axis_3">
    <g id="xtick_1">
     <g id="line2d_7">
      <defs>
       <path d="M 0 0 
L 0 3.5 
" id="m2415bcc6ff" style="stroke:#000000;stroke-width:0.8;"/>
      </defs>
      <g>
       <use style="stroke:#000000;stroke-width:0.8;" x="54.165625" xlink:href="#m2415bcc6ff" y="362.158125"/>
      </g>
     </g>
     <g id="text_8">
      <!-- 0 -->
      <g transform="translate(50.984375 376.756563)scale(0.1 -0.1)">
       <use xlink:href="#DejaVuSans-30"/>
      </g>
     </g>
    </g>
    <g id="xtick_2">
     <g id="line2d_8">
      <g>
       <use style="stroke:#000000;stroke-width:0.8;" x="83.925625" xlink:href="#m2415bcc6ff" y="362.158125"/>
      </g>
     </g>
     <g id="text_9">
      <!-- 2 -->
      <g transform="translate(80.744375 376.756563)scale(0.1 -0.1)">
       <use xlink:href="#DejaVuSans-32"/>
      </g>
     </g>
    </g>
    <g id="xtick_3">
     <g id="line2d_9">
      <g>
       <use style="stroke:#000000;stroke-width:0.8;" x="113.685625" xlink:href="#m2415bcc6ff" y="362.158125"/>
      </g>
     </g>
     <g id="text_10">
      <!-- 4 -->
      <g transform="translate(110.504375 376.756563)scale(0.1 -0.1)">
       <use xlink:href="#DejaVuSans-34"/>
      </g>
     </g>
    </g>
    <g id="xtick_4">
     <g id="line2d_10">
      <g>
       <use style="stroke:#000000;stroke-width:0.8;" x="143.445625" xlink:href="#m2415bcc6ff" y="362.158125"/>
      </g>
     </g>
     <g id="text_11">
      <!-- 6 -->
      <g transform="translate(140.264375 376.756563)scale(0.1 -0.1)">
       <use xlink:href="#DejaVuSans-36"/>
      </g>
     </g>
    </g>
    <g id="xtick_5">
     <g id="line2d_11">
      <g>
       <use style="stroke:#000000;stroke-width:0.8;" x="173.205625" xlink:href="#m2415bcc6ff" y="362.158125"/>
      </g>
     </g>
     <g id="text_12">
      <!-- 8 -->
      <g transform="translate(170.024375 376.756563)scale(0.1 -0.1)">
       <use xlink:href="#DejaVuSans-38"/>
      </g>
     </g>
    </g>
    <g id="xtick_6">
     <g id="line2d_12">
      <g>
       <use style="stroke:#000000;stroke-width:0.8;" x="202.965625" xlink:href="#m2415bcc6ff" y="362.158125"/>
      </g>
     </g>
     <g id="text_13">
      <!-- 10 -->
      <g transform="translate(196.603125 376.756563)scale(0.1 -0.1)">
       <use xlink:href="#DejaVuSans-31"/>
       <use x="63.623047" xlink:href="#DejaVuSans-30"/>
      </g>
     </g>
    </g>
    <g id="xtick_7">
     <g id="line2d_13">
      <g>
       <use style="stroke:#000000;stroke-width:0.8;" x="232.725625" xlink:href="#m2415bcc6ff" y="362.158125"/>
      </g>
     </g>
     <g id="text_14">
      <!-- 12 -->
      <g transform="translate(226.363125 376.756563)scale(0.1 -0.1)">
       <use xlink:href="#DejaVuSans-31"/>
       <use x="63.623047" xlink:href="#DejaVuSans-32"/>
      </g>
     </g>
    </g>
    <g id="xtick_8">
     <g id="line2d_14">
      <g>
       <use style="stroke:#000000;stroke-width:0.8;" x="262.485625" xlink:href="#m2415bcc6ff" y="362.158125"/>
      </g>
     </g>
     <g id="text_15">
      <!-- 14 -->
      <g transform="translate(256.123125 376.756563)scale(0.1 -0.1)">
       <use xlink:href="#DejaVuSans-31"/>
       <use x="63.623047" xlink:href="#DejaVuSans-34"/>
      </g>
     </g>
    </g>
    <g id="xtick_9">
     <g id="line2d_15">
      <g>
       <use style="stroke:#000000;stroke-width:0.8;" x="292.245625" xlink:href="#m2415bcc6ff" y="362.158125"/>
      </g>
     </g>
     <g id="text_16">
      <!-- 16 -->
      <g transform="translate(285.883125 376.756563)scale(0.1 -0.1)">
       <use xlink:href="#DejaVuSans-31"/>
       <use x="63.623047" xlink:href="#DejaVuSans-36"/>
      </g>
     </g>
    </g>
    <g id="xtick_10">
     <g id="line2d_16">
      <g>
       <use style="stroke:#000000;stroke-width:0.8;" x="322.005625" xlink:href="#m2415bcc6ff" y="362.158125"/>
      </g>
     </g>
     <g id="text_17">
      <!-- 18 -->
      <g transform="translate(315.643125 376.756563)scale(0.1 -0.1)">
       <use xlink:href="#DejaVuSans-31"/>
       <use x="63.623047" xlink:href="#DejaVuSans-38"/>
      </g>
     </g>
    </g>
    <g id="xtick_11">
     <g id="line2d_17">
      <g>
       <use style="stroke:#000000;stroke-width:0.8;" x="351.765625" xlink:href="#m2415bcc6ff" y="362.158125"/>
      </g>
     </g>
     <g id="text_18">
      <!-- 20 -->
      <g transform="translate(345.403125 376.756563)scale(0.1 -0.1)">
       <use xlink:href="#DejaVuSans-32"/>
       <use x="63.623047" xlink:href="#DejaVuSans-30"/>
      </g>
     </g>
    </g>
    <g id="xtick_12">
     <g id="line2d_18">
      <g>
       <use style="stroke:#000000;stroke-width:0.8;" x="381.525625" xlink:href="#m2415bcc6ff" y="362.158125"/>
      </g>
     </g>
     <g id="text_19">
      <!-- 22 -->
      <g transform="translate(375.163125 376.756563)scale(0.1 -0.1)">
       <use xlink:href="#DejaVuSans-32"/>
       <use x="63.623047" xlink:href="#DejaVuSans-32"/>
      </g>
     </g>
    </g>
    <g id="xtick_13">
     <g id="line2d_19">
      <g>
       <use style="stroke:#000000;stroke-width:0.8;" x="411.285625" xlink:href="#m2415bcc6ff" y="362.158125"/>
      </g>
     </g>
     <g id="text_20">
      <!-- 24 -->
      <g transform="translate(404.923125 376.756563)scale(0.1 -0.1)">
       <use xlink:href="#DejaVuSans-32"/>
       <use x="63.623047" xlink:href="#DejaVuSans-34"/>
      </g>
     </g>
    </g>
    <g id="xtick_14">
     <g id="line2d_20">
      <g>
       <use style="stroke:#000000;stroke-width:0.8;" x="441.045625" xlink:href="#m2415bcc6ff" y="362.158125"/>
      </g>
     </g>
     <g id="text_21">
      <!-- 26 -->
      <g transform="translate(434.683125 376.756563)scale(0.1 -0.1)">
       <use xlink:href="#DejaVuSans-32"/>
       <use x="63.623047" xlink:href="#DejaVuSans-36"/>
      </g>
     </g>
    </g>
    <g id="xtick_15">
     <g id="line2d_21">
      <g>
       <use style="stroke:#000000;stroke-width:0.8;" x="470.805625" xlink:href="#m2415bcc6ff" y="362.158125"/>
      </g>
     </g>
     <g id="text_22">
      <!-- 28 -->
      <g transform="translate(464.443125 376.756563)scale(0.1 -0.1)">
       <use xlink:href="#DejaVuSans-32"/>
       <use x="63.623047" xlink:href="#DejaVuSans-38"/>
      </g>
     </g>
    </g>
    <g id="xtick_16">
     <g id="line2d_22">
      <g>
       <use style="stroke:#000000;stroke-width:0.8;" x="500.565625" xlink:href="#m2415bcc6ff" y="362.158125"/>
      </g>
     </g>
     <g id="text_23">
      <!-- 30 -->
      <g transform="translate(494.203125 376.756563)scale(0.1 -0.1)">
       <defs>
        <path d="M 2597 2516 
Q 3050 2419 3304 2112 
Q 3559 1806 3559 1356 
Q 3559 666 3084 287 
Q 2609 -91 1734 -91 
Q 1441 -91 1130 -33 
Q 819 25 488 141 
L 488 750 
Q 750 597 1062 519 
Q 1375 441 1716 441 
Q 2309 441 2620 675 
Q 2931 909 2931 1356 
Q 2931 1769 2642 2001 
Q 2353 2234 1838 2234 
L 1294 2234 
L 1294 2753 
L 1863 2753 
Q 2328 2753 2575 2939 
Q 2822 3125 2822 3475 
Q 2822 3834 2567 4026 
Q 2313 4219 1838 4219 
Q 1578 4219 1281 4162 
Q 984 4106 628 3988 
L 628 4550 
Q 988 4650 1302 4700 
Q 1616 4750 1894 4750 
Q 2613 4750 3031 4423 
Q 3450 4097 3450 3541 
Q 3450 3153 3228 2886 
Q 3006 2619 2597 2516 
z
" id="DejaVuSans-33" transform="scale(0.015625)"/>
       </defs>
       <use xlink:href="#DejaVuSans-33"/>
       <use x="63.623047" xlink:href="#DejaVuSans-30"/>
      </g>
     </g>
    </g>
    <g id="text_24">
     <!-- Time (days) -->
     <g transform="translate(247.839063 390.434688)scale(0.1 -0.1)">
      <defs>
       <path d="M -19 4666 
L 3928 4666 
L 3928 4134 
L 2272 4134 
L 2272 0 
L 1638 0 
L 1638 4134 
L -19 4134 
L -19 4666 
z
" id="DejaVuSans-54" transform="scale(0.015625)"/>
       <path d="M 2059 -325 
Q 1816 -950 1584 -1140 
Q 1353 -1331 966 -1331 
L 506 -1331 
L 506 -850 
L 844 -850 
Q 1081 -850 1212 -737 
Q 1344 -625 1503 -206 
L 1606 56 
L 191 3500 
L 800 3500 
L 1894 763 
L 2988 3500 
L 3597 3500 
L 2059 -325 
z
" id="DejaVuSans-79" transform="scale(0.015625)"/>
      </defs>
      <use xlink:href="#DejaVuSans-54"/>
      <use x="57.958984" xlink:href="#DejaVuSans-69"/>
      <use x="85.742188" xlink:href="#DejaVuSans-6d"/>
      <use x="183.154297" xlink:href="#DejaVuSans-65"/>
      <use x="244.677734" xlink:href="#DejaVuSans-20"/>
      <use x="276.464844" xlink:href="#DejaVuSans-28"/>
      <use x="315.478516" xlink:href="#DejaVuSans-64"/>
      <use x="378.955078" xlink:href="#DejaVuSans-61"/>
      <use x="440.234375" xlink:href="#DejaVuSans-79"/>
      <use x="499.414062" xlink:href="#DejaVuSans-73"/>
      <use x="551.513672" xlink:href="#DejaVuSans-29"/>
     </g>
    </g>
   </g>
   <g id="matplotlib.axis_4">
    <g id="ytick_7">
     <g id="line2d_23">
      <defs>
       <path d="M 0 0 
L -3.5 0 
" id="m869bd9943b" style="stroke:#000000;stroke-width:0.8;"/>
      </defs>
      <g>
       <use style="stroke:#000000;stroke-width:0.8;" x="54.165625" xlink:href="#m869bd9943b" y="362.158125"/>
      </g>
     </g>
     <g id="text_25">
      <!-- 0 -->
      <g transform="translate(40.803125 365.957344)scale(0.1 -0.1)">
       <use xlink:href="#DejaVuSans-30"/>
      </g>
     </g>
    </g>
    <g id="ytick_8">
     <g id="line2d_24">
      <g>
       <use style="stroke:#000000;stroke-width:0.8;" x="54.165625" xlink:href="#m869bd9943b" y="310.98274"/>
      </g>
     </g>
     <g id="text_26">
      <!-- 50 -->
      <g transform="translate(34.440625 314.781959)scale(0.1 -0.1)">
       <defs>
        <path d="M 691 4666 
L 3169 4666 
L 3169 4134 
L 1269 4134 
L 1269 2991 
Q 1406 3038 1543 3061 
Q 1681 3084 1819 3084 
Q 2600 3084 3056 2656 
Q 3513 2228 3513 1497 
Q 3513 744 3044 326 
Q 2575 -91 1722 -91 
Q 1428 -91 1123 -41 
Q 819 9 494 109 
L 494 744 
Q 775 591 1075 516 
Q 1375 441 1709 441 
Q 2250 441 2565 725 
Q 2881 1009 2881 1497 
Q 2881 1984 2565 2268 
Q 2250 2553 1709 2553 
Q 1456 2553 1204 2497 
Q 953 2441 691 2322 
L 691 4666 
z
" id="DejaVuSans-35" transform="scale(0.015625)"/>
       </defs>
       <use xlink:href="#DejaVuSans-35"/>
       <use x="63.623047" xlink:href="#DejaVuSans-30"/>
      </g>
     </g>
    </g>
    <g id="ytick_9">
     <g id="line2d_25">
      <g>
       <use style="stroke:#000000;stroke-width:0.8;" x="54.165625" xlink:href="#m869bd9943b" y="259.807356"/>
      </g>
     </g>
     <g id="text_27">
      <!-- 100 -->
      <g transform="translate(28.078125 263.606575)scale(0.1 -0.1)">
       <use xlink:href="#DejaVuSans-31"/>
       <use x="63.623047" xlink:href="#DejaVuSans-30"/>
       <use x="127.246094" xlink:href="#DejaVuSans-30"/>
      </g>
     </g>
    </g>
    <g id="ytick_10">
     <g id="line2d_26">
      <g>
       <use style="stroke:#000000;stroke-width:0.8;" x="54.165625" xlink:href="#m869bd9943b" y="208.631971"/>
      </g>
     </g>
     <g id="text_28">
      <!-- 150 -->
      <g transform="translate(28.078125 212.43119)scale(0.1 -0.1)">
       <use xlink:href="#DejaVuSans-31"/>
       <use x="63.623047" xlink:href="#DejaVuSans-35"/>
       <use x="127.246094" xlink:href="#DejaVuSans-30"/>
      </g>
     </g>
    </g>
    <g id="ytick_11">
     <g id="line2d_27">
      <g>
       <use style="stroke:#000000;stroke-width:0.8;" x="54.165625" xlink:href="#m869bd9943b" y="157.456587"/>
      </g>
     </g>
     <g id="text_29">
      <!-- 200 -->
      <g transform="translate(28.078125 161.255805)scale(0.1 -0.1)">
       <use xlink:href="#DejaVuSans-32"/>
       <use x="63.623047" xlink:href="#DejaVuSans-30"/>
       <use x="127.246094" xlink:href="#DejaVuSans-30"/>
      </g>
     </g>
    </g>
    <g id="ytick_12">
     <g id="line2d_28">
      <g>
       <use style="stroke:#000000;stroke-width:0.8;" x="54.165625" xlink:href="#m869bd9943b" y="106.281202"/>
      </g>
     </g>
     <g id="text_30">
      <!-- 250 -->
      <g transform="translate(28.078125 110.080421)scale(0.1 -0.1)">
       <use xlink:href="#DejaVuSans-32"/>
       <use x="63.623047" xlink:href="#DejaVuSans-35"/>
       <use x="127.246094" xlink:href="#DejaVuSans-30"/>
      </g>
     </g>
    </g>
    <g id="ytick_13">
     <g id="line2d_29">
      <g>
       <use style="stroke:#000000;stroke-width:0.8;" x="54.165625" xlink:href="#m869bd9943b" y="55.105817"/>
      </g>
     </g>
     <g id="text_31">
      <!-- 300 -->
      <g transform="translate(28.078125 58.905036)scale(0.1 -0.1)">
       <use xlink:href="#DejaVuSans-33"/>
       <use x="63.623047" xlink:href="#DejaVuSans-30"/>
       <use x="127.246094" xlink:href="#DejaVuSans-30"/>
      </g>
     </g>
    </g>
    <g id="text_32">
     <!-- Estradiol concentrations (pg/mL) -->
     <g transform="translate(21.998438 277.695938)rotate(-90)scale(0.1 -0.1)">
      <defs>
       <path d="M 2906 1791 
Q 2906 2416 2648 2759 
Q 2391 3103 1925 3103 
Q 1463 3103 1205 2759 
Q 947 2416 947 1791 
Q 947 1169 1205 825 
Q 1463 481 1925 481 
Q 2391 481 2648 825 
Q 2906 1169 2906 1791 
z
M 3481 434 
Q 3481 -459 3084 -895 
Q 2688 -1331 1869 -1331 
Q 1566 -1331 1297 -1286 
Q 1028 -1241 775 -1147 
L 775 -588 
Q 1028 -725 1275 -790 
Q 1522 -856 1778 -856 
Q 2344 -856 2625 -561 
Q 2906 -266 2906 331 
L 2906 616 
Q 2728 306 2450 153 
Q 2172 0 1784 0 
Q 1141 0 747 490 
Q 353 981 353 1791 
Q 353 2603 747 3093 
Q 1141 3584 1784 3584 
Q 2172 3584 2450 3431 
Q 2728 3278 2906 2969 
L 2906 3500 
L 3481 3500 
L 3481 434 
z
" id="DejaVuSans-67" transform="scale(0.015625)"/>
      </defs>
      <use xlink:href="#DejaVuSans-45"/>
      <use x="63.183594" xlink:href="#DejaVuSans-73"/>
      <use x="115.283203" xlink:href="#DejaVuSans-74"/>
      <use x="154.492188" xlink:href="#DejaVuSans-72"/>
      <use x="195.605469" xlink:href="#DejaVuSans-61"/>
      <use x="256.884766" xlink:href="#DejaVuSans-64"/>
      <use x="320.361328" xlink:href="#DejaVuSans-69"/>
      <use x="348.144531" xlink:href="#DejaVuSans-6f"/>
      <use x="409.326172" xlink:href="#DejaVuSans-6c"/>
      <use x="437.109375" xlink:href="#DejaVuSans-20"/>
      <use x="468.896484" xlink:href="#DejaVuSans-63"/>
      <use x="523.876953" xlink:href="#DejaVuSans-6f"/>
      <use x="585.058594" xlink:href="#DejaVuSans-6e"/>
      <use x="648.4375" xlink:href="#DejaVuSans-63"/>
      <use x="703.417969" xlink:href="#DejaVuSans-65"/>
      <use x="764.941406" xlink:href="#DejaVuSans-6e"/>
      <use x="828.320312" xlink:href="#DejaVuSans-74"/>
      <use x="867.529297" xlink:href="#DejaVuSans-72"/>
      <use x="908.642578" xlink:href="#DejaVuSans-61"/>
      <use x="969.921875" xlink:href="#DejaVuSans-74"/>
      <use x="1009.130859" xlink:href="#DejaVuSans-69"/>
      <use x="1036.914062" xlink:href="#DejaVuSans-6f"/>
      <use x="1098.095703" xlink:href="#DejaVuSans-6e"/>
      <use x="1161.474609" xlink:href="#DejaVuSans-73"/>
      <use x="1213.574219" xlink:href="#DejaVuSans-20"/>
      <use x="1245.361328" xlink:href="#DejaVuSans-28"/>
      <use x="1284.375" xlink:href="#DejaVuSans-70"/>
      <use x="1347.851562" xlink:href="#DejaVuSans-67"/>
      <use x="1411.328125" xlink:href="#DejaVuSans-2f"/>
      <use x="1445.019531" xlink:href="#DejaVuSans-6d"/>
      <use x="1542.431641" xlink:href="#DejaVuSans-4c"/>
      <use x="1598.144531" xlink:href="#DejaVuSans-29"/>
     </g>
    </g>
   </g>
   <g id="line2d_30">
    <path clip-path="url(#p3f543d6fb0)" d="M 54.165625 362.158125 
L 54.344187 362.053407 
L 54.58227 361.599968 
L 54.909633 360.429355 
L 55.356038 357.904075 
L 55.936365 353.214735 
L 56.695253 345.07965 
L 57.677344 331.933919 
L 59.016559 310.745117 
L 61.248584 271.332975 
L 64.879344 207.681716 
L 66.917927 175.946424 
L 68.718427 151.273703 
L 70.370125 131.587196 
L 71.917662 115.693536 
L 73.390799 102.776533 
L 74.789534 92.402642 
L 76.113869 84.168681 
L 77.378683 77.644337 
L 78.583976 72.553211 
L 79.714869 68.698466 
L 80.786241 65.805946 
L 81.783212 63.726826 
L 82.705782 62.289352 
L 83.568832 61.33723 
L 84.372361 60.768132 
L 85.131249 60.492747 
L 85.875257 60.453719 
L 86.649026 60.639646 
L 87.467435 61.0702 
L 88.375125 61.807683 
L 89.401857 62.943428 
L 90.562509 64.575173 
L 91.886844 66.836892 
L 93.419501 69.915667 
L 95.205121 74.027858 
L 97.303224 79.443309 
L 99.862613 86.698384 
L 103.136249 96.689542 
L 108.076464 112.565547 
L 118.745543 146.964651 
L 123.789919 162.379055 
L 128.358129 175.635995 
L 132.703138 187.573321 
L 136.929105 198.541096 
L 141.080671 208.703579 
L 145.187596 218.174765 
L 149.279642 227.056701 
L 153.356807 235.379404 
L 157.433972 243.201737 
L 161.526018 250.575869 
L 165.632944 257.523098 
L 169.769629 264.087541 
L 173.936076 270.285796 
L 178.147163 276.15444 
L 182.40289 281.705867 
L 186.703258 286.952542 
L 191.063146 291.923283 
L 195.497435 296.642417 
L 199.991245 301.101799 
L 204.574336 305.337489 
L 209.246708 309.353484 
L 214.023241 313.165852 
L 218.903935 316.777258 
L 223.903671 320.200929 
L 229.052208 323.456792 
L 234.349547 326.543261 
L 239.810568 329.467652 
L 245.465031 332.242854 
L 251.327816 334.871794 
L 257.428683 337.362501 
L 263.782514 339.715106 
L 270.433948 341.939125 
L 277.397865 344.031839 
L 284.733787 346.00252 
L 292.486353 347.852769 
L 300.700204 349.582458 
L 309.449741 351.195532 
L 318.809365 352.692735 
L 328.883237 354.076531 
L 339.805279 355.349236 
L 351.709411 356.509228 
L 364.803957 357.558316 
L 379.371638 358.498148 
L 395.769581 359.32839 
L 414.518589 360.049528 
L 436.407312 360.662414 
L 462.670804 361.167537 
L 495.451808 361.565842 
L 500.570585 361.611548 
L 500.570585 361.611548 
" style="fill:none;stroke:#2ca02c;stroke-linecap:square;stroke-width:1.5;"/>
   </g>
   <g id="line2d_31">
    <path clip-path="url(#p3f543d6fb0)" d="M 54.165625 362.158125 
L 54.686431 362.048885 
L 55.251877 361.694147 
L 55.891724 361.017793 
L 56.650613 359.869024 
L 57.543423 358.084304 
L 58.599914 355.440929 
L 59.849848 351.680212 
L 61.352745 346.418047 
L 63.227646 338.992323 
L 65.712633 328.169832 
L 70.265964 307.126961 
L 74.923456 286.012017 
L 78.092931 272.659762 
L 80.890402 261.812802 
L 83.464671 252.697826 
L 85.905018 244.85757 
L 88.226323 238.128892 
L 90.473228 232.284238 
L 92.645733 227.241445 
L 94.758716 222.889348 
L 96.812179 219.158812 
L 98.821001 215.961584 
L 100.785183 213.244433 
L 102.719604 210.940907 
L 104.624266 209.011999 
L 106.514047 207.409642 
L 108.388947 206.106244 
L 110.278728 205.061252 
L 112.18339 204.261455 
L 114.117811 203.690014 
L 116.096873 203.336773 
L 118.150336 203.197017 
L 120.29308 203.275531 
L 122.554865 203.583199 
L 124.965452 204.138858 
L 127.5546 204.967606 
L 130.366952 206.105568 
L 133.462026 207.603474 
L 136.899344 209.519735 
L 140.797948 211.954408 
L 145.336398 215.059574 
L 150.842059 219.107276 
L 158.192861 224.806656 
L 189.723931 249.566257 
L 198.428828 255.948532 
L 206.73196 261.762252 
L 214.871411 267.191047 
L 222.966221 272.323503 
L 231.090791 277.211921 
L 239.289762 281.885958 
L 247.607774 286.372015 
L 256.074588 290.685469 
L 264.705084 294.832697 
L 273.529022 298.826117 
L 282.576163 302.67598 
L 291.861386 306.384731 
L 301.399572 309.954378 
L 311.220481 313.39157 
L 321.338994 316.696567 
L 331.78487 319.873806 
L 342.58787 322.926356 
L 353.777754 325.856123 
L 365.384283 328.664056 
L 377.452097 331.353528 
L 390.010957 333.923382 
L 403.120382 336.377491 
L 416.825015 338.715278 
L 431.184374 340.937665 
L 446.272862 343.046269 
L 462.179758 345.042784 
L 478.979465 346.925358 
L 496.805903 348.697069 
L 500.570585 349.044023 
L 500.570585 349.044023 
" style="fill:none;stroke:#9467bd;stroke-linecap:square;stroke-width:1.5;"/>
   </g>
   <g id="line2d_32">
    <path clip-path="url(#p3f543d6fb0)" d="M 54.165625 362.158125 
L 55.400679 307.528259 
L 56.546451 266.646991 
L 57.677344 233.883075 
L 58.808237 207.332651 
L 59.924249 186.161049 
L 61.025381 169.32064 
L 62.111633 155.973645 
L 63.183005 145.448706 
L 64.224617 137.309763 
L 65.251348 130.975346 
L 66.248319 126.17014 
L 67.20065 122.62356 
L 68.12322 120.011748 
L 69.00115 118.168441 
L 69.834439 116.91596 
L 70.623088 116.11601 
L 71.381976 115.654062 
L 72.125985 115.457279 
L 72.884873 115.485092 
L 73.703282 115.740405 
L 74.625852 116.26963 
L 75.697224 117.155201 
L 76.947158 118.490307 
L 78.450055 120.435158 
L 80.310075 123.224882 
L 82.705782 127.24377 
L 86.08358 133.381178 
L 93.538542 147.530729 
L 100.5471 160.586243 
L 106.290844 170.816672 
L 111.796505 180.172543 
L 117.242646 188.991059 
L 122.673906 197.365369 
L 128.134927 205.379482 
L 133.640588 213.065513 
L 139.19089 220.432868 
L 144.785832 227.491209 
L 150.440295 234.267602 
L 156.154278 240.769021 
L 161.927782 247.002545 
L 167.775687 252.990158 
L 173.697993 258.736724 
L 179.70958 264.260633 
L 185.810448 269.565015 
L 192.015477 274.665241 
L 198.324667 279.563129 
L 204.738018 284.260952 
L 211.285291 288.781355 
L 217.966485 293.123905 
L 224.796481 297.297642 
L 231.775278 301.301779 
L 238.932638 305.151743 
L 246.268559 308.84514 
L 253.812803 312.393995 
L 261.58025 315.801188 
L 269.570898 319.06302 
L 277.82939 322.193198 
L 286.370605 325.19157 
L 295.209423 328.057779 
L 304.390485 330.799903 
L 313.928671 333.415402 
L 323.868622 335.90922 
L 334.254977 338.284176 
L 345.117498 340.538453 
L 356.515704 342.6754 
L 368.523998 344.698657 
L 381.201899 346.607173 
L 394.623808 348.400843 
L 408.908767 350.083161 
L 424.160936 351.652942 
L 440.529118 353.111307 
L 458.191874 354.458768 
L 477.372407 355.695717 
L 498.35344 356.822388 
L 500.570585 356.929321 
L 500.570585 356.929321 
" style="fill:none;stroke:#bcbd22;stroke-linecap:square;stroke-width:1.5;"/>
   </g>
   <g id="line2d_33">
    <path clip-path="url(#p3f543d6fb0)" d="M 54.165625 362.158125 
L 55.058435 362.047031 
L 55.995885 361.701054 
L 57.007737 361.080911 
L 58.108869 360.135472 
L 59.329042 358.784266 
L 60.698018 356.922222 
L 62.230675 354.447818 
L 63.971654 351.197349 
L 65.950716 347.014688 
L 68.257142 341.597887 
L 70.995092 334.573477 
L 74.43241 325.106135 
L 79.506547 310.404538 
L 89.104253 282.551591 
L 93.553423 270.385887 
L 97.422266 260.436376 
L 100.978625 251.891425 
L 104.311782 244.45074 
L 107.481257 237.909805 
L 110.516811 232.145789 
L 113.448204 227.048739 
L 116.290315 222.546316 
L 119.058026 218.573329 
L 121.751336 215.090587 
L 124.385125 212.04265 
L 126.974274 209.382322 
L 129.518782 207.082782 
L 132.03353 205.106829 
L 134.518518 203.433699 
L 136.988625 202.035378 
L 139.458733 200.890318 
L 141.94372 199.982864 
L 144.443588 199.30606 
L 146.973216 198.850489 
L 149.562365 198.610676 
L 152.211034 198.58932 
L 154.948985 198.791232 
L 157.791096 199.226321 
L 160.752249 199.907102 
L 163.862204 200.85324 
L 167.13584 202.083972 
L 170.617799 203.633327 
L 174.35272 205.542752 
L 178.385245 207.859128 
L 182.774894 210.64218 
L 187.625828 213.986681 
L 193.086849 218.028533 
L 199.440679 223.016991 
L 207.282526 229.470394 
L 218.948576 239.392643 
L 238.679675 256.169375 
L 248.679146 264.356378 
L 257.517964 271.309624 
L 265.776456 277.526397 
L 273.707584 283.220552 
L 281.44527 288.503406 
L 289.063915 293.436881 
L 296.623039 298.068143 
L 304.182163 302.439328 
L 311.771047 306.571244 
L 319.419452 310.482771 
L 327.157138 314.190664 
L 335.028746 317.715936 
L 343.049155 321.063687 
L 351.248126 324.244347 
L 359.655419 327.266449 
L 368.300795 330.136817 
L 377.214014 332.860768 
L 386.424837 335.442338 
L 395.992783 337.891784 
L 405.947614 340.209263 
L 416.333969 342.397538 
L 427.21137 344.460704 
L 438.654217 346.403149 
L 450.736911 348.226647 
L 463.533854 349.931077 
L 477.164085 351.519981 
L 491.761527 352.995128 
L 500.570585 353.785107 
L 500.570585 353.785107 
" style="fill:none;stroke:#1f77b4;stroke-linecap:square;stroke-width:1.5;"/>
   </g>
   <g id="line2d_34">
    <path clip-path="url(#p3f543d6fb0)" d="M 54.165625 362.158125 
L 64.135336 358.54555 
L 72.974154 355.599512 
L 82.065935 352.804124 
L 91.455319 350.1509 
L 101.142307 347.645531 
L 111.171538 345.282414 
L 121.557894 343.064603 
L 132.346014 340.989509 
L 143.565658 339.058989 
L 155.261468 337.273299 
L 167.492964 335.632212 
L 180.304787 334.139141 
L 193.771336 332.795344 
L 207.967014 331.604128 
L 222.981101 330.569309 
L 238.932638 329.694885 
L 255.955547 328.986703 
L 274.22839 328.451602 
L 293.97437 328.098664 
L 315.491089 327.939745 
L 339.180312 327.990918 
L 365.622366 328.274835 
L 395.69518 328.825387 
L 430.901651 329.699057 
L 474.202932 331.005627 
L 500.570585 331.883605 
L 500.570585 331.883605 
" style="fill:none;stroke:#e377c2;stroke-linecap:square;stroke-width:1.5;"/>
   </g>
   <g id="patch_5">
    <path d="M 54.165625 362.158125 
L 54.165625 29.518125 
" style="fill:none;stroke:#000000;stroke-linecap:square;stroke-linejoin:miter;stroke-width:0.8;"/>
   </g>
   <g id="patch_6">
    <path d="M 500.565625 362.158125 
L 500.565625 29.518125 
" style="fill:none;stroke:#000000;stroke-linecap:square;stroke-linejoin:miter;stroke-width:0.8;"/>
   </g>
   <g id="patch_7">
    <path d="M 54.165625 362.158125 
L 500.565625 362.158125 
" style="fill:none;stroke:#000000;stroke-linecap:square;stroke-linejoin:miter;stroke-width:0.8;"/>
   </g>
   <g id="patch_8">
    <path d="M 54.165625 29.518125 
L 500.565625 29.518125 
" style="fill:none;stroke:#000000;stroke-linecap:square;stroke-linejoin:miter;stroke-width:0.8;"/>
   </g>
   <g id="text_33">
    <!-- All estradiol esters (scaled to 5 mg or equivalent) -->
    <g transform="translate(128.79625 23.518125)scale(0.12 -0.12)">
     <defs>
      <path d="M 2188 4044 
L 1331 1722 
L 3047 1722 
L 2188 4044 
z
M 1831 4666 
L 2547 4666 
L 4325 0 
L 3669 0 
L 3244 1197 
L 1141 1197 
L 716 0 
L 50 0 
L 1831 4666 
z
" id="DejaVuSans-41" transform="scale(0.015625)"/>
      <path d="M 947 1747 
Q 947 1113 1208 752 
Q 1469 391 1925 391 
Q 2381 391 2643 752 
Q 2906 1113 2906 1747 
Q 2906 2381 2643 2742 
Q 2381 3103 1925 3103 
Q 1469 3103 1208 2742 
Q 947 2381 947 1747 
z
M 2906 525 
Q 2725 213 2448 61 
Q 2172 -91 1784 -91 
Q 1150 -91 751 415 
Q 353 922 353 1747 
Q 353 2572 751 3078 
Q 1150 3584 1784 3584 
Q 2172 3584 2448 3432 
Q 2725 3281 2906 2969 
L 2906 3500 
L 3481 3500 
L 3481 -1331 
L 2906 -1331 
L 2906 525 
z
" id="DejaVuSans-71" transform="scale(0.015625)"/>
      <path d="M 544 1381 
L 544 3500 
L 1119 3500 
L 1119 1403 
Q 1119 906 1312 657 
Q 1506 409 1894 409 
Q 2359 409 2629 706 
Q 2900 1003 2900 1516 
L 2900 3500 
L 3475 3500 
L 3475 0 
L 2900 0 
L 2900 538 
Q 2691 219 2414 64 
Q 2138 -91 1772 -91 
Q 1169 -91 856 284 
Q 544 659 544 1381 
z
M 1991 3584 
L 1991 3584 
z
" id="DejaVuSans-75" transform="scale(0.015625)"/>
      <path d="M 191 3500 
L 800 3500 
L 1894 563 
L 2988 3500 
L 3597 3500 
L 2284 0 
L 1503 0 
L 191 3500 
z
" id="DejaVuSans-76" transform="scale(0.015625)"/>
     </defs>
     <use xlink:href="#DejaVuSans-41"/>
     <use x="68.408203" xlink:href="#DejaVuSans-6c"/>
     <use x="96.191406" xlink:href="#DejaVuSans-6c"/>
     <use x="123.974609" xlink:href="#DejaVuSans-20"/>
     <use x="155.761719" xlink:href="#DejaVuSans-65"/>
     <use x="217.285156" xlink:href="#DejaVuSans-73"/>
     <use x="269.384766" xlink:href="#DejaVuSans-74"/>
     <use x="308.59375" xlink:href="#DejaVuSans-72"/>
     <use x="349.707031" xlink:href="#DejaVuSans-61"/>
     <use x="410.986328" xlink:href="#DejaVuSans-64"/>
     <use x="474.462891" xlink:href="#DejaVuSans-69"/>
     <use x="502.246094" xlink:href="#DejaVuSans-6f"/>
     <use x="563.427734" xlink:href="#DejaVuSans-6c"/>
     <use x="591.210938" xlink:href="#DejaVuSans-20"/>
     <use x="622.998047" xlink:href="#DejaVuSans-65"/>
     <use x="684.521484" xlink:href="#DejaVuSans-73"/>
     <use x="736.621094" xlink:href="#DejaVuSans-74"/>
     <use x="775.830078" xlink:href="#DejaVuSans-65"/>
     <use x="837.353516" xlink:href="#DejaVuSans-72"/>
     <use x="878.466797" xlink:href="#DejaVuSans-73"/>
     <use x="930.566406" xlink:href="#DejaVuSans-20"/>
     <use x="962.353516" xlink:href="#DejaVuSans-28"/>
     <use x="1001.367188" xlink:href="#DejaVuSans-73"/>
     <use x="1053.466797" xlink:href="#DejaVuSans-63"/>
     <use x="1108.447266" xlink:href="#DejaVuSans-61"/>
     <use x="1169.726562" xlink:href="#DejaVuSans-6c"/>
     <use x="1197.509766" xlink:href="#DejaVuSans-65"/>
     <use x="1259.033203" xlink:href="#DejaVuSans-64"/>
     <use x="1322.509766" xlink:href="#DejaVuSans-20"/>
     <use x="1354.296875" xlink:href="#DejaVuSans-74"/>
     <use x="1393.505859" xlink:href="#DejaVuSans-6f"/>
     <use x="1454.6875" xlink:href="#DejaVuSans-20"/>
     <use x="1486.474609" xlink:href="#DejaVuSans-35"/>
     <use x="1550.097656" xlink:href="#DejaVuSans-20"/>
     <use x="1581.884766" xlink:href="#DejaVuSans-6d"/>
     <use x="1679.296875" xlink:href="#DejaVuSans-67"/>
     <use x="1742.773438" xlink:href="#DejaVuSans-20"/>
     <use x="1774.560547" xlink:href="#DejaVuSans-6f"/>
     <use x="1835.742188" xlink:href="#DejaVuSans-72"/>
     <use x="1876.855469" xlink:href="#DejaVuSans-20"/>
     <use x="1908.642578" xlink:href="#DejaVuSans-65"/>
     <use x="1970.166016" xlink:href="#DejaVuSans-71"/>
     <use x="2033.642578" xlink:href="#DejaVuSans-75"/>
     <use x="2097.021484" xlink:href="#DejaVuSans-69"/>
     <use x="2124.804688" xlink:href="#DejaVuSans-76"/>
     <use x="2183.984375" xlink:href="#DejaVuSans-61"/>
     <use x="2245.263672" xlink:href="#DejaVuSans-6c"/>
     <use x="2273.046875" xlink:href="#DejaVuSans-65"/>
     <use x="2334.570312" xlink:href="#DejaVuSans-6e"/>
     <use x="2397.949219" xlink:href="#DejaVuSans-74"/>
     <use x="2437.158203" xlink:href="#DejaVuSans-29"/>
    </g>
   </g>
   <g id="legend_1">
    <g id="patch_9">
     <path d="M 277.45 110.90875 
L 493.565625 110.90875 
Q 495.565625 110.90875 495.565625 108.90875 
L 495.565625 36.518125 
Q 495.565625 34.518125 493.565625 34.518125 
L 277.45 34.518125 
Q 275.45 34.518125 275.45 36.518125 
L 275.45 108.90875 
Q 275.45 110.90875 277.45 110.90875 
z
" style="fill:#ffffff;opacity:0.8;stroke:#cccccc;stroke-linejoin:miter;"/>
    </g>
    <g id="line2d_35">
     <path d="M 279.45 42.616563 
L 299.45 42.616563 
" style="fill:none;stroke:#2ca02c;stroke-linecap:square;stroke-width:1.5;"/>
    </g>
    <g id="line2d_36"/>
    <g id="text_34">
     <!-- Estradiol valerate oil 5 mg -->
     <g transform="translate(307.45 46.116563)scale(0.1 -0.1)">
      <use xlink:href="#DejaVuSans-45"/>
      <use x="63.183594" xlink:href="#DejaVuSans-73"/>
      <use x="115.283203" xlink:href="#DejaVuSans-74"/>
      <use x="154.492188" xlink:href="#DejaVuSans-72"/>
      <use x="195.605469" xlink:href="#DejaVuSans-61"/>
      <use x="256.884766" xlink:href="#DejaVuSans-64"/>
      <use x="320.361328" xlink:href="#DejaVuSans-69"/>
      <use x="348.144531" xlink:href="#DejaVuSans-6f"/>
      <use x="409.326172" xlink:href="#DejaVuSans-6c"/>
      <use x="437.109375" xlink:href="#DejaVuSans-20"/>
      <use x="468.896484" xlink:href="#DejaVuSans-76"/>
      <use x="528.076172" xlink:href="#DejaVuSans-61"/>
      <use x="589.355469" xlink:href="#DejaVuSans-6c"/>
      <use x="617.138672" xlink:href="#DejaVuSans-65"/>
      <use x="678.662109" xlink:href="#DejaVuSans-72"/>
      <use x="719.775391" xlink:href="#DejaVuSans-61"/>
      <use x="781.054688" xlink:href="#DejaVuSans-74"/>
      <use x="820.263672" xlink:href="#DejaVuSans-65"/>
      <use x="881.787109" xlink:href="#DejaVuSans-20"/>
      <use x="913.574219" xlink:href="#DejaVuSans-6f"/>
      <use x="974.755859" xlink:href="#DejaVuSans-69"/>
      <use x="1002.539062" xlink:href="#DejaVuSans-6c"/>
      <use x="1030.322266" xlink:href="#DejaVuSans-20"/>
      <use x="1062.109375" xlink:href="#DejaVuSans-35"/>
      <use x="1125.732422" xlink:href="#DejaVuSans-20"/>
      <use x="1157.519531" xlink:href="#DejaVuSans-6d"/>
      <use x="1254.931641" xlink:href="#DejaVuSans-67"/>
     </g>
    </g>
    <g id="line2d_37">
     <path d="M 279.45 57.294688 
L 299.45 57.294688 
" style="fill:none;stroke:#9467bd;stroke-linecap:square;stroke-width:1.5;"/>
    </g>
    <g id="line2d_38"/>
    <g id="text_35">
     <!-- Estradiol cypionate oil 5 mg -->
     <g transform="translate(307.45 60.794688)scale(0.1 -0.1)">
      <use xlink:href="#DejaVuSans-45"/>
      <use x="63.183594" xlink:href="#DejaVuSans-73"/>
      <use x="115.283203" xlink:href="#DejaVuSans-74"/>
      <use x="154.492188" xlink:href="#DejaVuSans-72"/>
      <use x="195.605469" xlink:href="#DejaVuSans-61"/>
      <use x="256.884766" xlink:href="#DejaVuSans-64"/>
      <use x="320.361328" xlink:href="#DejaVuSans-69"/>
      <use x="348.144531" xlink:href="#DejaVuSans-6f"/>
      <use x="409.326172" xlink:href="#DejaVuSans-6c"/>
      <use x="437.109375" xlink:href="#DejaVuSans-20"/>
      <use x="468.896484" xlink:href="#DejaVuSans-63"/>
      <use x="523.876953" xlink:href="#DejaVuSans-79"/>
      <use x="583.056641" xlink:href="#DejaVuSans-70"/>
      <use x="646.533203" xlink:href="#DejaVuSans-69"/>
      <use x="674.316406" xlink:href="#DejaVuSans-6f"/>
      <use x="735.498047" xlink:href="#DejaVuSans-6e"/>
      <use x="798.876953" xlink:href="#DejaVuSans-61"/>
      <use x="860.15625" xlink:href="#DejaVuSans-74"/>
      <use x="899.365234" xlink:href="#DejaVuSans-65"/>
      <use x="960.888672" xlink:href="#DejaVuSans-20"/>
      <use x="992.675781" xlink:href="#DejaVuSans-6f"/>
      <use x="1053.857422" xlink:href="#DejaVuSans-69"/>
      <use x="1081.640625" xlink:href="#DejaVuSans-6c"/>
      <use x="1109.423828" xlink:href="#DejaVuSans-20"/>
      <use x="1141.210938" xlink:href="#DejaVuSans-35"/>
      <use x="1204.833984" xlink:href="#DejaVuSans-20"/>
      <use x="1236.621094" xlink:href="#DejaVuSans-6d"/>
      <use x="1334.033203" xlink:href="#DejaVuSans-67"/>
     </g>
    </g>
    <g id="line2d_39">
     <path d="M 279.45 71.972813 
L 299.45 71.972813 
" style="fill:none;stroke:#bcbd22;stroke-linecap:square;stroke-width:1.5;"/>
    </g>
    <g id="line2d_40"/>
    <g id="text_36">
     <!-- Estradiol cypionate suspension 5 mg -->
     <g transform="translate(307.45 75.472813)scale(0.1 -0.1)">
      <use xlink:href="#DejaVuSans-45"/>
      <use x="63.183594" xlink:href="#DejaVuSans-73"/>
      <use x="115.283203" xlink:href="#DejaVuSans-74"/>
      <use x="154.492188" xlink:href="#DejaVuSans-72"/>
      <use x="195.605469" xlink:href="#DejaVuSans-61"/>
      <use x="256.884766" xlink:href="#DejaVuSans-64"/>
      <use x="320.361328" xlink:href="#DejaVuSans-69"/>
      <use x="348.144531" xlink:href="#DejaVuSans-6f"/>
      <use x="409.326172" xlink:href="#DejaVuSans-6c"/>
      <use x="437.109375" xlink:href="#DejaVuSans-20"/>
      <use x="468.896484" xlink:href="#DejaVuSans-63"/>
      <use x="523.876953" xlink:href="#DejaVuSans-79"/>
      <use x="583.056641" xlink:href="#DejaVuSans-70"/>
      <use x="646.533203" xlink:href="#DejaVuSans-69"/>
      <use x="674.316406" xlink:href="#DejaVuSans-6f"/>
      <use x="735.498047" xlink:href="#DejaVuSans-6e"/>
      <use x="798.876953" xlink:href="#DejaVuSans-61"/>
      <use x="860.15625" xlink:href="#DejaVuSans-74"/>
      <use x="899.365234" xlink:href="#DejaVuSans-65"/>
      <use x="960.888672" xlink:href="#DejaVuSans-20"/>
      <use x="992.675781" xlink:href="#DejaVuSans-73"/>
      <use x="1044.775391" xlink:href="#DejaVuSans-75"/>
      <use x="1108.154297" xlink:href="#DejaVuSans-73"/>
      <use x="1160.253906" xlink:href="#DejaVuSans-70"/>
      <use x="1223.730469" xlink:href="#DejaVuSans-65"/>
      <use x="1285.253906" xlink:href="#DejaVuSans-6e"/>
      <use x="1348.632812" xlink:href="#DejaVuSans-73"/>
      <use x="1400.732422" xlink:href="#DejaVuSans-69"/>
      <use x="1428.515625" xlink:href="#DejaVuSans-6f"/>
      <use x="1489.697266" xlink:href="#DejaVuSans-6e"/>
      <use x="1553.076172" xlink:href="#DejaVuSans-20"/>
      <use x="1584.863281" xlink:href="#DejaVuSans-35"/>
      <use x="1648.486328" xlink:href="#DejaVuSans-20"/>
      <use x="1680.273438" xlink:href="#DejaVuSans-6d"/>
      <use x="1777.685547" xlink:href="#DejaVuSans-67"/>
     </g>
    </g>
    <g id="line2d_41">
     <path d="M 279.45 86.650938 
L 299.45 86.650938 
" style="fill:none;stroke:#1f77b4;stroke-linecap:square;stroke-width:1.5;"/>
    </g>
    <g id="line2d_42"/>
    <g id="text_37">
     <!-- Estradiol enanthate oil 5 mg -->
     <g transform="translate(307.45 90.150938)scale(0.1 -0.1)">
      <defs>
       <path d="M 3513 2113 
L 3513 0 
L 2938 0 
L 2938 2094 
Q 2938 2591 2744 2837 
Q 2550 3084 2163 3084 
Q 1697 3084 1428 2787 
Q 1159 2491 1159 1978 
L 1159 0 
L 581 0 
L 581 4863 
L 1159 4863 
L 1159 2956 
Q 1366 3272 1645 3428 
Q 1925 3584 2291 3584 
Q 2894 3584 3203 3211 
Q 3513 2838 3513 2113 
z
" id="DejaVuSans-68" transform="scale(0.015625)"/>
      </defs>
      <use xlink:href="#DejaVuSans-45"/>
      <use x="63.183594" xlink:href="#DejaVuSans-73"/>
      <use x="115.283203" xlink:href="#DejaVuSans-74"/>
      <use x="154.492188" xlink:href="#DejaVuSans-72"/>
      <use x="195.605469" xlink:href="#DejaVuSans-61"/>
      <use x="256.884766" xlink:href="#DejaVuSans-64"/>
      <use x="320.361328" xlink:href="#DejaVuSans-69"/>
      <use x="348.144531" xlink:href="#DejaVuSans-6f"/>
      <use x="409.326172" xlink:href="#DejaVuSans-6c"/>
      <use x="437.109375" xlink:href="#DejaVuSans-20"/>
      <use x="468.896484" xlink:href="#DejaVuSans-65"/>
      <use x="530.419922" xlink:href="#DejaVuSans-6e"/>
      <use x="593.798828" xlink:href="#DejaVuSans-61"/>
      <use x="655.078125" xlink:href="#DejaVuSans-6e"/>
      <use x="718.457031" xlink:href="#DejaVuSans-74"/>
      <use x="757.666016" xlink:href="#DejaVuSans-68"/>
      <use x="821.044922" xlink:href="#DejaVuSans-61"/>
      <use x="882.324219" xlink:href="#DejaVuSans-74"/>
      <use x="921.533203" xlink:href="#DejaVuSans-65"/>
      <use x="983.056641" xlink:href="#DejaVuSans-20"/>
      <use x="1014.84375" xlink:href="#DejaVuSans-6f"/>
      <use x="1076.025391" xlink:href="#DejaVuSans-69"/>
      <use x="1103.808594" xlink:href="#DejaVuSans-6c"/>
      <use x="1131.591797" xlink:href="#DejaVuSans-20"/>
      <use x="1163.378906" xlink:href="#DejaVuSans-35"/>
      <use x="1227.001953" xlink:href="#DejaVuSans-20"/>
      <use x="1258.789062" xlink:href="#DejaVuSans-6d"/>
      <use x="1356.201172" xlink:href="#DejaVuSans-67"/>
     </g>
    </g>
    <g id="line2d_43">
     <path d="M 279.45 101.329063 
L 299.45 101.329063 
" style="fill:none;stroke:#e377c2;stroke-linecap:square;stroke-width:1.5;"/>
    </g>
    <g id="line2d_44"/>
    <g id="text_38">
     <!-- Polyestradiol phosphate 32.5 mg -->
     <g transform="translate(307.45 104.829063)scale(0.1 -0.1)">
      <defs>
       <path d="M 1259 4147 
L 1259 2394 
L 2053 2394 
Q 2494 2394 2734 2622 
Q 2975 2850 2975 3272 
Q 2975 3691 2734 3919 
Q 2494 4147 2053 4147 
L 1259 4147 
z
M 628 4666 
L 2053 4666 
Q 2838 4666 3239 4311 
Q 3641 3956 3641 3272 
Q 3641 2581 3239 2228 
Q 2838 1875 2053 1875 
L 1259 1875 
L 1259 0 
L 628 0 
L 628 4666 
z
" id="DejaVuSans-50" transform="scale(0.015625)"/>
       <path d="M 684 794 
L 1344 794 
L 1344 0 
L 684 0 
L 684 794 
z
" id="DejaVuSans-2e" transform="scale(0.015625)"/>
      </defs>
      <use xlink:href="#DejaVuSans-50"/>
      <use x="56.677734" xlink:href="#DejaVuSans-6f"/>
      <use x="117.859375" xlink:href="#DejaVuSans-6c"/>
      <use x="145.642578" xlink:href="#DejaVuSans-79"/>
      <use x="204.822266" xlink:href="#DejaVuSans-65"/>
      <use x="266.345703" xlink:href="#DejaVuSans-73"/>
      <use x="318.445312" xlink:href="#DejaVuSans-74"/>
      <use x="357.654297" xlink:href="#DejaVuSans-72"/>
      <use x="398.767578" xlink:href="#DejaVuSans-61"/>
      <use x="460.046875" xlink:href="#DejaVuSans-64"/>
      <use x="523.523438" xlink:href="#DejaVuSans-69"/>
      <use x="551.306641" xlink:href="#DejaVuSans-6f"/>
      <use x="612.488281" xlink:href="#DejaVuSans-6c"/>
      <use x="640.271484" xlink:href="#DejaVuSans-20"/>
      <use x="672.058594" xlink:href="#DejaVuSans-70"/>
      <use x="735.535156" xlink:href="#DejaVuSans-68"/>
      <use x="798.914062" xlink:href="#DejaVuSans-6f"/>
      <use x="860.095703" xlink:href="#DejaVuSans-73"/>
      <use x="912.195312" xlink:href="#DejaVuSans-70"/>
      <use x="975.671875" xlink:href="#DejaVuSans-68"/>
      <use x="1039.050781" xlink:href="#DejaVuSans-61"/>
      <use x="1100.330078" xlink:href="#DejaVuSans-74"/>
      <use x="1139.539062" xlink:href="#DejaVuSans-65"/>
      <use x="1201.0625" xlink:href="#DejaVuSans-20"/>
      <use x="1232.849609" xlink:href="#DejaVuSans-33"/>
      <use x="1296.472656" xlink:href="#DejaVuSans-32"/>
      <use x="1360.095703" xlink:href="#DejaVuSans-2e"/>
      <use x="1391.882812" xlink:href="#DejaVuSans-35"/>
      <use x="1455.505859" xlink:href="#DejaVuSans-20"/>
      <use x="1487.292969" xlink:href="#DejaVuSans-6d"/>
      <use x="1584.705078" xlink:href="#DejaVuSans-67"/>
     </g>
    </g>
   </g>
  </g>
 </g>
 <defs>
  <clipPath id="p3f543d6fb0">
   <rect height="332.64" width="446.4" x="54.165625" y="29.518125"/>
  </clipPath>
 </defs>
</svg>
