<?xml version="1.0" encoding="utf-8" standalone="no"?>
<!DOCTYPE svg PUBLIC "-//W3C//DTD SVG 1.1//EN"
  "http://www.w3.org/Graphics/SVG/1.1/DTD/svg11.dtd">
<svg height="490.074375pt" version="1.1" viewBox="0 0 685.41875 490.074375" width="685.41875pt" xmlns="http://www.w3.org/2000/svg" xmlns:xlink="http://www.w3.org/1999/xlink">
 <metadata>
  <rdf:RDF xmlns:cc="http://creativecommons.org/ns#" xmlns:dc="http://purl.org/dc/elements/1.1/" xmlns:rdf="http://www.w3.org/1999/02/22-rdf-syntax-ns#">
   <cc:Work>
    <dc:type rdf:resource="http://purl.org/dc/dcmitype/StillImage"/>
    <dc:date>2021-09-12T01:35:42.004507</dc:date>
    <dc:format>image/svg+xml</dc:format>
    <dc:creator>
     <cc:Agent>
      <dc:title>Matplotlib v3.4.1, https://matplotlib.org/</dc:title>
     </cc:Agent>
    </dc:creator>
   </cc:Work>
  </rdf:RDF>
 </metadata>
 <defs>
  <style type="text/css">*{stroke-linecap:butt;stroke-linejoin:round;}</style>
 </defs>
 <g id="figure_1">
  <g id="patch_1">
   <path d="M 0 490.074375 
L 685.41875 490.074375 
L 685.41875 0 
L 0 0 
z
" style="fill:#ffffff;"/>
  </g>
  <g id="axes_1">
   <g id="patch_2">
    <path d="M 60.528125 445.318125 
L 618.528125 445.318125 
L 618.528125 29.518125 
L 60.528125 29.518125 
z
" style="fill:#ffffff;"/>
   </g>
   <g id="axes_2">
    <g id="patch_3">
     <path d="M 618.528125 445.318125 
L 618.528125 445.318125 
L 618.528125 29.518125 
L 618.528125 29.518125 
z
" style="fill:#ffffff;"/>
    </g>
    <g id="matplotlib.axis_1"/>
    <g id="matplotlib.axis_2">
     <g id="ytick_1">
      <g id="line2d_1">
       <defs>
        <path d="M 0 0 
L 3.5 0 
" id="mc9d94ef34a" style="stroke:#000000;stroke-width:0.8;"/>
       </defs>
       <g>
        <use style="stroke:#000000;stroke-width:0.8;" x="618.528125" xlink:href="#mc9d94ef34a" y="445.318125"/>
       </g>
      </g>
      <g id="text_1">
       <!-- 0 -->
       <g transform="translate(625.528125 449.117344)scale(0.1 -0.1)">
        <defs>
         <path d="M 2034 4250 
Q 1547 4250 1301 3770 
Q 1056 3291 1056 2328 
Q 1056 1369 1301 889 
Q 1547 409 2034 409 
Q 2525 409 2770 889 
Q 3016 1369 3016 2328 
Q 3016 3291 2770 3770 
Q 2525 4250 2034 4250 
z
M 2034 4750 
Q 2819 4750 3233 4129 
Q 3647 3509 3647 2328 
Q 3647 1150 3233 529 
Q 2819 -91 2034 -91 
Q 1250 -91 836 529 
Q 422 1150 422 2328 
Q 422 3509 836 4129 
Q 1250 4750 2034 4750 
z
" id="DejaVuSans-30" transform="scale(0.015625)"/>
        </defs>
        <use xlink:href="#DejaVuSans-30"/>
       </g>
      </g>
     </g>
     <g id="ytick_2">
      <g id="line2d_2">
       <g>
        <use style="stroke:#000000;stroke-width:0.8;" x="618.528125" xlink:href="#mc9d94ef34a" y="381.755654"/>
       </g>
      </g>
      <g id="text_2">
       <!-- 2000 -->
       <g transform="translate(625.528125 385.554873)scale(0.1 -0.1)">
        <defs>
         <path d="M 1228 531 
L 3431 531 
L 3431 0 
L 469 0 
L 469 531 
Q 828 903 1448 1529 
Q 2069 2156 2228 2338 
Q 2531 2678 2651 2914 
Q 2772 3150 2772 3378 
Q 2772 3750 2511 3984 
Q 2250 4219 1831 4219 
Q 1534 4219 1204 4116 
Q 875 4013 500 3803 
L 500 4441 
Q 881 4594 1212 4672 
Q 1544 4750 1819 4750 
Q 2544 4750 2975 4387 
Q 3406 4025 3406 3419 
Q 3406 3131 3298 2873 
Q 3191 2616 2906 2266 
Q 2828 2175 2409 1742 
Q 1991 1309 1228 531 
z
" id="DejaVuSans-32" transform="scale(0.015625)"/>
        </defs>
        <use xlink:href="#DejaVuSans-32"/>
        <use x="63.623047" xlink:href="#DejaVuSans-30"/>
        <use x="127.246094" xlink:href="#DejaVuSans-30"/>
        <use x="190.869141" xlink:href="#DejaVuSans-30"/>
       </g>
      </g>
     </g>
     <g id="ytick_3">
      <g id="line2d_3">
       <g>
        <use style="stroke:#000000;stroke-width:0.8;" x="618.528125" xlink:href="#mc9d94ef34a" y="318.193183"/>
       </g>
      </g>
      <g id="text_3">
       <!-- 4000 -->
       <g transform="translate(625.528125 321.992402)scale(0.1 -0.1)">
        <defs>
         <path d="M 2419 4116 
L 825 1625 
L 2419 1625 
L 2419 4116 
z
M 2253 4666 
L 3047 4666 
L 3047 1625 
L 3713 1625 
L 3713 1100 
L 3047 1100 
L 3047 0 
L 2419 0 
L 2419 1100 
L 313 1100 
L 313 1709 
L 2253 4666 
z
" id="DejaVuSans-34" transform="scale(0.015625)"/>
        </defs>
        <use xlink:href="#DejaVuSans-34"/>
        <use x="63.623047" xlink:href="#DejaVuSans-30"/>
        <use x="127.246094" xlink:href="#DejaVuSans-30"/>
        <use x="190.869141" xlink:href="#DejaVuSans-30"/>
       </g>
      </g>
     </g>
     <g id="ytick_4">
      <g id="line2d_4">
       <g>
        <use style="stroke:#000000;stroke-width:0.8;" x="618.528125" xlink:href="#mc9d94ef34a" y="254.630713"/>
       </g>
      </g>
      <g id="text_4">
       <!-- 6000 -->
       <g transform="translate(625.528125 258.429931)scale(0.1 -0.1)">
        <defs>
         <path d="M 2113 2584 
Q 1688 2584 1439 2293 
Q 1191 2003 1191 1497 
Q 1191 994 1439 701 
Q 1688 409 2113 409 
Q 2538 409 2786 701 
Q 3034 994 3034 1497 
Q 3034 2003 2786 2293 
Q 2538 2584 2113 2584 
z
M 3366 4563 
L 3366 3988 
Q 3128 4100 2886 4159 
Q 2644 4219 2406 4219 
Q 1781 4219 1451 3797 
Q 1122 3375 1075 2522 
Q 1259 2794 1537 2939 
Q 1816 3084 2150 3084 
Q 2853 3084 3261 2657 
Q 3669 2231 3669 1497 
Q 3669 778 3244 343 
Q 2819 -91 2113 -91 
Q 1303 -91 875 529 
Q 447 1150 447 2328 
Q 447 3434 972 4092 
Q 1497 4750 2381 4750 
Q 2619 4750 2861 4703 
Q 3103 4656 3366 4563 
z
" id="DejaVuSans-36" transform="scale(0.015625)"/>
        </defs>
        <use xlink:href="#DejaVuSans-36"/>
        <use x="63.623047" xlink:href="#DejaVuSans-30"/>
        <use x="127.246094" xlink:href="#DejaVuSans-30"/>
        <use x="190.869141" xlink:href="#DejaVuSans-30"/>
       </g>
      </g>
     </g>
     <g id="ytick_5">
      <g id="line2d_5">
       <g>
        <use style="stroke:#000000;stroke-width:0.8;" x="618.528125" xlink:href="#mc9d94ef34a" y="191.068242"/>
       </g>
      </g>
      <g id="text_5">
       <!-- 8000 -->
       <g transform="translate(625.528125 194.867461)scale(0.1 -0.1)">
        <defs>
         <path d="M 2034 2216 
Q 1584 2216 1326 1975 
Q 1069 1734 1069 1313 
Q 1069 891 1326 650 
Q 1584 409 2034 409 
Q 2484 409 2743 651 
Q 3003 894 3003 1313 
Q 3003 1734 2745 1975 
Q 2488 2216 2034 2216 
z
M 1403 2484 
Q 997 2584 770 2862 
Q 544 3141 544 3541 
Q 544 4100 942 4425 
Q 1341 4750 2034 4750 
Q 2731 4750 3128 4425 
Q 3525 4100 3525 3541 
Q 3525 3141 3298 2862 
Q 3072 2584 2669 2484 
Q 3125 2378 3379 2068 
Q 3634 1759 3634 1313 
Q 3634 634 3220 271 
Q 2806 -91 2034 -91 
Q 1263 -91 848 271 
Q 434 634 434 1313 
Q 434 1759 690 2068 
Q 947 2378 1403 2484 
z
M 1172 3481 
Q 1172 3119 1398 2916 
Q 1625 2713 2034 2713 
Q 2441 2713 2670 2916 
Q 2900 3119 2900 3481 
Q 2900 3844 2670 4047 
Q 2441 4250 2034 4250 
Q 1625 4250 1398 4047 
Q 1172 3844 1172 3481 
z
" id="DejaVuSans-38" transform="scale(0.015625)"/>
        </defs>
        <use xlink:href="#DejaVuSans-38"/>
        <use x="63.623047" xlink:href="#DejaVuSans-30"/>
        <use x="127.246094" xlink:href="#DejaVuSans-30"/>
        <use x="190.869141" xlink:href="#DejaVuSans-30"/>
       </g>
      </g>
     </g>
     <g id="ytick_6">
      <g id="line2d_6">
       <g>
        <use style="stroke:#000000;stroke-width:0.8;" x="618.528125" xlink:href="#mc9d94ef34a" y="127.505771"/>
       </g>
      </g>
      <g id="text_6">
       <!-- 10000 -->
       <g transform="translate(625.528125 131.30499)scale(0.1 -0.1)">
        <defs>
         <path d="M 794 531 
L 1825 531 
L 1825 4091 
L 703 3866 
L 703 4441 
L 1819 4666 
L 2450 4666 
L 2450 531 
L 3481 531 
L 3481 0 
L 794 0 
L 794 531 
z
" id="DejaVuSans-31" transform="scale(0.015625)"/>
        </defs>
        <use xlink:href="#DejaVuSans-31"/>
        <use x="63.623047" xlink:href="#DejaVuSans-30"/>
        <use x="127.246094" xlink:href="#DejaVuSans-30"/>
        <use x="190.869141" xlink:href="#DejaVuSans-30"/>
        <use x="254.492188" xlink:href="#DejaVuSans-30"/>
       </g>
      </g>
     </g>
     <g id="ytick_7">
      <g id="line2d_7">
       <g>
        <use style="stroke:#000000;stroke-width:0.8;" x="618.528125" xlink:href="#mc9d94ef34a" y="63.9433"/>
       </g>
      </g>
      <g id="text_7">
       <!-- 12000 -->
       <g transform="translate(625.528125 67.742519)scale(0.1 -0.1)">
        <use xlink:href="#DejaVuSans-31"/>
        <use x="63.623047" xlink:href="#DejaVuSans-32"/>
        <use x="127.246094" xlink:href="#DejaVuSans-30"/>
        <use x="190.869141" xlink:href="#DejaVuSans-30"/>
        <use x="254.492188" xlink:href="#DejaVuSans-30"/>
       </g>
      </g>
     </g>
     <g id="text_8">
      <!-- Estradiol concentrations (pmol/L) -->
      <g transform="translate(668.939063 320.550156)rotate(-90)scale(0.1 -0.1)">
       <defs>
        <path d="M 628 4666 
L 3578 4666 
L 3578 4134 
L 1259 4134 
L 1259 2753 
L 3481 2753 
L 3481 2222 
L 1259 2222 
L 1259 531 
L 3634 531 
L 3634 0 
L 628 0 
L 628 4666 
z
" id="DejaVuSans-45" transform="scale(0.015625)"/>
        <path d="M 2834 3397 
L 2834 2853 
Q 2591 2978 2328 3040 
Q 2066 3103 1784 3103 
Q 1356 3103 1142 2972 
Q 928 2841 928 2578 
Q 928 2378 1081 2264 
Q 1234 2150 1697 2047 
L 1894 2003 
Q 2506 1872 2764 1633 
Q 3022 1394 3022 966 
Q 3022 478 2636 193 
Q 2250 -91 1575 -91 
Q 1294 -91 989 -36 
Q 684 19 347 128 
L 347 722 
Q 666 556 975 473 
Q 1284 391 1588 391 
Q 1994 391 2212 530 
Q 2431 669 2431 922 
Q 2431 1156 2273 1281 
Q 2116 1406 1581 1522 
L 1381 1569 
Q 847 1681 609 1914 
Q 372 2147 372 2553 
Q 372 3047 722 3315 
Q 1072 3584 1716 3584 
Q 2034 3584 2315 3537 
Q 2597 3491 2834 3397 
z
" id="DejaVuSans-73" transform="scale(0.015625)"/>
        <path d="M 1172 4494 
L 1172 3500 
L 2356 3500 
L 2356 3053 
L 1172 3053 
L 1172 1153 
Q 1172 725 1289 603 
Q 1406 481 1766 481 
L 2356 481 
L 2356 0 
L 1766 0 
Q 1100 0 847 248 
Q 594 497 594 1153 
L 594 3053 
L 172 3053 
L 172 3500 
L 594 3500 
L 594 4494 
L 1172 4494 
z
" id="DejaVuSans-74" transform="scale(0.015625)"/>
        <path d="M 2631 2963 
Q 2534 3019 2420 3045 
Q 2306 3072 2169 3072 
Q 1681 3072 1420 2755 
Q 1159 2438 1159 1844 
L 1159 0 
L 581 0 
L 581 3500 
L 1159 3500 
L 1159 2956 
Q 1341 3275 1631 3429 
Q 1922 3584 2338 3584 
Q 2397 3584 2469 3576 
Q 2541 3569 2628 3553 
L 2631 2963 
z
" id="DejaVuSans-72" transform="scale(0.015625)"/>
        <path d="M 2194 1759 
Q 1497 1759 1228 1600 
Q 959 1441 959 1056 
Q 959 750 1161 570 
Q 1363 391 1709 391 
Q 2188 391 2477 730 
Q 2766 1069 2766 1631 
L 2766 1759 
L 2194 1759 
z
M 3341 1997 
L 3341 0 
L 2766 0 
L 2766 531 
Q 2569 213 2275 61 
Q 1981 -91 1556 -91 
Q 1019 -91 701 211 
Q 384 513 384 1019 
Q 384 1609 779 1909 
Q 1175 2209 1959 2209 
L 2766 2209 
L 2766 2266 
Q 2766 2663 2505 2880 
Q 2244 3097 1772 3097 
Q 1472 3097 1187 3025 
Q 903 2953 641 2809 
L 641 3341 
Q 956 3463 1253 3523 
Q 1550 3584 1831 3584 
Q 2591 3584 2966 3190 
Q 3341 2797 3341 1997 
z
" id="DejaVuSans-61" transform="scale(0.015625)"/>
        <path d="M 2906 2969 
L 2906 4863 
L 3481 4863 
L 3481 0 
L 2906 0 
L 2906 525 
Q 2725 213 2448 61 
Q 2172 -91 1784 -91 
Q 1150 -91 751 415 
Q 353 922 353 1747 
Q 353 2572 751 3078 
Q 1150 3584 1784 3584 
Q 2172 3584 2448 3432 
Q 2725 3281 2906 2969 
z
M 947 1747 
Q 947 1113 1208 752 
Q 1469 391 1925 391 
Q 2381 391 2643 752 
Q 2906 1113 2906 1747 
Q 2906 2381 2643 2742 
Q 2381 3103 1925 3103 
Q 1469 3103 1208 2742 
Q 947 2381 947 1747 
z
" id="DejaVuSans-64" transform="scale(0.015625)"/>
        <path d="M 603 3500 
L 1178 3500 
L 1178 0 
L 603 0 
L 603 3500 
z
M 603 4863 
L 1178 4863 
L 1178 4134 
L 603 4134 
L 603 4863 
z
" id="DejaVuSans-69" transform="scale(0.015625)"/>
        <path d="M 1959 3097 
Q 1497 3097 1228 2736 
Q 959 2375 959 1747 
Q 959 1119 1226 758 
Q 1494 397 1959 397 
Q 2419 397 2687 759 
Q 2956 1122 2956 1747 
Q 2956 2369 2687 2733 
Q 2419 3097 1959 3097 
z
M 1959 3584 
Q 2709 3584 3137 3096 
Q 3566 2609 3566 1747 
Q 3566 888 3137 398 
Q 2709 -91 1959 -91 
Q 1206 -91 779 398 
Q 353 888 353 1747 
Q 353 2609 779 3096 
Q 1206 3584 1959 3584 
z
" id="DejaVuSans-6f" transform="scale(0.015625)"/>
        <path d="M 603 4863 
L 1178 4863 
L 1178 0 
L 603 0 
L 603 4863 
z
" id="DejaVuSans-6c" transform="scale(0.015625)"/>
        <path id="DejaVuSans-20" transform="scale(0.015625)"/>
        <path d="M 3122 3366 
L 3122 2828 
Q 2878 2963 2633 3030 
Q 2388 3097 2138 3097 
Q 1578 3097 1268 2742 
Q 959 2388 959 1747 
Q 959 1106 1268 751 
Q 1578 397 2138 397 
Q 2388 397 2633 464 
Q 2878 531 3122 666 
L 3122 134 
Q 2881 22 2623 -34 
Q 2366 -91 2075 -91 
Q 1284 -91 818 406 
Q 353 903 353 1747 
Q 353 2603 823 3093 
Q 1294 3584 2113 3584 
Q 2378 3584 2631 3529 
Q 2884 3475 3122 3366 
z
" id="DejaVuSans-63" transform="scale(0.015625)"/>
        <path d="M 3513 2113 
L 3513 0 
L 2938 0 
L 2938 2094 
Q 2938 2591 2744 2837 
Q 2550 3084 2163 3084 
Q 1697 3084 1428 2787 
Q 1159 2491 1159 1978 
L 1159 0 
L 581 0 
L 581 3500 
L 1159 3500 
L 1159 2956 
Q 1366 3272 1645 3428 
Q 1925 3584 2291 3584 
Q 2894 3584 3203 3211 
Q 3513 2838 3513 2113 
z
" id="DejaVuSans-6e" transform="scale(0.015625)"/>
        <path d="M 3597 1894 
L 3597 1613 
L 953 1613 
Q 991 1019 1311 708 
Q 1631 397 2203 397 
Q 2534 397 2845 478 
Q 3156 559 3463 722 
L 3463 178 
Q 3153 47 2828 -22 
Q 2503 -91 2169 -91 
Q 1331 -91 842 396 
Q 353 884 353 1716 
Q 353 2575 817 3079 
Q 1281 3584 2069 3584 
Q 2775 3584 3186 3129 
Q 3597 2675 3597 1894 
z
M 3022 2063 
Q 3016 2534 2758 2815 
Q 2500 3097 2075 3097 
Q 1594 3097 1305 2825 
Q 1016 2553 972 2059 
L 3022 2063 
z
" id="DejaVuSans-65" transform="scale(0.015625)"/>
        <path d="M 1984 4856 
Q 1566 4138 1362 3434 
Q 1159 2731 1159 2009 
Q 1159 1288 1364 580 
Q 1569 -128 1984 -844 
L 1484 -844 
Q 1016 -109 783 600 
Q 550 1309 550 2009 
Q 550 2706 781 3412 
Q 1013 4119 1484 4856 
L 1984 4856 
z
" id="DejaVuSans-28" transform="scale(0.015625)"/>
        <path d="M 1159 525 
L 1159 -1331 
L 581 -1331 
L 581 3500 
L 1159 3500 
L 1159 2969 
Q 1341 3281 1617 3432 
Q 1894 3584 2278 3584 
Q 2916 3584 3314 3078 
Q 3713 2572 3713 1747 
Q 3713 922 3314 415 
Q 2916 -91 2278 -91 
Q 1894 -91 1617 61 
Q 1341 213 1159 525 
z
M 3116 1747 
Q 3116 2381 2855 2742 
Q 2594 3103 2138 3103 
Q 1681 3103 1420 2742 
Q 1159 2381 1159 1747 
Q 1159 1113 1420 752 
Q 1681 391 2138 391 
Q 2594 391 2855 752 
Q 3116 1113 3116 1747 
z
" id="DejaVuSans-70" transform="scale(0.015625)"/>
        <path d="M 3328 2828 
Q 3544 3216 3844 3400 
Q 4144 3584 4550 3584 
Q 5097 3584 5394 3201 
Q 5691 2819 5691 2113 
L 5691 0 
L 5113 0 
L 5113 2094 
Q 5113 2597 4934 2840 
Q 4756 3084 4391 3084 
Q 3944 3084 3684 2787 
Q 3425 2491 3425 1978 
L 3425 0 
L 2847 0 
L 2847 2094 
Q 2847 2600 2669 2842 
Q 2491 3084 2119 3084 
Q 1678 3084 1418 2786 
Q 1159 2488 1159 1978 
L 1159 0 
L 581 0 
L 581 3500 
L 1159 3500 
L 1159 2956 
Q 1356 3278 1631 3431 
Q 1906 3584 2284 3584 
Q 2666 3584 2933 3390 
Q 3200 3197 3328 2828 
z
" id="DejaVuSans-6d" transform="scale(0.015625)"/>
        <path d="M 1625 4666 
L 2156 4666 
L 531 -594 
L 0 -594 
L 1625 4666 
z
" id="DejaVuSans-2f" transform="scale(0.015625)"/>
        <path d="M 628 4666 
L 1259 4666 
L 1259 531 
L 3531 531 
L 3531 0 
L 628 0 
L 628 4666 
z
" id="DejaVuSans-4c" transform="scale(0.015625)"/>
        <path d="M 513 4856 
L 1013 4856 
Q 1481 4119 1714 3412 
Q 1947 2706 1947 2009 
Q 1947 1309 1714 600 
Q 1481 -109 1013 -844 
L 513 -844 
Q 928 -128 1133 580 
Q 1338 1288 1338 2009 
Q 1338 2731 1133 3434 
Q 928 4138 513 4856 
z
" id="DejaVuSans-29" transform="scale(0.015625)"/>
       </defs>
       <use xlink:href="#DejaVuSans-45"/>
       <use x="63.183594" xlink:href="#DejaVuSans-73"/>
       <use x="115.283203" xlink:href="#DejaVuSans-74"/>
       <use x="154.492188" xlink:href="#DejaVuSans-72"/>
       <use x="195.605469" xlink:href="#DejaVuSans-61"/>
       <use x="256.884766" xlink:href="#DejaVuSans-64"/>
       <use x="320.361328" xlink:href="#DejaVuSans-69"/>
       <use x="348.144531" xlink:href="#DejaVuSans-6f"/>
       <use x="409.326172" xlink:href="#DejaVuSans-6c"/>
       <use x="437.109375" xlink:href="#DejaVuSans-20"/>
       <use x="468.896484" xlink:href="#DejaVuSans-63"/>
       <use x="523.876953" xlink:href="#DejaVuSans-6f"/>
       <use x="585.058594" xlink:href="#DejaVuSans-6e"/>
       <use x="648.4375" xlink:href="#DejaVuSans-63"/>
       <use x="703.417969" xlink:href="#DejaVuSans-65"/>
       <use x="764.941406" xlink:href="#DejaVuSans-6e"/>
       <use x="828.320312" xlink:href="#DejaVuSans-74"/>
       <use x="867.529297" xlink:href="#DejaVuSans-72"/>
       <use x="908.642578" xlink:href="#DejaVuSans-61"/>
       <use x="969.921875" xlink:href="#DejaVuSans-74"/>
       <use x="1009.130859" xlink:href="#DejaVuSans-69"/>
       <use x="1036.914062" xlink:href="#DejaVuSans-6f"/>
       <use x="1098.095703" xlink:href="#DejaVuSans-6e"/>
       <use x="1161.474609" xlink:href="#DejaVuSans-73"/>
       <use x="1213.574219" xlink:href="#DejaVuSans-20"/>
       <use x="1245.361328" xlink:href="#DejaVuSans-28"/>
       <use x="1284.375" xlink:href="#DejaVuSans-70"/>
       <use x="1347.851562" xlink:href="#DejaVuSans-6d"/>
       <use x="1445.263672" xlink:href="#DejaVuSans-6f"/>
       <use x="1506.445312" xlink:href="#DejaVuSans-6c"/>
       <use x="1534.228516" xlink:href="#DejaVuSans-2f"/>
       <use x="1567.919922" xlink:href="#DejaVuSans-4c"/>
       <use x="1623.632812" xlink:href="#DejaVuSans-29"/>
      </g>
     </g>
    </g>
    <g id="patch_4">
     <path d="M 618.528125 445.318125 
L 618.528125 29.518125 
" style="fill:none;stroke:#000000;stroke-linecap:square;stroke-linejoin:miter;stroke-width:0.8;"/>
    </g>
   </g>
   <g id="matplotlib.axis_3">
    <g id="xtick_1">
     <g id="line2d_8">
      <defs>
       <path d="M 0 0 
L 0 3.5 
" id="mc8a38947c4" style="stroke:#000000;stroke-width:0.8;"/>
      </defs>
      <g>
       <use style="stroke:#000000;stroke-width:0.8;" x="60.528125" xlink:href="#mc8a38947c4" y="445.318125"/>
      </g>
     </g>
     <g id="text_9">
      <!-- 0 -->
      <g transform="translate(57.346875 459.916563)scale(0.1 -0.1)">
       <use xlink:href="#DejaVuSans-30"/>
      </g>
     </g>
    </g>
    <g id="xtick_2">
     <g id="line2d_9">
      <g>
       <use style="stroke:#000000;stroke-width:0.8;" x="100.385268" xlink:href="#mc8a38947c4" y="445.318125"/>
      </g>
     </g>
     <g id="text_10">
      <!-- 0.5 -->
      <g transform="translate(92.433705 459.916563)scale(0.1 -0.1)">
       <defs>
        <path d="M 684 794 
L 1344 794 
L 1344 0 
L 684 0 
L 684 794 
z
" id="DejaVuSans-2e" transform="scale(0.015625)"/>
        <path d="M 691 4666 
L 3169 4666 
L 3169 4134 
L 1269 4134 
L 1269 2991 
Q 1406 3038 1543 3061 
Q 1681 3084 1819 3084 
Q 2600 3084 3056 2656 
Q 3513 2228 3513 1497 
Q 3513 744 3044 326 
Q 2575 -91 1722 -91 
Q 1428 -91 1123 -41 
Q 819 9 494 109 
L 494 744 
Q 775 591 1075 516 
Q 1375 441 1709 441 
Q 2250 441 2565 725 
Q 2881 1009 2881 1497 
Q 2881 1984 2565 2268 
Q 2250 2553 1709 2553 
Q 1456 2553 1204 2497 
Q 953 2441 691 2322 
L 691 4666 
z
" id="DejaVuSans-35" transform="scale(0.015625)"/>
       </defs>
       <use xlink:href="#DejaVuSans-30"/>
       <use x="63.623047" xlink:href="#DejaVuSans-2e"/>
       <use x="95.410156" xlink:href="#DejaVuSans-35"/>
      </g>
     </g>
    </g>
    <g id="xtick_3">
     <g id="line2d_10">
      <g>
       <use style="stroke:#000000;stroke-width:0.8;" x="140.242411" xlink:href="#mc8a38947c4" y="445.318125"/>
      </g>
     </g>
     <g id="text_11">
      <!-- 1 -->
      <g transform="translate(137.061161 459.916563)scale(0.1 -0.1)">
       <use xlink:href="#DejaVuSans-31"/>
      </g>
     </g>
    </g>
    <g id="xtick_4">
     <g id="line2d_11">
      <g>
       <use style="stroke:#000000;stroke-width:0.8;" x="180.099554" xlink:href="#mc8a38947c4" y="445.318125"/>
      </g>
     </g>
     <g id="text_12">
      <!-- 1.5 -->
      <g transform="translate(172.147991 459.916563)scale(0.1 -0.1)">
       <use xlink:href="#DejaVuSans-31"/>
       <use x="63.623047" xlink:href="#DejaVuSans-2e"/>
       <use x="95.410156" xlink:href="#DejaVuSans-35"/>
      </g>
     </g>
    </g>
    <g id="xtick_5">
     <g id="line2d_12">
      <g>
       <use style="stroke:#000000;stroke-width:0.8;" x="219.956696" xlink:href="#mc8a38947c4" y="445.318125"/>
      </g>
     </g>
     <g id="text_13">
      <!-- 2 -->
      <g transform="translate(216.775446 459.916563)scale(0.1 -0.1)">
       <use xlink:href="#DejaVuSans-32"/>
      </g>
     </g>
    </g>
    <g id="xtick_6">
     <g id="line2d_13">
      <g>
       <use style="stroke:#000000;stroke-width:0.8;" x="259.813839" xlink:href="#mc8a38947c4" y="445.318125"/>
      </g>
     </g>
     <g id="text_14">
      <!-- 2.5 -->
      <g transform="translate(251.862277 459.916563)scale(0.1 -0.1)">
       <use xlink:href="#DejaVuSans-32"/>
       <use x="63.623047" xlink:href="#DejaVuSans-2e"/>
       <use x="95.410156" xlink:href="#DejaVuSans-35"/>
      </g>
     </g>
    </g>
    <g id="xtick_7">
     <g id="line2d_14">
      <g>
       <use style="stroke:#000000;stroke-width:0.8;" x="299.670982" xlink:href="#mc8a38947c4" y="445.318125"/>
      </g>
     </g>
     <g id="text_15">
      <!-- 3 -->
      <g transform="translate(296.489732 459.916563)scale(0.1 -0.1)">
       <defs>
        <path d="M 2597 2516 
Q 3050 2419 3304 2112 
Q 3559 1806 3559 1356 
Q 3559 666 3084 287 
Q 2609 -91 1734 -91 
Q 1441 -91 1130 -33 
Q 819 25 488 141 
L 488 750 
Q 750 597 1062 519 
Q 1375 441 1716 441 
Q 2309 441 2620 675 
Q 2931 909 2931 1356 
Q 2931 1769 2642 2001 
Q 2353 2234 1838 2234 
L 1294 2234 
L 1294 2753 
L 1863 2753 
Q 2328 2753 2575 2939 
Q 2822 3125 2822 3475 
Q 2822 3834 2567 4026 
Q 2313 4219 1838 4219 
Q 1578 4219 1281 4162 
Q 984 4106 628 3988 
L 628 4550 
Q 988 4650 1302 4700 
Q 1616 4750 1894 4750 
Q 2613 4750 3031 4423 
Q 3450 4097 3450 3541 
Q 3450 3153 3228 2886 
Q 3006 2619 2597 2516 
z
" id="DejaVuSans-33" transform="scale(0.015625)"/>
       </defs>
       <use xlink:href="#DejaVuSans-33"/>
      </g>
     </g>
    </g>
    <g id="xtick_8">
     <g id="line2d_15">
      <g>
       <use style="stroke:#000000;stroke-width:0.8;" x="339.528125" xlink:href="#mc8a38947c4" y="445.318125"/>
      </g>
     </g>
     <g id="text_16">
      <!-- 3.5 -->
      <g transform="translate(331.576562 459.916563)scale(0.1 -0.1)">
       <use xlink:href="#DejaVuSans-33"/>
       <use x="63.623047" xlink:href="#DejaVuSans-2e"/>
       <use x="95.410156" xlink:href="#DejaVuSans-35"/>
      </g>
     </g>
    </g>
    <g id="xtick_9">
     <g id="line2d_16">
      <g>
       <use style="stroke:#000000;stroke-width:0.8;" x="379.385268" xlink:href="#mc8a38947c4" y="445.318125"/>
      </g>
     </g>
     <g id="text_17">
      <!-- 4 -->
      <g transform="translate(376.204018 459.916563)scale(0.1 -0.1)">
       <use xlink:href="#DejaVuSans-34"/>
      </g>
     </g>
    </g>
    <g id="xtick_10">
     <g id="line2d_17">
      <g>
       <use style="stroke:#000000;stroke-width:0.8;" x="419.242411" xlink:href="#mc8a38947c4" y="445.318125"/>
      </g>
     </g>
     <g id="text_18">
      <!-- 4.5 -->
      <g transform="translate(411.290848 459.916563)scale(0.1 -0.1)">
       <use xlink:href="#DejaVuSans-34"/>
       <use x="63.623047" xlink:href="#DejaVuSans-2e"/>
       <use x="95.410156" xlink:href="#DejaVuSans-35"/>
      </g>
     </g>
    </g>
    <g id="xtick_11">
     <g id="line2d_18">
      <g>
       <use style="stroke:#000000;stroke-width:0.8;" x="459.099554" xlink:href="#mc8a38947c4" y="445.318125"/>
      </g>
     </g>
     <g id="text_19">
      <!-- 5 -->
      <g transform="translate(455.918304 459.916563)scale(0.1 -0.1)">
       <use xlink:href="#DejaVuSans-35"/>
      </g>
     </g>
    </g>
    <g id="xtick_12">
     <g id="line2d_19">
      <g>
       <use style="stroke:#000000;stroke-width:0.8;" x="498.956696" xlink:href="#mc8a38947c4" y="445.318125"/>
      </g>
     </g>
     <g id="text_20">
      <!-- 5.5 -->
      <g transform="translate(491.005134 459.916563)scale(0.1 -0.1)">
       <use xlink:href="#DejaVuSans-35"/>
       <use x="63.623047" xlink:href="#DejaVuSans-2e"/>
       <use x="95.410156" xlink:href="#DejaVuSans-35"/>
      </g>
     </g>
    </g>
    <g id="xtick_13">
     <g id="line2d_20">
      <g>
       <use style="stroke:#000000;stroke-width:0.8;" x="538.813839" xlink:href="#mc8a38947c4" y="445.318125"/>
      </g>
     </g>
     <g id="text_21">
      <!-- 6 -->
      <g transform="translate(535.632589 459.916563)scale(0.1 -0.1)">
       <use xlink:href="#DejaVuSans-36"/>
      </g>
     </g>
    </g>
    <g id="xtick_14">
     <g id="line2d_21">
      <g>
       <use style="stroke:#000000;stroke-width:0.8;" x="578.670982" xlink:href="#mc8a38947c4" y="445.318125"/>
      </g>
     </g>
     <g id="text_22">
      <!-- 6.5 -->
      <g transform="translate(570.71942 459.916563)scale(0.1 -0.1)">
       <use xlink:href="#DejaVuSans-36"/>
       <use x="63.623047" xlink:href="#DejaVuSans-2e"/>
       <use x="95.410156" xlink:href="#DejaVuSans-35"/>
      </g>
     </g>
    </g>
    <g id="xtick_15">
     <g id="line2d_22">
      <g>
       <use style="stroke:#000000;stroke-width:0.8;" x="618.528125" xlink:href="#mc8a38947c4" y="445.318125"/>
      </g>
     </g>
     <g id="text_23">
      <!-- 7 -->
      <g transform="translate(615.346875 459.916563)scale(0.1 -0.1)">
       <defs>
        <path d="M 525 4666 
L 3525 4666 
L 3525 4397 
L 1831 0 
L 1172 0 
L 2766 4134 
L 525 4134 
L 525 4666 
z
" id="DejaVuSans-37" transform="scale(0.015625)"/>
       </defs>
       <use xlink:href="#DejaVuSans-37"/>
      </g>
     </g>
    </g>
    <g id="text_24">
     <!-- Time (days) -->
     <g transform="translate(310.001562 473.594688)scale(0.1 -0.1)">
      <defs>
       <path d="M -19 4666 
L 3928 4666 
L 3928 4134 
L 2272 4134 
L 2272 0 
L 1638 0 
L 1638 4134 
L -19 4134 
L -19 4666 
z
" id="DejaVuSans-54" transform="scale(0.015625)"/>
       <path d="M 2059 -325 
Q 1816 -950 1584 -1140 
Q 1353 -1331 966 -1331 
L 506 -1331 
L 506 -850 
L 844 -850 
Q 1081 -850 1212 -737 
Q 1344 -625 1503 -206 
L 1606 56 
L 191 3500 
L 800 3500 
L 1894 763 
L 2988 3500 
L 3597 3500 
L 2059 -325 
z
" id="DejaVuSans-79" transform="scale(0.015625)"/>
      </defs>
      <use xlink:href="#DejaVuSans-54"/>
      <use x="57.958984" xlink:href="#DejaVuSans-69"/>
      <use x="85.742188" xlink:href="#DejaVuSans-6d"/>
      <use x="183.154297" xlink:href="#DejaVuSans-65"/>
      <use x="244.677734" xlink:href="#DejaVuSans-20"/>
      <use x="276.464844" xlink:href="#DejaVuSans-28"/>
      <use x="315.478516" xlink:href="#DejaVuSans-64"/>
      <use x="378.955078" xlink:href="#DejaVuSans-61"/>
      <use x="440.234375" xlink:href="#DejaVuSans-79"/>
      <use x="499.414062" xlink:href="#DejaVuSans-73"/>
      <use x="551.513672" xlink:href="#DejaVuSans-29"/>
     </g>
    </g>
   </g>
   <g id="matplotlib.axis_4">
    <g id="ytick_8">
     <g id="line2d_23">
      <defs>
       <path d="M 0 0 
L -3.5 0 
" id="m73e19964e4" style="stroke:#000000;stroke-width:0.8;"/>
      </defs>
      <g>
       <use style="stroke:#000000;stroke-width:0.8;" x="60.528125" xlink:href="#m73e19964e4" y="445.318125"/>
      </g>
     </g>
     <g id="text_25">
      <!-- 0 -->
      <g transform="translate(47.165625 449.117344)scale(0.1 -0.1)">
       <use xlink:href="#DejaVuSans-30"/>
      </g>
     </g>
    </g>
    <g id="ytick_9">
     <g id="line2d_24">
      <g>
       <use style="stroke:#000000;stroke-width:0.8;" x="60.528125" xlink:href="#m73e19964e4" y="386.983667"/>
      </g>
     </g>
     <g id="text_26">
      <!-- 500 -->
      <g transform="translate(34.440625 390.782886)scale(0.1 -0.1)">
       <use xlink:href="#DejaVuSans-35"/>
       <use x="63.623047" xlink:href="#DejaVuSans-30"/>
       <use x="127.246094" xlink:href="#DejaVuSans-30"/>
      </g>
     </g>
    </g>
    <g id="ytick_10">
     <g id="line2d_25">
      <g>
       <use style="stroke:#000000;stroke-width:0.8;" x="60.528125" xlink:href="#m73e19964e4" y="328.64921"/>
      </g>
     </g>
     <g id="text_27">
      <!-- 1000 -->
      <g transform="translate(28.078125 332.448429)scale(0.1 -0.1)">
       <use xlink:href="#DejaVuSans-31"/>
       <use x="63.623047" xlink:href="#DejaVuSans-30"/>
       <use x="127.246094" xlink:href="#DejaVuSans-30"/>
       <use x="190.869141" xlink:href="#DejaVuSans-30"/>
      </g>
     </g>
    </g>
    <g id="ytick_11">
     <g id="line2d_26">
      <g>
       <use style="stroke:#000000;stroke-width:0.8;" x="60.528125" xlink:href="#m73e19964e4" y="270.314752"/>
      </g>
     </g>
     <g id="text_28">
      <!-- 1500 -->
      <g transform="translate(28.078125 274.113971)scale(0.1 -0.1)">
       <use xlink:href="#DejaVuSans-31"/>
       <use x="63.623047" xlink:href="#DejaVuSans-35"/>
       <use x="127.246094" xlink:href="#DejaVuSans-30"/>
       <use x="190.869141" xlink:href="#DejaVuSans-30"/>
      </g>
     </g>
    </g>
    <g id="ytick_12">
     <g id="line2d_27">
      <g>
       <use style="stroke:#000000;stroke-width:0.8;" x="60.528125" xlink:href="#m73e19964e4" y="211.980295"/>
      </g>
     </g>
     <g id="text_29">
      <!-- 2000 -->
      <g transform="translate(28.078125 215.779514)scale(0.1 -0.1)">
       <use xlink:href="#DejaVuSans-32"/>
       <use x="63.623047" xlink:href="#DejaVuSans-30"/>
       <use x="127.246094" xlink:href="#DejaVuSans-30"/>
       <use x="190.869141" xlink:href="#DejaVuSans-30"/>
      </g>
     </g>
    </g>
    <g id="ytick_13">
     <g id="line2d_28">
      <g>
       <use style="stroke:#000000;stroke-width:0.8;" x="60.528125" xlink:href="#m73e19964e4" y="153.645837"/>
      </g>
     </g>
     <g id="text_30">
      <!-- 2500 -->
      <g transform="translate(28.078125 157.445056)scale(0.1 -0.1)">
       <use xlink:href="#DejaVuSans-32"/>
       <use x="63.623047" xlink:href="#DejaVuSans-35"/>
       <use x="127.246094" xlink:href="#DejaVuSans-30"/>
       <use x="190.869141" xlink:href="#DejaVuSans-30"/>
      </g>
     </g>
    </g>
    <g id="ytick_14">
     <g id="line2d_29">
      <g>
       <use style="stroke:#000000;stroke-width:0.8;" x="60.528125" xlink:href="#m73e19964e4" y="95.31138"/>
      </g>
     </g>
     <g id="text_31">
      <!-- 3000 -->
      <g transform="translate(28.078125 99.110599)scale(0.1 -0.1)">
       <use xlink:href="#DejaVuSans-33"/>
       <use x="63.623047" xlink:href="#DejaVuSans-30"/>
       <use x="127.246094" xlink:href="#DejaVuSans-30"/>
       <use x="190.869141" xlink:href="#DejaVuSans-30"/>
      </g>
     </g>
    </g>
    <g id="ytick_15">
     <g id="line2d_30">
      <g>
       <use style="stroke:#000000;stroke-width:0.8;" x="60.528125" xlink:href="#m73e19964e4" y="36.976922"/>
      </g>
     </g>
     <g id="text_32">
      <!-- 3500 -->
      <g transform="translate(28.078125 40.776141)scale(0.1 -0.1)">
       <use xlink:href="#DejaVuSans-33"/>
       <use x="63.623047" xlink:href="#DejaVuSans-35"/>
       <use x="127.246094" xlink:href="#DejaVuSans-30"/>
       <use x="190.869141" xlink:href="#DejaVuSans-30"/>
      </g>
     </g>
    </g>
    <g id="text_33">
     <!-- Estradiol concentrations (pg/mL) -->
     <g transform="translate(21.998438 319.275938)rotate(-90)scale(0.1 -0.1)">
      <defs>
       <path d="M 2906 1791 
Q 2906 2416 2648 2759 
Q 2391 3103 1925 3103 
Q 1463 3103 1205 2759 
Q 947 2416 947 1791 
Q 947 1169 1205 825 
Q 1463 481 1925 481 
Q 2391 481 2648 825 
Q 2906 1169 2906 1791 
z
M 3481 434 
Q 3481 -459 3084 -895 
Q 2688 -1331 1869 -1331 
Q 1566 -1331 1297 -1286 
Q 1028 -1241 775 -1147 
L 775 -588 
Q 1028 -725 1275 -790 
Q 1522 -856 1778 -856 
Q 2344 -856 2625 -561 
Q 2906 -266 2906 331 
L 2906 616 
Q 2728 306 2450 153 
Q 2172 0 1784 0 
Q 1141 0 747 490 
Q 353 981 353 1791 
Q 353 2603 747 3093 
Q 1141 3584 1784 3584 
Q 2172 3584 2450 3431 
Q 2728 3278 2906 2969 
L 2906 3500 
L 3481 3500 
L 3481 434 
z
" id="DejaVuSans-67" transform="scale(0.015625)"/>
      </defs>
      <use xlink:href="#DejaVuSans-45"/>
      <use x="63.183594" xlink:href="#DejaVuSans-73"/>
      <use x="115.283203" xlink:href="#DejaVuSans-74"/>
      <use x="154.492188" xlink:href="#DejaVuSans-72"/>
      <use x="195.605469" xlink:href="#DejaVuSans-61"/>
      <use x="256.884766" xlink:href="#DejaVuSans-64"/>
      <use x="320.361328" xlink:href="#DejaVuSans-69"/>
      <use x="348.144531" xlink:href="#DejaVuSans-6f"/>
      <use x="409.326172" xlink:href="#DejaVuSans-6c"/>
      <use x="437.109375" xlink:href="#DejaVuSans-20"/>
      <use x="468.896484" xlink:href="#DejaVuSans-63"/>
      <use x="523.876953" xlink:href="#DejaVuSans-6f"/>
      <use x="585.058594" xlink:href="#DejaVuSans-6e"/>
      <use x="648.4375" xlink:href="#DejaVuSans-63"/>
      <use x="703.417969" xlink:href="#DejaVuSans-65"/>
      <use x="764.941406" xlink:href="#DejaVuSans-6e"/>
      <use x="828.320312" xlink:href="#DejaVuSans-74"/>
      <use x="867.529297" xlink:href="#DejaVuSans-72"/>
      <use x="908.642578" xlink:href="#DejaVuSans-61"/>
      <use x="969.921875" xlink:href="#DejaVuSans-74"/>
      <use x="1009.130859" xlink:href="#DejaVuSans-69"/>
      <use x="1036.914062" xlink:href="#DejaVuSans-6f"/>
      <use x="1098.095703" xlink:href="#DejaVuSans-6e"/>
      <use x="1161.474609" xlink:href="#DejaVuSans-73"/>
      <use x="1213.574219" xlink:href="#DejaVuSans-20"/>
      <use x="1245.361328" xlink:href="#DejaVuSans-28"/>
      <use x="1284.375" xlink:href="#DejaVuSans-70"/>
      <use x="1347.851562" xlink:href="#DejaVuSans-67"/>
      <use x="1411.328125" xlink:href="#DejaVuSans-2f"/>
      <use x="1445.019531" xlink:href="#DejaVuSans-6d"/>
      <use x="1542.431641" xlink:href="#DejaVuSans-4c"/>
      <use x="1598.144531" xlink:href="#DejaVuSans-29"/>
     </g>
    </g>
   </g>
   <g id="line2d_31">
    <path clip-path="url(#p6c19780508)" d="M 60.528125 445.318125 
L 100.385268 404.251512 
L 140.242411 401.461603 
L 180.099554 411.353098 
L 219.956696 411.775812 
L 299.670982 418.243328 
L 379.385268 423.484975 
L 459.099554 424.626301 
L 538.813839 429.191606 
L 618.528125 428.747757 
L 686.41875 434.237975 
" style="fill:none;stroke:#1f77b4;stroke-linecap:square;stroke-width:1.5;"/>
   </g>
   <g id="line2d_32">
    <path clip-path="url(#p6c19780508)" d="M 60.528125 445.318125 
L 67.170716 381.895804 
L 73.816496 263.924435 
L 80.456696 267.350059 
L 87.072982 336.369838 
L 93.742676 419.425219 
L 100.385268 445.318125 
" style="fill:none;stroke:#ff7f0e;stroke-linecap:square;stroke-width:1.5;"/>
   </g>
   <g id="line2d_33">
    <path clip-path="url(#p6c19780508)" d="M 60.528125 445.318125 
L 87.072982 49.318125 
L 140.242411 194.982067 
L 166.787268 272.462996 
L 219.956696 351.006398 
L 246.501554 375.921131 
L 299.670982 405.290323 
" style="fill:none;stroke:#2ca02c;stroke-linecap:square;stroke-width:1.5;"/>
   </g>
   <g id="line2d_34">
    <path clip-path="url(#p6c19780508)" d="M 60.528125 445.318125 
L 87.072982 181.533871 
L 140.242411 197.106677 
L 180.099554 295.946319 
L 219.956696 426.249384 
" style="fill:none;stroke:#d62728;stroke-linecap:square;stroke-width:1.5;"/>
   </g>
   <g id="line2d_35">
    <path clip-path="url(#p6c19780508)" d="M 60.528125 445.318125 
L 87.072982 78.08595 
L 140.242411 188.207931 
L 180.099554 281.009138 
L 219.956696 389.065338 
" style="fill:none;stroke:#9467bd;stroke-linecap:square;stroke-width:1.5;"/>
   </g>
   <g id="line2d_36">
    <path clip-path="url(#p6c19780508)" d="M 60.528125 445.318125 
L 87.072982 314.442998 
L 140.242411 266.453332 
L 180.099554 385.696527 
L 219.956696 404.256769 
" style="fill:none;stroke:#8c564b;stroke-linecap:square;stroke-width:1.5;"/>
   </g>
   <g id="line2d_37">
    <path clip-path="url(#p6c19780508)" d="M 60.528125 445.318125 
L 70.492411 308.798969 
L 82.130696 291.386517 
L 90.420982 265.732627 
L 100.385268 261.102031 
L 140.242411 262.896556 
L 143.430982 265.096878 
L 150.206696 284.56086 
L 160.170982 277.304607 
L 170.135268 290.704928 
L 180.099554 298.860698 
L 190.063839 279.191564 
L 209.992411 316.159678 
L 219.956696 334.075619 
L 229.920982 340.350444 
L 239.885268 369.914264 
L 249.849554 387.452213 
" style="fill:none;stroke:#e377c2;stroke-linecap:square;stroke-width:1.5;"/>
   </g>
   <g id="line2d_38">
    <path clip-path="url(#p6c19780508)" d="M 60.528125 445.318125 
L 140.242411 394.068485 
L 219.956696 426.075929 
L 299.670982 434.124952 
" style="fill:none;stroke:#7f7f7f;stroke-linecap:square;stroke-width:1.5;"/>
   </g>
   <g id="line2d_39">
    <path clip-path="url(#p6c19780508)" d="M 60.528125 445.318125 
L 87.072982 299.855641 
L 140.242411 379.638046 
L 166.787268 401.069654 
L 183.288125 405.985187 
L 219.956696 413.734398 
L 246.501554 442.126823 
L 299.670982 445.318125 
" style="fill:none;stroke:#bcbd22;stroke-linecap:square;stroke-width:1.5;"/>
   </g>
   <g id="line2d_40">
    <path clip-path="url(#p6c19780508)" d="M 60.528125 445.318125 
L 140.242411 276.429679 
L 219.956696 365.338769 
L 299.670982 411.540436 
L 379.385268 437.941388 
" style="fill:none;stroke:#17becf;stroke-linecap:square;stroke-width:1.5;"/>
   </g>
   <g id="line2d_41">
    <path clip-path="url(#p6c19780508)" d="M 60.528125 445.318125 
L 140.242411 259.617774 
L 219.956696 344.103434 
L 299.670982 397.683766 
L 379.385268 426.473 
" style="fill:none;stroke:#1f77b4;stroke-dasharray:9,1.5;stroke-dashoffset:0;stroke-width:1.5;"/>
   </g>
   <g id="line2d_42">
    <path clip-path="url(#p6c19780508)" d="M 60.528125 445.318125 
L 140.242411 412.784744 
L 219.956696 365.206877 
L 299.670982 406.812175 
L 379.385268 432.485846 
L 459.099554 441.935362 
L 538.813839 445.318125 
L 618.528125 445.318125 
L 686.41875 445.318125 
" style="fill:none;stroke:#ff7f0e;stroke-dasharray:9,1.5;stroke-dashoffset:0;stroke-width:1.5;"/>
   </g>
   <g id="line2d_43">
    <path clip-path="url(#p6c19780508)" d="M 60.528125 445.318125 
L 140.242411 377.403842 
L 219.956696 416.735903 
L 299.670982 427.371247 
L 379.385268 429.290775 
" style="fill:none;stroke:#2ca02c;stroke-dasharray:9,1.5;stroke-dashoffset:0;stroke-width:1.5;"/>
   </g>
   <g id="line2d_44">
    <path clip-path="url(#p6c19780508)" d="M 60.528125 445.318125 
L 100.385268 312.222949 
L 140.242411 393.741818 
L 219.956696 445.318125 
L 299.670982 445.318125 
" style="fill:none;stroke:#d62728;stroke-dasharray:9,1.5;stroke-dashoffset:0;stroke-width:1.5;"/>
   </g>
   <g id="line2d_45">
    <path clip-path="url(#p6c19780508)" d="M 60.528125 445.318125 
L 140.242411 368.703278 
L 219.956696 309.139966 
L 299.670982 403.755341 
L 379.385268 416.253995 
L 459.099554 443.206289 
L 538.813839 445.318125 
L 618.528125 445.318125 
L 686.41875 445.318125 
" style="fill:none;stroke:#9467bd;stroke-dasharray:9,1.5;stroke-dashoffset:0;stroke-width:1.5;"/>
   </g>
   <g id="line2d_46">
    <path clip-path="url(#p6c19780508)" d="M 60.528125 445.318125 
L 100.385268 310.294912 
L 140.242411 269.682216 
L 180.099554 288.879765 
L 219.956696 369.625012 
L 259.813839 357.559121 
L 299.670982 403.316496 
L 339.528125 410.684496 
L 379.385268 418.053007 
L 419.242411 427.633113 
L 459.099554 431.071213 
L 498.956696 427.018452 
" style="fill:none;stroke:#8c564b;stroke-dasharray:9,1.5;stroke-dashoffset:0;stroke-width:1.5;"/>
   </g>
   <g id="line2d_47">
    <path clip-path="url(#p6c19780508)" d="M 60.528125 445.318125 
L 140.242411 377.287214 
L 299.670982 384.445113 
L 459.099554 438.653877 
" style="fill:none;stroke:#e377c2;stroke-dasharray:9,1.5;stroke-dashoffset:0;stroke-width:1.5;"/>
   </g>
   <g id="line2d_48">
    <path clip-path="url(#p6c19780508)" d="M 60.528125 445.318125 
L 140.242411 318.398049 
L 219.956696 376.320992 
L 299.670982 400.031659 
" style="fill:none;stroke:#7f7f7f;stroke-dasharray:9,1.5;stroke-dashoffset:0;stroke-width:1.5;"/>
   </g>
   <g id="line2d_49">
    <path clip-path="url(#p6c19780508)" d="M 60.528125 445.318125 
L 140.242411 333.805462 
L 219.956696 401.897265 
L 299.670982 422.9245 
L 379.385268 437.727066 
L 459.099554 442.053969 
" style="fill:none;stroke:#bcbd22;stroke-dasharray:9,1.5;stroke-dashoffset:0;stroke-width:1.5;"/>
   </g>
   <g id="line2d_50">
    <path clip-path="url(#p6c19780508)" d="M 60.528125 445.318125 
L 140.242411 114.040461 
L 219.956696 243.508228 
L 299.670982 390.219872 
L 379.385268 423.757985 
" style="fill:none;stroke:#17becf;stroke-dasharray:9,1.5;stroke-dashoffset:0;stroke-width:1.5;"/>
   </g>
   <g id="line2d_51">
    <path clip-path="url(#p6c19780508)" d="M 60.528125 445.318125 
L 87.072982 367.119622 
L 113.697554 352.649111 
L 140.242411 362.900463 
L 166.787268 375.943928 
L 193.411839 393.161448 
L 219.956696 400.976297 
L 246.501554 420.285755 
L 273.126125 431.930095 
L 299.670982 440.093191 
" style="fill:none;stroke:#1f77b4;stroke-dasharray:1.5,1.5;stroke-dashoffset:0;stroke-width:1.5;"/>
   </g>
   <g id="line2d_52">
    <path clip-path="url(#p6c19780508)" d="M 60.528125 445.318125 
L 80.456696 291.468608 
L 100.385268 222.060096 
L 120.313839 204.715676 
L 140.242411 248.612694 
L 160.170982 254.996706 
L 180.099554 291.150484 
L 200.028125 350.204479 
L 219.956696 362.976046 
L 239.885268 390.700336 
L 259.813839 399.231605 
L 279.742411 416.368453 
L 299.670982 423.655417 
L 319.599554 431.22611 
L 339.528125 427.230018 
L 359.456696 438.619143 
L 379.385268 433.590729 
L 399.313839 439.937199 
L 419.242411 442.834259 
" style="fill:none;stroke:#ff7f0e;stroke-dasharray:1.5,1.5;stroke-dashoffset:0;stroke-width:1.5;"/>
   </g>
   <g id="line2d_53">
    <path clip-path="url(#p6c19780508)" d="M 60.528125 445.318125 
L 140.242411 315.461697 
L 219.956696 354.48295 
L 299.670982 413.470011 
L 379.385268 426.030037 
L 459.099554 445.318125 
" style="fill:none;stroke:#2ca02c;stroke-dasharray:1.5,1.5;stroke-dashoffset:0;stroke-width:1.5;"/>
   </g>
   <g id="line2d_54">
    <path clip-path="url(#p6c19780508)" d="M 60.528125 445.318125 
L 140.242411 378.688685 
L 219.956696 387.176376 
L 299.670982 410.293729 
L 379.385268 419.481957 
" style="fill:none;stroke:#d62728;stroke-dasharray:1.5,1.5;stroke-dashoffset:0;stroke-width:1.5;"/>
   </g>
   <g id="line2d_55">
    <path clip-path="url(#p6c19780508)" d="M 60.528125 445.318125 
L 140.242411 341.9828 
L 219.956696 368.083303 
" style="fill:none;stroke:#9467bd;stroke-dasharray:1.5,1.5;stroke-dashoffset:0;stroke-width:1.5;"/>
   </g>
   <g id="line2d_56">
    <path clip-path="url(#p6c19780508)" d="M 60.528125 445.318125 
L 61.883268 407.075484 
L 80.456696 297.196536 
L 140.242411 324.607852 
L 166.787268 325.682805 
L 219.956696 400.34534 
L 246.501554 401.174924 
L 299.670982 427.791708 
L 379.385268 438.961878 
L 459.099554 442.058212 
L 538.813839 442.65411 
" style="fill:none;stroke:#8c564b;stroke-dasharray:1.5,1.5;stroke-dashoffset:0;stroke-width:1.5;"/>
   </g>
   <g id="line2d_57">
    <path clip-path="url(#p6c19780508)" d="M 60.528125 445.318125 
L 63.07901 429.247789 
L 65.23132 417.149245 
L 67.38363 406.271236 
L 69.535939 396.508668 
L 71.688249 387.76526 
L 73.840559 379.952811 
L 75.913153 373.234108 
L 77.985748 367.237528 
L 80.058342 361.902244 
L 82.130936 357.172363 
L 84.203531 352.996526 
L 86.276125 349.327545 
L 88.269005 346.237276 
L 90.261884 343.540057 
L 92.254763 341.203206 
L 94.247643 339.196604 
L 96.240522 337.492496 
L 98.313116 336.01364 
L 100.385711 334.807854 
L 102.53802 333.81869 
L 104.69033 333.07287 
L 106.922355 332.532074 
L 109.234095 332.197207 
L 111.705265 332.066459 
L 114.335866 332.156779 
L 117.125897 332.480453 
L 120.155073 333.063227 
L 123.423395 333.924087 
L 127.010578 335.102902 
L 130.996337 336.649457 
L 135.540101 338.655022 
L 140.881018 341.263067 
L 147.497377 344.755337 
L 156.664622 349.869293 
L 185.521514 366.12773 
L 195.725056 371.532821 
L 205.290876 376.349551 
L 214.617551 380.796311 
L 223.864511 384.957477 
L 233.111471 388.874525 
L 242.438146 392.584746 
L 251.924252 396.120176 
L 261.649503 399.507246 
L 271.613899 402.741854 
L 281.897156 405.844902 
L 292.499274 408.810519 
L 303.499968 411.65438 
L 314.899237 414.369202 
L 326.697082 416.949568 
L 339.052934 419.422288 
L 351.966792 421.77706 
L 365.438656 424.005956 
L 379.627956 426.125926 
L 394.534693 428.126443 
L 410.318297 430.017893 
L 427.058483 431.797134 
L 444.834967 433.460586 
L 463.807177 435.010821 
L 484.214261 436.452829 
L 506.295364 437.786787 
L 530.28963 439.00979 
L 556.515922 440.120577 
L 585.532244 441.123109 
L 617.976319 442.016902 
L 618.534325 442.030478 
L 618.534325 442.030478 
" style="fill:none;stroke:#000000;stroke-linecap:square;stroke-width:3;"/>
   </g>
   <g id="patch_5">
    <path d="M 60.528125 445.318125 
L 60.528125 29.518125 
" style="fill:none;stroke:#000000;stroke-linecap:square;stroke-linejoin:miter;stroke-width:0.8;"/>
   </g>
   <g id="patch_6">
    <path d="M 618.528125 445.318125 
L 618.528125 29.518125 
" style="fill:none;stroke:#000000;stroke-linecap:square;stroke-linejoin:miter;stroke-width:0.8;"/>
   </g>
   <g id="patch_7">
    <path d="M 60.528125 445.318125 
L 618.528125 445.318125 
" style="fill:none;stroke:#000000;stroke-linecap:square;stroke-linejoin:miter;stroke-width:0.8;"/>
   </g>
   <g id="patch_8">
    <path d="M 60.528125 29.518125 
L 618.528125 29.518125 
" style="fill:none;stroke:#000000;stroke-linecap:square;stroke-linejoin:miter;stroke-width:0.8;"/>
   </g>
   <g id="text_34">
    <!-- Estradiol benzoate oil studies (scaled to 5 mg) -->
    <g transform="translate(200.084375 23.518125)scale(0.12 -0.12)">
     <defs>
      <path d="M 3116 1747 
Q 3116 2381 2855 2742 
Q 2594 3103 2138 3103 
Q 1681 3103 1420 2742 
Q 1159 2381 1159 1747 
Q 1159 1113 1420 752 
Q 1681 391 2138 391 
Q 2594 391 2855 752 
Q 3116 1113 3116 1747 
z
M 1159 2969 
Q 1341 3281 1617 3432 
Q 1894 3584 2278 3584 
Q 2916 3584 3314 3078 
Q 3713 2572 3713 1747 
Q 3713 922 3314 415 
Q 2916 -91 2278 -91 
Q 1894 -91 1617 61 
Q 1341 213 1159 525 
L 1159 0 
L 581 0 
L 581 4863 
L 1159 4863 
L 1159 2969 
z
" id="DejaVuSans-62" transform="scale(0.015625)"/>
      <path d="M 353 3500 
L 3084 3500 
L 3084 2975 
L 922 459 
L 3084 459 
L 3084 0 
L 275 0 
L 275 525 
L 2438 3041 
L 353 3041 
L 353 3500 
z
" id="DejaVuSans-7a" transform="scale(0.015625)"/>
      <path d="M 544 1381 
L 544 3500 
L 1119 3500 
L 1119 1403 
Q 1119 906 1312 657 
Q 1506 409 1894 409 
Q 2359 409 2629 706 
Q 2900 1003 2900 1516 
L 2900 3500 
L 3475 3500 
L 3475 0 
L 2900 0 
L 2900 538 
Q 2691 219 2414 64 
Q 2138 -91 1772 -91 
Q 1169 -91 856 284 
Q 544 659 544 1381 
z
M 1991 3584 
L 1991 3584 
z
" id="DejaVuSans-75" transform="scale(0.015625)"/>
     </defs>
     <use xlink:href="#DejaVuSans-45"/>
     <use x="63.183594" xlink:href="#DejaVuSans-73"/>
     <use x="115.283203" xlink:href="#DejaVuSans-74"/>
     <use x="154.492188" xlink:href="#DejaVuSans-72"/>
     <use x="195.605469" xlink:href="#DejaVuSans-61"/>
     <use x="256.884766" xlink:href="#DejaVuSans-64"/>
     <use x="320.361328" xlink:href="#DejaVuSans-69"/>
     <use x="348.144531" xlink:href="#DejaVuSans-6f"/>
     <use x="409.326172" xlink:href="#DejaVuSans-6c"/>
     <use x="437.109375" xlink:href="#DejaVuSans-20"/>
     <use x="468.896484" xlink:href="#DejaVuSans-62"/>
     <use x="532.373047" xlink:href="#DejaVuSans-65"/>
     <use x="593.896484" xlink:href="#DejaVuSans-6e"/>
     <use x="657.275391" xlink:href="#DejaVuSans-7a"/>
     <use x="709.765625" xlink:href="#DejaVuSans-6f"/>
     <use x="770.947266" xlink:href="#DejaVuSans-61"/>
     <use x="832.226562" xlink:href="#DejaVuSans-74"/>
     <use x="871.435547" xlink:href="#DejaVuSans-65"/>
     <use x="932.958984" xlink:href="#DejaVuSans-20"/>
     <use x="964.746094" xlink:href="#DejaVuSans-6f"/>
     <use x="1025.927734" xlink:href="#DejaVuSans-69"/>
     <use x="1053.710938" xlink:href="#DejaVuSans-6c"/>
     <use x="1081.494141" xlink:href="#DejaVuSans-20"/>
     <use x="1113.28125" xlink:href="#DejaVuSans-73"/>
     <use x="1165.380859" xlink:href="#DejaVuSans-74"/>
     <use x="1204.589844" xlink:href="#DejaVuSans-75"/>
     <use x="1267.96875" xlink:href="#DejaVuSans-64"/>
     <use x="1331.445312" xlink:href="#DejaVuSans-69"/>
     <use x="1359.228516" xlink:href="#DejaVuSans-65"/>
     <use x="1420.751953" xlink:href="#DejaVuSans-73"/>
     <use x="1472.851562" xlink:href="#DejaVuSans-20"/>
     <use x="1504.638672" xlink:href="#DejaVuSans-28"/>
     <use x="1543.652344" xlink:href="#DejaVuSans-73"/>
     <use x="1595.751953" xlink:href="#DejaVuSans-63"/>
     <use x="1650.732422" xlink:href="#DejaVuSans-61"/>
     <use x="1712.011719" xlink:href="#DejaVuSans-6c"/>
     <use x="1739.794922" xlink:href="#DejaVuSans-65"/>
     <use x="1801.318359" xlink:href="#DejaVuSans-64"/>
     <use x="1864.794922" xlink:href="#DejaVuSans-20"/>
     <use x="1896.582031" xlink:href="#DejaVuSans-74"/>
     <use x="1935.791016" xlink:href="#DejaVuSans-6f"/>
     <use x="1996.972656" xlink:href="#DejaVuSans-20"/>
     <use x="2028.759766" xlink:href="#DejaVuSans-35"/>
     <use x="2092.382812" xlink:href="#DejaVuSans-20"/>
     <use x="2124.169922" xlink:href="#DejaVuSans-6d"/>
     <use x="2221.582031" xlink:href="#DejaVuSans-67"/>
     <use x="2285.058594" xlink:href="#DejaVuSans-29"/>
    </g>
   </g>
   <g id="legend_1">
    <g id="patch_9">
     <path d="M 481.525 433.8275 
L 611.528125 433.8275 
Q 613.528125 433.8275 613.528125 431.8275 
L 613.528125 36.518125 
Q 613.528125 34.518125 611.528125 34.518125 
L 481.525 34.518125 
Q 479.525 34.518125 479.525 36.518125 
L 479.525 431.8275 
Q 479.525 433.8275 481.525 433.8275 
z
" style="fill:#ffffff;opacity:0.8;stroke:#cccccc;stroke-linejoin:miter;"/>
    </g>
    <g id="line2d_58">
     <path d="M 483.525 42.616563 
L 503.525 42.616563 
" style="fill:none;stroke:#1f77b4;stroke-linecap:square;stroke-width:1.5;"/>
    </g>
    <g id="line2d_59"/>
    <g id="text_35">
     <!-- G75 (n=3) -->
     <g transform="translate(511.525 46.116563)scale(0.1 -0.1)">
      <defs>
       <path d="M 3809 666 
L 3809 1919 
L 2778 1919 
L 2778 2438 
L 4434 2438 
L 4434 434 
Q 4069 175 3628 42 
Q 3188 -91 2688 -91 
Q 1594 -91 976 548 
Q 359 1188 359 2328 
Q 359 3472 976 4111 
Q 1594 4750 2688 4750 
Q 3144 4750 3555 4637 
Q 3966 4525 4313 4306 
L 4313 3634 
Q 3963 3931 3569 4081 
Q 3175 4231 2741 4231 
Q 1884 4231 1454 3753 
Q 1025 3275 1025 2328 
Q 1025 1384 1454 906 
Q 1884 428 2741 428 
Q 3075 428 3337 486 
Q 3600 544 3809 666 
z
" id="DejaVuSans-47" transform="scale(0.015625)"/>
       <path d="M 678 2906 
L 4684 2906 
L 4684 2381 
L 678 2381 
L 678 2906 
z
M 678 1631 
L 4684 1631 
L 4684 1100 
L 678 1100 
L 678 1631 
z
" id="DejaVuSans-3d" transform="scale(0.015625)"/>
      </defs>
      <use xlink:href="#DejaVuSans-47"/>
      <use x="77.490234" xlink:href="#DejaVuSans-37"/>
      <use x="141.113281" xlink:href="#DejaVuSans-35"/>
      <use x="204.736328" xlink:href="#DejaVuSans-20"/>
      <use x="236.523438" xlink:href="#DejaVuSans-28"/>
      <use x="275.537109" xlink:href="#DejaVuSans-6e"/>
      <use x="338.916016" xlink:href="#DejaVuSans-3d"/>
      <use x="422.705078" xlink:href="#DejaVuSans-33"/>
      <use x="486.328125" xlink:href="#DejaVuSans-29"/>
     </g>
    </g>
    <g id="line2d_60">
     <path d="M 483.525 57.294688 
L 503.525 57.294688 
" style="fill:none;stroke:#ff7f0e;stroke-linecap:square;stroke-width:1.5;"/>
    </g>
    <g id="line2d_61"/>
    <g id="text_36">
     <!-- K75 (n=10) [excl.] -->
     <g transform="translate(511.525 60.794688)scale(0.1 -0.1)">
      <defs>
       <path d="M 628 4666 
L 1259 4666 
L 1259 2694 
L 3353 4666 
L 4166 4666 
L 1850 2491 
L 4331 0 
L 3500 0 
L 1259 2247 
L 1259 0 
L 628 0 
L 628 4666 
z
" id="DejaVuSans-4b" transform="scale(0.015625)"/>
       <path d="M 550 4863 
L 1875 4863 
L 1875 4416 
L 1125 4416 
L 1125 -397 
L 1875 -397 
L 1875 -844 
L 550 -844 
L 550 4863 
z
" id="DejaVuSans-5b" transform="scale(0.015625)"/>
       <path d="M 3513 3500 
L 2247 1797 
L 3578 0 
L 2900 0 
L 1881 1375 
L 863 0 
L 184 0 
L 1544 1831 
L 300 3500 
L 978 3500 
L 1906 2253 
L 2834 3500 
L 3513 3500 
z
" id="DejaVuSans-78" transform="scale(0.015625)"/>
       <path d="M 1947 4863 
L 1947 -844 
L 622 -844 
L 622 -397 
L 1369 -397 
L 1369 4416 
L 622 4416 
L 622 4863 
L 1947 4863 
z
" id="DejaVuSans-5d" transform="scale(0.015625)"/>
      </defs>
      <use xlink:href="#DejaVuSans-4b"/>
      <use x="65.576172" xlink:href="#DejaVuSans-37"/>
      <use x="129.199219" xlink:href="#DejaVuSans-35"/>
      <use x="192.822266" xlink:href="#DejaVuSans-20"/>
      <use x="224.609375" xlink:href="#DejaVuSans-28"/>
      <use x="263.623047" xlink:href="#DejaVuSans-6e"/>
      <use x="327.001953" xlink:href="#DejaVuSans-3d"/>
      <use x="410.791016" xlink:href="#DejaVuSans-31"/>
      <use x="474.414062" xlink:href="#DejaVuSans-30"/>
      <use x="538.037109" xlink:href="#DejaVuSans-29"/>
      <use x="577.050781" xlink:href="#DejaVuSans-20"/>
      <use x="608.837891" xlink:href="#DejaVuSans-5b"/>
      <use x="647.851562" xlink:href="#DejaVuSans-65"/>
      <use x="707.625" xlink:href="#DejaVuSans-78"/>
      <use x="765.054688" xlink:href="#DejaVuSans-63"/>
      <use x="820.035156" xlink:href="#DejaVuSans-6c"/>
      <use x="847.818359" xlink:href="#DejaVuSans-2e"/>
      <use x="879.605469" xlink:href="#DejaVuSans-5d"/>
     </g>
    </g>
    <g id="line2d_62">
     <path d="M 483.525 71.972813 
L 503.525 71.972813 
" style="fill:none;stroke:#2ca02c;stroke-linecap:square;stroke-width:1.5;"/>
    </g>
    <g id="line2d_63"/>
    <g id="text_37">
     <!-- S75a (n=10) [excl.] -->
     <g transform="translate(511.525 75.472813)scale(0.1 -0.1)">
      <defs>
       <path d="M 3425 4513 
L 3425 3897 
Q 3066 4069 2747 4153 
Q 2428 4238 2131 4238 
Q 1616 4238 1336 4038 
Q 1056 3838 1056 3469 
Q 1056 3159 1242 3001 
Q 1428 2844 1947 2747 
L 2328 2669 
Q 3034 2534 3370 2195 
Q 3706 1856 3706 1288 
Q 3706 609 3251 259 
Q 2797 -91 1919 -91 
Q 1588 -91 1214 -16 
Q 841 59 441 206 
L 441 856 
Q 825 641 1194 531 
Q 1563 422 1919 422 
Q 2459 422 2753 634 
Q 3047 847 3047 1241 
Q 3047 1584 2836 1778 
Q 2625 1972 2144 2069 
L 1759 2144 
Q 1053 2284 737 2584 
Q 422 2884 422 3419 
Q 422 4038 858 4394 
Q 1294 4750 2059 4750 
Q 2388 4750 2728 4690 
Q 3069 4631 3425 4513 
z
" id="DejaVuSans-53" transform="scale(0.015625)"/>
      </defs>
      <use xlink:href="#DejaVuSans-53"/>
      <use x="63.476562" xlink:href="#DejaVuSans-37"/>
      <use x="127.099609" xlink:href="#DejaVuSans-35"/>
      <use x="190.722656" xlink:href="#DejaVuSans-61"/>
      <use x="252.001953" xlink:href="#DejaVuSans-20"/>
      <use x="283.789062" xlink:href="#DejaVuSans-28"/>
      <use x="322.802734" xlink:href="#DejaVuSans-6e"/>
      <use x="386.181641" xlink:href="#DejaVuSans-3d"/>
      <use x="469.970703" xlink:href="#DejaVuSans-31"/>
      <use x="533.59375" xlink:href="#DejaVuSans-30"/>
      <use x="597.216797" xlink:href="#DejaVuSans-29"/>
      <use x="636.230469" xlink:href="#DejaVuSans-20"/>
      <use x="668.017578" xlink:href="#DejaVuSans-5b"/>
      <use x="707.03125" xlink:href="#DejaVuSans-65"/>
      <use x="766.804688" xlink:href="#DejaVuSans-78"/>
      <use x="824.234375" xlink:href="#DejaVuSans-63"/>
      <use x="879.214844" xlink:href="#DejaVuSans-6c"/>
      <use x="906.998047" xlink:href="#DejaVuSans-2e"/>
      <use x="938.785156" xlink:href="#DejaVuSans-5d"/>
     </g>
    </g>
    <g id="line2d_64">
     <path d="M 483.525 86.650938 
L 503.525 86.650938 
" style="fill:none;stroke:#d62728;stroke-linecap:square;stroke-width:1.5;"/>
    </g>
    <g id="line2d_65"/>
    <g id="text_38">
     <!-- S75b1 (n=5) [excl.] -->
     <g transform="translate(511.525 90.150938)scale(0.1 -0.1)">
      <use xlink:href="#DejaVuSans-53"/>
      <use x="63.476562" xlink:href="#DejaVuSans-37"/>
      <use x="127.099609" xlink:href="#DejaVuSans-35"/>
      <use x="190.722656" xlink:href="#DejaVuSans-62"/>
      <use x="254.199219" xlink:href="#DejaVuSans-31"/>
      <use x="317.822266" xlink:href="#DejaVuSans-20"/>
      <use x="349.609375" xlink:href="#DejaVuSans-28"/>
      <use x="388.623047" xlink:href="#DejaVuSans-6e"/>
      <use x="452.001953" xlink:href="#DejaVuSans-3d"/>
      <use x="535.791016" xlink:href="#DejaVuSans-35"/>
      <use x="599.414062" xlink:href="#DejaVuSans-29"/>
      <use x="638.427734" xlink:href="#DejaVuSans-20"/>
      <use x="670.214844" xlink:href="#DejaVuSans-5b"/>
      <use x="709.228516" xlink:href="#DejaVuSans-65"/>
      <use x="769.001953" xlink:href="#DejaVuSans-78"/>
      <use x="826.431641" xlink:href="#DejaVuSans-63"/>
      <use x="881.412109" xlink:href="#DejaVuSans-6c"/>
      <use x="909.195312" xlink:href="#DejaVuSans-2e"/>
      <use x="940.982422" xlink:href="#DejaVuSans-5d"/>
     </g>
    </g>
    <g id="line2d_66">
     <path d="M 483.525 101.329063 
L 503.525 101.329063 
" style="fill:none;stroke:#9467bd;stroke-linecap:square;stroke-width:1.5;"/>
    </g>
    <g id="line2d_67"/>
    <g id="text_39">
     <!-- S75b2 (n=5) [excl.] -->
     <g transform="translate(511.525 104.829063)scale(0.1 -0.1)">
      <use xlink:href="#DejaVuSans-53"/>
      <use x="63.476562" xlink:href="#DejaVuSans-37"/>
      <use x="127.099609" xlink:href="#DejaVuSans-35"/>
      <use x="190.722656" xlink:href="#DejaVuSans-62"/>
      <use x="254.199219" xlink:href="#DejaVuSans-32"/>
      <use x="317.822266" xlink:href="#DejaVuSans-20"/>
      <use x="349.609375" xlink:href="#DejaVuSans-28"/>
      <use x="388.623047" xlink:href="#DejaVuSans-6e"/>
      <use x="452.001953" xlink:href="#DejaVuSans-3d"/>
      <use x="535.791016" xlink:href="#DejaVuSans-35"/>
      <use x="599.414062" xlink:href="#DejaVuSans-29"/>
      <use x="638.427734" xlink:href="#DejaVuSans-20"/>
      <use x="670.214844" xlink:href="#DejaVuSans-5b"/>
      <use x="709.228516" xlink:href="#DejaVuSans-65"/>
      <use x="769.001953" xlink:href="#DejaVuSans-78"/>
      <use x="826.431641" xlink:href="#DejaVuSans-63"/>
      <use x="881.412109" xlink:href="#DejaVuSans-6c"/>
      <use x="909.195312" xlink:href="#DejaVuSans-2e"/>
      <use x="940.982422" xlink:href="#DejaVuSans-5d"/>
     </g>
    </g>
    <g id="line2d_68">
     <path d="M 483.525 116.007188 
L 503.525 116.007188 
" style="fill:none;stroke:#8c564b;stroke-linecap:square;stroke-width:1.5;"/>
    </g>
    <g id="line2d_69"/>
    <g id="text_40">
     <!-- S75b3 (n=5) -->
     <g transform="translate(511.525 119.507188)scale(0.1 -0.1)">
      <use xlink:href="#DejaVuSans-53"/>
      <use x="63.476562" xlink:href="#DejaVuSans-37"/>
      <use x="127.099609" xlink:href="#DejaVuSans-35"/>
      <use x="190.722656" xlink:href="#DejaVuSans-62"/>
      <use x="254.199219" xlink:href="#DejaVuSans-33"/>
      <use x="317.822266" xlink:href="#DejaVuSans-20"/>
      <use x="349.609375" xlink:href="#DejaVuSans-28"/>
      <use x="388.623047" xlink:href="#DejaVuSans-6e"/>
      <use x="452.001953" xlink:href="#DejaVuSans-3d"/>
      <use x="535.791016" xlink:href="#DejaVuSans-35"/>
      <use x="599.414062" xlink:href="#DejaVuSans-29"/>
     </g>
    </g>
    <g id="line2d_70">
     <path d="M 483.525 130.685313 
L 503.525 130.685313 
" style="fill:none;stroke:#e377c2;stroke-linecap:square;stroke-width:1.5;"/>
    </g>
    <g id="line2d_71"/>
    <g id="text_41">
     <!-- L76 (n=3) [excl.] -->
     <g transform="translate(511.525 134.185313)scale(0.1 -0.1)">
      <use xlink:href="#DejaVuSans-4c"/>
      <use x="55.712891" xlink:href="#DejaVuSans-37"/>
      <use x="119.335938" xlink:href="#DejaVuSans-36"/>
      <use x="182.958984" xlink:href="#DejaVuSans-20"/>
      <use x="214.746094" xlink:href="#DejaVuSans-28"/>
      <use x="253.759766" xlink:href="#DejaVuSans-6e"/>
      <use x="317.138672" xlink:href="#DejaVuSans-3d"/>
      <use x="400.927734" xlink:href="#DejaVuSans-33"/>
      <use x="464.550781" xlink:href="#DejaVuSans-29"/>
      <use x="503.564453" xlink:href="#DejaVuSans-20"/>
      <use x="535.351562" xlink:href="#DejaVuSans-5b"/>
      <use x="574.365234" xlink:href="#DejaVuSans-65"/>
      <use x="634.138672" xlink:href="#DejaVuSans-78"/>
      <use x="691.568359" xlink:href="#DejaVuSans-63"/>
      <use x="746.548828" xlink:href="#DejaVuSans-6c"/>
      <use x="774.332031" xlink:href="#DejaVuSans-2e"/>
      <use x="806.119141" xlink:href="#DejaVuSans-5d"/>
     </g>
    </g>
    <g id="line2d_72">
     <path d="M 483.525 145.363438 
L 503.525 145.363438 
" style="fill:none;stroke:#7f7f7f;stroke-linecap:square;stroke-width:1.5;"/>
    </g>
    <g id="line2d_73"/>
    <g id="text_42">
     <!-- C78 (n=22) -->
     <g transform="translate(511.525 148.863438)scale(0.1 -0.1)">
      <defs>
       <path d="M 4122 4306 
L 4122 3641 
Q 3803 3938 3442 4084 
Q 3081 4231 2675 4231 
Q 1875 4231 1450 3742 
Q 1025 3253 1025 2328 
Q 1025 1406 1450 917 
Q 1875 428 2675 428 
Q 3081 428 3442 575 
Q 3803 722 4122 1019 
L 4122 359 
Q 3791 134 3420 21 
Q 3050 -91 2638 -91 
Q 1578 -91 968 557 
Q 359 1206 359 2328 
Q 359 3453 968 4101 
Q 1578 4750 2638 4750 
Q 3056 4750 3426 4639 
Q 3797 4528 4122 4306 
z
" id="DejaVuSans-43" transform="scale(0.015625)"/>
      </defs>
      <use xlink:href="#DejaVuSans-43"/>
      <use x="69.824219" xlink:href="#DejaVuSans-37"/>
      <use x="133.447266" xlink:href="#DejaVuSans-38"/>
      <use x="197.070312" xlink:href="#DejaVuSans-20"/>
      <use x="228.857422" xlink:href="#DejaVuSans-28"/>
      <use x="267.871094" xlink:href="#DejaVuSans-6e"/>
      <use x="331.25" xlink:href="#DejaVuSans-3d"/>
      <use x="415.039062" xlink:href="#DejaVuSans-32"/>
      <use x="478.662109" xlink:href="#DejaVuSans-32"/>
      <use x="542.285156" xlink:href="#DejaVuSans-29"/>
     </g>
    </g>
    <g id="line2d_74">
     <path d="M 483.525 160.041563 
L 503.525 160.041563 
" style="fill:none;stroke:#bcbd22;stroke-linecap:square;stroke-width:1.5;"/>
    </g>
    <g id="line2d_75"/>
    <g id="text_43">
     <!-- S78 (n=6) -->
     <g transform="translate(511.525 163.541563)scale(0.1 -0.1)">
      <use xlink:href="#DejaVuSans-53"/>
      <use x="63.476562" xlink:href="#DejaVuSans-37"/>
      <use x="127.099609" xlink:href="#DejaVuSans-38"/>
      <use x="190.722656" xlink:href="#DejaVuSans-20"/>
      <use x="222.509766" xlink:href="#DejaVuSans-28"/>
      <use x="261.523438" xlink:href="#DejaVuSans-6e"/>
      <use x="324.902344" xlink:href="#DejaVuSans-3d"/>
      <use x="408.691406" xlink:href="#DejaVuSans-36"/>
      <use x="472.314453" xlink:href="#DejaVuSans-29"/>
     </g>
    </g>
    <g id="line2d_76">
     <path d="M 483.525 174.719688 
L 503.525 174.719688 
" style="fill:none;stroke:#17becf;stroke-linecap:square;stroke-width:1.5;"/>
    </g>
    <g id="line2d_77"/>
    <g id="text_44">
     <!-- T78 (n=19) -->
     <g transform="translate(511.525 178.219688)scale(0.1 -0.1)">
      <defs>
       <path d="M 703 97 
L 703 672 
Q 941 559 1184 500 
Q 1428 441 1663 441 
Q 2288 441 2617 861 
Q 2947 1281 2994 2138 
Q 2813 1869 2534 1725 
Q 2256 1581 1919 1581 
Q 1219 1581 811 2004 
Q 403 2428 403 3163 
Q 403 3881 828 4315 
Q 1253 4750 1959 4750 
Q 2769 4750 3195 4129 
Q 3622 3509 3622 2328 
Q 3622 1225 3098 567 
Q 2575 -91 1691 -91 
Q 1453 -91 1209 -44 
Q 966 3 703 97 
z
M 1959 2075 
Q 2384 2075 2632 2365 
Q 2881 2656 2881 3163 
Q 2881 3666 2632 3958 
Q 2384 4250 1959 4250 
Q 1534 4250 1286 3958 
Q 1038 3666 1038 3163 
Q 1038 2656 1286 2365 
Q 1534 2075 1959 2075 
z
" id="DejaVuSans-39" transform="scale(0.015625)"/>
      </defs>
      <use xlink:href="#DejaVuSans-54"/>
      <use x="61.083984" xlink:href="#DejaVuSans-37"/>
      <use x="124.707031" xlink:href="#DejaVuSans-38"/>
      <use x="188.330078" xlink:href="#DejaVuSans-20"/>
      <use x="220.117188" xlink:href="#DejaVuSans-28"/>
      <use x="259.130859" xlink:href="#DejaVuSans-6e"/>
      <use x="322.509766" xlink:href="#DejaVuSans-3d"/>
      <use x="406.298828" xlink:href="#DejaVuSans-31"/>
      <use x="469.921875" xlink:href="#DejaVuSans-39"/>
      <use x="533.544922" xlink:href="#DejaVuSans-29"/>
     </g>
    </g>
    <g id="line2d_78">
     <path d="M 483.525 189.397812 
L 503.525 189.397812 
" style="fill:none;stroke:#1f77b4;stroke-dasharray:9,1.5;stroke-dashoffset:0;stroke-width:1.5;"/>
    </g>
    <g id="line2d_79"/>
    <g id="text_45">
     <!-- T79 (n=18) -->
     <g transform="translate(511.525 192.897812)scale(0.1 -0.1)">
      <use xlink:href="#DejaVuSans-54"/>
      <use x="61.083984" xlink:href="#DejaVuSans-37"/>
      <use x="124.707031" xlink:href="#DejaVuSans-39"/>
      <use x="188.330078" xlink:href="#DejaVuSans-20"/>
      <use x="220.117188" xlink:href="#DejaVuSans-28"/>
      <use x="259.130859" xlink:href="#DejaVuSans-6e"/>
      <use x="322.509766" xlink:href="#DejaVuSans-3d"/>
      <use x="406.298828" xlink:href="#DejaVuSans-31"/>
      <use x="469.921875" xlink:href="#DejaVuSans-38"/>
      <use x="533.544922" xlink:href="#DejaVuSans-29"/>
     </g>
    </g>
    <g id="line2d_80">
     <path d="M 483.525 204.075938 
L 503.525 204.075938 
" style="fill:none;stroke:#ff7f0e;stroke-dasharray:9,1.5;stroke-dashoffset:0;stroke-width:1.5;"/>
    </g>
    <g id="line2d_81"/>
    <g id="text_46">
     <!-- O80 (n=10) -->
     <g transform="translate(511.525 207.575938)scale(0.1 -0.1)">
      <defs>
       <path d="M 2522 4238 
Q 1834 4238 1429 3725 
Q 1025 3213 1025 2328 
Q 1025 1447 1429 934 
Q 1834 422 2522 422 
Q 3209 422 3611 934 
Q 4013 1447 4013 2328 
Q 4013 3213 3611 3725 
Q 3209 4238 2522 4238 
z
M 2522 4750 
Q 3503 4750 4090 4092 
Q 4678 3434 4678 2328 
Q 4678 1225 4090 567 
Q 3503 -91 2522 -91 
Q 1538 -91 948 565 
Q 359 1222 359 2328 
Q 359 3434 948 4092 
Q 1538 4750 2522 4750 
z
" id="DejaVuSans-4f" transform="scale(0.015625)"/>
      </defs>
      <use xlink:href="#DejaVuSans-4f"/>
      <use x="78.710938" xlink:href="#DejaVuSans-38"/>
      <use x="142.333984" xlink:href="#DejaVuSans-30"/>
      <use x="205.957031" xlink:href="#DejaVuSans-20"/>
      <use x="237.744141" xlink:href="#DejaVuSans-28"/>
      <use x="276.757812" xlink:href="#DejaVuSans-6e"/>
      <use x="340.136719" xlink:href="#DejaVuSans-3d"/>
      <use x="423.925781" xlink:href="#DejaVuSans-31"/>
      <use x="487.548828" xlink:href="#DejaVuSans-30"/>
      <use x="551.171875" xlink:href="#DejaVuSans-29"/>
     </g>
    </g>
    <g id="line2d_82">
     <path d="M 483.525 218.754063 
L 503.525 218.754063 
" style="fill:none;stroke:#2ca02c;stroke-dasharray:9,1.5;stroke-dashoffset:0;stroke-width:1.5;"/>
    </g>
    <g id="line2d_83"/>
    <g id="text_47">
     <!-- C81 (n=14) -->
     <g transform="translate(511.525 222.254063)scale(0.1 -0.1)">
      <use xlink:href="#DejaVuSans-43"/>
      <use x="69.824219" xlink:href="#DejaVuSans-38"/>
      <use x="133.447266" xlink:href="#DejaVuSans-31"/>
      <use x="197.070312" xlink:href="#DejaVuSans-20"/>
      <use x="228.857422" xlink:href="#DejaVuSans-28"/>
      <use x="267.871094" xlink:href="#DejaVuSans-6e"/>
      <use x="331.25" xlink:href="#DejaVuSans-3d"/>
      <use x="415.039062" xlink:href="#DejaVuSans-31"/>
      <use x="478.662109" xlink:href="#DejaVuSans-34"/>
      <use x="542.285156" xlink:href="#DejaVuSans-29"/>
     </g>
    </g>
    <g id="line2d_84">
     <path d="M 483.525 233.432187 
L 503.525 233.432187 
" style="fill:none;stroke:#d62728;stroke-dasharray:9,1.5;stroke-dashoffset:0;stroke-width:1.5;"/>
    </g>
    <g id="line2d_85"/>
    <g id="text_48">
     <!-- W81 (n=19) [excl.] -->
     <g transform="translate(511.525 236.932187)scale(0.1 -0.1)">
      <defs>
       <path d="M 213 4666 
L 850 4666 
L 1831 722 
L 2809 4666 
L 3519 4666 
L 4500 722 
L 5478 4666 
L 6119 4666 
L 4947 0 
L 4153 0 
L 3169 4050 
L 2175 0 
L 1381 0 
L 213 4666 
z
" id="DejaVuSans-57" transform="scale(0.015625)"/>
      </defs>
      <use xlink:href="#DejaVuSans-57"/>
      <use x="98.876953" xlink:href="#DejaVuSans-38"/>
      <use x="162.5" xlink:href="#DejaVuSans-31"/>
      <use x="226.123047" xlink:href="#DejaVuSans-20"/>
      <use x="257.910156" xlink:href="#DejaVuSans-28"/>
      <use x="296.923828" xlink:href="#DejaVuSans-6e"/>
      <use x="360.302734" xlink:href="#DejaVuSans-3d"/>
      <use x="444.091797" xlink:href="#DejaVuSans-31"/>
      <use x="507.714844" xlink:href="#DejaVuSans-39"/>
      <use x="571.337891" xlink:href="#DejaVuSans-29"/>
      <use x="610.351562" xlink:href="#DejaVuSans-20"/>
      <use x="642.138672" xlink:href="#DejaVuSans-5b"/>
      <use x="681.152344" xlink:href="#DejaVuSans-65"/>
      <use x="740.925781" xlink:href="#DejaVuSans-78"/>
      <use x="798.355469" xlink:href="#DejaVuSans-63"/>
      <use x="853.335938" xlink:href="#DejaVuSans-6c"/>
      <use x="881.119141" xlink:href="#DejaVuSans-2e"/>
      <use x="912.90625" xlink:href="#DejaVuSans-5d"/>
     </g>
    </g>
    <g id="line2d_86">
     <path d="M 483.525 248.110312 
L 503.525 248.110312 
" style="fill:none;stroke:#9467bd;stroke-dasharray:9,1.5;stroke-dashoffset:0;stroke-width:1.5;"/>
    </g>
    <g id="line2d_87"/>
    <g id="text_49">
     <!-- S82 (n=2) -->
     <g transform="translate(511.525 251.610312)scale(0.1 -0.1)">
      <use xlink:href="#DejaVuSans-53"/>
      <use x="63.476562" xlink:href="#DejaVuSans-38"/>
      <use x="127.099609" xlink:href="#DejaVuSans-32"/>
      <use x="190.722656" xlink:href="#DejaVuSans-20"/>
      <use x="222.509766" xlink:href="#DejaVuSans-28"/>
      <use x="261.523438" xlink:href="#DejaVuSans-6e"/>
      <use x="324.902344" xlink:href="#DejaVuSans-3d"/>
      <use x="408.691406" xlink:href="#DejaVuSans-32"/>
      <use x="472.314453" xlink:href="#DejaVuSans-29"/>
     </g>
    </g>
    <g id="line2d_88">
     <path d="M 483.525 262.788437 
L 503.525 262.788437 
" style="fill:none;stroke:#8c564b;stroke-dasharray:9,1.5;stroke-dashoffset:0;stroke-width:1.5;"/>
    </g>
    <g id="line2d_89"/>
    <g id="text_50">
     <!-- B83 (n=10) -->
     <g transform="translate(511.525 266.288437)scale(0.1 -0.1)">
      <defs>
       <path d="M 1259 2228 
L 1259 519 
L 2272 519 
Q 2781 519 3026 730 
Q 3272 941 3272 1375 
Q 3272 1813 3026 2020 
Q 2781 2228 2272 2228 
L 1259 2228 
z
M 1259 4147 
L 1259 2741 
L 2194 2741 
Q 2656 2741 2882 2914 
Q 3109 3088 3109 3444 
Q 3109 3797 2882 3972 
Q 2656 4147 2194 4147 
L 1259 4147 
z
M 628 4666 
L 2241 4666 
Q 2963 4666 3353 4366 
Q 3744 4066 3744 3513 
Q 3744 3084 3544 2831 
Q 3344 2578 2956 2516 
Q 3422 2416 3680 2098 
Q 3938 1781 3938 1306 
Q 3938 681 3513 340 
Q 3088 0 2303 0 
L 628 0 
L 628 4666 
z
" id="DejaVuSans-42" transform="scale(0.015625)"/>
      </defs>
      <use xlink:href="#DejaVuSans-42"/>
      <use x="68.603516" xlink:href="#DejaVuSans-38"/>
      <use x="132.226562" xlink:href="#DejaVuSans-33"/>
      <use x="195.849609" xlink:href="#DejaVuSans-20"/>
      <use x="227.636719" xlink:href="#DejaVuSans-28"/>
      <use x="266.650391" xlink:href="#DejaVuSans-6e"/>
      <use x="330.029297" xlink:href="#DejaVuSans-3d"/>
      <use x="413.818359" xlink:href="#DejaVuSans-31"/>
      <use x="477.441406" xlink:href="#DejaVuSans-30"/>
      <use x="541.064453" xlink:href="#DejaVuSans-29"/>
     </g>
    </g>
    <g id="line2d_90">
     <path d="M 483.525 277.466563 
L 503.525 277.466563 
" style="fill:none;stroke:#e377c2;stroke-dasharray:9,1.5;stroke-dashoffset:0;stroke-width:1.5;"/>
    </g>
    <g id="line2d_91"/>
    <g id="text_51">
     <!-- K84 (n=22) -->
     <g transform="translate(511.525 280.966563)scale(0.1 -0.1)">
      <use xlink:href="#DejaVuSans-4b"/>
      <use x="65.576172" xlink:href="#DejaVuSans-38"/>
      <use x="129.199219" xlink:href="#DejaVuSans-34"/>
      <use x="192.822266" xlink:href="#DejaVuSans-20"/>
      <use x="224.609375" xlink:href="#DejaVuSans-28"/>
      <use x="263.623047" xlink:href="#DejaVuSans-6e"/>
      <use x="327.001953" xlink:href="#DejaVuSans-3d"/>
      <use x="410.791016" xlink:href="#DejaVuSans-32"/>
      <use x="474.414062" xlink:href="#DejaVuSans-32"/>
      <use x="538.037109" xlink:href="#DejaVuSans-29"/>
     </g>
    </g>
    <g id="line2d_92">
     <path d="M 483.525 292.144687 
L 503.525 292.144687 
" style="fill:none;stroke:#7f7f7f;stroke-dasharray:9,1.5;stroke-dashoffset:0;stroke-width:1.5;"/>
    </g>
    <g id="line2d_93"/>
    <g id="text_52">
     <!-- V84 (n=7) -->
     <g transform="translate(511.525 295.644687)scale(0.1 -0.1)">
      <defs>
       <path d="M 1831 0 
L 50 4666 
L 709 4666 
L 2188 738 
L 3669 4666 
L 4325 4666 
L 2547 0 
L 1831 0 
z
" id="DejaVuSans-56" transform="scale(0.015625)"/>
      </defs>
      <use xlink:href="#DejaVuSans-56"/>
      <use x="68.408203" xlink:href="#DejaVuSans-38"/>
      <use x="132.03125" xlink:href="#DejaVuSans-34"/>
      <use x="195.654297" xlink:href="#DejaVuSans-20"/>
      <use x="227.441406" xlink:href="#DejaVuSans-28"/>
      <use x="266.455078" xlink:href="#DejaVuSans-6e"/>
      <use x="329.833984" xlink:href="#DejaVuSans-3d"/>
      <use x="413.623047" xlink:href="#DejaVuSans-37"/>
      <use x="477.246094" xlink:href="#DejaVuSans-29"/>
     </g>
    </g>
    <g id="line2d_94">
     <path d="M 483.525 306.822812 
L 503.525 306.822812 
" style="fill:none;stroke:#bcbd22;stroke-dasharray:9,1.5;stroke-dashoffset:0;stroke-width:1.5;"/>
    </g>
    <g id="line2d_95"/>
    <g id="text_53">
     <!-- G85 (n=10) -->
     <g transform="translate(511.525 310.322812)scale(0.1 -0.1)">
      <use xlink:href="#DejaVuSans-47"/>
      <use x="77.490234" xlink:href="#DejaVuSans-38"/>
      <use x="141.113281" xlink:href="#DejaVuSans-35"/>
      <use x="204.736328" xlink:href="#DejaVuSans-20"/>
      <use x="236.523438" xlink:href="#DejaVuSans-28"/>
      <use x="275.537109" xlink:href="#DejaVuSans-6e"/>
      <use x="338.916016" xlink:href="#DejaVuSans-3d"/>
      <use x="422.705078" xlink:href="#DejaVuSans-31"/>
      <use x="486.328125" xlink:href="#DejaVuSans-30"/>
      <use x="549.951172" xlink:href="#DejaVuSans-29"/>
     </g>
    </g>
    <g id="line2d_96">
     <path d="M 483.525 321.500938 
L 503.525 321.500938 
" style="fill:none;stroke:#17becf;stroke-dasharray:9,1.5;stroke-dashoffset:0;stroke-width:1.5;"/>
    </g>
    <g id="line2d_97"/>
    <g id="text_54">
     <!-- A86 (n=18) [excl.] -->
     <g transform="translate(511.525 325.000938)scale(0.1 -0.1)">
      <defs>
       <path d="M 2188 4044 
L 1331 1722 
L 3047 1722 
L 2188 4044 
z
M 1831 4666 
L 2547 4666 
L 4325 0 
L 3669 0 
L 3244 1197 
L 1141 1197 
L 716 0 
L 50 0 
L 1831 4666 
z
" id="DejaVuSans-41" transform="scale(0.015625)"/>
      </defs>
      <use xlink:href="#DejaVuSans-41"/>
      <use x="68.408203" xlink:href="#DejaVuSans-38"/>
      <use x="132.03125" xlink:href="#DejaVuSans-36"/>
      <use x="195.654297" xlink:href="#DejaVuSans-20"/>
      <use x="227.441406" xlink:href="#DejaVuSans-28"/>
      <use x="266.455078" xlink:href="#DejaVuSans-6e"/>
      <use x="329.833984" xlink:href="#DejaVuSans-3d"/>
      <use x="413.623047" xlink:href="#DejaVuSans-31"/>
      <use x="477.246094" xlink:href="#DejaVuSans-38"/>
      <use x="540.869141" xlink:href="#DejaVuSans-29"/>
      <use x="579.882812" xlink:href="#DejaVuSans-20"/>
      <use x="611.669922" xlink:href="#DejaVuSans-5b"/>
      <use x="650.683594" xlink:href="#DejaVuSans-65"/>
      <use x="710.457031" xlink:href="#DejaVuSans-78"/>
      <use x="767.886719" xlink:href="#DejaVuSans-63"/>
      <use x="822.867188" xlink:href="#DejaVuSans-6c"/>
      <use x="850.650391" xlink:href="#DejaVuSans-2e"/>
      <use x="882.4375" xlink:href="#DejaVuSans-5d"/>
     </g>
    </g>
    <g id="line2d_98">
     <path d="M 483.525 336.179063 
L 503.525 336.179063 
" style="fill:none;stroke:#1f77b4;stroke-dasharray:1.5,1.5;stroke-dashoffset:0;stroke-width:1.5;"/>
    </g>
    <g id="line2d_99"/>
    <g id="text_55">
     <!-- C86 (n=27) -->
     <g transform="translate(511.525 339.679063)scale(0.1 -0.1)">
      <use xlink:href="#DejaVuSans-43"/>
      <use x="69.824219" xlink:href="#DejaVuSans-38"/>
      <use x="133.447266" xlink:href="#DejaVuSans-36"/>
      <use x="197.070312" xlink:href="#DejaVuSans-20"/>
      <use x="228.857422" xlink:href="#DejaVuSans-28"/>
      <use x="267.871094" xlink:href="#DejaVuSans-6e"/>
      <use x="331.25" xlink:href="#DejaVuSans-3d"/>
      <use x="415.039062" xlink:href="#DejaVuSans-32"/>
      <use x="478.662109" xlink:href="#DejaVuSans-37"/>
      <use x="542.285156" xlink:href="#DejaVuSans-29"/>
     </g>
    </g>
    <g id="line2d_100">
     <path d="M 483.525 350.857188 
L 503.525 350.857188 
" style="fill:none;stroke:#ff7f0e;stroke-dasharray:1.5,1.5;stroke-dashoffset:0;stroke-width:1.5;"/>
    </g>
    <g id="line2d_101"/>
    <g id="text_56">
     <!-- M87 (n=5) [excl.] -->
     <g transform="translate(511.525 354.357188)scale(0.1 -0.1)">
      <defs>
       <path d="M 628 4666 
L 1569 4666 
L 2759 1491 
L 3956 4666 
L 4897 4666 
L 4897 0 
L 4281 0 
L 4281 4097 
L 3078 897 
L 2444 897 
L 1241 4097 
L 1241 0 
L 628 0 
L 628 4666 
z
" id="DejaVuSans-4d" transform="scale(0.015625)"/>
      </defs>
      <use xlink:href="#DejaVuSans-4d"/>
      <use x="86.279297" xlink:href="#DejaVuSans-38"/>
      <use x="149.902344" xlink:href="#DejaVuSans-37"/>
      <use x="213.525391" xlink:href="#DejaVuSans-20"/>
      <use x="245.3125" xlink:href="#DejaVuSans-28"/>
      <use x="284.326172" xlink:href="#DejaVuSans-6e"/>
      <use x="347.705078" xlink:href="#DejaVuSans-3d"/>
      <use x="431.494141" xlink:href="#DejaVuSans-35"/>
      <use x="495.117188" xlink:href="#DejaVuSans-29"/>
      <use x="534.130859" xlink:href="#DejaVuSans-20"/>
      <use x="565.917969" xlink:href="#DejaVuSans-5b"/>
      <use x="604.931641" xlink:href="#DejaVuSans-65"/>
      <use x="664.705078" xlink:href="#DejaVuSans-78"/>
      <use x="722.134766" xlink:href="#DejaVuSans-63"/>
      <use x="777.115234" xlink:href="#DejaVuSans-6c"/>
      <use x="804.898438" xlink:href="#DejaVuSans-2e"/>
      <use x="836.685547" xlink:href="#DejaVuSans-5d"/>
     </g>
    </g>
    <g id="line2d_102">
     <path d="M 483.525 365.535313 
L 503.525 365.535313 
" style="fill:none;stroke:#2ca02c;stroke-dasharray:1.5,1.5;stroke-dashoffset:0;stroke-width:1.5;"/>
    </g>
    <g id="line2d_103"/>
    <g id="text_57">
     <!-- S87 (n=11) -->
     <g transform="translate(511.525 369.035313)scale(0.1 -0.1)">
      <use xlink:href="#DejaVuSans-53"/>
      <use x="63.476562" xlink:href="#DejaVuSans-38"/>
      <use x="127.099609" xlink:href="#DejaVuSans-37"/>
      <use x="190.722656" xlink:href="#DejaVuSans-20"/>
      <use x="222.509766" xlink:href="#DejaVuSans-28"/>
      <use x="261.523438" xlink:href="#DejaVuSans-6e"/>
      <use x="324.902344" xlink:href="#DejaVuSans-3d"/>
      <use x="408.691406" xlink:href="#DejaVuSans-31"/>
      <use x="472.314453" xlink:href="#DejaVuSans-31"/>
      <use x="535.9375" xlink:href="#DejaVuSans-29"/>
     </g>
    </g>
    <g id="line2d_104">
     <path d="M 483.525 380.213438 
L 503.525 380.213438 
" style="fill:none;stroke:#d62728;stroke-dasharray:1.5,1.5;stroke-dashoffset:0;stroke-width:1.5;"/>
    </g>
    <g id="line2d_105"/>
    <g id="text_58">
     <!-- B89 (n=20) -->
     <g transform="translate(511.525 383.713438)scale(0.1 -0.1)">
      <use xlink:href="#DejaVuSans-42"/>
      <use x="68.603516" xlink:href="#DejaVuSans-38"/>
      <use x="132.226562" xlink:href="#DejaVuSans-39"/>
      <use x="195.849609" xlink:href="#DejaVuSans-20"/>
      <use x="227.636719" xlink:href="#DejaVuSans-28"/>
      <use x="266.650391" xlink:href="#DejaVuSans-6e"/>
      <use x="330.029297" xlink:href="#DejaVuSans-3d"/>
      <use x="413.818359" xlink:href="#DejaVuSans-32"/>
      <use x="477.441406" xlink:href="#DejaVuSans-30"/>
      <use x="541.064453" xlink:href="#DejaVuSans-29"/>
     </g>
    </g>
    <g id="line2d_106">
     <path d="M 483.525 394.891563 
L 503.525 394.891563 
" style="fill:none;stroke:#9467bd;stroke-dasharray:1.5,1.5;stroke-dashoffset:0;stroke-width:1.5;"/>
    </g>
    <g id="line2d_107"/>
    <g id="text_59">
     <!-- V93 (n=49) -->
     <g transform="translate(511.525 398.391563)scale(0.1 -0.1)">
      <use xlink:href="#DejaVuSans-56"/>
      <use x="68.408203" xlink:href="#DejaVuSans-39"/>
      <use x="132.03125" xlink:href="#DejaVuSans-33"/>
      <use x="195.654297" xlink:href="#DejaVuSans-20"/>
      <use x="227.441406" xlink:href="#DejaVuSans-28"/>
      <use x="266.455078" xlink:href="#DejaVuSans-6e"/>
      <use x="329.833984" xlink:href="#DejaVuSans-3d"/>
      <use x="413.623047" xlink:href="#DejaVuSans-34"/>
      <use x="477.246094" xlink:href="#DejaVuSans-39"/>
      <use x="540.869141" xlink:href="#DejaVuSans-29"/>
     </g>
    </g>
    <g id="line2d_108">
     <path d="M 483.525 409.569688 
L 503.525 409.569688 
" style="fill:none;stroke:#8c564b;stroke-dasharray:1.5,1.5;stroke-dashoffset:0;stroke-width:1.5;"/>
    </g>
    <g id="line2d_109"/>
    <g id="text_60">
     <!-- E06 (n=25) -->
     <g transform="translate(511.525 413.069688)scale(0.1 -0.1)">
      <use xlink:href="#DejaVuSans-45"/>
      <use x="63.183594" xlink:href="#DejaVuSans-30"/>
      <use x="126.806641" xlink:href="#DejaVuSans-36"/>
      <use x="190.429688" xlink:href="#DejaVuSans-20"/>
      <use x="222.216797" xlink:href="#DejaVuSans-28"/>
      <use x="261.230469" xlink:href="#DejaVuSans-6e"/>
      <use x="324.609375" xlink:href="#DejaVuSans-3d"/>
      <use x="408.398438" xlink:href="#DejaVuSans-32"/>
      <use x="472.021484" xlink:href="#DejaVuSans-35"/>
      <use x="535.644531" xlink:href="#DejaVuSans-29"/>
     </g>
    </g>
    <g id="line2d_110">
     <path d="M 483.525 424.247813 
L 503.525 424.247813 
" style="fill:none;stroke:#000000;stroke-linecap:square;stroke-width:3;"/>
    </g>
    <g id="line2d_111"/>
    <g id="text_61">
     <!-- Fit of fits -->
     <g transform="translate(511.525 427.747813)scale(0.1 -0.1)">
      <defs>
       <path d="M 628 4666 
L 3309 4666 
L 3309 4134 
L 1259 4134 
L 1259 2759 
L 3109 2759 
L 3109 2228 
L 1259 2228 
L 1259 0 
L 628 0 
L 628 4666 
z
" id="DejaVuSans-46" transform="scale(0.015625)"/>
       <path d="M 2375 4863 
L 2375 4384 
L 1825 4384 
Q 1516 4384 1395 4259 
Q 1275 4134 1275 3809 
L 1275 3500 
L 2222 3500 
L 2222 3053 
L 1275 3053 
L 1275 0 
L 697 0 
L 697 3053 
L 147 3053 
L 147 3500 
L 697 3500 
L 697 3744 
Q 697 4328 969 4595 
Q 1241 4863 1831 4863 
L 2375 4863 
z
" id="DejaVuSans-66" transform="scale(0.015625)"/>
      </defs>
      <use xlink:href="#DejaVuSans-46"/>
      <use x="50.269531" xlink:href="#DejaVuSans-69"/>
      <use x="78.052734" xlink:href="#DejaVuSans-74"/>
      <use x="117.261719" xlink:href="#DejaVuSans-20"/>
      <use x="149.048828" xlink:href="#DejaVuSans-6f"/>
      <use x="210.230469" xlink:href="#DejaVuSans-66"/>
      <use x="245.435547" xlink:href="#DejaVuSans-20"/>
      <use x="277.222656" xlink:href="#DejaVuSans-66"/>
      <use x="312.427734" xlink:href="#DejaVuSans-69"/>
      <use x="340.210938" xlink:href="#DejaVuSans-74"/>
      <use x="379.419922" xlink:href="#DejaVuSans-73"/>
     </g>
    </g>
   </g>
  </g>
 </g>
 <defs>
  <clipPath id="p6c19780508">
   <rect height="415.8" width="558" x="60.528125" y="29.518125"/>
  </clipPath>
 </defs>
</svg>
