<?xml version="1.0" encoding="utf-8" standalone="no"?>
<!DOCTYPE svg PUBLIC "-//W3C//DTD SVG 1.1//EN"
  "http://www.w3.org/Graphics/SVG/1.1/DTD/svg11.dtd">
<svg height="406.914375pt" version="1.1" viewBox="0 0 561.09375 406.914375" width="561.09375pt" xmlns="http://www.w3.org/2000/svg" xmlns:xlink="http://www.w3.org/1999/xlink">
 <metadata>
  <rdf:RDF xmlns:cc="http://creativecommons.org/ns#" xmlns:dc="http://purl.org/dc/elements/1.1/" xmlns:rdf="http://www.w3.org/1999/02/22-rdf-syntax-ns#">
   <cc:Work>
    <dc:type rdf:resource="http://purl.org/dc/dcmitype/StillImage"/>
    <dc:date>2021-07-15T02:39:53.179273</dc:date>
    <dc:format>image/svg+xml</dc:format>
    <dc:creator>
     <cc:Agent>
      <dc:title>Matplotlib v3.4.1, https://matplotlib.org/</dc:title>
     </cc:Agent>
    </dc:creator>
   </cc:Work>
  </rdf:RDF>
 </metadata>
 <defs>
  <style type="text/css">*{stroke-linecap:butt;stroke-linejoin:round;}</style>
 </defs>
 <g id="figure_1">
  <g id="patch_1">
   <path d="M 0 406.914375 
L 561.09375 406.914375 
L 561.09375 0 
L 0 0 
z
" style="fill:#ffffff;"/>
  </g>
  <g id="axes_1">
   <g id="patch_2">
    <path d="M 54.165625 362.158125 
L 500.565625 362.158125 
L 500.565625 29.518125 
L 54.165625 29.518125 
z
" style="fill:#ffffff;"/>
   </g>
   <g id="axes_2">
    <g id="patch_3">
     <path d="M 500.565625 362.158125 
L 500.565625 362.158125 
L 500.565625 29.518125 
L 500.565625 29.518125 
z
" style="fill:#ffffff;"/>
    </g>
    <g id="matplotlib.axis_1"/>
    <g id="matplotlib.axis_2">
     <g id="ytick_1">
      <g id="line2d_1">
       <defs>
        <path d="M 0 0 
L 3.5 0 
" id="m3b4c72b4bd" style="stroke:#000000;stroke-width:0.8;"/>
       </defs>
       <g>
        <use style="stroke:#000000;stroke-width:0.8;" x="500.565625" xlink:href="#m3b4c72b4bd" y="362.158125"/>
       </g>
      </g>
      <g id="text_1">
       <!-- 0 -->
       <g transform="translate(507.565625 365.957344)scale(0.1 -0.1)">
        <defs>
         <path d="M 2034 4250 
Q 1547 4250 1301 3770 
Q 1056 3291 1056 2328 
Q 1056 1369 1301 889 
Q 1547 409 2034 409 
Q 2525 409 2770 889 
Q 3016 1369 3016 2328 
Q 3016 3291 2770 3770 
Q 2525 4250 2034 4250 
z
M 2034 4750 
Q 2819 4750 3233 4129 
Q 3647 3509 3647 2328 
Q 3647 1150 3233 529 
Q 2819 -91 2034 -91 
Q 1250 -91 836 529 
Q 422 1150 422 2328 
Q 422 3509 836 4129 
Q 1250 4750 2034 4750 
z
" id="DejaVuSans-30" transform="scale(0.015625)"/>
        </defs>
        <use xlink:href="#DejaVuSans-30"/>
       </g>
      </g>
     </g>
     <g id="ytick_2">
      <g id="line2d_2">
       <g>
        <use style="stroke:#000000;stroke-width:0.8;" x="500.565625" xlink:href="#m3b4c72b4bd" y="320.083774"/>
       </g>
      </g>
      <g id="text_2">
       <!-- 250 -->
       <g transform="translate(507.565625 323.882993)scale(0.1 -0.1)">
        <defs>
         <path d="M 1228 531 
L 3431 531 
L 3431 0 
L 469 0 
L 469 531 
Q 828 903 1448 1529 
Q 2069 2156 2228 2338 
Q 2531 2678 2651 2914 
Q 2772 3150 2772 3378 
Q 2772 3750 2511 3984 
Q 2250 4219 1831 4219 
Q 1534 4219 1204 4116 
Q 875 4013 500 3803 
L 500 4441 
Q 881 4594 1212 4672 
Q 1544 4750 1819 4750 
Q 2544 4750 2975 4387 
Q 3406 4025 3406 3419 
Q 3406 3131 3298 2873 
Q 3191 2616 2906 2266 
Q 2828 2175 2409 1742 
Q 1991 1309 1228 531 
z
" id="DejaVuSans-32" transform="scale(0.015625)"/>
         <path d="M 691 4666 
L 3169 4666 
L 3169 4134 
L 1269 4134 
L 1269 2991 
Q 1406 3038 1543 3061 
Q 1681 3084 1819 3084 
Q 2600 3084 3056 2656 
Q 3513 2228 3513 1497 
Q 3513 744 3044 326 
Q 2575 -91 1722 -91 
Q 1428 -91 1123 -41 
Q 819 9 494 109 
L 494 744 
Q 775 591 1075 516 
Q 1375 441 1709 441 
Q 2250 441 2565 725 
Q 2881 1009 2881 1497 
Q 2881 1984 2565 2268 
Q 2250 2553 1709 2553 
Q 1456 2553 1204 2497 
Q 953 2441 691 2322 
L 691 4666 
z
" id="DejaVuSans-35" transform="scale(0.015625)"/>
        </defs>
        <use xlink:href="#DejaVuSans-32"/>
        <use x="63.623047" xlink:href="#DejaVuSans-35"/>
        <use x="127.246094" xlink:href="#DejaVuSans-30"/>
       </g>
      </g>
     </g>
     <g id="ytick_3">
      <g id="line2d_3">
       <g>
        <use style="stroke:#000000;stroke-width:0.8;" x="500.565625" xlink:href="#m3b4c72b4bd" y="278.009423"/>
       </g>
      </g>
      <g id="text_3">
       <!-- 500 -->
       <g transform="translate(507.565625 281.808641)scale(0.1 -0.1)">
        <use xlink:href="#DejaVuSans-35"/>
        <use x="63.623047" xlink:href="#DejaVuSans-30"/>
        <use x="127.246094" xlink:href="#DejaVuSans-30"/>
       </g>
      </g>
     </g>
     <g id="ytick_4">
      <g id="line2d_4">
       <g>
        <use style="stroke:#000000;stroke-width:0.8;" x="500.565625" xlink:href="#m3b4c72b4bd" y="235.935071"/>
       </g>
      </g>
      <g id="text_4">
       <!-- 750 -->
       <g transform="translate(507.565625 239.73429)scale(0.1 -0.1)">
        <defs>
         <path d="M 525 4666 
L 3525 4666 
L 3525 4397 
L 1831 0 
L 1172 0 
L 2766 4134 
L 525 4134 
L 525 4666 
z
" id="DejaVuSans-37" transform="scale(0.015625)"/>
        </defs>
        <use xlink:href="#DejaVuSans-37"/>
        <use x="63.623047" xlink:href="#DejaVuSans-35"/>
        <use x="127.246094" xlink:href="#DejaVuSans-30"/>
       </g>
      </g>
     </g>
     <g id="ytick_5">
      <g id="line2d_5">
       <g>
        <use style="stroke:#000000;stroke-width:0.8;" x="500.565625" xlink:href="#m3b4c72b4bd" y="193.86072"/>
       </g>
      </g>
      <g id="text_5">
       <!-- 1000 -->
       <g transform="translate(507.565625 197.659939)scale(0.1 -0.1)">
        <defs>
         <path d="M 794 531 
L 1825 531 
L 1825 4091 
L 703 3866 
L 703 4441 
L 1819 4666 
L 2450 4666 
L 2450 531 
L 3481 531 
L 3481 0 
L 794 0 
L 794 531 
z
" id="DejaVuSans-31" transform="scale(0.015625)"/>
        </defs>
        <use xlink:href="#DejaVuSans-31"/>
        <use x="63.623047" xlink:href="#DejaVuSans-30"/>
        <use x="127.246094" xlink:href="#DejaVuSans-30"/>
        <use x="190.869141" xlink:href="#DejaVuSans-30"/>
       </g>
      </g>
     </g>
     <g id="ytick_6">
      <g id="line2d_6">
       <g>
        <use style="stroke:#000000;stroke-width:0.8;" x="500.565625" xlink:href="#m3b4c72b4bd" y="151.786369"/>
       </g>
      </g>
      <g id="text_6">
       <!-- 1250 -->
       <g transform="translate(507.565625 155.585588)scale(0.1 -0.1)">
        <use xlink:href="#DejaVuSans-31"/>
        <use x="63.623047" xlink:href="#DejaVuSans-32"/>
        <use x="127.246094" xlink:href="#DejaVuSans-35"/>
        <use x="190.869141" xlink:href="#DejaVuSans-30"/>
       </g>
      </g>
     </g>
     <g id="ytick_7">
      <g id="line2d_7">
       <g>
        <use style="stroke:#000000;stroke-width:0.8;" x="500.565625" xlink:href="#m3b4c72b4bd" y="109.712018"/>
       </g>
      </g>
      <g id="text_7">
       <!-- 1500 -->
       <g transform="translate(507.565625 113.511236)scale(0.1 -0.1)">
        <use xlink:href="#DejaVuSans-31"/>
        <use x="63.623047" xlink:href="#DejaVuSans-35"/>
        <use x="127.246094" xlink:href="#DejaVuSans-30"/>
        <use x="190.869141" xlink:href="#DejaVuSans-30"/>
       </g>
      </g>
     </g>
     <g id="ytick_8">
      <g id="line2d_8">
       <g>
        <use style="stroke:#000000;stroke-width:0.8;" x="500.565625" xlink:href="#m3b4c72b4bd" y="67.637666"/>
       </g>
      </g>
      <g id="text_8">
       <!-- 1750 -->
       <g transform="translate(507.565625 71.436885)scale(0.1 -0.1)">
        <use xlink:href="#DejaVuSans-31"/>
        <use x="63.623047" xlink:href="#DejaVuSans-37"/>
        <use x="127.246094" xlink:href="#DejaVuSans-35"/>
        <use x="190.869141" xlink:href="#DejaVuSans-30"/>
       </g>
      </g>
     </g>
     <g id="text_9">
      <!-- Estradiol concentrations (pmol/L) -->
      <g transform="translate(544.614063 278.970156)rotate(-90)scale(0.1 -0.1)">
       <defs>
        <path d="M 628 4666 
L 3578 4666 
L 3578 4134 
L 1259 4134 
L 1259 2753 
L 3481 2753 
L 3481 2222 
L 1259 2222 
L 1259 531 
L 3634 531 
L 3634 0 
L 628 0 
L 628 4666 
z
" id="DejaVuSans-45" transform="scale(0.015625)"/>
        <path d="M 2834 3397 
L 2834 2853 
Q 2591 2978 2328 3040 
Q 2066 3103 1784 3103 
Q 1356 3103 1142 2972 
Q 928 2841 928 2578 
Q 928 2378 1081 2264 
Q 1234 2150 1697 2047 
L 1894 2003 
Q 2506 1872 2764 1633 
Q 3022 1394 3022 966 
Q 3022 478 2636 193 
Q 2250 -91 1575 -91 
Q 1294 -91 989 -36 
Q 684 19 347 128 
L 347 722 
Q 666 556 975 473 
Q 1284 391 1588 391 
Q 1994 391 2212 530 
Q 2431 669 2431 922 
Q 2431 1156 2273 1281 
Q 2116 1406 1581 1522 
L 1381 1569 
Q 847 1681 609 1914 
Q 372 2147 372 2553 
Q 372 3047 722 3315 
Q 1072 3584 1716 3584 
Q 2034 3584 2315 3537 
Q 2597 3491 2834 3397 
z
" id="DejaVuSans-73" transform="scale(0.015625)"/>
        <path d="M 1172 4494 
L 1172 3500 
L 2356 3500 
L 2356 3053 
L 1172 3053 
L 1172 1153 
Q 1172 725 1289 603 
Q 1406 481 1766 481 
L 2356 481 
L 2356 0 
L 1766 0 
Q 1100 0 847 248 
Q 594 497 594 1153 
L 594 3053 
L 172 3053 
L 172 3500 
L 594 3500 
L 594 4494 
L 1172 4494 
z
" id="DejaVuSans-74" transform="scale(0.015625)"/>
        <path d="M 2631 2963 
Q 2534 3019 2420 3045 
Q 2306 3072 2169 3072 
Q 1681 3072 1420 2755 
Q 1159 2438 1159 1844 
L 1159 0 
L 581 0 
L 581 3500 
L 1159 3500 
L 1159 2956 
Q 1341 3275 1631 3429 
Q 1922 3584 2338 3584 
Q 2397 3584 2469 3576 
Q 2541 3569 2628 3553 
L 2631 2963 
z
" id="DejaVuSans-72" transform="scale(0.015625)"/>
        <path d="M 2194 1759 
Q 1497 1759 1228 1600 
Q 959 1441 959 1056 
Q 959 750 1161 570 
Q 1363 391 1709 391 
Q 2188 391 2477 730 
Q 2766 1069 2766 1631 
L 2766 1759 
L 2194 1759 
z
M 3341 1997 
L 3341 0 
L 2766 0 
L 2766 531 
Q 2569 213 2275 61 
Q 1981 -91 1556 -91 
Q 1019 -91 701 211 
Q 384 513 384 1019 
Q 384 1609 779 1909 
Q 1175 2209 1959 2209 
L 2766 2209 
L 2766 2266 
Q 2766 2663 2505 2880 
Q 2244 3097 1772 3097 
Q 1472 3097 1187 3025 
Q 903 2953 641 2809 
L 641 3341 
Q 956 3463 1253 3523 
Q 1550 3584 1831 3584 
Q 2591 3584 2966 3190 
Q 3341 2797 3341 1997 
z
" id="DejaVuSans-61" transform="scale(0.015625)"/>
        <path d="M 2906 2969 
L 2906 4863 
L 3481 4863 
L 3481 0 
L 2906 0 
L 2906 525 
Q 2725 213 2448 61 
Q 2172 -91 1784 -91 
Q 1150 -91 751 415 
Q 353 922 353 1747 
Q 353 2572 751 3078 
Q 1150 3584 1784 3584 
Q 2172 3584 2448 3432 
Q 2725 3281 2906 2969 
z
M 947 1747 
Q 947 1113 1208 752 
Q 1469 391 1925 391 
Q 2381 391 2643 752 
Q 2906 1113 2906 1747 
Q 2906 2381 2643 2742 
Q 2381 3103 1925 3103 
Q 1469 3103 1208 2742 
Q 947 2381 947 1747 
z
" id="DejaVuSans-64" transform="scale(0.015625)"/>
        <path d="M 603 3500 
L 1178 3500 
L 1178 0 
L 603 0 
L 603 3500 
z
M 603 4863 
L 1178 4863 
L 1178 4134 
L 603 4134 
L 603 4863 
z
" id="DejaVuSans-69" transform="scale(0.015625)"/>
        <path d="M 1959 3097 
Q 1497 3097 1228 2736 
Q 959 2375 959 1747 
Q 959 1119 1226 758 
Q 1494 397 1959 397 
Q 2419 397 2687 759 
Q 2956 1122 2956 1747 
Q 2956 2369 2687 2733 
Q 2419 3097 1959 3097 
z
M 1959 3584 
Q 2709 3584 3137 3096 
Q 3566 2609 3566 1747 
Q 3566 888 3137 398 
Q 2709 -91 1959 -91 
Q 1206 -91 779 398 
Q 353 888 353 1747 
Q 353 2609 779 3096 
Q 1206 3584 1959 3584 
z
" id="DejaVuSans-6f" transform="scale(0.015625)"/>
        <path d="M 603 4863 
L 1178 4863 
L 1178 0 
L 603 0 
L 603 4863 
z
" id="DejaVuSans-6c" transform="scale(0.015625)"/>
        <path id="DejaVuSans-20" transform="scale(0.015625)"/>
        <path d="M 3122 3366 
L 3122 2828 
Q 2878 2963 2633 3030 
Q 2388 3097 2138 3097 
Q 1578 3097 1268 2742 
Q 959 2388 959 1747 
Q 959 1106 1268 751 
Q 1578 397 2138 397 
Q 2388 397 2633 464 
Q 2878 531 3122 666 
L 3122 134 
Q 2881 22 2623 -34 
Q 2366 -91 2075 -91 
Q 1284 -91 818 406 
Q 353 903 353 1747 
Q 353 2603 823 3093 
Q 1294 3584 2113 3584 
Q 2378 3584 2631 3529 
Q 2884 3475 3122 3366 
z
" id="DejaVuSans-63" transform="scale(0.015625)"/>
        <path d="M 3513 2113 
L 3513 0 
L 2938 0 
L 2938 2094 
Q 2938 2591 2744 2837 
Q 2550 3084 2163 3084 
Q 1697 3084 1428 2787 
Q 1159 2491 1159 1978 
L 1159 0 
L 581 0 
L 581 3500 
L 1159 3500 
L 1159 2956 
Q 1366 3272 1645 3428 
Q 1925 3584 2291 3584 
Q 2894 3584 3203 3211 
Q 3513 2838 3513 2113 
z
" id="DejaVuSans-6e" transform="scale(0.015625)"/>
        <path d="M 3597 1894 
L 3597 1613 
L 953 1613 
Q 991 1019 1311 708 
Q 1631 397 2203 397 
Q 2534 397 2845 478 
Q 3156 559 3463 722 
L 3463 178 
Q 3153 47 2828 -22 
Q 2503 -91 2169 -91 
Q 1331 -91 842 396 
Q 353 884 353 1716 
Q 353 2575 817 3079 
Q 1281 3584 2069 3584 
Q 2775 3584 3186 3129 
Q 3597 2675 3597 1894 
z
M 3022 2063 
Q 3016 2534 2758 2815 
Q 2500 3097 2075 3097 
Q 1594 3097 1305 2825 
Q 1016 2553 972 2059 
L 3022 2063 
z
" id="DejaVuSans-65" transform="scale(0.015625)"/>
        <path d="M 1984 4856 
Q 1566 4138 1362 3434 
Q 1159 2731 1159 2009 
Q 1159 1288 1364 580 
Q 1569 -128 1984 -844 
L 1484 -844 
Q 1016 -109 783 600 
Q 550 1309 550 2009 
Q 550 2706 781 3412 
Q 1013 4119 1484 4856 
L 1984 4856 
z
" id="DejaVuSans-28" transform="scale(0.015625)"/>
        <path d="M 1159 525 
L 1159 -1331 
L 581 -1331 
L 581 3500 
L 1159 3500 
L 1159 2969 
Q 1341 3281 1617 3432 
Q 1894 3584 2278 3584 
Q 2916 3584 3314 3078 
Q 3713 2572 3713 1747 
Q 3713 922 3314 415 
Q 2916 -91 2278 -91 
Q 1894 -91 1617 61 
Q 1341 213 1159 525 
z
M 3116 1747 
Q 3116 2381 2855 2742 
Q 2594 3103 2138 3103 
Q 1681 3103 1420 2742 
Q 1159 2381 1159 1747 
Q 1159 1113 1420 752 
Q 1681 391 2138 391 
Q 2594 391 2855 752 
Q 3116 1113 3116 1747 
z
" id="DejaVuSans-70" transform="scale(0.015625)"/>
        <path d="M 3328 2828 
Q 3544 3216 3844 3400 
Q 4144 3584 4550 3584 
Q 5097 3584 5394 3201 
Q 5691 2819 5691 2113 
L 5691 0 
L 5113 0 
L 5113 2094 
Q 5113 2597 4934 2840 
Q 4756 3084 4391 3084 
Q 3944 3084 3684 2787 
Q 3425 2491 3425 1978 
L 3425 0 
L 2847 0 
L 2847 2094 
Q 2847 2600 2669 2842 
Q 2491 3084 2119 3084 
Q 1678 3084 1418 2786 
Q 1159 2488 1159 1978 
L 1159 0 
L 581 0 
L 581 3500 
L 1159 3500 
L 1159 2956 
Q 1356 3278 1631 3431 
Q 1906 3584 2284 3584 
Q 2666 3584 2933 3390 
Q 3200 3197 3328 2828 
z
" id="DejaVuSans-6d" transform="scale(0.015625)"/>
        <path d="M 1625 4666 
L 2156 4666 
L 531 -594 
L 0 -594 
L 1625 4666 
z
" id="DejaVuSans-2f" transform="scale(0.015625)"/>
        <path d="M 628 4666 
L 1259 4666 
L 1259 531 
L 3531 531 
L 3531 0 
L 628 0 
L 628 4666 
z
" id="DejaVuSans-4c" transform="scale(0.015625)"/>
        <path d="M 513 4856 
L 1013 4856 
Q 1481 4119 1714 3412 
Q 1947 2706 1947 2009 
Q 1947 1309 1714 600 
Q 1481 -109 1013 -844 
L 513 -844 
Q 928 -128 1133 580 
Q 1338 1288 1338 2009 
Q 1338 2731 1133 3434 
Q 928 4138 513 4856 
z
" id="DejaVuSans-29" transform="scale(0.015625)"/>
       </defs>
       <use xlink:href="#DejaVuSans-45"/>
       <use x="63.183594" xlink:href="#DejaVuSans-73"/>
       <use x="115.283203" xlink:href="#DejaVuSans-74"/>
       <use x="154.492188" xlink:href="#DejaVuSans-72"/>
       <use x="195.605469" xlink:href="#DejaVuSans-61"/>
       <use x="256.884766" xlink:href="#DejaVuSans-64"/>
       <use x="320.361328" xlink:href="#DejaVuSans-69"/>
       <use x="348.144531" xlink:href="#DejaVuSans-6f"/>
       <use x="409.326172" xlink:href="#DejaVuSans-6c"/>
       <use x="437.109375" xlink:href="#DejaVuSans-20"/>
       <use x="468.896484" xlink:href="#DejaVuSans-63"/>
       <use x="523.876953" xlink:href="#DejaVuSans-6f"/>
       <use x="585.058594" xlink:href="#DejaVuSans-6e"/>
       <use x="648.4375" xlink:href="#DejaVuSans-63"/>
       <use x="703.417969" xlink:href="#DejaVuSans-65"/>
       <use x="764.941406" xlink:href="#DejaVuSans-6e"/>
       <use x="828.320312" xlink:href="#DejaVuSans-74"/>
       <use x="867.529297" xlink:href="#DejaVuSans-72"/>
       <use x="908.642578" xlink:href="#DejaVuSans-61"/>
       <use x="969.921875" xlink:href="#DejaVuSans-74"/>
       <use x="1009.130859" xlink:href="#DejaVuSans-69"/>
       <use x="1036.914062" xlink:href="#DejaVuSans-6f"/>
       <use x="1098.095703" xlink:href="#DejaVuSans-6e"/>
       <use x="1161.474609" xlink:href="#DejaVuSans-73"/>
       <use x="1213.574219" xlink:href="#DejaVuSans-20"/>
       <use x="1245.361328" xlink:href="#DejaVuSans-28"/>
       <use x="1284.375" xlink:href="#DejaVuSans-70"/>
       <use x="1347.851562" xlink:href="#DejaVuSans-6d"/>
       <use x="1445.263672" xlink:href="#DejaVuSans-6f"/>
       <use x="1506.445312" xlink:href="#DejaVuSans-6c"/>
       <use x="1534.228516" xlink:href="#DejaVuSans-2f"/>
       <use x="1567.919922" xlink:href="#DejaVuSans-4c"/>
       <use x="1623.632812" xlink:href="#DejaVuSans-29"/>
      </g>
     </g>
    </g>
    <g id="patch_4">
     <path d="M 500.565625 362.158125 
L 500.565625 29.518125 
" style="fill:none;stroke:#000000;stroke-linecap:square;stroke-linejoin:miter;stroke-width:0.8;"/>
    </g>
   </g>
   <g id="matplotlib.axis_3">
    <g id="xtick_1">
     <g id="line2d_9">
      <defs>
       <path d="M 0 0 
L 0 3.5 
" id="m19b49b3eeb" style="stroke:#000000;stroke-width:0.8;"/>
      </defs>
      <g>
       <use style="stroke:#000000;stroke-width:0.8;" x="54.165625" xlink:href="#m19b49b3eeb" y="362.158125"/>
      </g>
     </g>
     <g id="text_10">
      <!-- 0 -->
      <g transform="translate(50.984375 376.756563)scale(0.1 -0.1)">
       <use xlink:href="#DejaVuSans-30"/>
      </g>
     </g>
    </g>
    <g id="xtick_2">
     <g id="line2d_10">
      <g>
       <use style="stroke:#000000;stroke-width:0.8;" x="103.765625" xlink:href="#m19b49b3eeb" y="362.158125"/>
      </g>
     </g>
     <g id="text_11">
      <!-- 10 -->
      <g transform="translate(97.403125 376.756563)scale(0.1 -0.1)">
       <use xlink:href="#DejaVuSans-31"/>
       <use x="63.623047" xlink:href="#DejaVuSans-30"/>
      </g>
     </g>
    </g>
    <g id="xtick_3">
     <g id="line2d_11">
      <g>
       <use style="stroke:#000000;stroke-width:0.8;" x="153.365625" xlink:href="#m19b49b3eeb" y="362.158125"/>
      </g>
     </g>
     <g id="text_12">
      <!-- 20 -->
      <g transform="translate(147.003125 376.756563)scale(0.1 -0.1)">
       <use xlink:href="#DejaVuSans-32"/>
       <use x="63.623047" xlink:href="#DejaVuSans-30"/>
      </g>
     </g>
    </g>
    <g id="xtick_4">
     <g id="line2d_12">
      <g>
       <use style="stroke:#000000;stroke-width:0.8;" x="202.965625" xlink:href="#m19b49b3eeb" y="362.158125"/>
      </g>
     </g>
     <g id="text_13">
      <!-- 30 -->
      <g transform="translate(196.603125 376.756563)scale(0.1 -0.1)">
       <defs>
        <path d="M 2597 2516 
Q 3050 2419 3304 2112 
Q 3559 1806 3559 1356 
Q 3559 666 3084 287 
Q 2609 -91 1734 -91 
Q 1441 -91 1130 -33 
Q 819 25 488 141 
L 488 750 
Q 750 597 1062 519 
Q 1375 441 1716 441 
Q 2309 441 2620 675 
Q 2931 909 2931 1356 
Q 2931 1769 2642 2001 
Q 2353 2234 1838 2234 
L 1294 2234 
L 1294 2753 
L 1863 2753 
Q 2328 2753 2575 2939 
Q 2822 3125 2822 3475 
Q 2822 3834 2567 4026 
Q 2313 4219 1838 4219 
Q 1578 4219 1281 4162 
Q 984 4106 628 3988 
L 628 4550 
Q 988 4650 1302 4700 
Q 1616 4750 1894 4750 
Q 2613 4750 3031 4423 
Q 3450 4097 3450 3541 
Q 3450 3153 3228 2886 
Q 3006 2619 2597 2516 
z
" id="DejaVuSans-33" transform="scale(0.015625)"/>
       </defs>
       <use xlink:href="#DejaVuSans-33"/>
       <use x="63.623047" xlink:href="#DejaVuSans-30"/>
      </g>
     </g>
    </g>
    <g id="xtick_5">
     <g id="line2d_13">
      <g>
       <use style="stroke:#000000;stroke-width:0.8;" x="252.565625" xlink:href="#m19b49b3eeb" y="362.158125"/>
      </g>
     </g>
     <g id="text_14">
      <!-- 40 -->
      <g transform="translate(246.203125 376.756563)scale(0.1 -0.1)">
       <defs>
        <path d="M 2419 4116 
L 825 1625 
L 2419 1625 
L 2419 4116 
z
M 2253 4666 
L 3047 4666 
L 3047 1625 
L 3713 1625 
L 3713 1100 
L 3047 1100 
L 3047 0 
L 2419 0 
L 2419 1100 
L 313 1100 
L 313 1709 
L 2253 4666 
z
" id="DejaVuSans-34" transform="scale(0.015625)"/>
       </defs>
       <use xlink:href="#DejaVuSans-34"/>
       <use x="63.623047" xlink:href="#DejaVuSans-30"/>
      </g>
     </g>
    </g>
    <g id="xtick_6">
     <g id="line2d_14">
      <g>
       <use style="stroke:#000000;stroke-width:0.8;" x="302.165625" xlink:href="#m19b49b3eeb" y="362.158125"/>
      </g>
     </g>
     <g id="text_15">
      <!-- 50 -->
      <g transform="translate(295.803125 376.756563)scale(0.1 -0.1)">
       <use xlink:href="#DejaVuSans-35"/>
       <use x="63.623047" xlink:href="#DejaVuSans-30"/>
      </g>
     </g>
    </g>
    <g id="xtick_7">
     <g id="line2d_15">
      <g>
       <use style="stroke:#000000;stroke-width:0.8;" x="351.765625" xlink:href="#m19b49b3eeb" y="362.158125"/>
      </g>
     </g>
     <g id="text_16">
      <!-- 60 -->
      <g transform="translate(345.403125 376.756563)scale(0.1 -0.1)">
       <defs>
        <path d="M 2113 2584 
Q 1688 2584 1439 2293 
Q 1191 2003 1191 1497 
Q 1191 994 1439 701 
Q 1688 409 2113 409 
Q 2538 409 2786 701 
Q 3034 994 3034 1497 
Q 3034 2003 2786 2293 
Q 2538 2584 2113 2584 
z
M 3366 4563 
L 3366 3988 
Q 3128 4100 2886 4159 
Q 2644 4219 2406 4219 
Q 1781 4219 1451 3797 
Q 1122 3375 1075 2522 
Q 1259 2794 1537 2939 
Q 1816 3084 2150 3084 
Q 2853 3084 3261 2657 
Q 3669 2231 3669 1497 
Q 3669 778 3244 343 
Q 2819 -91 2113 -91 
Q 1303 -91 875 529 
Q 447 1150 447 2328 
Q 447 3434 972 4092 
Q 1497 4750 2381 4750 
Q 2619 4750 2861 4703 
Q 3103 4656 3366 4563 
z
" id="DejaVuSans-36" transform="scale(0.015625)"/>
       </defs>
       <use xlink:href="#DejaVuSans-36"/>
       <use x="63.623047" xlink:href="#DejaVuSans-30"/>
      </g>
     </g>
    </g>
    <g id="xtick_8">
     <g id="line2d_16">
      <g>
       <use style="stroke:#000000;stroke-width:0.8;" x="401.365625" xlink:href="#m19b49b3eeb" y="362.158125"/>
      </g>
     </g>
     <g id="text_17">
      <!-- 70 -->
      <g transform="translate(395.003125 376.756563)scale(0.1 -0.1)">
       <use xlink:href="#DejaVuSans-37"/>
       <use x="63.623047" xlink:href="#DejaVuSans-30"/>
      </g>
     </g>
    </g>
    <g id="xtick_9">
     <g id="line2d_17">
      <g>
       <use style="stroke:#000000;stroke-width:0.8;" x="450.965625" xlink:href="#m19b49b3eeb" y="362.158125"/>
      </g>
     </g>
     <g id="text_18">
      <!-- 80 -->
      <g transform="translate(444.603125 376.756563)scale(0.1 -0.1)">
       <defs>
        <path d="M 2034 2216 
Q 1584 2216 1326 1975 
Q 1069 1734 1069 1313 
Q 1069 891 1326 650 
Q 1584 409 2034 409 
Q 2484 409 2743 651 
Q 3003 894 3003 1313 
Q 3003 1734 2745 1975 
Q 2488 2216 2034 2216 
z
M 1403 2484 
Q 997 2584 770 2862 
Q 544 3141 544 3541 
Q 544 4100 942 4425 
Q 1341 4750 2034 4750 
Q 2731 4750 3128 4425 
Q 3525 4100 3525 3541 
Q 3525 3141 3298 2862 
Q 3072 2584 2669 2484 
Q 3125 2378 3379 2068 
Q 3634 1759 3634 1313 
Q 3634 634 3220 271 
Q 2806 -91 2034 -91 
Q 1263 -91 848 271 
Q 434 634 434 1313 
Q 434 1759 690 2068 
Q 947 2378 1403 2484 
z
M 1172 3481 
Q 1172 3119 1398 2916 
Q 1625 2713 2034 2713 
Q 2441 2713 2670 2916 
Q 2900 3119 2900 3481 
Q 2900 3844 2670 4047 
Q 2441 4250 2034 4250 
Q 1625 4250 1398 4047 
Q 1172 3844 1172 3481 
z
" id="DejaVuSans-38" transform="scale(0.015625)"/>
       </defs>
       <use xlink:href="#DejaVuSans-38"/>
       <use x="63.623047" xlink:href="#DejaVuSans-30"/>
      </g>
     </g>
    </g>
    <g id="xtick_10">
     <g id="line2d_18">
      <g>
       <use style="stroke:#000000;stroke-width:0.8;" x="500.565625" xlink:href="#m19b49b3eeb" y="362.158125"/>
      </g>
     </g>
     <g id="text_19">
      <!-- 90 -->
      <g transform="translate(494.203125 376.756563)scale(0.1 -0.1)">
       <defs>
        <path d="M 703 97 
L 703 672 
Q 941 559 1184 500 
Q 1428 441 1663 441 
Q 2288 441 2617 861 
Q 2947 1281 2994 2138 
Q 2813 1869 2534 1725 
Q 2256 1581 1919 1581 
Q 1219 1581 811 2004 
Q 403 2428 403 3163 
Q 403 3881 828 4315 
Q 1253 4750 1959 4750 
Q 2769 4750 3195 4129 
Q 3622 3509 3622 2328 
Q 3622 1225 3098 567 
Q 2575 -91 1691 -91 
Q 1453 -91 1209 -44 
Q 966 3 703 97 
z
M 1959 2075 
Q 2384 2075 2632 2365 
Q 2881 2656 2881 3163 
Q 2881 3666 2632 3958 
Q 2384 4250 1959 4250 
Q 1534 4250 1286 3958 
Q 1038 3666 1038 3163 
Q 1038 2656 1286 2365 
Q 1534 2075 1959 2075 
z
" id="DejaVuSans-39" transform="scale(0.015625)"/>
       </defs>
       <use xlink:href="#DejaVuSans-39"/>
       <use x="63.623047" xlink:href="#DejaVuSans-30"/>
      </g>
     </g>
    </g>
    <g id="text_20">
     <!-- Time (days) -->
     <g transform="translate(247.839063 390.434688)scale(0.1 -0.1)">
      <defs>
       <path d="M -19 4666 
L 3928 4666 
L 3928 4134 
L 2272 4134 
L 2272 0 
L 1638 0 
L 1638 4134 
L -19 4134 
L -19 4666 
z
" id="DejaVuSans-54" transform="scale(0.015625)"/>
       <path d="M 2059 -325 
Q 1816 -950 1584 -1140 
Q 1353 -1331 966 -1331 
L 506 -1331 
L 506 -850 
L 844 -850 
Q 1081 -850 1212 -737 
Q 1344 -625 1503 -206 
L 1606 56 
L 191 3500 
L 800 3500 
L 1894 763 
L 2988 3500 
L 3597 3500 
L 2059 -325 
z
" id="DejaVuSans-79" transform="scale(0.015625)"/>
      </defs>
      <use xlink:href="#DejaVuSans-54"/>
      <use x="57.958984" xlink:href="#DejaVuSans-69"/>
      <use x="85.742188" xlink:href="#DejaVuSans-6d"/>
      <use x="183.154297" xlink:href="#DejaVuSans-65"/>
      <use x="244.677734" xlink:href="#DejaVuSans-20"/>
      <use x="276.464844" xlink:href="#DejaVuSans-28"/>
      <use x="315.478516" xlink:href="#DejaVuSans-64"/>
      <use x="378.955078" xlink:href="#DejaVuSans-61"/>
      <use x="440.234375" xlink:href="#DejaVuSans-79"/>
      <use x="499.414062" xlink:href="#DejaVuSans-73"/>
      <use x="551.513672" xlink:href="#DejaVuSans-29"/>
     </g>
    </g>
   </g>
   <g id="matplotlib.axis_4">
    <g id="ytick_9">
     <g id="line2d_19">
      <defs>
       <path d="M 0 0 
L -3.5 0 
" id="mc3bd1453bb" style="stroke:#000000;stroke-width:0.8;"/>
      </defs>
      <g>
       <use style="stroke:#000000;stroke-width:0.8;" x="54.165625" xlink:href="#mc3bd1453bb" y="362.158125"/>
      </g>
     </g>
     <g id="text_21">
      <!-- 0 -->
      <g transform="translate(40.803125 365.957344)scale(0.1 -0.1)">
       <use xlink:href="#DejaVuSans-30"/>
      </g>
     </g>
    </g>
    <g id="ytick_10">
     <g id="line2d_20">
      <g>
       <use style="stroke:#000000;stroke-width:0.8;" x="54.165625" xlink:href="#mc3bd1453bb" y="300.376148"/>
      </g>
     </g>
     <g id="text_22">
      <!-- 100 -->
      <g transform="translate(28.078125 304.175366)scale(0.1 -0.1)">
       <use xlink:href="#DejaVuSans-31"/>
       <use x="63.623047" xlink:href="#DejaVuSans-30"/>
       <use x="127.246094" xlink:href="#DejaVuSans-30"/>
      </g>
     </g>
    </g>
    <g id="ytick_11">
     <g id="line2d_21">
      <g>
       <use style="stroke:#000000;stroke-width:0.8;" x="54.165625" xlink:href="#mc3bd1453bb" y="238.59417"/>
      </g>
     </g>
     <g id="text_23">
      <!-- 200 -->
      <g transform="translate(28.078125 242.393389)scale(0.1 -0.1)">
       <use xlink:href="#DejaVuSans-32"/>
       <use x="63.623047" xlink:href="#DejaVuSans-30"/>
       <use x="127.246094" xlink:href="#DejaVuSans-30"/>
      </g>
     </g>
    </g>
    <g id="ytick_12">
     <g id="line2d_22">
      <g>
       <use style="stroke:#000000;stroke-width:0.8;" x="54.165625" xlink:href="#mc3bd1453bb" y="176.812193"/>
      </g>
     </g>
     <g id="text_24">
      <!-- 300 -->
      <g transform="translate(28.078125 180.611412)scale(0.1 -0.1)">
       <use xlink:href="#DejaVuSans-33"/>
       <use x="63.623047" xlink:href="#DejaVuSans-30"/>
       <use x="127.246094" xlink:href="#DejaVuSans-30"/>
      </g>
     </g>
    </g>
    <g id="ytick_13">
     <g id="line2d_23">
      <g>
       <use style="stroke:#000000;stroke-width:0.8;" x="54.165625" xlink:href="#mc3bd1453bb" y="115.030216"/>
      </g>
     </g>
     <g id="text_25">
      <!-- 400 -->
      <g transform="translate(28.078125 118.829434)scale(0.1 -0.1)">
       <use xlink:href="#DejaVuSans-34"/>
       <use x="63.623047" xlink:href="#DejaVuSans-30"/>
       <use x="127.246094" xlink:href="#DejaVuSans-30"/>
      </g>
     </g>
    </g>
    <g id="ytick_14">
     <g id="line2d_24">
      <g>
       <use style="stroke:#000000;stroke-width:0.8;" x="54.165625" xlink:href="#mc3bd1453bb" y="53.248238"/>
      </g>
     </g>
     <g id="text_26">
      <!-- 500 -->
      <g transform="translate(28.078125 57.047457)scale(0.1 -0.1)">
       <use xlink:href="#DejaVuSans-35"/>
       <use x="63.623047" xlink:href="#DejaVuSans-30"/>
       <use x="127.246094" xlink:href="#DejaVuSans-30"/>
      </g>
     </g>
    </g>
    <g id="text_27">
     <!-- Estradiol concentrations (pg/mL) -->
     <g transform="translate(21.998438 277.695938)rotate(-90)scale(0.1 -0.1)">
      <defs>
       <path d="M 2906 1791 
Q 2906 2416 2648 2759 
Q 2391 3103 1925 3103 
Q 1463 3103 1205 2759 
Q 947 2416 947 1791 
Q 947 1169 1205 825 
Q 1463 481 1925 481 
Q 2391 481 2648 825 
Q 2906 1169 2906 1791 
z
M 3481 434 
Q 3481 -459 3084 -895 
Q 2688 -1331 1869 -1331 
Q 1566 -1331 1297 -1286 
Q 1028 -1241 775 -1147 
L 775 -588 
Q 1028 -725 1275 -790 
Q 1522 -856 1778 -856 
Q 2344 -856 2625 -561 
Q 2906 -266 2906 331 
L 2906 616 
Q 2728 306 2450 153 
Q 2172 0 1784 0 
Q 1141 0 747 490 
Q 353 981 353 1791 
Q 353 2603 747 3093 
Q 1141 3584 1784 3584 
Q 2172 3584 2450 3431 
Q 2728 3278 2906 2969 
L 2906 3500 
L 3481 3500 
L 3481 434 
z
" id="DejaVuSans-67" transform="scale(0.015625)"/>
      </defs>
      <use xlink:href="#DejaVuSans-45"/>
      <use x="63.183594" xlink:href="#DejaVuSans-73"/>
      <use x="115.283203" xlink:href="#DejaVuSans-74"/>
      <use x="154.492188" xlink:href="#DejaVuSans-72"/>
      <use x="195.605469" xlink:href="#DejaVuSans-61"/>
      <use x="256.884766" xlink:href="#DejaVuSans-64"/>
      <use x="320.361328" xlink:href="#DejaVuSans-69"/>
      <use x="348.144531" xlink:href="#DejaVuSans-6f"/>
      <use x="409.326172" xlink:href="#DejaVuSans-6c"/>
      <use x="437.109375" xlink:href="#DejaVuSans-20"/>
      <use x="468.896484" xlink:href="#DejaVuSans-63"/>
      <use x="523.876953" xlink:href="#DejaVuSans-6f"/>
      <use x="585.058594" xlink:href="#DejaVuSans-6e"/>
      <use x="648.4375" xlink:href="#DejaVuSans-63"/>
      <use x="703.417969" xlink:href="#DejaVuSans-65"/>
      <use x="764.941406" xlink:href="#DejaVuSans-6e"/>
      <use x="828.320312" xlink:href="#DejaVuSans-74"/>
      <use x="867.529297" xlink:href="#DejaVuSans-72"/>
      <use x="908.642578" xlink:href="#DejaVuSans-61"/>
      <use x="969.921875" xlink:href="#DejaVuSans-74"/>
      <use x="1009.130859" xlink:href="#DejaVuSans-69"/>
      <use x="1036.914062" xlink:href="#DejaVuSans-6f"/>
      <use x="1098.095703" xlink:href="#DejaVuSans-6e"/>
      <use x="1161.474609" xlink:href="#DejaVuSans-73"/>
      <use x="1213.574219" xlink:href="#DejaVuSans-20"/>
      <use x="1245.361328" xlink:href="#DejaVuSans-28"/>
      <use x="1284.375" xlink:href="#DejaVuSans-70"/>
      <use x="1347.851562" xlink:href="#DejaVuSans-67"/>
      <use x="1411.328125" xlink:href="#DejaVuSans-2f"/>
      <use x="1445.019531" xlink:href="#DejaVuSans-6d"/>
      <use x="1542.431641" xlink:href="#DejaVuSans-4c"/>
      <use x="1598.144531" xlink:href="#DejaVuSans-29"/>
     </g>
    </g>
   </g>
   <g id="line2d_25">
    <path clip-path="url(#pc37708b3d3)" d="M 54.165625 362.158125 
L 59.125625 294.016238 
L 64.085625 248.110125 
L 69.045625 45.358125 
L 74.005625 205.073144 
L 78.965625 250.979257 
L 83.925625 284.452465 
L 88.885625 271.063182 
L 93.845625 297.841748 
L 98.805625 254.804767 
L 113.685625 225.157068 
" style="fill:none;stroke:#1f77b4;stroke-linecap:square;stroke-width:1.5;"/>
   </g>
   <g id="line2d_26">
    <path clip-path="url(#pc37708b3d3)" d="M 54.165625 362.158125 
L 59.125625 213.90313 
L 64.085625 260.08119 
L 69.045625 288.059907 
L 74.005625 287.290273 
L 78.965625 249.201739 
L 83.925625 279.108725 
L 88.885625 259.219534 
L 93.845625 276.624145 
L 98.805625 268.216726 
L 103.765625 267.45964 
L 108.725625 272.437167 
L 113.685625 243.927234 
L 118.645625 271.9185 
L 123.605625 263.485985 
" style="fill:none;stroke:#ff7f0e;stroke-linecap:square;stroke-width:1.5;"/>
   </g>
   <g id="line2d_27">
    <path clip-path="url(#pc37708b3d3)" d="M 54.165625 362.158125 
L 55.53956 303.427469 
L 56.278608 284.078151 
L 57.012697 270.374236 
L 57.741825 260.688355 
L 58.465993 253.867869 
L 59.180241 249.12212 
L 59.884569 245.844133 
L 60.578976 243.608033 
L 61.263464 242.113836 
L 61.938031 241.149409 
L 62.612599 240.557656 
L 63.311967 240.2342 
L 64.080775 240.126338 
L 64.983505 240.232477 
L 66.124318 240.603506 
L 67.691695 241.365779 
L 70.166763 242.845763 
L 76.917398 247.244762 
L 85.934778 252.98761 
L 94.619834 258.251758 
L 103.453693 263.34586 
L 112.456193 268.280353 
L 121.637255 273.059006 
L 131.011759 277.687446 
L 140.594585 282.170329 
L 150.395654 286.50931 
L 160.429846 290.707768 
L 170.71204 294.768384 
L 181.262077 298.695031 
L 192.094838 302.488955 
L 203.230161 306.152581 
L 214.692849 309.689096 
L 226.5077 313.100704 
L 238.699515 316.388768 
L 251.298055 319.555167 
L 264.33308 322.600883 
L 277.83931 325.527211 
L 291.856426 328.335529 
L 306.429068 331.027113 
L 321.606837 333.602999 
L 337.444293 336.063887 
L 354.005917 338.410756 
L 371.366109 340.644536 
L 389.604232 342.765322 
L 408.814526 344.773483 
L 429.116031 346.670166 
L 450.63771 348.455393 
L 473.538285 350.129597 
L 498.006237 351.693004 
L 500.565625 351.844313 
L 500.565625 351.844313 
" style="fill:none;stroke:#000000;stroke-linecap:square;stroke-width:3;"/>
   </g>
   <g id="patch_5">
    <path d="M 54.165625 362.158125 
L 54.165625 29.518125 
" style="fill:none;stroke:#000000;stroke-linecap:square;stroke-linejoin:miter;stroke-width:0.8;"/>
   </g>
   <g id="patch_6">
    <path d="M 500.565625 362.158125 
L 500.565625 29.518125 
" style="fill:none;stroke:#000000;stroke-linecap:square;stroke-linejoin:miter;stroke-width:0.8;"/>
   </g>
   <g id="patch_7">
    <path d="M 54.165625 362.158125 
L 500.565625 362.158125 
" style="fill:none;stroke:#000000;stroke-linecap:square;stroke-linejoin:miter;stroke-width:0.8;"/>
   </g>
   <g id="patch_8">
    <path d="M 54.165625 29.518125 
L 500.565625 29.518125 
" style="fill:none;stroke:#000000;stroke-linecap:square;stroke-linejoin:miter;stroke-width:0.8;"/>
   </g>
   <g id="text_28">
    <!-- Estradiol undecylate oil studies (scaled to 50 mg) -->
    <g transform="translate(128.605 23.518125)scale(0.12 -0.12)">
     <defs>
      <path d="M 544 1381 
L 544 3500 
L 1119 3500 
L 1119 1403 
Q 1119 906 1312 657 
Q 1506 409 1894 409 
Q 2359 409 2629 706 
Q 2900 1003 2900 1516 
L 2900 3500 
L 3475 3500 
L 3475 0 
L 2900 0 
L 2900 538 
Q 2691 219 2414 64 
Q 2138 -91 1772 -91 
Q 1169 -91 856 284 
Q 544 659 544 1381 
z
M 1991 3584 
L 1991 3584 
z
" id="DejaVuSans-75" transform="scale(0.015625)"/>
     </defs>
     <use xlink:href="#DejaVuSans-45"/>
     <use x="63.183594" xlink:href="#DejaVuSans-73"/>
     <use x="115.283203" xlink:href="#DejaVuSans-74"/>
     <use x="154.492188" xlink:href="#DejaVuSans-72"/>
     <use x="195.605469" xlink:href="#DejaVuSans-61"/>
     <use x="256.884766" xlink:href="#DejaVuSans-64"/>
     <use x="320.361328" xlink:href="#DejaVuSans-69"/>
     <use x="348.144531" xlink:href="#DejaVuSans-6f"/>
     <use x="409.326172" xlink:href="#DejaVuSans-6c"/>
     <use x="437.109375" xlink:href="#DejaVuSans-20"/>
     <use x="468.896484" xlink:href="#DejaVuSans-75"/>
     <use x="532.275391" xlink:href="#DejaVuSans-6e"/>
     <use x="595.654297" xlink:href="#DejaVuSans-64"/>
     <use x="659.130859" xlink:href="#DejaVuSans-65"/>
     <use x="720.654297" xlink:href="#DejaVuSans-63"/>
     <use x="775.634766" xlink:href="#DejaVuSans-79"/>
     <use x="834.814453" xlink:href="#DejaVuSans-6c"/>
     <use x="862.597656" xlink:href="#DejaVuSans-61"/>
     <use x="923.876953" xlink:href="#DejaVuSans-74"/>
     <use x="963.085938" xlink:href="#DejaVuSans-65"/>
     <use x="1024.609375" xlink:href="#DejaVuSans-20"/>
     <use x="1056.396484" xlink:href="#DejaVuSans-6f"/>
     <use x="1117.578125" xlink:href="#DejaVuSans-69"/>
     <use x="1145.361328" xlink:href="#DejaVuSans-6c"/>
     <use x="1173.144531" xlink:href="#DejaVuSans-20"/>
     <use x="1204.931641" xlink:href="#DejaVuSans-73"/>
     <use x="1257.03125" xlink:href="#DejaVuSans-74"/>
     <use x="1296.240234" xlink:href="#DejaVuSans-75"/>
     <use x="1359.619141" xlink:href="#DejaVuSans-64"/>
     <use x="1423.095703" xlink:href="#DejaVuSans-69"/>
     <use x="1450.878906" xlink:href="#DejaVuSans-65"/>
     <use x="1512.402344" xlink:href="#DejaVuSans-73"/>
     <use x="1564.501953" xlink:href="#DejaVuSans-20"/>
     <use x="1596.289062" xlink:href="#DejaVuSans-28"/>
     <use x="1635.302734" xlink:href="#DejaVuSans-73"/>
     <use x="1687.402344" xlink:href="#DejaVuSans-63"/>
     <use x="1742.382812" xlink:href="#DejaVuSans-61"/>
     <use x="1803.662109" xlink:href="#DejaVuSans-6c"/>
     <use x="1831.445312" xlink:href="#DejaVuSans-65"/>
     <use x="1892.96875" xlink:href="#DejaVuSans-64"/>
     <use x="1956.445312" xlink:href="#DejaVuSans-20"/>
     <use x="1988.232422" xlink:href="#DejaVuSans-74"/>
     <use x="2027.441406" xlink:href="#DejaVuSans-6f"/>
     <use x="2088.623047" xlink:href="#DejaVuSans-20"/>
     <use x="2120.410156" xlink:href="#DejaVuSans-35"/>
     <use x="2184.033203" xlink:href="#DejaVuSans-30"/>
     <use x="2247.65625" xlink:href="#DejaVuSans-20"/>
     <use x="2279.443359" xlink:href="#DejaVuSans-6d"/>
     <use x="2376.855469" xlink:href="#DejaVuSans-67"/>
     <use x="2440.332031" xlink:href="#DejaVuSans-29"/>
    </g>
   </g>
   <g id="legend_1">
    <g id="patch_9">
     <path d="M 409.03125 81.5525 
L 493.565625 81.5525 
Q 495.565625 81.5525 495.565625 79.5525 
L 495.565625 36.518125 
Q 495.565625 34.518125 493.565625 34.518125 
L 409.03125 34.518125 
Q 407.03125 34.518125 407.03125 36.518125 
L 407.03125 79.5525 
Q 407.03125 81.5525 409.03125 81.5525 
z
" style="fill:#ffffff;opacity:0.8;stroke:#cccccc;stroke-linejoin:miter;"/>
    </g>
    <g id="line2d_28">
     <path d="M 411.03125 42.616563 
L 431.03125 42.616563 
" style="fill:none;stroke:#1f77b4;stroke-linecap:square;stroke-width:1.5;"/>
    </g>
    <g id="line2d_29"/>
    <g id="text_29">
     <!-- G75 (n=3) -->
     <g transform="translate(439.03125 46.116563)scale(0.1 -0.1)">
      <defs>
       <path d="M 3809 666 
L 3809 1919 
L 2778 1919 
L 2778 2438 
L 4434 2438 
L 4434 434 
Q 4069 175 3628 42 
Q 3188 -91 2688 -91 
Q 1594 -91 976 548 
Q 359 1188 359 2328 
Q 359 3472 976 4111 
Q 1594 4750 2688 4750 
Q 3144 4750 3555 4637 
Q 3966 4525 4313 4306 
L 4313 3634 
Q 3963 3931 3569 4081 
Q 3175 4231 2741 4231 
Q 1884 4231 1454 3753 
Q 1025 3275 1025 2328 
Q 1025 1384 1454 906 
Q 1884 428 2741 428 
Q 3075 428 3337 486 
Q 3600 544 3809 666 
z
" id="DejaVuSans-47" transform="scale(0.015625)"/>
       <path d="M 678 2906 
L 4684 2906 
L 4684 2381 
L 678 2381 
L 678 2906 
z
M 678 1631 
L 4684 1631 
L 4684 1100 
L 678 1100 
L 678 1631 
z
" id="DejaVuSans-3d" transform="scale(0.015625)"/>
      </defs>
      <use xlink:href="#DejaVuSans-47"/>
      <use x="77.490234" xlink:href="#DejaVuSans-37"/>
      <use x="141.113281" xlink:href="#DejaVuSans-35"/>
      <use x="204.736328" xlink:href="#DejaVuSans-20"/>
      <use x="236.523438" xlink:href="#DejaVuSans-28"/>
      <use x="275.537109" xlink:href="#DejaVuSans-6e"/>
      <use x="338.916016" xlink:href="#DejaVuSans-3d"/>
      <use x="422.705078" xlink:href="#DejaVuSans-33"/>
      <use x="486.328125" xlink:href="#DejaVuSans-29"/>
     </g>
    </g>
    <g id="line2d_30">
     <path d="M 411.03125 57.294688 
L 431.03125 57.294688 
" style="fill:none;stroke:#ff7f0e;stroke-linecap:square;stroke-width:1.5;"/>
    </g>
    <g id="line2d_31"/>
    <g id="text_30">
     <!-- V75 (n=4) -->
     <g transform="translate(439.03125 60.794688)scale(0.1 -0.1)">
      <defs>
       <path d="M 1831 0 
L 50 4666 
L 709 4666 
L 2188 738 
L 3669 4666 
L 4325 4666 
L 2547 0 
L 1831 0 
z
" id="DejaVuSans-56" transform="scale(0.015625)"/>
      </defs>
      <use xlink:href="#DejaVuSans-56"/>
      <use x="68.408203" xlink:href="#DejaVuSans-37"/>
      <use x="132.03125" xlink:href="#DejaVuSans-35"/>
      <use x="195.654297" xlink:href="#DejaVuSans-20"/>
      <use x="227.441406" xlink:href="#DejaVuSans-28"/>
      <use x="266.455078" xlink:href="#DejaVuSans-6e"/>
      <use x="329.833984" xlink:href="#DejaVuSans-3d"/>
      <use x="413.623047" xlink:href="#DejaVuSans-34"/>
      <use x="477.246094" xlink:href="#DejaVuSans-29"/>
     </g>
    </g>
    <g id="line2d_32">
     <path d="M 411.03125 71.972813 
L 431.03125 71.972813 
" style="fill:none;stroke:#000000;stroke-linecap:square;stroke-width:3;"/>
    </g>
    <g id="line2d_33"/>
    <g id="text_31">
     <!-- Fit of data -->
     <g transform="translate(439.03125 75.472813)scale(0.1 -0.1)">
      <defs>
       <path d="M 628 4666 
L 3309 4666 
L 3309 4134 
L 1259 4134 
L 1259 2759 
L 3109 2759 
L 3109 2228 
L 1259 2228 
L 1259 0 
L 628 0 
L 628 4666 
z
" id="DejaVuSans-46" transform="scale(0.015625)"/>
       <path d="M 2375 4863 
L 2375 4384 
L 1825 4384 
Q 1516 4384 1395 4259 
Q 1275 4134 1275 3809 
L 1275 3500 
L 2222 3500 
L 2222 3053 
L 1275 3053 
L 1275 0 
L 697 0 
L 697 3053 
L 147 3053 
L 147 3500 
L 697 3500 
L 697 3744 
Q 697 4328 969 4595 
Q 1241 4863 1831 4863 
L 2375 4863 
z
" id="DejaVuSans-66" transform="scale(0.015625)"/>
      </defs>
      <use xlink:href="#DejaVuSans-46"/>
      <use x="50.269531" xlink:href="#DejaVuSans-69"/>
      <use x="78.052734" xlink:href="#DejaVuSans-74"/>
      <use x="117.261719" xlink:href="#DejaVuSans-20"/>
      <use x="149.048828" xlink:href="#DejaVuSans-6f"/>
      <use x="210.230469" xlink:href="#DejaVuSans-66"/>
      <use x="245.435547" xlink:href="#DejaVuSans-20"/>
      <use x="277.222656" xlink:href="#DejaVuSans-64"/>
      <use x="340.699219" xlink:href="#DejaVuSans-61"/>
      <use x="401.978516" xlink:href="#DejaVuSans-74"/>
      <use x="441.1875" xlink:href="#DejaVuSans-61"/>
     </g>
    </g>
   </g>
  </g>
 </g>
 <defs>
  <clipPath id="pc37708b3d3">
   <rect height="332.64" width="446.4" x="54.165625" y="29.518125"/>
  </clipPath>
 </defs>
</svg>
