<?xml version="1.0" encoding="utf-8" standalone="no"?>
<!DOCTYPE svg PUBLIC "-//W3C//DTD SVG 1.1//EN"
  "http://www.w3.org/Graphics/SVG/1.1/DTD/svg11.dtd">
<svg height="406.914375pt" version="1.1" viewBox="0 0 561.09375 406.914375" width="561.09375pt" xmlns="http://www.w3.org/2000/svg" xmlns:xlink="http://www.w3.org/1999/xlink">
 <metadata>
  <rdf:RDF xmlns:cc="http://creativecommons.org/ns#" xmlns:dc="http://purl.org/dc/elements/1.1/" xmlns:rdf="http://www.w3.org/1999/02/22-rdf-syntax-ns#">
   <cc:Work>
    <dc:type rdf:resource="http://purl.org/dc/dcmitype/StillImage"/>
    <dc:date>2021-07-15T01:52:56.400548</dc:date>
    <dc:format>image/svg+xml</dc:format>
    <dc:creator>
     <cc:Agent>
      <dc:title>Matplotlib v3.4.1, https://matplotlib.org/</dc:title>
     </cc:Agent>
    </dc:creator>
   </cc:Work>
  </rdf:RDF>
 </metadata>
 <defs>
  <style type="text/css">*{stroke-linecap:butt;stroke-linejoin:round;}</style>
 </defs>
 <g id="figure_1">
  <g id="patch_1">
   <path d="M 0 406.914375 
L 561.09375 406.914375 
L 561.09375 0 
L 0 0 
z
" style="fill:#ffffff;"/>
  </g>
  <g id="axes_1">
   <g id="patch_2">
    <path d="M 54.165625 362.158125 
L 500.565625 362.158125 
L 500.565625 29.518125 
L 54.165625 29.518125 
z
" style="fill:#ffffff;"/>
   </g>
   <g id="axes_2">
    <g id="patch_3">
     <path d="M 500.565625 362.158125 
L 500.565625 362.158125 
L 500.565625 29.518125 
L 500.565625 29.518125 
z
" style="fill:#ffffff;"/>
    </g>
    <g id="matplotlib.axis_1"/>
    <g id="matplotlib.axis_2">
     <g id="ytick_1">
      <g id="line2d_1">
       <defs>
        <path d="M 0 0 
L 3.5 0 
" id="m9bb85101da" style="stroke:#000000;stroke-width:0.8;"/>
       </defs>
       <g>
        <use style="stroke:#000000;stroke-width:0.8;" x="500.565625" xlink:href="#m9bb85101da" y="362.158125"/>
       </g>
      </g>
      <g id="text_1">
       <!-- 0 -->
       <g transform="translate(507.565625 365.957344)scale(0.1 -0.1)">
        <defs>
         <path d="M 2034 4250 
Q 1547 4250 1301 3770 
Q 1056 3291 1056 2328 
Q 1056 1369 1301 889 
Q 1547 409 2034 409 
Q 2525 409 2770 889 
Q 3016 1369 3016 2328 
Q 3016 3291 2770 3770 
Q 2525 4250 2034 4250 
z
M 2034 4750 
Q 2819 4750 3233 4129 
Q 3647 3509 3647 2328 
Q 3647 1150 3233 529 
Q 2819 -91 2034 -91 
Q 1250 -91 836 529 
Q 422 1150 422 2328 
Q 422 3509 836 4129 
Q 1250 4750 2034 4750 
z
" id="DejaVuSans-30" transform="scale(0.015625)"/>
        </defs>
        <use xlink:href="#DejaVuSans-30"/>
       </g>
      </g>
     </g>
     <g id="ytick_2">
      <g id="line2d_2">
       <g>
        <use style="stroke:#000000;stroke-width:0.8;" x="500.565625" xlink:href="#m9bb85101da" y="325.91296"/>
       </g>
      </g>
      <g id="text_2">
       <!-- 200 -->
       <g transform="translate(507.565625 329.712179)scale(0.1 -0.1)">
        <defs>
         <path d="M 1228 531 
L 3431 531 
L 3431 0 
L 469 0 
L 469 531 
Q 828 903 1448 1529 
Q 2069 2156 2228 2338 
Q 2531 2678 2651 2914 
Q 2772 3150 2772 3378 
Q 2772 3750 2511 3984 
Q 2250 4219 1831 4219 
Q 1534 4219 1204 4116 
Q 875 4013 500 3803 
L 500 4441 
Q 881 4594 1212 4672 
Q 1544 4750 1819 4750 
Q 2544 4750 2975 4387 
Q 3406 4025 3406 3419 
Q 3406 3131 3298 2873 
Q 3191 2616 2906 2266 
Q 2828 2175 2409 1742 
Q 1991 1309 1228 531 
z
" id="DejaVuSans-32" transform="scale(0.015625)"/>
        </defs>
        <use xlink:href="#DejaVuSans-32"/>
        <use x="63.623047" xlink:href="#DejaVuSans-30"/>
        <use x="127.246094" xlink:href="#DejaVuSans-30"/>
       </g>
      </g>
     </g>
     <g id="ytick_3">
      <g id="line2d_3">
       <g>
        <use style="stroke:#000000;stroke-width:0.8;" x="500.565625" xlink:href="#m9bb85101da" y="289.667795"/>
       </g>
      </g>
      <g id="text_3">
       <!-- 400 -->
       <g transform="translate(507.565625 293.467014)scale(0.1 -0.1)">
        <defs>
         <path d="M 2419 4116 
L 825 1625 
L 2419 1625 
L 2419 4116 
z
M 2253 4666 
L 3047 4666 
L 3047 1625 
L 3713 1625 
L 3713 1100 
L 3047 1100 
L 3047 0 
L 2419 0 
L 2419 1100 
L 313 1100 
L 313 1709 
L 2253 4666 
z
" id="DejaVuSans-34" transform="scale(0.015625)"/>
        </defs>
        <use xlink:href="#DejaVuSans-34"/>
        <use x="63.623047" xlink:href="#DejaVuSans-30"/>
        <use x="127.246094" xlink:href="#DejaVuSans-30"/>
       </g>
      </g>
     </g>
     <g id="ytick_4">
      <g id="line2d_4">
       <g>
        <use style="stroke:#000000;stroke-width:0.8;" x="500.565625" xlink:href="#m9bb85101da" y="253.422631"/>
       </g>
      </g>
      <g id="text_4">
       <!-- 600 -->
       <g transform="translate(507.565625 257.221849)scale(0.1 -0.1)">
        <defs>
         <path d="M 2113 2584 
Q 1688 2584 1439 2293 
Q 1191 2003 1191 1497 
Q 1191 994 1439 701 
Q 1688 409 2113 409 
Q 2538 409 2786 701 
Q 3034 994 3034 1497 
Q 3034 2003 2786 2293 
Q 2538 2584 2113 2584 
z
M 3366 4563 
L 3366 3988 
Q 3128 4100 2886 4159 
Q 2644 4219 2406 4219 
Q 1781 4219 1451 3797 
Q 1122 3375 1075 2522 
Q 1259 2794 1537 2939 
Q 1816 3084 2150 3084 
Q 2853 3084 3261 2657 
Q 3669 2231 3669 1497 
Q 3669 778 3244 343 
Q 2819 -91 2113 -91 
Q 1303 -91 875 529 
Q 447 1150 447 2328 
Q 447 3434 972 4092 
Q 1497 4750 2381 4750 
Q 2619 4750 2861 4703 
Q 3103 4656 3366 4563 
z
" id="DejaVuSans-36" transform="scale(0.015625)"/>
        </defs>
        <use xlink:href="#DejaVuSans-36"/>
        <use x="63.623047" xlink:href="#DejaVuSans-30"/>
        <use x="127.246094" xlink:href="#DejaVuSans-30"/>
       </g>
      </g>
     </g>
     <g id="ytick_5">
      <g id="line2d_5">
       <g>
        <use style="stroke:#000000;stroke-width:0.8;" x="500.565625" xlink:href="#m9bb85101da" y="217.177466"/>
       </g>
      </g>
      <g id="text_5">
       <!-- 800 -->
       <g transform="translate(507.565625 220.976685)scale(0.1 -0.1)">
        <defs>
         <path d="M 2034 2216 
Q 1584 2216 1326 1975 
Q 1069 1734 1069 1313 
Q 1069 891 1326 650 
Q 1584 409 2034 409 
Q 2484 409 2743 651 
Q 3003 894 3003 1313 
Q 3003 1734 2745 1975 
Q 2488 2216 2034 2216 
z
M 1403 2484 
Q 997 2584 770 2862 
Q 544 3141 544 3541 
Q 544 4100 942 4425 
Q 1341 4750 2034 4750 
Q 2731 4750 3128 4425 
Q 3525 4100 3525 3541 
Q 3525 3141 3298 2862 
Q 3072 2584 2669 2484 
Q 3125 2378 3379 2068 
Q 3634 1759 3634 1313 
Q 3634 634 3220 271 
Q 2806 -91 2034 -91 
Q 1263 -91 848 271 
Q 434 634 434 1313 
Q 434 1759 690 2068 
Q 947 2378 1403 2484 
z
M 1172 3481 
Q 1172 3119 1398 2916 
Q 1625 2713 2034 2713 
Q 2441 2713 2670 2916 
Q 2900 3119 2900 3481 
Q 2900 3844 2670 4047 
Q 2441 4250 2034 4250 
Q 1625 4250 1398 4047 
Q 1172 3844 1172 3481 
z
" id="DejaVuSans-38" transform="scale(0.015625)"/>
        </defs>
        <use xlink:href="#DejaVuSans-38"/>
        <use x="63.623047" xlink:href="#DejaVuSans-30"/>
        <use x="127.246094" xlink:href="#DejaVuSans-30"/>
       </g>
      </g>
     </g>
     <g id="ytick_6">
      <g id="line2d_6">
       <g>
        <use style="stroke:#000000;stroke-width:0.8;" x="500.565625" xlink:href="#m9bb85101da" y="180.932301"/>
       </g>
      </g>
      <g id="text_6">
       <!-- 1000 -->
       <g transform="translate(507.565625 184.73152)scale(0.1 -0.1)">
        <defs>
         <path d="M 794 531 
L 1825 531 
L 1825 4091 
L 703 3866 
L 703 4441 
L 1819 4666 
L 2450 4666 
L 2450 531 
L 3481 531 
L 3481 0 
L 794 0 
L 794 531 
z
" id="DejaVuSans-31" transform="scale(0.015625)"/>
        </defs>
        <use xlink:href="#DejaVuSans-31"/>
        <use x="63.623047" xlink:href="#DejaVuSans-30"/>
        <use x="127.246094" xlink:href="#DejaVuSans-30"/>
        <use x="190.869141" xlink:href="#DejaVuSans-30"/>
       </g>
      </g>
     </g>
     <g id="ytick_7">
      <g id="line2d_7">
       <g>
        <use style="stroke:#000000;stroke-width:0.8;" x="500.565625" xlink:href="#m9bb85101da" y="144.687136"/>
       </g>
      </g>
      <g id="text_7">
       <!-- 1200 -->
       <g transform="translate(507.565625 148.486355)scale(0.1 -0.1)">
        <use xlink:href="#DejaVuSans-31"/>
        <use x="63.623047" xlink:href="#DejaVuSans-32"/>
        <use x="127.246094" xlink:href="#DejaVuSans-30"/>
        <use x="190.869141" xlink:href="#DejaVuSans-30"/>
       </g>
      </g>
     </g>
     <g id="ytick_8">
      <g id="line2d_8">
       <g>
        <use style="stroke:#000000;stroke-width:0.8;" x="500.565625" xlink:href="#m9bb85101da" y="108.441971"/>
       </g>
      </g>
      <g id="text_8">
       <!-- 1400 -->
       <g transform="translate(507.565625 112.24119)scale(0.1 -0.1)">
        <use xlink:href="#DejaVuSans-31"/>
        <use x="63.623047" xlink:href="#DejaVuSans-34"/>
        <use x="127.246094" xlink:href="#DejaVuSans-30"/>
        <use x="190.869141" xlink:href="#DejaVuSans-30"/>
       </g>
      </g>
     </g>
     <g id="ytick_9">
      <g id="line2d_9">
       <g>
        <use style="stroke:#000000;stroke-width:0.8;" x="500.565625" xlink:href="#m9bb85101da" y="72.196807"/>
       </g>
      </g>
      <g id="text_9">
       <!-- 1600 -->
       <g transform="translate(507.565625 75.996025)scale(0.1 -0.1)">
        <use xlink:href="#DejaVuSans-31"/>
        <use x="63.623047" xlink:href="#DejaVuSans-36"/>
        <use x="127.246094" xlink:href="#DejaVuSans-30"/>
        <use x="190.869141" xlink:href="#DejaVuSans-30"/>
       </g>
      </g>
     </g>
     <g id="ytick_10">
      <g id="line2d_10">
       <g>
        <use style="stroke:#000000;stroke-width:0.8;" x="500.565625" xlink:href="#m9bb85101da" y="35.951642"/>
       </g>
      </g>
      <g id="text_10">
       <!-- 1800 -->
       <g transform="translate(507.565625 39.750861)scale(0.1 -0.1)">
        <use xlink:href="#DejaVuSans-31"/>
        <use x="63.623047" xlink:href="#DejaVuSans-38"/>
        <use x="127.246094" xlink:href="#DejaVuSans-30"/>
        <use x="190.869141" xlink:href="#DejaVuSans-30"/>
       </g>
      </g>
     </g>
     <g id="text_11">
      <!-- Estradiol concentrations (pmol/L) -->
      <g transform="translate(544.614063 278.970156)rotate(-90)scale(0.1 -0.1)">
       <defs>
        <path d="M 628 4666 
L 3578 4666 
L 3578 4134 
L 1259 4134 
L 1259 2753 
L 3481 2753 
L 3481 2222 
L 1259 2222 
L 1259 531 
L 3634 531 
L 3634 0 
L 628 0 
L 628 4666 
z
" id="DejaVuSans-45" transform="scale(0.015625)"/>
        <path d="M 2834 3397 
L 2834 2853 
Q 2591 2978 2328 3040 
Q 2066 3103 1784 3103 
Q 1356 3103 1142 2972 
Q 928 2841 928 2578 
Q 928 2378 1081 2264 
Q 1234 2150 1697 2047 
L 1894 2003 
Q 2506 1872 2764 1633 
Q 3022 1394 3022 966 
Q 3022 478 2636 193 
Q 2250 -91 1575 -91 
Q 1294 -91 989 -36 
Q 684 19 347 128 
L 347 722 
Q 666 556 975 473 
Q 1284 391 1588 391 
Q 1994 391 2212 530 
Q 2431 669 2431 922 
Q 2431 1156 2273 1281 
Q 2116 1406 1581 1522 
L 1381 1569 
Q 847 1681 609 1914 
Q 372 2147 372 2553 
Q 372 3047 722 3315 
Q 1072 3584 1716 3584 
Q 2034 3584 2315 3537 
Q 2597 3491 2834 3397 
z
" id="DejaVuSans-73" transform="scale(0.015625)"/>
        <path d="M 1172 4494 
L 1172 3500 
L 2356 3500 
L 2356 3053 
L 1172 3053 
L 1172 1153 
Q 1172 725 1289 603 
Q 1406 481 1766 481 
L 2356 481 
L 2356 0 
L 1766 0 
Q 1100 0 847 248 
Q 594 497 594 1153 
L 594 3053 
L 172 3053 
L 172 3500 
L 594 3500 
L 594 4494 
L 1172 4494 
z
" id="DejaVuSans-74" transform="scale(0.015625)"/>
        <path d="M 2631 2963 
Q 2534 3019 2420 3045 
Q 2306 3072 2169 3072 
Q 1681 3072 1420 2755 
Q 1159 2438 1159 1844 
L 1159 0 
L 581 0 
L 581 3500 
L 1159 3500 
L 1159 2956 
Q 1341 3275 1631 3429 
Q 1922 3584 2338 3584 
Q 2397 3584 2469 3576 
Q 2541 3569 2628 3553 
L 2631 2963 
z
" id="DejaVuSans-72" transform="scale(0.015625)"/>
        <path d="M 2194 1759 
Q 1497 1759 1228 1600 
Q 959 1441 959 1056 
Q 959 750 1161 570 
Q 1363 391 1709 391 
Q 2188 391 2477 730 
Q 2766 1069 2766 1631 
L 2766 1759 
L 2194 1759 
z
M 3341 1997 
L 3341 0 
L 2766 0 
L 2766 531 
Q 2569 213 2275 61 
Q 1981 -91 1556 -91 
Q 1019 -91 701 211 
Q 384 513 384 1019 
Q 384 1609 779 1909 
Q 1175 2209 1959 2209 
L 2766 2209 
L 2766 2266 
Q 2766 2663 2505 2880 
Q 2244 3097 1772 3097 
Q 1472 3097 1187 3025 
Q 903 2953 641 2809 
L 641 3341 
Q 956 3463 1253 3523 
Q 1550 3584 1831 3584 
Q 2591 3584 2966 3190 
Q 3341 2797 3341 1997 
z
" id="DejaVuSans-61" transform="scale(0.015625)"/>
        <path d="M 2906 2969 
L 2906 4863 
L 3481 4863 
L 3481 0 
L 2906 0 
L 2906 525 
Q 2725 213 2448 61 
Q 2172 -91 1784 -91 
Q 1150 -91 751 415 
Q 353 922 353 1747 
Q 353 2572 751 3078 
Q 1150 3584 1784 3584 
Q 2172 3584 2448 3432 
Q 2725 3281 2906 2969 
z
M 947 1747 
Q 947 1113 1208 752 
Q 1469 391 1925 391 
Q 2381 391 2643 752 
Q 2906 1113 2906 1747 
Q 2906 2381 2643 2742 
Q 2381 3103 1925 3103 
Q 1469 3103 1208 2742 
Q 947 2381 947 1747 
z
" id="DejaVuSans-64" transform="scale(0.015625)"/>
        <path d="M 603 3500 
L 1178 3500 
L 1178 0 
L 603 0 
L 603 3500 
z
M 603 4863 
L 1178 4863 
L 1178 4134 
L 603 4134 
L 603 4863 
z
" id="DejaVuSans-69" transform="scale(0.015625)"/>
        <path d="M 1959 3097 
Q 1497 3097 1228 2736 
Q 959 2375 959 1747 
Q 959 1119 1226 758 
Q 1494 397 1959 397 
Q 2419 397 2687 759 
Q 2956 1122 2956 1747 
Q 2956 2369 2687 2733 
Q 2419 3097 1959 3097 
z
M 1959 3584 
Q 2709 3584 3137 3096 
Q 3566 2609 3566 1747 
Q 3566 888 3137 398 
Q 2709 -91 1959 -91 
Q 1206 -91 779 398 
Q 353 888 353 1747 
Q 353 2609 779 3096 
Q 1206 3584 1959 3584 
z
" id="DejaVuSans-6f" transform="scale(0.015625)"/>
        <path d="M 603 4863 
L 1178 4863 
L 1178 0 
L 603 0 
L 603 4863 
z
" id="DejaVuSans-6c" transform="scale(0.015625)"/>
        <path id="DejaVuSans-20" transform="scale(0.015625)"/>
        <path d="M 3122 3366 
L 3122 2828 
Q 2878 2963 2633 3030 
Q 2388 3097 2138 3097 
Q 1578 3097 1268 2742 
Q 959 2388 959 1747 
Q 959 1106 1268 751 
Q 1578 397 2138 397 
Q 2388 397 2633 464 
Q 2878 531 3122 666 
L 3122 134 
Q 2881 22 2623 -34 
Q 2366 -91 2075 -91 
Q 1284 -91 818 406 
Q 353 903 353 1747 
Q 353 2603 823 3093 
Q 1294 3584 2113 3584 
Q 2378 3584 2631 3529 
Q 2884 3475 3122 3366 
z
" id="DejaVuSans-63" transform="scale(0.015625)"/>
        <path d="M 3513 2113 
L 3513 0 
L 2938 0 
L 2938 2094 
Q 2938 2591 2744 2837 
Q 2550 3084 2163 3084 
Q 1697 3084 1428 2787 
Q 1159 2491 1159 1978 
L 1159 0 
L 581 0 
L 581 3500 
L 1159 3500 
L 1159 2956 
Q 1366 3272 1645 3428 
Q 1925 3584 2291 3584 
Q 2894 3584 3203 3211 
Q 3513 2838 3513 2113 
z
" id="DejaVuSans-6e" transform="scale(0.015625)"/>
        <path d="M 3597 1894 
L 3597 1613 
L 953 1613 
Q 991 1019 1311 708 
Q 1631 397 2203 397 
Q 2534 397 2845 478 
Q 3156 559 3463 722 
L 3463 178 
Q 3153 47 2828 -22 
Q 2503 -91 2169 -91 
Q 1331 -91 842 396 
Q 353 884 353 1716 
Q 353 2575 817 3079 
Q 1281 3584 2069 3584 
Q 2775 3584 3186 3129 
Q 3597 2675 3597 1894 
z
M 3022 2063 
Q 3016 2534 2758 2815 
Q 2500 3097 2075 3097 
Q 1594 3097 1305 2825 
Q 1016 2553 972 2059 
L 3022 2063 
z
" id="DejaVuSans-65" transform="scale(0.015625)"/>
        <path d="M 1984 4856 
Q 1566 4138 1362 3434 
Q 1159 2731 1159 2009 
Q 1159 1288 1364 580 
Q 1569 -128 1984 -844 
L 1484 -844 
Q 1016 -109 783 600 
Q 550 1309 550 2009 
Q 550 2706 781 3412 
Q 1013 4119 1484 4856 
L 1984 4856 
z
" id="DejaVuSans-28" transform="scale(0.015625)"/>
        <path d="M 1159 525 
L 1159 -1331 
L 581 -1331 
L 581 3500 
L 1159 3500 
L 1159 2969 
Q 1341 3281 1617 3432 
Q 1894 3584 2278 3584 
Q 2916 3584 3314 3078 
Q 3713 2572 3713 1747 
Q 3713 922 3314 415 
Q 2916 -91 2278 -91 
Q 1894 -91 1617 61 
Q 1341 213 1159 525 
z
M 3116 1747 
Q 3116 2381 2855 2742 
Q 2594 3103 2138 3103 
Q 1681 3103 1420 2742 
Q 1159 2381 1159 1747 
Q 1159 1113 1420 752 
Q 1681 391 2138 391 
Q 2594 391 2855 752 
Q 3116 1113 3116 1747 
z
" id="DejaVuSans-70" transform="scale(0.015625)"/>
        <path d="M 3328 2828 
Q 3544 3216 3844 3400 
Q 4144 3584 4550 3584 
Q 5097 3584 5394 3201 
Q 5691 2819 5691 2113 
L 5691 0 
L 5113 0 
L 5113 2094 
Q 5113 2597 4934 2840 
Q 4756 3084 4391 3084 
Q 3944 3084 3684 2787 
Q 3425 2491 3425 1978 
L 3425 0 
L 2847 0 
L 2847 2094 
Q 2847 2600 2669 2842 
Q 2491 3084 2119 3084 
Q 1678 3084 1418 2786 
Q 1159 2488 1159 1978 
L 1159 0 
L 581 0 
L 581 3500 
L 1159 3500 
L 1159 2956 
Q 1356 3278 1631 3431 
Q 1906 3584 2284 3584 
Q 2666 3584 2933 3390 
Q 3200 3197 3328 2828 
z
" id="DejaVuSans-6d" transform="scale(0.015625)"/>
        <path d="M 1625 4666 
L 2156 4666 
L 531 -594 
L 0 -594 
L 1625 4666 
z
" id="DejaVuSans-2f" transform="scale(0.015625)"/>
        <path d="M 628 4666 
L 1259 4666 
L 1259 531 
L 3531 531 
L 3531 0 
L 628 0 
L 628 4666 
z
" id="DejaVuSans-4c" transform="scale(0.015625)"/>
        <path d="M 513 4856 
L 1013 4856 
Q 1481 4119 1714 3412 
Q 1947 2706 1947 2009 
Q 1947 1309 1714 600 
Q 1481 -109 1013 -844 
L 513 -844 
Q 928 -128 1133 580 
Q 1338 1288 1338 2009 
Q 1338 2731 1133 3434 
Q 928 4138 513 4856 
z
" id="DejaVuSans-29" transform="scale(0.015625)"/>
       </defs>
       <use xlink:href="#DejaVuSans-45"/>
       <use x="63.183594" xlink:href="#DejaVuSans-73"/>
       <use x="115.283203" xlink:href="#DejaVuSans-74"/>
       <use x="154.492188" xlink:href="#DejaVuSans-72"/>
       <use x="195.605469" xlink:href="#DejaVuSans-61"/>
       <use x="256.884766" xlink:href="#DejaVuSans-64"/>
       <use x="320.361328" xlink:href="#DejaVuSans-69"/>
       <use x="348.144531" xlink:href="#DejaVuSans-6f"/>
       <use x="409.326172" xlink:href="#DejaVuSans-6c"/>
       <use x="437.109375" xlink:href="#DejaVuSans-20"/>
       <use x="468.896484" xlink:href="#DejaVuSans-63"/>
       <use x="523.876953" xlink:href="#DejaVuSans-6f"/>
       <use x="585.058594" xlink:href="#DejaVuSans-6e"/>
       <use x="648.4375" xlink:href="#DejaVuSans-63"/>
       <use x="703.417969" xlink:href="#DejaVuSans-65"/>
       <use x="764.941406" xlink:href="#DejaVuSans-6e"/>
       <use x="828.320312" xlink:href="#DejaVuSans-74"/>
       <use x="867.529297" xlink:href="#DejaVuSans-72"/>
       <use x="908.642578" xlink:href="#DejaVuSans-61"/>
       <use x="969.921875" xlink:href="#DejaVuSans-74"/>
       <use x="1009.130859" xlink:href="#DejaVuSans-69"/>
       <use x="1036.914062" xlink:href="#DejaVuSans-6f"/>
       <use x="1098.095703" xlink:href="#DejaVuSans-6e"/>
       <use x="1161.474609" xlink:href="#DejaVuSans-73"/>
       <use x="1213.574219" xlink:href="#DejaVuSans-20"/>
       <use x="1245.361328" xlink:href="#DejaVuSans-28"/>
       <use x="1284.375" xlink:href="#DejaVuSans-70"/>
       <use x="1347.851562" xlink:href="#DejaVuSans-6d"/>
       <use x="1445.263672" xlink:href="#DejaVuSans-6f"/>
       <use x="1506.445312" xlink:href="#DejaVuSans-6c"/>
       <use x="1534.228516" xlink:href="#DejaVuSans-2f"/>
       <use x="1567.919922" xlink:href="#DejaVuSans-4c"/>
       <use x="1623.632812" xlink:href="#DejaVuSans-29"/>
      </g>
     </g>
    </g>
    <g id="patch_4">
     <path d="M 500.565625 362.158125 
L 500.565625 29.518125 
" style="fill:none;stroke:#000000;stroke-linecap:square;stroke-linejoin:miter;stroke-width:0.8;"/>
    </g>
   </g>
   <g id="matplotlib.axis_3">
    <g id="xtick_1">
     <g id="line2d_11">
      <defs>
       <path d="M 0 0 
L 0 3.5 
" id="mba192505ea" style="stroke:#000000;stroke-width:0.8;"/>
      </defs>
      <g>
       <use style="stroke:#000000;stroke-width:0.8;" x="54.165625" xlink:href="#mba192505ea" y="362.158125"/>
      </g>
     </g>
     <g id="text_12">
      <!-- 0 -->
      <g transform="translate(50.984375 376.756563)scale(0.1 -0.1)">
       <use xlink:href="#DejaVuSans-30"/>
      </g>
     </g>
    </g>
    <g id="xtick_2">
     <g id="line2d_12">
      <g>
       <use style="stroke:#000000;stroke-width:0.8;" x="128.565625" xlink:href="#mba192505ea" y="362.158125"/>
      </g>
     </g>
     <g id="text_13">
      <!-- 7 -->
      <g transform="translate(125.384375 376.756563)scale(0.1 -0.1)">
       <defs>
        <path d="M 525 4666 
L 3525 4666 
L 3525 4397 
L 1831 0 
L 1172 0 
L 2766 4134 
L 525 4134 
L 525 4666 
z
" id="DejaVuSans-37" transform="scale(0.015625)"/>
       </defs>
       <use xlink:href="#DejaVuSans-37"/>
      </g>
     </g>
    </g>
    <g id="xtick_3">
     <g id="line2d_13">
      <g>
       <use style="stroke:#000000;stroke-width:0.8;" x="202.965625" xlink:href="#mba192505ea" y="362.158125"/>
      </g>
     </g>
     <g id="text_14">
      <!-- 14 -->
      <g transform="translate(196.603125 376.756563)scale(0.1 -0.1)">
       <use xlink:href="#DejaVuSans-31"/>
       <use x="63.623047" xlink:href="#DejaVuSans-34"/>
      </g>
     </g>
    </g>
    <g id="xtick_4">
     <g id="line2d_14">
      <g>
       <use style="stroke:#000000;stroke-width:0.8;" x="277.365625" xlink:href="#mba192505ea" y="362.158125"/>
      </g>
     </g>
     <g id="text_15">
      <!-- 21 -->
      <g transform="translate(271.003125 376.756563)scale(0.1 -0.1)">
       <use xlink:href="#DejaVuSans-32"/>
       <use x="63.623047" xlink:href="#DejaVuSans-31"/>
      </g>
     </g>
    </g>
    <g id="xtick_5">
     <g id="line2d_15">
      <g>
       <use style="stroke:#000000;stroke-width:0.8;" x="351.765625" xlink:href="#mba192505ea" y="362.158125"/>
      </g>
     </g>
     <g id="text_16">
      <!-- 28 -->
      <g transform="translate(345.403125 376.756563)scale(0.1 -0.1)">
       <use xlink:href="#DejaVuSans-32"/>
       <use x="63.623047" xlink:href="#DejaVuSans-38"/>
      </g>
     </g>
    </g>
    <g id="xtick_6">
     <g id="line2d_16">
      <g>
       <use style="stroke:#000000;stroke-width:0.8;" x="426.165625" xlink:href="#mba192505ea" y="362.158125"/>
      </g>
     </g>
     <g id="text_17">
      <!-- 35 -->
      <g transform="translate(419.803125 376.756563)scale(0.1 -0.1)">
       <defs>
        <path d="M 2597 2516 
Q 3050 2419 3304 2112 
Q 3559 1806 3559 1356 
Q 3559 666 3084 287 
Q 2609 -91 1734 -91 
Q 1441 -91 1130 -33 
Q 819 25 488 141 
L 488 750 
Q 750 597 1062 519 
Q 1375 441 1716 441 
Q 2309 441 2620 675 
Q 2931 909 2931 1356 
Q 2931 1769 2642 2001 
Q 2353 2234 1838 2234 
L 1294 2234 
L 1294 2753 
L 1863 2753 
Q 2328 2753 2575 2939 
Q 2822 3125 2822 3475 
Q 2822 3834 2567 4026 
Q 2313 4219 1838 4219 
Q 1578 4219 1281 4162 
Q 984 4106 628 3988 
L 628 4550 
Q 988 4650 1302 4700 
Q 1616 4750 1894 4750 
Q 2613 4750 3031 4423 
Q 3450 4097 3450 3541 
Q 3450 3153 3228 2886 
Q 3006 2619 2597 2516 
z
" id="DejaVuSans-33" transform="scale(0.015625)"/>
        <path d="M 691 4666 
L 3169 4666 
L 3169 4134 
L 1269 4134 
L 1269 2991 
Q 1406 3038 1543 3061 
Q 1681 3084 1819 3084 
Q 2600 3084 3056 2656 
Q 3513 2228 3513 1497 
Q 3513 744 3044 326 
Q 2575 -91 1722 -91 
Q 1428 -91 1123 -41 
Q 819 9 494 109 
L 494 744 
Q 775 591 1075 516 
Q 1375 441 1709 441 
Q 2250 441 2565 725 
Q 2881 1009 2881 1497 
Q 2881 1984 2565 2268 
Q 2250 2553 1709 2553 
Q 1456 2553 1204 2497 
Q 953 2441 691 2322 
L 691 4666 
z
" id="DejaVuSans-35" transform="scale(0.015625)"/>
       </defs>
       <use xlink:href="#DejaVuSans-33"/>
       <use x="63.623047" xlink:href="#DejaVuSans-35"/>
      </g>
     </g>
    </g>
    <g id="xtick_7">
     <g id="line2d_17">
      <g>
       <use style="stroke:#000000;stroke-width:0.8;" x="500.565625" xlink:href="#mba192505ea" y="362.158125"/>
      </g>
     </g>
     <g id="text_18">
      <!-- 42 -->
      <g transform="translate(494.203125 376.756563)scale(0.1 -0.1)">
       <use xlink:href="#DejaVuSans-34"/>
       <use x="63.623047" xlink:href="#DejaVuSans-32"/>
      </g>
     </g>
    </g>
    <g id="text_19">
     <!-- Time (days) -->
     <g transform="translate(247.839063 390.434688)scale(0.1 -0.1)">
      <defs>
       <path d="M -19 4666 
L 3928 4666 
L 3928 4134 
L 2272 4134 
L 2272 0 
L 1638 0 
L 1638 4134 
L -19 4134 
L -19 4666 
z
" id="DejaVuSans-54" transform="scale(0.015625)"/>
       <path d="M 2059 -325 
Q 1816 -950 1584 -1140 
Q 1353 -1331 966 -1331 
L 506 -1331 
L 506 -850 
L 844 -850 
Q 1081 -850 1212 -737 
Q 1344 -625 1503 -206 
L 1606 56 
L 191 3500 
L 800 3500 
L 1894 763 
L 2988 3500 
L 3597 3500 
L 2059 -325 
z
" id="DejaVuSans-79" transform="scale(0.015625)"/>
      </defs>
      <use xlink:href="#DejaVuSans-54"/>
      <use x="57.958984" xlink:href="#DejaVuSans-69"/>
      <use x="85.742188" xlink:href="#DejaVuSans-6d"/>
      <use x="183.154297" xlink:href="#DejaVuSans-65"/>
      <use x="244.677734" xlink:href="#DejaVuSans-20"/>
      <use x="276.464844" xlink:href="#DejaVuSans-28"/>
      <use x="315.478516" xlink:href="#DejaVuSans-64"/>
      <use x="378.955078" xlink:href="#DejaVuSans-61"/>
      <use x="440.234375" xlink:href="#DejaVuSans-79"/>
      <use x="499.414062" xlink:href="#DejaVuSans-73"/>
      <use x="551.513672" xlink:href="#DejaVuSans-29"/>
     </g>
    </g>
   </g>
   <g id="matplotlib.axis_4">
    <g id="ytick_11">
     <g id="line2d_18">
      <defs>
       <path d="M 0 0 
L -3.5 0 
" id="m08076ebbca" style="stroke:#000000;stroke-width:0.8;"/>
      </defs>
      <g>
       <use style="stroke:#000000;stroke-width:0.8;" x="54.165625" xlink:href="#m08076ebbca" y="362.158125"/>
      </g>
     </g>
     <g id="text_20">
      <!-- 0 -->
      <g transform="translate(40.803125 365.957344)scale(0.1 -0.1)">
       <use xlink:href="#DejaVuSans-30"/>
      </g>
     </g>
    </g>
    <g id="ytick_12">
     <g id="line2d_19">
      <g>
       <use style="stroke:#000000;stroke-width:0.8;" x="54.165625" xlink:href="#m08076ebbca" y="328.894125"/>
      </g>
     </g>
     <g id="text_21">
      <!-- 50 -->
      <g transform="translate(34.440625 332.693344)scale(0.1 -0.1)">
       <use xlink:href="#DejaVuSans-35"/>
       <use x="63.623047" xlink:href="#DejaVuSans-30"/>
      </g>
     </g>
    </g>
    <g id="ytick_13">
     <g id="line2d_20">
      <g>
       <use style="stroke:#000000;stroke-width:0.8;" x="54.165625" xlink:href="#m08076ebbca" y="295.630125"/>
      </g>
     </g>
     <g id="text_22">
      <!-- 100 -->
      <g transform="translate(28.078125 299.429344)scale(0.1 -0.1)">
       <use xlink:href="#DejaVuSans-31"/>
       <use x="63.623047" xlink:href="#DejaVuSans-30"/>
       <use x="127.246094" xlink:href="#DejaVuSans-30"/>
      </g>
     </g>
    </g>
    <g id="ytick_14">
     <g id="line2d_21">
      <g>
       <use style="stroke:#000000;stroke-width:0.8;" x="54.165625" xlink:href="#m08076ebbca" y="262.366125"/>
      </g>
     </g>
     <g id="text_23">
      <!-- 150 -->
      <g transform="translate(28.078125 266.165344)scale(0.1 -0.1)">
       <use xlink:href="#DejaVuSans-31"/>
       <use x="63.623047" xlink:href="#DejaVuSans-35"/>
       <use x="127.246094" xlink:href="#DejaVuSans-30"/>
      </g>
     </g>
    </g>
    <g id="ytick_15">
     <g id="line2d_22">
      <g>
       <use style="stroke:#000000;stroke-width:0.8;" x="54.165625" xlink:href="#m08076ebbca" y="229.102125"/>
      </g>
     </g>
     <g id="text_24">
      <!-- 200 -->
      <g transform="translate(28.078125 232.901344)scale(0.1 -0.1)">
       <use xlink:href="#DejaVuSans-32"/>
       <use x="63.623047" xlink:href="#DejaVuSans-30"/>
       <use x="127.246094" xlink:href="#DejaVuSans-30"/>
      </g>
     </g>
    </g>
    <g id="ytick_16">
     <g id="line2d_23">
      <g>
       <use style="stroke:#000000;stroke-width:0.8;" x="54.165625" xlink:href="#m08076ebbca" y="195.838125"/>
      </g>
     </g>
     <g id="text_25">
      <!-- 250 -->
      <g transform="translate(28.078125 199.637344)scale(0.1 -0.1)">
       <use xlink:href="#DejaVuSans-32"/>
       <use x="63.623047" xlink:href="#DejaVuSans-35"/>
       <use x="127.246094" xlink:href="#DejaVuSans-30"/>
      </g>
     </g>
    </g>
    <g id="ytick_17">
     <g id="line2d_24">
      <g>
       <use style="stroke:#000000;stroke-width:0.8;" x="54.165625" xlink:href="#m08076ebbca" y="162.574125"/>
      </g>
     </g>
     <g id="text_26">
      <!-- 300 -->
      <g transform="translate(28.078125 166.373344)scale(0.1 -0.1)">
       <use xlink:href="#DejaVuSans-33"/>
       <use x="63.623047" xlink:href="#DejaVuSans-30"/>
       <use x="127.246094" xlink:href="#DejaVuSans-30"/>
      </g>
     </g>
    </g>
    <g id="ytick_18">
     <g id="line2d_25">
      <g>
       <use style="stroke:#000000;stroke-width:0.8;" x="54.165625" xlink:href="#m08076ebbca" y="129.310125"/>
      </g>
     </g>
     <g id="text_27">
      <!-- 350 -->
      <g transform="translate(28.078125 133.109344)scale(0.1 -0.1)">
       <use xlink:href="#DejaVuSans-33"/>
       <use x="63.623047" xlink:href="#DejaVuSans-35"/>
       <use x="127.246094" xlink:href="#DejaVuSans-30"/>
      </g>
     </g>
    </g>
    <g id="ytick_19">
     <g id="line2d_26">
      <g>
       <use style="stroke:#000000;stroke-width:0.8;" x="54.165625" xlink:href="#m08076ebbca" y="96.046125"/>
      </g>
     </g>
     <g id="text_28">
      <!-- 400 -->
      <g transform="translate(28.078125 99.845344)scale(0.1 -0.1)">
       <use xlink:href="#DejaVuSans-34"/>
       <use x="63.623047" xlink:href="#DejaVuSans-30"/>
       <use x="127.246094" xlink:href="#DejaVuSans-30"/>
      </g>
     </g>
    </g>
    <g id="ytick_20">
     <g id="line2d_27">
      <g>
       <use style="stroke:#000000;stroke-width:0.8;" x="54.165625" xlink:href="#m08076ebbca" y="62.782125"/>
      </g>
     </g>
     <g id="text_29">
      <!-- 450 -->
      <g transform="translate(28.078125 66.581344)scale(0.1 -0.1)">
       <use xlink:href="#DejaVuSans-34"/>
       <use x="63.623047" xlink:href="#DejaVuSans-35"/>
       <use x="127.246094" xlink:href="#DejaVuSans-30"/>
      </g>
     </g>
    </g>
    <g id="ytick_21">
     <g id="line2d_28">
      <g>
       <use style="stroke:#000000;stroke-width:0.8;" x="54.165625" xlink:href="#m08076ebbca" y="29.518125"/>
      </g>
     </g>
     <g id="text_30">
      <!-- 500 -->
      <g transform="translate(28.078125 33.317344)scale(0.1 -0.1)">
       <use xlink:href="#DejaVuSans-35"/>
       <use x="63.623047" xlink:href="#DejaVuSans-30"/>
       <use x="127.246094" xlink:href="#DejaVuSans-30"/>
      </g>
     </g>
    </g>
    <g id="text_31">
     <!-- Estradiol concentrations (pg/mL) -->
     <g transform="translate(21.998438 277.695938)rotate(-90)scale(0.1 -0.1)">
      <defs>
       <path d="M 2906 1791 
Q 2906 2416 2648 2759 
Q 2391 3103 1925 3103 
Q 1463 3103 1205 2759 
Q 947 2416 947 1791 
Q 947 1169 1205 825 
Q 1463 481 1925 481 
Q 2391 481 2648 825 
Q 2906 1169 2906 1791 
z
M 3481 434 
Q 3481 -459 3084 -895 
Q 2688 -1331 1869 -1331 
Q 1566 -1331 1297 -1286 
Q 1028 -1241 775 -1147 
L 775 -588 
Q 1028 -725 1275 -790 
Q 1522 -856 1778 -856 
Q 2344 -856 2625 -561 
Q 2906 -266 2906 331 
L 2906 616 
Q 2728 306 2450 153 
Q 2172 0 1784 0 
Q 1141 0 747 490 
Q 353 981 353 1791 
Q 353 2603 747 3093 
Q 1141 3584 1784 3584 
Q 2172 3584 2450 3431 
Q 2728 3278 2906 2969 
L 2906 3500 
L 3481 3500 
L 3481 434 
z
" id="DejaVuSans-67" transform="scale(0.015625)"/>
      </defs>
      <use xlink:href="#DejaVuSans-45"/>
      <use x="63.183594" xlink:href="#DejaVuSans-73"/>
      <use x="115.283203" xlink:href="#DejaVuSans-74"/>
      <use x="154.492188" xlink:href="#DejaVuSans-72"/>
      <use x="195.605469" xlink:href="#DejaVuSans-61"/>
      <use x="256.884766" xlink:href="#DejaVuSans-64"/>
      <use x="320.361328" xlink:href="#DejaVuSans-69"/>
      <use x="348.144531" xlink:href="#DejaVuSans-6f"/>
      <use x="409.326172" xlink:href="#DejaVuSans-6c"/>
      <use x="437.109375" xlink:href="#DejaVuSans-20"/>
      <use x="468.896484" xlink:href="#DejaVuSans-63"/>
      <use x="523.876953" xlink:href="#DejaVuSans-6f"/>
      <use x="585.058594" xlink:href="#DejaVuSans-6e"/>
      <use x="648.4375" xlink:href="#DejaVuSans-63"/>
      <use x="703.417969" xlink:href="#DejaVuSans-65"/>
      <use x="764.941406" xlink:href="#DejaVuSans-6e"/>
      <use x="828.320312" xlink:href="#DejaVuSans-74"/>
      <use x="867.529297" xlink:href="#DejaVuSans-72"/>
      <use x="908.642578" xlink:href="#DejaVuSans-61"/>
      <use x="969.921875" xlink:href="#DejaVuSans-74"/>
      <use x="1009.130859" xlink:href="#DejaVuSans-69"/>
      <use x="1036.914062" xlink:href="#DejaVuSans-6f"/>
      <use x="1098.095703" xlink:href="#DejaVuSans-6e"/>
      <use x="1161.474609" xlink:href="#DejaVuSans-73"/>
      <use x="1213.574219" xlink:href="#DejaVuSans-20"/>
      <use x="1245.361328" xlink:href="#DejaVuSans-28"/>
      <use x="1284.375" xlink:href="#DejaVuSans-70"/>
      <use x="1347.851562" xlink:href="#DejaVuSans-67"/>
      <use x="1411.328125" xlink:href="#DejaVuSans-2f"/>
      <use x="1445.019531" xlink:href="#DejaVuSans-6d"/>
      <use x="1542.431641" xlink:href="#DejaVuSans-4c"/>
      <use x="1598.144531" xlink:href="#DejaVuSans-29"/>
     </g>
    </g>
   </g>
   <g id="line2d_29">
    <path clip-path="url(#p119da9b6c9)" d="M 54.165625 362.158125 
L 54.608482 362.000888 
L 55.051339 361.562631 
L 55.641815 360.619461 
L 56.379911 358.993013 
L 57.413244 356.143652 
L 59.332292 350.009925 
L 62.137054 341.133517 
L 63.908482 336.306306 
L 65.384673 332.897831 
L 66.860863 330.064272 
L 68.189435 327.987201 
L 69.518006 326.326637 
L 70.846577 325.044796 
L 72.02753 324.190583 
L 73.356101 323.513518 
L 74.684673 323.099472 
L 76.013244 322.91192 
L 77.489435 322.928684 
L 79.113244 323.173896 
L 81.032292 323.707739 
L 83.246577 324.571971 
L 86.051339 325.930287 
L 89.889435 328.065681 
L 106.12753 337.381557 
L 111.441815 340.03523 
L 116.608482 342.370428 
L 121.922768 344.529875 
L 127.384673 346.511567 
L 128.860863 346.93745 
L 129.30372 346.733562 
L 129.746577 346.278406 
L 130.337054 345.352737 
L 131.222768 343.450827 
L 132.40372 340.307009 
L 137.718006 325.351106 
L 139.194196 322.110882 
L 140.522768 319.675741 
L 141.851339 317.69015 
L 143.032292 316.283175 
L 144.213244 315.188401 
L 145.394196 314.378635 
L 146.575149 313.825449 
L 147.756101 313.500563 
L 149.084673 313.374116 
L 150.413244 313.465918 
L 151.889434 313.783687 
L 153.660863 314.409945 
L 155.72753 315.402859 
L 158.237054 316.881204 
L 161.484673 319.073023 
L 167.389434 323.386139 
L 174.622768 328.593374 
L 179.789434 332.034909 
L 184.660863 335.01224 
L 189.532292 337.72383 
L 194.40372 340.179634 
L 199.422768 342.460228 
L 203.113244 343.969601 
L 203.556101 343.888518 
L 203.998958 343.540638 
L 204.589434 342.736928 
L 205.32753 341.309953 
L 206.360863 338.775704 
L 208.279911 333.297215 
L 210.937053 325.824901 
L 212.560863 321.905423 
L 214.037053 318.909885 
L 215.365625 316.693589 
L 216.694196 314.918329 
L 217.875149 313.687895 
L 219.056101 312.758279 
L 220.237053 312.101661 
L 221.418006 311.689574 
L 222.598958 311.49408 
L 223.92753 311.49995 
L 225.40372 311.745756 
L 227.02753 312.256966 
L 228.946577 313.11945 
L 231.160863 314.375479 
L 233.965625 316.239011 
L 238.098958 319.287628 
L 249.908482 328.138533 
L 254.92753 331.549826 
L 259.651339 334.49553 
L 264.375149 337.182617 
L 269.246577 339.694499 
L 274.265625 342.026338 
L 277.513244 343.388849 
L 277.956101 343.313383 
L 278.398958 342.971065 
L 278.989434 342.174688 
L 279.72753 340.756746 
L 280.760863 338.2349 
L 282.532292 333.210643 
L 285.337053 325.335767 
L 286.960863 321.433411 
L 288.437053 318.452918 
L 289.765625 316.249752 
L 291.094196 314.487245 
L 292.275149 313.267839 
L 293.456101 312.348969 
L 294.637053 311.702822 
L 295.818006 311.300938 
L 296.998958 311.115386 
L 298.32753 311.132137 
L 299.80372 311.389667 
L 301.42753 311.913342 
L 303.346577 312.789996 
L 305.560863 314.06165 
L 308.365625 315.943916 
L 312.498958 319.01812 
L 324.160863 327.825376 
L 329.179911 331.266676 
L 333.90372 334.238933 
L 338.62753 336.950569 
L 343.498958 339.485582 
L 348.518006 341.838996 
L 351.913244 343.275362 
L 352.356101 343.200994 
L 352.798958 342.859763 
L 353.389434 342.064818 
L 354.12753 340.648641 
L 355.160863 338.129219 
L 356.932291 333.108991 
L 359.737053 325.240183 
L 361.360863 321.341173 
L 362.837053 318.36362 
L 364.165625 316.16302 
L 365.494196 314.403005 
L 366.675149 313.185754 
L 367.856101 312.268984 
L 369.037053 311.624884 
L 370.218006 311.224993 
L 371.398958 311.041384 
L 372.72753 311.060261 
L 374.20372 311.320082 
L 375.82753 311.846193 
L 377.746577 312.725616 
L 379.960863 314.000324 
L 382.765625 315.88625 
L 386.898958 318.965454 
L 398.560863 327.784601 
L 403.57991 331.230154 
L 408.30372 334.206007 
L 413.02753 336.920885 
L 417.898958 339.458907 
L 422.918006 341.815103 
L 426.313244 343.253185 
L 426.756101 343.179031 
L 427.198958 342.838013 
L 427.789434 342.043348 
L 428.52753 340.627516 
L 429.560863 338.108568 
L 431.332291 333.089127 
L 434.137053 325.221505 
L 435.760863 321.323149 
L 437.237053 318.346171 
L 438.565625 316.146072 
L 439.894196 314.386544 
L 441.075149 313.169714 
L 442.256101 312.253353 
L 443.437053 311.609653 
L 444.618006 311.210152 
L 445.798958 311.026923 
L 447.12753 311.046215 
L 448.60372 311.306484 
L 450.22753 311.833071 
L 452.146577 312.713036 
L 454.360863 313.98834 
L 457.165625 315.874981 
L 461.298958 318.955163 
L 472.960863 327.776633 
L 477.97991 331.223017 
L 482.70372 334.199573 
L 487.427529 336.915084 
L 492.298958 339.453695 
L 497.318006 341.810434 
L 500.565625 343.205838 
L 500.565625 343.205838 
" style="fill:none;stroke:#1f77b4;stroke-linecap:square;stroke-width:1.5;"/>
   </g>
   <g id="line2d_30">
    <path clip-path="url(#p119da9b6c9)" d="M 54.165625 362.158125 
L 54.460863 362.015779 
L 54.756101 361.609173 
L 55.198958 360.56621 
L 55.789435 358.500995 
L 56.52753 355.08297 
L 57.708482 348.336507 
L 60.070387 333.014192 
L 62.284673 319.247413 
L 63.908482 310.454486 
L 65.384673 303.637536 
L 66.713244 298.486293 
L 68.041815 294.235426 
L 69.222768 291.164926 
L 70.40372 288.706826 
L 71.437054 287.014041 
L 72.470387 285.708477 
L 73.50372 284.752311 
L 74.537054 284.109174 
L 75.570387 283.744675 
L 76.60372 283.626703 
L 77.637054 283.725589 
L 78.818006 284.069383 
L 80.146577 284.706878 
L 81.622768 285.672817 
L 83.394196 287.116084 
L 85.460863 289.093209 
L 88.265625 292.113903 
L 92.546577 297.104149 
L 101.40372 307.472944 
L 105.979911 312.450323 
L 110.260863 316.777181 
L 114.394196 320.639606 
L 118.52753 324.197446 
L 122.660863 327.464452 
L 126.941815 330.560577 
L 128.713244 331.724879 
L 129.008482 331.642333 
L 129.30372 331.308998 
L 129.746577 330.398687 
L 130.337054 328.547349 
L 131.075149 325.445883 
L 132.256101 319.291749 
L 134.765625 304.470271 
L 136.832292 292.94972 
L 138.456101 285.164805 
L 139.784673 279.786175 
L 141.113244 275.319663 
L 142.294196 272.090535 
L 143.475149 269.5168 
L 144.508482 267.762558 
L 145.541815 266.433956 
L 146.575149 265.492773 
L 147.460863 264.965664 
L 148.346577 264.672206 
L 149.232292 264.590222 
L 150.265625 264.733875 
L 151.298958 265.105599 
L 152.479911 265.772942 
L 153.808482 266.786663 
L 155.432292 268.335162 
L 157.351339 270.505861 
L 159.713244 273.538528 
L 162.960863 278.101885 
L 176.984673 298.244394 
L 181.118006 303.588575 
L 185.10372 308.381189 
L 188.941815 312.660001 
L 192.779911 316.618858 
L 196.765625 320.408211 
L 200.751339 323.890158 
L 203.113244 325.781077 
L 203.408482 325.736915 
L 203.70372 325.441716 
L 204.146577 324.588147 
L 204.737053 322.811613 
L 205.475149 319.802299 
L 206.508482 314.599279 
L 208.575149 302.703648 
L 210.937053 289.491677 
L 212.560863 281.652721 
L 213.889434 276.210169 
L 215.218006 271.677195 
L 216.398958 268.393879 
L 217.579911 265.774379 
L 218.613244 263.988613 
L 219.646577 262.637126 
L 220.679911 261.681864 
L 221.565625 261.149581 
L 222.451339 260.85707 
L 223.337053 260.781836 
L 224.370387 260.940201 
L 225.40372 261.333387 
L 226.584673 262.03267 
L 227.913244 263.090595 
L 229.537053 264.703122 
L 231.456101 266.960777 
L 233.818006 270.112691 
L 237.065625 274.853559 
L 251.089434 295.774432 
L 255.222768 301.325024 
L 259.208482 306.302784 
L 263.046577 310.746917 
L 266.884672 314.858752 
L 270.722768 318.654606 
L 274.708482 322.282546 
L 277.513244 324.619574 
L 277.808482 324.582912 
L 278.10372 324.295166 
L 278.546577 323.452685 
L 279.137053 321.690769 
L 279.875149 318.699462 
L 280.908482 313.521169 
L 282.975149 301.673339 
L 285.337053 288.513409 
L 286.960863 280.708697 
L 288.289434 275.29327 
L 289.618006 270.786641 
L 290.798958 267.526108 
L 291.979911 264.928807 
L 293.013244 263.161999 
L 294.046577 261.829045 
L 294.932292 261.002993 
L 295.818006 260.44375 
L 296.70372 260.127827 
L 297.589434 260.032572 
L 298.622768 260.171608 
L 299.656101 260.549494 
L 300.837053 261.235777 
L 302.165625 262.284187 
L 303.641815 263.732509 
L 305.413244 265.781739 
L 307.62753 268.694595 
L 310.579911 272.967228 
L 316.189434 281.57332 
L 322.241815 290.717808 
L 326.670387 297.004737 
L 330.656101 302.289384 
L 334.494196 307.025876 
L 338.332291 311.418993 
L 342.170387 315.481017 
L 346.008482 319.229317 
L 349.994196 322.810809 
L 351.913244 324.3926 
L 352.208482 324.357404 
L 352.50372 324.071114 
L 352.946577 323.2308 
L 353.537053 321.47174 
L 354.275149 318.483953 
L 355.308482 313.310491 
L 357.375149 301.472002 
L 359.737053 288.322241 
L 361.360863 280.524221 
L 362.689434 275.114095 
L 364.018006 270.612615 
L 365.198958 267.356533 
L 366.379911 264.76357 
L 367.413244 263.000467 
L 368.446577 261.671134 
L 369.332291 260.848122 
L 370.218006 260.29186 
L 371.10372 259.978861 
L 371.989434 259.886473 
L 373.022768 260.028785 
L 374.056101 260.409872 
L 375.237053 261.099727 
L 376.565625 262.152047 
L 378.041815 263.60458 
L 379.813244 265.658688 
L 382.02753 268.577381 
L 384.979911 272.857367 
L 390.589434 281.476183 
L 396.641815 290.632751 
L 401.070387 296.927558 
L 405.056101 302.218668 
L 408.894196 306.960872 
L 412.732291 311.35924 
L 416.570387 315.426091 
L 420.408482 319.178827 
L 424.394196 322.764548 
L 426.313244 324.348246 
L 426.608482 324.313336 
L 426.90372 324.027331 
L 427.346577 323.187441 
L 427.937053 321.428939 
L 428.675149 318.441839 
L 429.708482 313.269322 
L 431.775149 301.432658 
L 434.137053 288.284885 
L 435.760863 280.488172 
L 437.089434 275.079082 
L 438.418006 270.578607 
L 439.598958 267.323396 
L 440.77991 264.731281 
L 441.813244 262.968901 
L 442.846577 261.640276 
L 443.732291 260.817858 
L 444.618006 260.262179 
L 445.50372 259.949751 
L 446.389434 259.857923 
L 447.422768 260.000875 
L 448.456101 260.382588 
L 449.637053 261.073141 
L 450.965625 262.126225 
L 452.441815 263.579581 
L 454.213244 265.634642 
L 456.42753 268.554475 
L 459.37991 272.835898 
L 464.989434 281.457201 
L 471.041815 290.61613 
L 475.470387 296.912476 
L 479.456101 302.204849 
L 483.294196 306.948169 
L 487.132291 311.347563 
L 490.970387 315.415357 
L 494.808482 319.16896 
L 498.794196 322.755507 
L 500.565625 324.253552 
L 500.565625 324.253552 
" style="fill:none;stroke:#ff7f0e;stroke-linecap:square;stroke-width:1.5;"/>
   </g>
   <g id="line2d_31">
    <path clip-path="url(#p119da9b6c9)" d="M 54.165625 362.158125 
L 54.460863 361.944606 
L 54.756101 361.334697 
L 55.198958 359.770253 
L 55.789435 356.672431 
L 56.52753 351.545392 
L 57.708482 341.425698 
L 60.070387 318.442226 
L 62.284673 297.792057 
L 63.908482 284.602667 
L 65.384673 274.377242 
L 66.713244 266.650377 
L 68.041815 260.274076 
L 69.222768 255.668327 
L 70.40372 251.981176 
L 71.437054 249.441999 
L 72.470387 247.483653 
L 73.356101 246.224305 
L 74.241815 245.315486 
L 75.12753 244.724264 
L 76.013244 244.419511 
L 76.898958 244.372032 
L 77.784673 244.554641 
L 78.818006 245.025013 
L 79.851339 245.737792 
L 81.179911 246.957596 
L 82.656101 248.643755 
L 84.42753 251.027939 
L 86.641815 254.412296 
L 89.594196 259.367517 
L 95.351339 269.587529 
L 101.108482 279.63152 
L 105.389434 286.662701 
L 109.375149 292.784668 
L 113.213244 298.272298 
L 116.90372 303.173883 
L 120.594196 307.720309 
L 124.432292 312.090804 
L 128.270387 316.118824 
L 128.713244 316.508256 
L 129.008482 316.384437 
L 129.30372 315.884435 
L 129.746577 314.518968 
L 130.337054 311.741961 
L 131.075149 307.089761 
L 132.108482 299.095435 
L 134.175149 280.885067 
L 136.537054 260.66765 
L 138.160863 248.646351 
L 139.637054 239.428765 
L 140.965625 232.578303 
L 142.146577 227.606999 
L 143.32753 223.627463 
L 144.360863 220.900265 
L 145.394196 218.819654 
L 146.279911 217.5075 
L 147.165625 216.592358 
L 147.90372 216.107647 
L 148.641815 215.854603 
L 149.379911 215.814373 
L 150.118006 215.968969 
L 151.00372 216.387701 
L 152.037054 217.163037 
L 153.218006 218.378138 
L 154.546577 220.09988 
L 156.170387 222.618782 
L 158.089434 226.047377 
L 160.598958 231.044028 
L 164.141815 238.656011 
L 174.770387 261.770182 
L 178.90372 270.07899 
L 182.741815 277.297467 
L 186.432292 283.769905 
L 190.122768 289.788245 
L 193.665625 295.153825 
L 197.356101 300.335337 
L 201.046577 305.125608 
L 203.113244 307.592553 
L 203.408482 307.52631 
L 203.70372 307.083512 
L 204.146577 305.803158 
L 204.737053 303.138357 
L 205.475149 298.624385 
L 206.508482 290.819856 
L 208.575149 272.976409 
L 210.937053 253.158454 
L 212.560863 241.400018 
L 213.889434 233.236192 
L 215.218006 226.43673 
L 216.398958 221.511756 
L 217.432292 218.021599 
L 218.465625 215.245322 
L 219.498958 213.128504 
L 220.384673 211.795829 
L 221.270387 210.86978 
L 222.008482 210.383113 
L 222.746577 210.134334 
L 223.484673 210.10429 
L 224.222768 210.274663 
L 225.108482 210.71921 
L 226.141815 211.53336 
L 227.322768 212.803068 
L 228.651339 214.597573 
L 230.275149 217.218972 
L 232.194196 220.783806 
L 234.70372 225.976108 
L 238.246577 233.883564 
L 248.72753 257.57265 
L 252.860863 266.221953 
L 256.698958 273.738944 
L 260.389434 280.480516 
L 264.079911 286.749991 
L 267.622768 292.339985 
L 271.165625 297.530602 
L 274.856101 302.537527 
L 277.513244 305.850298 
L 277.808482 305.795306 
L 278.10372 305.363686 
L 278.546577 304.099965 
L 279.137053 301.45709 
L 279.875149 296.970131 
L 280.908482 289.20269 
L 282.975149 271.430946 
L 285.337053 251.691051 
L 286.960863 239.983982 
L 288.289434 231.860843 
L 289.618006 225.100899 
L 290.798958 220.210099 
L 291.832292 216.749126 
L 292.865625 214.001377 
L 293.898958 211.912449 
L 294.784672 210.603181 
L 295.670387 209.700089 
L 296.408482 209.232214 
L 297.146577 209.001926 
L 297.884672 208.990076 
L 298.622768 209.17835 
L 299.508482 209.643999 
L 300.541815 210.482256 
L 301.722768 211.778853 
L 303.051339 213.602787 
L 304.675149 216.259009 
L 306.594196 219.863429 
L 309.10372 225.105045 
L 312.646577 233.077656 
L 322.979911 256.611469 
L 327.113244 265.335988 
L 330.951339 272.920028 
L 334.641815 279.722642 
L 338.332291 286.049427 
L 341.875149 291.690837 
L 345.418006 296.92939 
L 348.960863 301.788124 
L 351.913244 305.509837 
L 352.208482 305.457043 
L 352.50372 305.027608 
L 352.946577 303.767138 
L 353.537053 301.128547 
L 354.275149 296.646867 
L 355.308482 288.886674 
L 357.375149 271.12894 
L 359.737053 251.404299 
L 361.360863 239.707269 
L 362.689434 231.592081 
L 364.018006 224.839859 
L 365.198958 219.955737 
L 366.232291 216.500466 
L 367.265625 213.758293 
L 368.298958 211.674814 
L 369.184672 210.370121 
L 370.070387 209.471515 
L 370.808482 209.007313 
L 371.546577 208.780638 
L 372.284672 208.772343 
L 373.022768 208.964115 
L 373.908482 209.433887 
L 374.941815 210.276855 
L 376.122768 211.578707 
L 377.451339 213.408392 
L 379.075149 216.071419 
L 380.994196 219.683574 
L 383.50372 224.934827 
L 387.194196 233.260598 
L 397.232291 256.164027 
L 401.365625 264.919059 
L 405.20372 272.532175 
L 408.894196 279.362246 
L 412.584672 285.715389 
L 416.12753 291.38078 
L 419.670387 296.641893 
L 423.213244 301.521734 
L 426.313244 305.443306 
L 426.608482 305.390942 
L 426.90372 304.961934 
L 427.346577 303.702098 
L 427.937053 301.064346 
L 428.675149 296.583696 
L 429.708482 288.82492 
L 431.775149 271.069925 
L 434.137053 251.348265 
L 435.760863 239.653196 
L 437.089434 231.539561 
L 438.418006 224.788849 
L 439.598958 219.906031 
L 440.632291 216.451875 
L 441.665625 213.710791 
L 442.698958 211.628377 
L 443.584672 210.324578 
L 444.470387 209.426848 
L 445.208482 208.963364 
L 445.946577 208.737395 
L 446.684672 208.729794 
L 447.422768 208.92225 
L 448.308482 209.392829 
L 449.341815 210.236717 
L 450.522768 211.539595 
L 451.851339 213.370404 
L 453.475149 216.034761 
L 455.394196 219.648428 
L 457.90372 224.901564 
L 461.594196 233.229922 
L 471.632291 256.139416 
L 475.765625 264.896582 
L 479.60372 272.511514 
L 483.294196 279.343192 
L 486.984672 285.697818 
L 490.527529 291.364522 
L 494.070387 296.626851 
L 497.613244 301.507818 
L 500.565625 305.301265 
L 500.565625 305.301265 
" style="fill:none;stroke:#2ca02c;stroke-linecap:square;stroke-width:1.5;"/>
   </g>
   <g id="line2d_32">
    <path clip-path="url(#p119da9b6c9)" d="M 54.165625 362.158125 
L 54.313244 362.085635 
L 54.608482 361.529177 
L 55.051339 359.776149 
L 55.641815 356.00347 
L 56.379911 349.497679 
L 57.413244 338.100232 
L 59.184673 315.509781 
L 62.137054 278.059691 
L 63.760863 260.240419 
L 65.237054 246.37633 
L 66.565625 235.868497 
L 67.894196 227.171812 
L 69.075149 220.870119 
L 70.256101 215.806886 
L 71.289435 212.304405 
L 72.322768 209.587325 
L 73.208482 207.825879 
L 74.094196 206.539334 
L 74.832292 205.797972 
L 75.570387 205.331225 
L 76.308482 205.115935 
L 77.046577 205.130216 
L 77.784673 205.353479 
L 78.670387 205.870173 
L 79.70372 206.777178 
L 80.884673 208.160517 
L 82.213244 210.08816 
L 83.837054 212.874876 
L 85.756101 216.633319 
L 88.265625 222.069681 
L 92.10372 230.997736 
L 101.256101 252.455527 
L 105.389434 261.497559 
L 109.22753 269.368065 
L 112.918006 276.433165 
L 116.460863 282.753627 
L 120.00372 288.635374 
L 123.546577 294.09859 
L 127.089434 299.166627 
L 128.713244 301.291633 
L 128.860863 301.275424 
L 129.156101 300.852337 
L 129.451339 299.955915 
L 129.894196 297.838743 
L 130.484673 293.819839 
L 131.370387 285.878976 
L 132.698958 271.353192 
L 137.12753 220.722637 
L 138.60372 206.886054 
L 139.932292 196.332085 
L 141.260863 187.599177 
L 142.441815 181.309772 
L 143.475149 176.875475 
L 144.508482 173.366992 
L 145.394196 171.040164 
L 146.279911 169.290625 
L 147.018006 168.239046 
L 147.756101 167.527875 
L 148.494196 167.130753 
L 149.232292 167.022319 
L 149.970387 167.178354 
L 150.708482 167.575857 
L 151.594196 168.341101 
L 152.62753 169.587246 
L 153.808482 171.415201 
L 155.137054 173.905008 
L 156.760863 177.451401 
L 158.82753 182.569761 
L 161.484673 189.817717 
L 165.618006 201.834946 
L 173.441815 224.602769 
L 177.575149 235.902891 
L 181.413244 245.753586 
L 185.10372 254.604253 
L 188.646577 262.526661 
L 192.189434 269.901959 
L 195.732292 276.754211 
L 199.275149 283.11192 
L 202.818006 289.005392 
L 203.113244 289.40403 
L 203.260863 289.426267 
L 203.556101 289.079699 
L 203.851339 288.259302 
L 204.294196 286.255248 
L 204.884673 282.385467 
L 205.770387 274.664698 
L 206.951339 262.134686 
L 211.822768 207.965119 
L 213.298958 194.875942 
L 214.62753 185.002062 
L 215.808482 177.74163 
L 216.989434 171.849896 
L 218.022768 167.748817 
L 219.056101 164.558739 
L 219.941815 162.492748 
L 220.82753 160.992907 
L 221.565625 160.141037 
L 222.30372 159.622152 
L 223.041815 159.41011 
L 223.779911 159.479805 
L 224.518006 159.807287 
L 225.256101 160.36984 
L 226.141815 161.325105 
L 227.175149 162.782492 
L 228.356101 164.839037 
L 229.832292 167.898299 
L 231.60372 172.136337 
L 233.818006 178.067258 
L 236.770387 186.662408 
L 243.265625 206.493052 
L 248.432292 221.859899 
L 252.418006 233.043218 
L 256.108482 242.768526 
L 259.651339 251.507744 
L 263.194196 259.664112 
L 266.737053 267.255003 
L 270.279911 274.306174 
L 273.822768 280.847577 
L 277.365625 286.910787 
L 277.660863 287.110773 
L 277.956101 286.779158 
L 278.251339 285.973617 
L 278.694196 283.991668 
L 279.284672 280.151028 
L 280.170387 272.473269 
L 281.351339 259.999318 
L 286.222768 206.046241 
L 287.698958 193.018228 
L 289.02753 183.197726 
L 290.208482 175.983453 
L 291.389434 170.136696 
L 292.422768 166.074027 
L 293.456101 162.921499 
L 294.341815 160.887022 
L 295.22753 159.418089 
L 295.965625 158.591521 
L 296.70372 158.09753 
L 297.441815 157.909983 
L 298.179911 158.00378 
L 298.918006 158.354976 
L 299.656101 158.940862 
L 300.541815 159.923633 
L 301.575149 161.412441 
L 302.756101 163.504035 
L 304.232292 166.605849 
L 306.00372 170.893163 
L 308.218006 176.883046 
L 311.318006 185.998928 
L 325.341815 228.166854 
L 329.179911 238.592329 
L 332.870387 247.97051 
L 336.413244 256.371378 
L 339.956101 264.195918 
L 343.498958 271.467952 
L 347.041815 278.21665 
L 350.584672 284.473508 
L 351.913244 286.627074 
L 352.060863 286.658293 
L 352.356101 286.3296 
L 352.651339 285.526962 
L 353.094196 283.549333 
L 353.684672 279.714388 
L 354.570387 272.045034 
L 355.751339 259.582037 
L 360.622768 205.671266 
L 362.098958 192.655204 
L 363.42753 182.845134 
L 364.608482 175.63988 
L 365.789434 169.801913 
L 366.822768 165.74675 
L 367.856101 162.601559 
L 368.741815 160.57324 
L 369.62753 159.110347 
L 370.365625 158.288723 
L 371.10372 157.799597 
L 371.841815 157.616837 
L 372.579911 157.715344 
L 373.318006 158.071174 
L 374.056101 158.66162 
L 374.941815 159.649766 
L 375.975149 161.144714 
L 377.156101 163.243156 
L 378.632291 166.353286 
L 380.40372 170.65023 
L 382.618006 176.651634 
L 385.718006 185.782735 
L 399.741815 228.007929 
L 403.57991 238.44624 
L 407.270387 247.835787 
L 410.813244 256.246731 
L 414.356101 264.080595 
L 417.898958 271.361255 
L 421.441815 278.117934 
L 424.984672 284.382175 
L 426.313244 286.538366 
L 426.460863 286.569872 
L 426.756101 286.24175 
L 427.051339 285.43968 
L 427.494196 283.462894 
L 428.084672 279.629062 
L 428.970387 271.961351 
L 430.151339 259.500495 
L 435.022768 205.597991 
L 436.498958 192.584265 
L 437.82753 182.776232 
L 439.008482 175.572741 
L 440.189434 169.736491 
L 441.222768 165.682795 
L 442.256101 162.539038 
L 443.141815 160.511923 
L 444.02753 159.05021 
L 444.765625 158.229552 
L 445.50372 157.741377 
L 446.241815 157.559552 
L 446.97991 157.658979 
L 447.718006 158.015715 
L 448.456101 158.607052 
L 449.341815 159.596248 
L 450.375149 161.092396 
L 451.556101 163.192177 
L 453.032291 166.303932 
L 454.80372 170.602757 
L 457.018006 176.606413 
L 460.118006 185.740487 
L 474.141815 227.976872 
L 477.97991 238.417692 
L 481.670387 247.80946 
L 485.213244 256.222373 
L 488.756101 264.058059 
L 492.298958 271.340405 
L 495.841815 278.098644 
L 499.384672 284.364328 
L 500.565625 286.348978 
L 500.565625 286.348978 
" style="fill:none;stroke:#d62728;stroke-linecap:square;stroke-width:1.5;"/>
   </g>
   <g id="line2d_33">
    <path clip-path="url(#p119da9b6c9)" d="M 54.165625 362.158125 
L 54.313244 362.067513 
L 54.608482 361.37194 
L 55.051339 359.180654 
L 55.641815 354.464806 
L 56.379911 346.332567 
L 57.413244 332.085759 
L 59.184673 303.847695 
L 62.137054 257.035083 
L 63.760863 234.760993 
L 65.237054 217.430881 
L 66.565625 204.29609 
L 67.894196 193.425234 
L 69.075149 185.548117 
L 70.256101 179.219076 
L 71.289435 174.840975 
L 72.322768 171.444624 
L 73.208482 169.242818 
L 74.094196 167.634637 
L 74.832292 166.707933 
L 75.570387 166.1245 
L 76.308482 165.855387 
L 77.046577 165.873239 
L 77.784673 166.152318 
L 78.522768 166.668505 
L 79.408482 167.569302 
L 80.441815 168.963029 
L 81.622768 170.944854 
L 83.098958 173.905859 
L 84.870387 178.017423 
L 87.084673 183.77711 
L 90.037054 192.125062 
L 96.975149 212.677688 
L 101.846577 226.686184 
L 105.832292 237.500999 
L 109.522768 246.899853 
L 113.065625 255.342327 
L 116.608482 263.219638 
L 120.151339 270.549481 
L 123.694196 277.357318 
L 127.237054 283.672444 
L 128.713244 286.07501 
L 128.860863 286.054749 
L 129.156101 285.525891 
L 129.451339 284.405363 
L 129.894196 281.758898 
L 130.484673 276.735267 
L 131.370387 266.809189 
L 132.698958 248.651959 
L 137.12753 185.363766 
L 138.60372 168.068036 
L 139.932292 154.875574 
L 141.113244 145.06197 
L 142.294196 136.98915 
L 143.32753 131.273688 
L 144.360863 126.728358 
L 145.246577 123.693688 
L 146.132292 121.390681 
L 146.870387 119.987056 
L 147.608482 119.015663 
L 148.346577 118.443326 
L 148.937054 118.251252 
L 149.52753 118.27836 
L 150.118006 118.509532 
L 150.856101 119.063468 
L 151.741815 120.081605 
L 152.62753 121.444526 
L 153.808482 123.72947 
L 155.137054 126.841728 
L 156.760863 131.274719 
L 158.679911 137.193181 
L 161.189434 145.692847 
L 165.02753 159.576357 
L 173.737053 191.249964 
L 177.870387 205.314801 
L 181.560863 217.109717 
L 185.10372 227.715785 
L 188.646577 237.618795 
L 192.041815 246.467074 
L 195.437053 254.713581 
L 198.832292 262.389497 
L 202.22753 269.528074 
L 203.113244 271.215506 
L 203.260863 271.243302 
L 203.408482 271.1051 
L 203.70372 270.367103 
L 204.146577 268.233181 
L 204.737053 263.791844 
L 205.475149 256.268559 
L 206.508482 243.26101 
L 208.575149 213.521932 
L 210.937053 180.492006 
L 212.560863 160.894614 
L 213.889434 147.288236 
L 215.218006 135.9558 
L 216.398958 127.74751 
L 217.432292 121.930582 
L 218.465625 117.303453 
L 219.351339 114.215712 
L 220.237053 111.875807 
L 220.975149 110.45373 
L 221.713244 109.474808 
L 222.30372 108.988158 
L 222.894196 108.746959 
L 223.484673 108.735067 
L 224.075149 108.936924 
L 224.813244 109.46713 
L 225.551339 110.280263 
L 226.437053 111.592782 
L 227.470387 113.535494 
L 228.651339 116.223872 
L 230.12753 120.167811 
L 231.898958 125.575022 
L 234.113244 133.083042 
L 237.213244 144.452421 
L 250.498958 194.1388 
L 254.337053 207.183964 
L 258.02753 218.929476 
L 261.570387 229.457064 
L 264.965625 238.871431 
L 268.360863 247.650519 
L 271.756101 255.825361 
L 275.151339 263.42998 
L 277.513244 268.311747 
L 277.660863 268.348935 
L 277.808482 268.220093 
L 278.10372 267.500727 
L 278.546577 265.394526 
L 279.137053 260.989734 
L 279.875149 253.511468 
L 280.908482 240.565734 
L 282.975149 210.946159 
L 285.337053 178.046334 
L 286.960863 158.534554 
L 288.289434 144.995988 
L 289.618006 133.729416 
L 290.798958 125.578082 
L 291.832292 119.809793 
L 292.865625 115.230212 
L 293.751339 112.182378 
L 294.637053 109.881612 
L 295.375149 108.491574 
L 296.113244 107.544176 
L 296.70372 107.082381 
L 297.294196 106.865716 
L 297.884672 106.878043 
L 298.475149 107.103807 
L 299.213244 107.663464 
L 299.951339 108.505576 
L 300.837053 109.852255 
L 301.870387 111.83399 
L 303.198958 114.938488 
L 304.675149 118.992932 
L 306.446577 124.513867 
L 308.808482 132.669898 
L 312.056101 144.764583 
L 323.865625 189.43921 
L 327.70372 202.788177 
L 331.394196 214.830859 
L 334.937053 225.638139 
L 338.332291 235.310295 
L 341.72753 244.334541 
L 345.122768 252.740714 
L 348.518006 260.562479 
L 351.765625 267.529675 
L 352.060863 267.783335 
L 352.208482 267.656322 
L 352.50372 266.940597 
L 352.946577 264.839813 
L 353.537053 260.442162 
L 354.275149 252.972694 
L 355.308482 240.03904 
L 357.375149 210.442817 
L 359.737053 177.568416 
L 361.360863 158.073365 
L 362.689434 144.548051 
L 364.018006 133.294349 
L 365.198958 125.154145 
L 366.232291 119.395361 
L 367.265625 114.825072 
L 368.151339 111.785036 
L 369.037053 109.491918 
L 369.775149 108.108141 
L 370.513244 107.166904 
L 371.10372 106.709965 
L 371.694196 106.498095 
L 372.284672 106.515154 
L 372.875149 106.74559 
L 373.613244 107.311003 
L 374.351339 108.158777 
L 375.237053 109.512131 
L 376.270387 111.501492 
L 377.598958 114.615544 
L 379.075149 118.680282 
L 380.846577 124.213136 
L 383.208482 132.384357 
L 386.456101 144.498683 
L 398.265625 189.234013 
L 402.10372 202.599554 
L 405.794196 214.65691 
L 409.337053 225.477201 
L 412.732291 235.160912 
L 416.12753 244.195883 
L 419.522768 252.612011 
L 422.918006 260.443017 
L 426.165625 267.41843 
L 426.460863 267.672808 
L 426.608482 267.546153 
L 426.90372 266.831139 
L 427.346577 264.731414 
L 427.937053 260.335159 
L 428.675149 252.867411 
L 429.708482 239.936116 
L 431.775149 210.344458 
L 434.137053 177.475024 
L 435.760863 157.983243 
L 437.089434 144.460518 
L 438.418006 133.209331 
L 439.598958 125.071302 
L 440.632291 119.314375 
L 441.665625 114.745902 
L 442.551339 111.70739 
L 443.437053 109.415766 
L 444.175149 108.033213 
L 444.913244 107.093179 
L 445.50372 106.63719 
L 446.094196 106.426256 
L 446.684672 106.444241 
L 447.275149 106.675589 
L 448.013244 107.242127 
L 448.751339 108.091007 
L 449.637053 109.445666 
L 450.670387 111.436517 
L 451.998958 114.552436 
L 453.475149 118.619185 
L 455.246577 124.154369 
L 457.608482 132.328558 
L 460.856101 144.446723 
L 472.665625 189.193915 
L 476.50372 202.562695 
L 480.194196 214.622917 
L 483.737053 225.445751 
L 487.132291 235.13172 
L 490.527529 244.168787 
L 493.922768 252.586861 
L 497.318006 260.419672 
L 500.565625 267.396692 
L 500.565625 267.396692 
" style="fill:none;stroke:#9467bd;stroke-linecap:square;stroke-width:1.5;"/>
   </g>
   <g id="line2d_34">
    <path clip-path="url(#p119da9b6c9)" d="M 54.165625 362.158125 
L 54.313244 362.049391 
L 54.608482 361.214703 
L 55.051339 358.58516 
L 55.641815 352.926143 
L 56.379911 343.167456 
L 57.413244 326.071285 
L 59.184673 292.185609 
L 62.137054 236.010474 
L 63.760863 209.281566 
L 65.237054 188.485432 
L 66.565625 172.723683 
L 67.894196 159.678655 
L 69.075149 150.226116 
L 70.256101 142.631266 
L 71.289435 137.377546 
L 72.322768 133.301924 
L 73.208482 130.659756 
L 74.094196 128.729939 
L 74.832292 127.617895 
L 75.570387 126.917775 
L 76.160863 126.630856 
L 76.751339 126.56839 
L 77.341815 126.714267 
L 78.079911 127.166339 
L 78.818006 127.8919 
L 79.70372 129.086705 
L 80.737054 130.874936 
L 81.918006 133.365216 
L 83.394196 137.032003 
L 85.165625 142.069235 
L 87.379911 149.06926 
L 90.479911 159.66961 
L 103.618006 205.457059 
L 107.456101 217.622537 
L 111.146577 228.57653 
L 114.689434 238.394882 
L 118.084673 247.175097 
L 121.479911 255.362862 
L 124.875149 262.987096 
L 128.270387 270.079524 
L 128.713244 270.858387 
L 128.860863 270.834074 
L 129.156101 270.199444 
L 129.451339 268.854811 
L 129.894196 265.679053 
L 130.484673 259.650696 
L 131.370387 247.739402 
L 132.698958 225.950725 
L 137.12753 150.004894 
L 138.60372 129.250018 
L 139.932292 113.419064 
L 141.113244 101.642739 
L 142.294196 91.955355 
L 143.32753 85.0968 
L 144.360863 79.642404 
L 145.246577 76.000801 
L 146.132292 73.237192 
L 146.870387 71.552842 
L 147.608482 70.387171 
L 148.198958 69.801282 
L 148.789434 69.502117 
L 149.379911 69.470621 
L 149.970387 69.688468 
L 150.560863 70.138088 
L 151.298958 71.000548 
L 152.184673 72.435427 
L 153.218006 74.598152 
L 154.398958 77.626077 
L 155.875149 82.104724 
L 157.646577 88.282057 
L 159.860863 96.897578 
L 162.813244 109.348652 
L 177.132292 171.008582 
L 180.822768 185.341769 
L 184.365625 198.245794 
L 187.908482 210.303865 
L 191.30372 221.083255 
L 194.698958 231.133003 
L 198.094196 240.489605 
L 201.489434 249.192633 
L 203.113244 253.026982 
L 203.260863 253.060338 
L 203.408482 252.894495 
L 203.70372 252.008898 
L 204.146577 249.448192 
L 204.737053 244.118588 
L 205.475149 235.090646 
L 206.508482 219.481587 
L 208.575149 183.794693 
L 210.937053 144.158782 
L 212.560863 120.641912 
L 213.889434 104.314258 
L 215.218006 90.715335 
L 216.398958 80.865388 
L 217.432292 73.885074 
L 218.465625 68.332519 
L 219.351339 64.62723 
L 220.237053 61.819344 
L 220.975149 60.112852 
L 221.713244 58.938145 
L 222.30372 58.354165 
L 222.894196 58.064725 
L 223.484673 58.050455 
L 224.075149 58.292683 
L 224.665625 58.773482 
L 225.40372 59.683912 
L 226.289434 61.188584 
L 227.322768 63.44801 
L 228.50372 66.604226 
L 229.979911 71.265885 
L 231.751339 77.689593 
L 233.965625 86.643442 
L 236.918006 99.578828 
L 251.089434 163.007045 
L 254.92753 178.508329 
L 258.470387 191.910843 
L 262.013244 204.434791 
L 265.408482 215.630703 
L 268.80372 226.06881 
L 272.198958 235.787008 
L 275.594196 244.826388 
L 277.513244 249.542472 
L 277.660863 249.587097 
L 277.808482 249.432487 
L 278.10372 248.569247 
L 278.546577 246.041806 
L 279.137053 240.756056 
L 279.875149 231.782137 
L 280.908482 216.247256 
L 282.975149 180.703766 
L 285.337053 141.223976 
L 286.960863 117.80984 
L 288.289434 101.563561 
L 289.618006 88.043674 
L 290.798958 78.262073 
L 291.832292 71.340126 
L 292.865625 65.84463 
L 293.751339 62.187229 
L 294.637053 59.426309 
L 295.375149 57.758264 
L 296.113244 56.621387 
L 296.70372 56.067232 
L 297.294196 55.807234 
L 297.884672 55.822027 
L 298.475149 56.092943 
L 299.065625 56.602061 
L 299.80372 57.547378 
L 300.689434 59.093174 
L 301.722768 61.399581 
L 302.90372 64.608199 
L 304.379911 69.33348 
L 306.151339 75.830863 
L 308.365625 84.87287 
L 311.465625 98.590295 
L 325.046577 159.927227 
L 328.884672 175.642541 
L 332.42753 189.239508 
L 335.970387 201.950721 
L 339.365625 213.317328 
L 342.760863 223.916619 
L 346.156101 233.78619 
L 349.551339 242.967206 
L 351.913244 248.861549 
L 352.060863 248.908376 
L 352.208482 248.755962 
L 352.50372 247.897091 
L 352.946577 245.37615 
L 353.537053 240.09897 
L 354.275149 231.135608 
L 355.308482 215.615222 
L 357.375149 180.099756 
L 359.737053 140.650474 
L 361.360863 117.256413 
L 362.689434 101.026036 
L 364.018006 87.521594 
L 365.198958 77.753349 
L 366.232291 70.842808 
L 367.265625 65.358461 
L 368.151339 61.710418 
L 369.037053 58.958676 
L 369.775149 57.298144 
L 370.513244 56.168659 
L 371.10372 55.620333 
L 371.694196 55.366088 
L 372.284672 55.38656 
L 372.875149 55.663083 
L 373.465625 56.177734 
L 374.20372 57.129869 
L 375.089434 58.683701 
L 376.122768 60.999288 
L 377.30372 64.218147 
L 378.779911 68.95586 
L 380.551339 75.467641 
L 382.765625 84.526875 
L 385.865625 98.267054 
L 399.446577 159.68729 
L 403.284672 175.421984 
L 406.82753 189.035448 
L 410.370387 201.761925 
L 413.765625 213.142087 
L 417.160863 223.75396 
L 420.556101 233.63521 
L 423.951339 242.827066 
L 426.313244 248.728487 
L 426.460863 248.775745 
L 426.608482 248.623759 
L 426.90372 247.765742 
L 427.346577 245.246072 
L 427.937053 239.970566 
L 428.675149 231.009268 
L 429.708482 215.491715 
L 431.775149 179.981724 
L 434.137053 140.538404 
L 435.760863 117.148266 
L 437.089434 100.920997 
L 438.418006 87.419572 
L 439.598958 77.653937 
L 440.632291 70.745625 
L 441.665625 65.263457 
L 442.551339 61.617242 
L 443.437053 58.867294 
L 444.175149 57.20823 
L 444.913244 56.08019 
L 445.50372 55.533003 
L 446.094196 55.279882 
L 446.684672 55.301464 
L 447.275149 55.579082 
L 447.865625 56.094815 
L 448.60372 57.048281 
L 449.489434 58.603684 
L 450.522768 60.921065 
L 451.70372 64.141925 
L 453.17991 68.882068 
L 454.951339 75.396662 
L 457.165625 84.459262 
L 460.265625 98.203888 
L 473.698958 159.015357 
L 477.537053 174.792296 
L 481.07991 188.445966 
L 484.622768 201.212189 
L 488.018006 212.629169 
L 491.413244 223.276167 
L 494.808482 233.190631 
L 498.20372 242.413707 
L 500.565625 248.444405 
L 500.565625 248.444405 
" style="fill:none;stroke:#8c564b;stroke-linecap:square;stroke-width:1.5;"/>
   </g>
   <g id="patch_5">
    <path d="M 54.165625 362.158125 
L 54.165625 29.518125 
" style="fill:none;stroke:#000000;stroke-linecap:square;stroke-linejoin:miter;stroke-width:0.8;"/>
   </g>
   <g id="patch_6">
    <path d="M 500.565625 362.158125 
L 500.565625 29.518125 
" style="fill:none;stroke:#000000;stroke-linecap:square;stroke-linejoin:miter;stroke-width:0.8;"/>
   </g>
   <g id="patch_7">
    <path d="M 54.165625 362.158125 
L 500.565625 362.158125 
" style="fill:none;stroke:#000000;stroke-linecap:square;stroke-linejoin:miter;stroke-width:0.8;"/>
   </g>
   <g id="patch_8">
    <path d="M 54.165625 29.518125 
L 500.565625 29.518125 
" style="fill:none;stroke:#000000;stroke-linecap:square;stroke-linejoin:miter;stroke-width:0.8;"/>
   </g>
   <g id="text_32">
    <!-- Estradiol valerate at different doses once per week i.m. -->
    <g transform="translate(110.564688 23.518125)scale(0.12 -0.12)">
     <defs>
      <path d="M 191 3500 
L 800 3500 
L 1894 563 
L 2988 3500 
L 3597 3500 
L 2284 0 
L 1503 0 
L 191 3500 
z
" id="DejaVuSans-76" transform="scale(0.015625)"/>
      <path d="M 2375 4863 
L 2375 4384 
L 1825 4384 
Q 1516 4384 1395 4259 
Q 1275 4134 1275 3809 
L 1275 3500 
L 2222 3500 
L 2222 3053 
L 1275 3053 
L 1275 0 
L 697 0 
L 697 3053 
L 147 3053 
L 147 3500 
L 697 3500 
L 697 3744 
Q 697 4328 969 4595 
Q 1241 4863 1831 4863 
L 2375 4863 
z
" id="DejaVuSans-66" transform="scale(0.015625)"/>
      <path d="M 269 3500 
L 844 3500 
L 1563 769 
L 2278 3500 
L 2956 3500 
L 3675 769 
L 4391 3500 
L 4966 3500 
L 4050 0 
L 3372 0 
L 2619 2869 
L 1863 0 
L 1184 0 
L 269 3500 
z
" id="DejaVuSans-77" transform="scale(0.015625)"/>
      <path d="M 581 4863 
L 1159 4863 
L 1159 1991 
L 2875 3500 
L 3609 3500 
L 1753 1863 
L 3688 0 
L 2938 0 
L 1159 1709 
L 1159 0 
L 581 0 
L 581 4863 
z
" id="DejaVuSans-6b" transform="scale(0.015625)"/>
      <path d="M 684 794 
L 1344 794 
L 1344 0 
L 684 0 
L 684 794 
z
" id="DejaVuSans-2e" transform="scale(0.015625)"/>
     </defs>
     <use xlink:href="#DejaVuSans-45"/>
     <use x="63.183594" xlink:href="#DejaVuSans-73"/>
     <use x="115.283203" xlink:href="#DejaVuSans-74"/>
     <use x="154.492188" xlink:href="#DejaVuSans-72"/>
     <use x="195.605469" xlink:href="#DejaVuSans-61"/>
     <use x="256.884766" xlink:href="#DejaVuSans-64"/>
     <use x="320.361328" xlink:href="#DejaVuSans-69"/>
     <use x="348.144531" xlink:href="#DejaVuSans-6f"/>
     <use x="409.326172" xlink:href="#DejaVuSans-6c"/>
     <use x="437.109375" xlink:href="#DejaVuSans-20"/>
     <use x="468.896484" xlink:href="#DejaVuSans-76"/>
     <use x="528.076172" xlink:href="#DejaVuSans-61"/>
     <use x="589.355469" xlink:href="#DejaVuSans-6c"/>
     <use x="617.138672" xlink:href="#DejaVuSans-65"/>
     <use x="678.662109" xlink:href="#DejaVuSans-72"/>
     <use x="719.775391" xlink:href="#DejaVuSans-61"/>
     <use x="781.054688" xlink:href="#DejaVuSans-74"/>
     <use x="820.263672" xlink:href="#DejaVuSans-65"/>
     <use x="881.787109" xlink:href="#DejaVuSans-20"/>
     <use x="913.574219" xlink:href="#DejaVuSans-61"/>
     <use x="974.853516" xlink:href="#DejaVuSans-74"/>
     <use x="1014.0625" xlink:href="#DejaVuSans-20"/>
     <use x="1045.849609" xlink:href="#DejaVuSans-64"/>
     <use x="1109.326172" xlink:href="#DejaVuSans-69"/>
     <use x="1137.109375" xlink:href="#DejaVuSans-66"/>
     <use x="1172.314453" xlink:href="#DejaVuSans-66"/>
     <use x="1207.519531" xlink:href="#DejaVuSans-65"/>
     <use x="1269.042969" xlink:href="#DejaVuSans-72"/>
     <use x="1307.90625" xlink:href="#DejaVuSans-65"/>
     <use x="1369.429688" xlink:href="#DejaVuSans-6e"/>
     <use x="1432.808594" xlink:href="#DejaVuSans-74"/>
     <use x="1472.017578" xlink:href="#DejaVuSans-20"/>
     <use x="1503.804688" xlink:href="#DejaVuSans-64"/>
     <use x="1567.28125" xlink:href="#DejaVuSans-6f"/>
     <use x="1628.462891" xlink:href="#DejaVuSans-73"/>
     <use x="1680.5625" xlink:href="#DejaVuSans-65"/>
     <use x="1742.085938" xlink:href="#DejaVuSans-73"/>
     <use x="1794.185547" xlink:href="#DejaVuSans-20"/>
     <use x="1825.972656" xlink:href="#DejaVuSans-6f"/>
     <use x="1887.154297" xlink:href="#DejaVuSans-6e"/>
     <use x="1950.533203" xlink:href="#DejaVuSans-63"/>
     <use x="2005.513672" xlink:href="#DejaVuSans-65"/>
     <use x="2067.037109" xlink:href="#DejaVuSans-20"/>
     <use x="2098.824219" xlink:href="#DejaVuSans-70"/>
     <use x="2162.300781" xlink:href="#DejaVuSans-65"/>
     <use x="2223.824219" xlink:href="#DejaVuSans-72"/>
     <use x="2264.9375" xlink:href="#DejaVuSans-20"/>
     <use x="2296.724609" xlink:href="#DejaVuSans-77"/>
     <use x="2378.511719" xlink:href="#DejaVuSans-65"/>
     <use x="2440.035156" xlink:href="#DejaVuSans-65"/>
     <use x="2501.558594" xlink:href="#DejaVuSans-6b"/>
     <use x="2559.46875" xlink:href="#DejaVuSans-20"/>
     <use x="2591.255859" xlink:href="#DejaVuSans-69"/>
     <use x="2619.039062" xlink:href="#DejaVuSans-2e"/>
     <use x="2650.826172" xlink:href="#DejaVuSans-6d"/>
     <use x="2748.238281" xlink:href="#DejaVuSans-2e"/>
    </g>
   </g>
   <g id="legend_1">
    <g id="patch_9">
     <path d="M 61.165625 125.586875 
L 118.795313 125.586875 
Q 120.795313 125.586875 120.795313 123.586875 
L 120.795313 36.518125 
Q 120.795313 34.518125 118.795313 34.518125 
L 61.165625 34.518125 
Q 59.165625 34.518125 59.165625 36.518125 
L 59.165625 123.586875 
Q 59.165625 125.586875 61.165625 125.586875 
z
" style="fill:#ffffff;opacity:0.8;stroke:#cccccc;stroke-linejoin:miter;"/>
    </g>
    <g id="line2d_35">
     <path d="M 63.165625 42.616563 
L 83.165625 42.616563 
" style="fill:none;stroke:#1f77b4;stroke-linecap:square;stroke-width:1.5;"/>
    </g>
    <g id="line2d_36"/>
    <g id="text_33">
     <!-- 1 mg -->
     <g transform="translate(91.165625 46.116563)scale(0.1 -0.1)">
      <use xlink:href="#DejaVuSans-31"/>
      <use x="63.623047" xlink:href="#DejaVuSans-20"/>
      <use x="95.410156" xlink:href="#DejaVuSans-6d"/>
      <use x="192.822266" xlink:href="#DejaVuSans-67"/>
     </g>
    </g>
    <g id="line2d_37">
     <path d="M 63.165625 57.294688 
L 83.165625 57.294688 
" style="fill:none;stroke:#ff7f0e;stroke-linecap:square;stroke-width:1.5;"/>
    </g>
    <g id="line2d_38"/>
    <g id="text_34">
     <!-- 2 mg -->
     <g transform="translate(91.165625 60.794688)scale(0.1 -0.1)">
      <use xlink:href="#DejaVuSans-32"/>
      <use x="63.623047" xlink:href="#DejaVuSans-20"/>
      <use x="95.410156" xlink:href="#DejaVuSans-6d"/>
      <use x="192.822266" xlink:href="#DejaVuSans-67"/>
     </g>
    </g>
    <g id="line2d_39">
     <path d="M 63.165625 71.972813 
L 83.165625 71.972813 
" style="fill:none;stroke:#2ca02c;stroke-linecap:square;stroke-width:1.5;"/>
    </g>
    <g id="line2d_40"/>
    <g id="text_35">
     <!-- 3 mg -->
     <g transform="translate(91.165625 75.472813)scale(0.1 -0.1)">
      <use xlink:href="#DejaVuSans-33"/>
      <use x="63.623047" xlink:href="#DejaVuSans-20"/>
      <use x="95.410156" xlink:href="#DejaVuSans-6d"/>
      <use x="192.822266" xlink:href="#DejaVuSans-67"/>
     </g>
    </g>
    <g id="line2d_41">
     <path d="M 63.165625 86.650938 
L 83.165625 86.650938 
" style="fill:none;stroke:#d62728;stroke-linecap:square;stroke-width:1.5;"/>
    </g>
    <g id="line2d_42"/>
    <g id="text_36">
     <!-- 4 mg -->
     <g transform="translate(91.165625 90.150938)scale(0.1 -0.1)">
      <use xlink:href="#DejaVuSans-34"/>
      <use x="63.623047" xlink:href="#DejaVuSans-20"/>
      <use x="95.410156" xlink:href="#DejaVuSans-6d"/>
      <use x="192.822266" xlink:href="#DejaVuSans-67"/>
     </g>
    </g>
    <g id="line2d_43">
     <path d="M 63.165625 101.329063 
L 83.165625 101.329063 
" style="fill:none;stroke:#9467bd;stroke-linecap:square;stroke-width:1.5;"/>
    </g>
    <g id="line2d_44"/>
    <g id="text_37">
     <!-- 5 mg -->
     <g transform="translate(91.165625 104.829063)scale(0.1 -0.1)">
      <use xlink:href="#DejaVuSans-35"/>
      <use x="63.623047" xlink:href="#DejaVuSans-20"/>
      <use x="95.410156" xlink:href="#DejaVuSans-6d"/>
      <use x="192.822266" xlink:href="#DejaVuSans-67"/>
     </g>
    </g>
    <g id="line2d_45">
     <path d="M 63.165625 116.007188 
L 83.165625 116.007188 
" style="fill:none;stroke:#8c564b;stroke-linecap:square;stroke-width:1.5;"/>
    </g>
    <g id="line2d_46"/>
    <g id="text_38">
     <!-- 6 mg -->
     <g transform="translate(91.165625 119.507188)scale(0.1 -0.1)">
      <use xlink:href="#DejaVuSans-36"/>
      <use x="63.623047" xlink:href="#DejaVuSans-20"/>
      <use x="95.410156" xlink:href="#DejaVuSans-6d"/>
      <use x="192.822266" xlink:href="#DejaVuSans-67"/>
     </g>
    </g>
   </g>
  </g>
 </g>
 <defs>
  <clipPath id="p119da9b6c9">
   <rect height="332.64" width="446.4" x="54.165625" y="29.518125"/>
  </clipPath>
 </defs>
</svg>
