<?xml version="1.0" encoding="utf-8" standalone="no"?>
<!DOCTYPE svg PUBLIC "-//W3C//DTD SVG 1.1//EN"
  "http://www.w3.org/Graphics/SVG/1.1/DTD/svg11.dtd">
<svg height="406.914375pt" version="1.1" viewBox="0 0 567.45625 406.914375" width="567.45625pt" xmlns="http://www.w3.org/2000/svg" xmlns:xlink="http://www.w3.org/1999/xlink">
 <metadata>
  <rdf:RDF xmlns:cc="http://creativecommons.org/ns#" xmlns:dc="http://purl.org/dc/elements/1.1/" xmlns:rdf="http://www.w3.org/1999/02/22-rdf-syntax-ns#">
   <cc:Work>
    <dc:type rdf:resource="http://purl.org/dc/dcmitype/StillImage"/>
    <dc:date>2021-07-15T01:52:53.512448</dc:date>
    <dc:format>image/svg+xml</dc:format>
    <dc:creator>
     <cc:Agent>
      <dc:title>Matplotlib v3.4.1, https://matplotlib.org/</dc:title>
     </cc:Agent>
    </dc:creator>
   </cc:Work>
  </rdf:RDF>
 </metadata>
 <defs>
  <style type="text/css">*{stroke-linecap:butt;stroke-linejoin:round;}</style>
 </defs>
 <g id="figure_1">
  <g id="patch_1">
   <path d="M 0 406.914375 
L 567.45625 406.914375 
L 567.45625 0 
L 0 0 
z
" style="fill:#ffffff;"/>
  </g>
  <g id="axes_1">
   <g id="patch_2">
    <path d="M 60.528125 362.158125 
L 506.928125 362.158125 
L 506.928125 29.518125 
L 60.528125 29.518125 
z
" style="fill:#ffffff;"/>
   </g>
   <g id="axes_2">
    <g id="patch_3">
     <path d="M 506.928125 362.158125 
L 506.928125 362.158125 
L 506.928125 29.518125 
L 506.928125 29.518125 
z
" style="fill:#ffffff;"/>
    </g>
    <g id="matplotlib.axis_1"/>
    <g id="matplotlib.axis_2">
     <g id="ytick_1">
      <g id="line2d_1">
       <defs>
        <path d="M 0 0 
L 3.5 0 
" id="m7befa04a2e" style="stroke:#000000;stroke-width:0.8;"/>
       </defs>
       <g>
        <use style="stroke:#000000;stroke-width:0.8;" x="506.928125" xlink:href="#m7befa04a2e" y="362.158125"/>
       </g>
      </g>
      <g id="text_1">
       <!-- 0 -->
       <g transform="translate(513.928125 365.957344)scale(0.1 -0.1)">
        <defs>
         <path d="M 2034 4250 
Q 1547 4250 1301 3770 
Q 1056 3291 1056 2328 
Q 1056 1369 1301 889 
Q 1547 409 2034 409 
Q 2525 409 2770 889 
Q 3016 1369 3016 2328 
Q 3016 3291 2770 3770 
Q 2525 4250 2034 4250 
z
M 2034 4750 
Q 2819 4750 3233 4129 
Q 3647 3509 3647 2328 
Q 3647 1150 3233 529 
Q 2819 -91 2034 -91 
Q 1250 -91 836 529 
Q 422 1150 422 2328 
Q 422 3509 836 4129 
Q 1250 4750 2034 4750 
z
" id="DejaVuSans-30" transform="scale(0.015625)"/>
        </defs>
        <use xlink:href="#DejaVuSans-30"/>
       </g>
      </g>
     </g>
     <g id="ytick_2">
      <g id="line2d_2">
       <g>
        <use style="stroke:#000000;stroke-width:0.8;" x="506.928125" xlink:href="#m7befa04a2e" y="292.423428"/>
       </g>
      </g>
      <g id="text_2">
       <!-- 2000 -->
       <g transform="translate(513.928125 296.222647)scale(0.1 -0.1)">
        <defs>
         <path d="M 1228 531 
L 3431 531 
L 3431 0 
L 469 0 
L 469 531 
Q 828 903 1448 1529 
Q 2069 2156 2228 2338 
Q 2531 2678 2651 2914 
Q 2772 3150 2772 3378 
Q 2772 3750 2511 3984 
Q 2250 4219 1831 4219 
Q 1534 4219 1204 4116 
Q 875 4013 500 3803 
L 500 4441 
Q 881 4594 1212 4672 
Q 1544 4750 1819 4750 
Q 2544 4750 2975 4387 
Q 3406 4025 3406 3419 
Q 3406 3131 3298 2873 
Q 3191 2616 2906 2266 
Q 2828 2175 2409 1742 
Q 1991 1309 1228 531 
z
" id="DejaVuSans-32" transform="scale(0.015625)"/>
        </defs>
        <use xlink:href="#DejaVuSans-32"/>
        <use x="63.623047" xlink:href="#DejaVuSans-30"/>
        <use x="127.246094" xlink:href="#DejaVuSans-30"/>
        <use x="190.869141" xlink:href="#DejaVuSans-30"/>
       </g>
      </g>
     </g>
     <g id="ytick_3">
      <g id="line2d_3">
       <g>
        <use style="stroke:#000000;stroke-width:0.8;" x="506.928125" xlink:href="#m7befa04a2e" y="222.688731"/>
       </g>
      </g>
      <g id="text_3">
       <!-- 4000 -->
       <g transform="translate(513.928125 226.48795)scale(0.1 -0.1)">
        <defs>
         <path d="M 2419 4116 
L 825 1625 
L 2419 1625 
L 2419 4116 
z
M 2253 4666 
L 3047 4666 
L 3047 1625 
L 3713 1625 
L 3713 1100 
L 3047 1100 
L 3047 0 
L 2419 0 
L 2419 1100 
L 313 1100 
L 313 1709 
L 2253 4666 
z
" id="DejaVuSans-34" transform="scale(0.015625)"/>
        </defs>
        <use xlink:href="#DejaVuSans-34"/>
        <use x="63.623047" xlink:href="#DejaVuSans-30"/>
        <use x="127.246094" xlink:href="#DejaVuSans-30"/>
        <use x="190.869141" xlink:href="#DejaVuSans-30"/>
       </g>
      </g>
     </g>
     <g id="ytick_4">
      <g id="line2d_4">
       <g>
        <use style="stroke:#000000;stroke-width:0.8;" x="506.928125" xlink:href="#m7befa04a2e" y="152.954034"/>
       </g>
      </g>
      <g id="text_4">
       <!-- 6000 -->
       <g transform="translate(513.928125 156.753253)scale(0.1 -0.1)">
        <defs>
         <path d="M 2113 2584 
Q 1688 2584 1439 2293 
Q 1191 2003 1191 1497 
Q 1191 994 1439 701 
Q 1688 409 2113 409 
Q 2538 409 2786 701 
Q 3034 994 3034 1497 
Q 3034 2003 2786 2293 
Q 2538 2584 2113 2584 
z
M 3366 4563 
L 3366 3988 
Q 3128 4100 2886 4159 
Q 2644 4219 2406 4219 
Q 1781 4219 1451 3797 
Q 1122 3375 1075 2522 
Q 1259 2794 1537 2939 
Q 1816 3084 2150 3084 
Q 2853 3084 3261 2657 
Q 3669 2231 3669 1497 
Q 3669 778 3244 343 
Q 2819 -91 2113 -91 
Q 1303 -91 875 529 
Q 447 1150 447 2328 
Q 447 3434 972 4092 
Q 1497 4750 2381 4750 
Q 2619 4750 2861 4703 
Q 3103 4656 3366 4563 
z
" id="DejaVuSans-36" transform="scale(0.015625)"/>
        </defs>
        <use xlink:href="#DejaVuSans-36"/>
        <use x="63.623047" xlink:href="#DejaVuSans-30"/>
        <use x="127.246094" xlink:href="#DejaVuSans-30"/>
        <use x="190.869141" xlink:href="#DejaVuSans-30"/>
       </g>
      </g>
     </g>
     <g id="ytick_5">
      <g id="line2d_5">
       <g>
        <use style="stroke:#000000;stroke-width:0.8;" x="506.928125" xlink:href="#m7befa04a2e" y="83.219337"/>
       </g>
      </g>
      <g id="text_5">
       <!-- 8000 -->
       <g transform="translate(513.928125 87.018556)scale(0.1 -0.1)">
        <defs>
         <path d="M 2034 2216 
Q 1584 2216 1326 1975 
Q 1069 1734 1069 1313 
Q 1069 891 1326 650 
Q 1584 409 2034 409 
Q 2484 409 2743 651 
Q 3003 894 3003 1313 
Q 3003 1734 2745 1975 
Q 2488 2216 2034 2216 
z
M 1403 2484 
Q 997 2584 770 2862 
Q 544 3141 544 3541 
Q 544 4100 942 4425 
Q 1341 4750 2034 4750 
Q 2731 4750 3128 4425 
Q 3525 4100 3525 3541 
Q 3525 3141 3298 2862 
Q 3072 2584 2669 2484 
Q 3125 2378 3379 2068 
Q 3634 1759 3634 1313 
Q 3634 634 3220 271 
Q 2806 -91 2034 -91 
Q 1263 -91 848 271 
Q 434 634 434 1313 
Q 434 1759 690 2068 
Q 947 2378 1403 2484 
z
M 1172 3481 
Q 1172 3119 1398 2916 
Q 1625 2713 2034 2713 
Q 2441 2713 2670 2916 
Q 2900 3119 2900 3481 
Q 2900 3844 2670 4047 
Q 2441 4250 2034 4250 
Q 1625 4250 1398 4047 
Q 1172 3844 1172 3481 
z
" id="DejaVuSans-38" transform="scale(0.015625)"/>
        </defs>
        <use xlink:href="#DejaVuSans-38"/>
        <use x="63.623047" xlink:href="#DejaVuSans-30"/>
        <use x="127.246094" xlink:href="#DejaVuSans-30"/>
        <use x="190.869141" xlink:href="#DejaVuSans-30"/>
       </g>
      </g>
     </g>
     <g id="text_6">
      <!-- Estradiol concentrations (pmol/L) -->
      <g transform="translate(550.976563 278.970156)rotate(-90)scale(0.1 -0.1)">
       <defs>
        <path d="M 628 4666 
L 3578 4666 
L 3578 4134 
L 1259 4134 
L 1259 2753 
L 3481 2753 
L 3481 2222 
L 1259 2222 
L 1259 531 
L 3634 531 
L 3634 0 
L 628 0 
L 628 4666 
z
" id="DejaVuSans-45" transform="scale(0.015625)"/>
        <path d="M 2834 3397 
L 2834 2853 
Q 2591 2978 2328 3040 
Q 2066 3103 1784 3103 
Q 1356 3103 1142 2972 
Q 928 2841 928 2578 
Q 928 2378 1081 2264 
Q 1234 2150 1697 2047 
L 1894 2003 
Q 2506 1872 2764 1633 
Q 3022 1394 3022 966 
Q 3022 478 2636 193 
Q 2250 -91 1575 -91 
Q 1294 -91 989 -36 
Q 684 19 347 128 
L 347 722 
Q 666 556 975 473 
Q 1284 391 1588 391 
Q 1994 391 2212 530 
Q 2431 669 2431 922 
Q 2431 1156 2273 1281 
Q 2116 1406 1581 1522 
L 1381 1569 
Q 847 1681 609 1914 
Q 372 2147 372 2553 
Q 372 3047 722 3315 
Q 1072 3584 1716 3584 
Q 2034 3584 2315 3537 
Q 2597 3491 2834 3397 
z
" id="DejaVuSans-73" transform="scale(0.015625)"/>
        <path d="M 1172 4494 
L 1172 3500 
L 2356 3500 
L 2356 3053 
L 1172 3053 
L 1172 1153 
Q 1172 725 1289 603 
Q 1406 481 1766 481 
L 2356 481 
L 2356 0 
L 1766 0 
Q 1100 0 847 248 
Q 594 497 594 1153 
L 594 3053 
L 172 3053 
L 172 3500 
L 594 3500 
L 594 4494 
L 1172 4494 
z
" id="DejaVuSans-74" transform="scale(0.015625)"/>
        <path d="M 2631 2963 
Q 2534 3019 2420 3045 
Q 2306 3072 2169 3072 
Q 1681 3072 1420 2755 
Q 1159 2438 1159 1844 
L 1159 0 
L 581 0 
L 581 3500 
L 1159 3500 
L 1159 2956 
Q 1341 3275 1631 3429 
Q 1922 3584 2338 3584 
Q 2397 3584 2469 3576 
Q 2541 3569 2628 3553 
L 2631 2963 
z
" id="DejaVuSans-72" transform="scale(0.015625)"/>
        <path d="M 2194 1759 
Q 1497 1759 1228 1600 
Q 959 1441 959 1056 
Q 959 750 1161 570 
Q 1363 391 1709 391 
Q 2188 391 2477 730 
Q 2766 1069 2766 1631 
L 2766 1759 
L 2194 1759 
z
M 3341 1997 
L 3341 0 
L 2766 0 
L 2766 531 
Q 2569 213 2275 61 
Q 1981 -91 1556 -91 
Q 1019 -91 701 211 
Q 384 513 384 1019 
Q 384 1609 779 1909 
Q 1175 2209 1959 2209 
L 2766 2209 
L 2766 2266 
Q 2766 2663 2505 2880 
Q 2244 3097 1772 3097 
Q 1472 3097 1187 3025 
Q 903 2953 641 2809 
L 641 3341 
Q 956 3463 1253 3523 
Q 1550 3584 1831 3584 
Q 2591 3584 2966 3190 
Q 3341 2797 3341 1997 
z
" id="DejaVuSans-61" transform="scale(0.015625)"/>
        <path d="M 2906 2969 
L 2906 4863 
L 3481 4863 
L 3481 0 
L 2906 0 
L 2906 525 
Q 2725 213 2448 61 
Q 2172 -91 1784 -91 
Q 1150 -91 751 415 
Q 353 922 353 1747 
Q 353 2572 751 3078 
Q 1150 3584 1784 3584 
Q 2172 3584 2448 3432 
Q 2725 3281 2906 2969 
z
M 947 1747 
Q 947 1113 1208 752 
Q 1469 391 1925 391 
Q 2381 391 2643 752 
Q 2906 1113 2906 1747 
Q 2906 2381 2643 2742 
Q 2381 3103 1925 3103 
Q 1469 3103 1208 2742 
Q 947 2381 947 1747 
z
" id="DejaVuSans-64" transform="scale(0.015625)"/>
        <path d="M 603 3500 
L 1178 3500 
L 1178 0 
L 603 0 
L 603 3500 
z
M 603 4863 
L 1178 4863 
L 1178 4134 
L 603 4134 
L 603 4863 
z
" id="DejaVuSans-69" transform="scale(0.015625)"/>
        <path d="M 1959 3097 
Q 1497 3097 1228 2736 
Q 959 2375 959 1747 
Q 959 1119 1226 758 
Q 1494 397 1959 397 
Q 2419 397 2687 759 
Q 2956 1122 2956 1747 
Q 2956 2369 2687 2733 
Q 2419 3097 1959 3097 
z
M 1959 3584 
Q 2709 3584 3137 3096 
Q 3566 2609 3566 1747 
Q 3566 888 3137 398 
Q 2709 -91 1959 -91 
Q 1206 -91 779 398 
Q 353 888 353 1747 
Q 353 2609 779 3096 
Q 1206 3584 1959 3584 
z
" id="DejaVuSans-6f" transform="scale(0.015625)"/>
        <path d="M 603 4863 
L 1178 4863 
L 1178 0 
L 603 0 
L 603 4863 
z
" id="DejaVuSans-6c" transform="scale(0.015625)"/>
        <path id="DejaVuSans-20" transform="scale(0.015625)"/>
        <path d="M 3122 3366 
L 3122 2828 
Q 2878 2963 2633 3030 
Q 2388 3097 2138 3097 
Q 1578 3097 1268 2742 
Q 959 2388 959 1747 
Q 959 1106 1268 751 
Q 1578 397 2138 397 
Q 2388 397 2633 464 
Q 2878 531 3122 666 
L 3122 134 
Q 2881 22 2623 -34 
Q 2366 -91 2075 -91 
Q 1284 -91 818 406 
Q 353 903 353 1747 
Q 353 2603 823 3093 
Q 1294 3584 2113 3584 
Q 2378 3584 2631 3529 
Q 2884 3475 3122 3366 
z
" id="DejaVuSans-63" transform="scale(0.015625)"/>
        <path d="M 3513 2113 
L 3513 0 
L 2938 0 
L 2938 2094 
Q 2938 2591 2744 2837 
Q 2550 3084 2163 3084 
Q 1697 3084 1428 2787 
Q 1159 2491 1159 1978 
L 1159 0 
L 581 0 
L 581 3500 
L 1159 3500 
L 1159 2956 
Q 1366 3272 1645 3428 
Q 1925 3584 2291 3584 
Q 2894 3584 3203 3211 
Q 3513 2838 3513 2113 
z
" id="DejaVuSans-6e" transform="scale(0.015625)"/>
        <path d="M 3597 1894 
L 3597 1613 
L 953 1613 
Q 991 1019 1311 708 
Q 1631 397 2203 397 
Q 2534 397 2845 478 
Q 3156 559 3463 722 
L 3463 178 
Q 3153 47 2828 -22 
Q 2503 -91 2169 -91 
Q 1331 -91 842 396 
Q 353 884 353 1716 
Q 353 2575 817 3079 
Q 1281 3584 2069 3584 
Q 2775 3584 3186 3129 
Q 3597 2675 3597 1894 
z
M 3022 2063 
Q 3016 2534 2758 2815 
Q 2500 3097 2075 3097 
Q 1594 3097 1305 2825 
Q 1016 2553 972 2059 
L 3022 2063 
z
" id="DejaVuSans-65" transform="scale(0.015625)"/>
        <path d="M 1984 4856 
Q 1566 4138 1362 3434 
Q 1159 2731 1159 2009 
Q 1159 1288 1364 580 
Q 1569 -128 1984 -844 
L 1484 -844 
Q 1016 -109 783 600 
Q 550 1309 550 2009 
Q 550 2706 781 3412 
Q 1013 4119 1484 4856 
L 1984 4856 
z
" id="DejaVuSans-28" transform="scale(0.015625)"/>
        <path d="M 1159 525 
L 1159 -1331 
L 581 -1331 
L 581 3500 
L 1159 3500 
L 1159 2969 
Q 1341 3281 1617 3432 
Q 1894 3584 2278 3584 
Q 2916 3584 3314 3078 
Q 3713 2572 3713 1747 
Q 3713 922 3314 415 
Q 2916 -91 2278 -91 
Q 1894 -91 1617 61 
Q 1341 213 1159 525 
z
M 3116 1747 
Q 3116 2381 2855 2742 
Q 2594 3103 2138 3103 
Q 1681 3103 1420 2742 
Q 1159 2381 1159 1747 
Q 1159 1113 1420 752 
Q 1681 391 2138 391 
Q 2594 391 2855 752 
Q 3116 1113 3116 1747 
z
" id="DejaVuSans-70" transform="scale(0.015625)"/>
        <path d="M 3328 2828 
Q 3544 3216 3844 3400 
Q 4144 3584 4550 3584 
Q 5097 3584 5394 3201 
Q 5691 2819 5691 2113 
L 5691 0 
L 5113 0 
L 5113 2094 
Q 5113 2597 4934 2840 
Q 4756 3084 4391 3084 
Q 3944 3084 3684 2787 
Q 3425 2491 3425 1978 
L 3425 0 
L 2847 0 
L 2847 2094 
Q 2847 2600 2669 2842 
Q 2491 3084 2119 3084 
Q 1678 3084 1418 2786 
Q 1159 2488 1159 1978 
L 1159 0 
L 581 0 
L 581 3500 
L 1159 3500 
L 1159 2956 
Q 1356 3278 1631 3431 
Q 1906 3584 2284 3584 
Q 2666 3584 2933 3390 
Q 3200 3197 3328 2828 
z
" id="DejaVuSans-6d" transform="scale(0.015625)"/>
        <path d="M 1625 4666 
L 2156 4666 
L 531 -594 
L 0 -594 
L 1625 4666 
z
" id="DejaVuSans-2f" transform="scale(0.015625)"/>
        <path d="M 628 4666 
L 1259 4666 
L 1259 531 
L 3531 531 
L 3531 0 
L 628 0 
L 628 4666 
z
" id="DejaVuSans-4c" transform="scale(0.015625)"/>
        <path d="M 513 4856 
L 1013 4856 
Q 1481 4119 1714 3412 
Q 1947 2706 1947 2009 
Q 1947 1309 1714 600 
Q 1481 -109 1013 -844 
L 513 -844 
Q 928 -128 1133 580 
Q 1338 1288 1338 2009 
Q 1338 2731 1133 3434 
Q 928 4138 513 4856 
z
" id="DejaVuSans-29" transform="scale(0.015625)"/>
       </defs>
       <use xlink:href="#DejaVuSans-45"/>
       <use x="63.183594" xlink:href="#DejaVuSans-73"/>
       <use x="115.283203" xlink:href="#DejaVuSans-74"/>
       <use x="154.492188" xlink:href="#DejaVuSans-72"/>
       <use x="195.605469" xlink:href="#DejaVuSans-61"/>
       <use x="256.884766" xlink:href="#DejaVuSans-64"/>
       <use x="320.361328" xlink:href="#DejaVuSans-69"/>
       <use x="348.144531" xlink:href="#DejaVuSans-6f"/>
       <use x="409.326172" xlink:href="#DejaVuSans-6c"/>
       <use x="437.109375" xlink:href="#DejaVuSans-20"/>
       <use x="468.896484" xlink:href="#DejaVuSans-63"/>
       <use x="523.876953" xlink:href="#DejaVuSans-6f"/>
       <use x="585.058594" xlink:href="#DejaVuSans-6e"/>
       <use x="648.4375" xlink:href="#DejaVuSans-63"/>
       <use x="703.417969" xlink:href="#DejaVuSans-65"/>
       <use x="764.941406" xlink:href="#DejaVuSans-6e"/>
       <use x="828.320312" xlink:href="#DejaVuSans-74"/>
       <use x="867.529297" xlink:href="#DejaVuSans-72"/>
       <use x="908.642578" xlink:href="#DejaVuSans-61"/>
       <use x="969.921875" xlink:href="#DejaVuSans-74"/>
       <use x="1009.130859" xlink:href="#DejaVuSans-69"/>
       <use x="1036.914062" xlink:href="#DejaVuSans-6f"/>
       <use x="1098.095703" xlink:href="#DejaVuSans-6e"/>
       <use x="1161.474609" xlink:href="#DejaVuSans-73"/>
       <use x="1213.574219" xlink:href="#DejaVuSans-20"/>
       <use x="1245.361328" xlink:href="#DejaVuSans-28"/>
       <use x="1284.375" xlink:href="#DejaVuSans-70"/>
       <use x="1347.851562" xlink:href="#DejaVuSans-6d"/>
       <use x="1445.263672" xlink:href="#DejaVuSans-6f"/>
       <use x="1506.445312" xlink:href="#DejaVuSans-6c"/>
       <use x="1534.228516" xlink:href="#DejaVuSans-2f"/>
       <use x="1567.919922" xlink:href="#DejaVuSans-4c"/>
       <use x="1623.632812" xlink:href="#DejaVuSans-29"/>
      </g>
     </g>
    </g>
    <g id="patch_4">
     <path d="M 506.928125 362.158125 
L 506.928125 29.518125 
" style="fill:none;stroke:#000000;stroke-linecap:square;stroke-linejoin:miter;stroke-width:0.8;"/>
    </g>
   </g>
   <g id="matplotlib.axis_3">
    <g id="xtick_1">
     <g id="line2d_6">
      <defs>
       <path d="M 0 0 
L 0 3.5 
" id="ma4412be37a" style="stroke:#000000;stroke-width:0.8;"/>
      </defs>
      <g>
       <use style="stroke:#000000;stroke-width:0.8;" x="60.528125" xlink:href="#ma4412be37a" y="362.158125"/>
      </g>
     </g>
     <g id="text_7">
      <!-- 0 -->
      <g transform="translate(57.346875 376.756563)scale(0.1 -0.1)">
       <use xlink:href="#DejaVuSans-30"/>
      </g>
     </g>
    </g>
    <g id="xtick_2">
     <g id="line2d_7">
      <g>
       <use style="stroke:#000000;stroke-width:0.8;" x="134.928125" xlink:href="#ma4412be37a" y="362.158125"/>
      </g>
     </g>
     <g id="text_8">
      <!-- 7 -->
      <g transform="translate(131.746875 376.756563)scale(0.1 -0.1)">
       <defs>
        <path d="M 525 4666 
L 3525 4666 
L 3525 4397 
L 1831 0 
L 1172 0 
L 2766 4134 
L 525 4134 
L 525 4666 
z
" id="DejaVuSans-37" transform="scale(0.015625)"/>
       </defs>
       <use xlink:href="#DejaVuSans-37"/>
      </g>
     </g>
    </g>
    <g id="xtick_3">
     <g id="line2d_8">
      <g>
       <use style="stroke:#000000;stroke-width:0.8;" x="209.328125" xlink:href="#ma4412be37a" y="362.158125"/>
      </g>
     </g>
     <g id="text_9">
      <!-- 14 -->
      <g transform="translate(202.965625 376.756563)scale(0.1 -0.1)">
       <defs>
        <path d="M 794 531 
L 1825 531 
L 1825 4091 
L 703 3866 
L 703 4441 
L 1819 4666 
L 2450 4666 
L 2450 531 
L 3481 531 
L 3481 0 
L 794 0 
L 794 531 
z
" id="DejaVuSans-31" transform="scale(0.015625)"/>
       </defs>
       <use xlink:href="#DejaVuSans-31"/>
       <use x="63.623047" xlink:href="#DejaVuSans-34"/>
      </g>
     </g>
    </g>
    <g id="xtick_4">
     <g id="line2d_9">
      <g>
       <use style="stroke:#000000;stroke-width:0.8;" x="283.728125" xlink:href="#ma4412be37a" y="362.158125"/>
      </g>
     </g>
     <g id="text_10">
      <!-- 21 -->
      <g transform="translate(277.365625 376.756563)scale(0.1 -0.1)">
       <use xlink:href="#DejaVuSans-32"/>
       <use x="63.623047" xlink:href="#DejaVuSans-31"/>
      </g>
     </g>
    </g>
    <g id="xtick_5">
     <g id="line2d_10">
      <g>
       <use style="stroke:#000000;stroke-width:0.8;" x="358.128125" xlink:href="#ma4412be37a" y="362.158125"/>
      </g>
     </g>
     <g id="text_11">
      <!-- 28 -->
      <g transform="translate(351.765625 376.756563)scale(0.1 -0.1)">
       <use xlink:href="#DejaVuSans-32"/>
       <use x="63.623047" xlink:href="#DejaVuSans-38"/>
      </g>
     </g>
    </g>
    <g id="xtick_6">
     <g id="line2d_11">
      <g>
       <use style="stroke:#000000;stroke-width:0.8;" x="432.528125" xlink:href="#ma4412be37a" y="362.158125"/>
      </g>
     </g>
     <g id="text_12">
      <!-- 35 -->
      <g transform="translate(426.165625 376.756563)scale(0.1 -0.1)">
       <defs>
        <path d="M 2597 2516 
Q 3050 2419 3304 2112 
Q 3559 1806 3559 1356 
Q 3559 666 3084 287 
Q 2609 -91 1734 -91 
Q 1441 -91 1130 -33 
Q 819 25 488 141 
L 488 750 
Q 750 597 1062 519 
Q 1375 441 1716 441 
Q 2309 441 2620 675 
Q 2931 909 2931 1356 
Q 2931 1769 2642 2001 
Q 2353 2234 1838 2234 
L 1294 2234 
L 1294 2753 
L 1863 2753 
Q 2328 2753 2575 2939 
Q 2822 3125 2822 3475 
Q 2822 3834 2567 4026 
Q 2313 4219 1838 4219 
Q 1578 4219 1281 4162 
Q 984 4106 628 3988 
L 628 4550 
Q 988 4650 1302 4700 
Q 1616 4750 1894 4750 
Q 2613 4750 3031 4423 
Q 3450 4097 3450 3541 
Q 3450 3153 3228 2886 
Q 3006 2619 2597 2516 
z
" id="DejaVuSans-33" transform="scale(0.015625)"/>
        <path d="M 691 4666 
L 3169 4666 
L 3169 4134 
L 1269 4134 
L 1269 2991 
Q 1406 3038 1543 3061 
Q 1681 3084 1819 3084 
Q 2600 3084 3056 2656 
Q 3513 2228 3513 1497 
Q 3513 744 3044 326 
Q 2575 -91 1722 -91 
Q 1428 -91 1123 -41 
Q 819 9 494 109 
L 494 744 
Q 775 591 1075 516 
Q 1375 441 1709 441 
Q 2250 441 2565 725 
Q 2881 1009 2881 1497 
Q 2881 1984 2565 2268 
Q 2250 2553 1709 2553 
Q 1456 2553 1204 2497 
Q 953 2441 691 2322 
L 691 4666 
z
" id="DejaVuSans-35" transform="scale(0.015625)"/>
       </defs>
       <use xlink:href="#DejaVuSans-33"/>
       <use x="63.623047" xlink:href="#DejaVuSans-35"/>
      </g>
     </g>
    </g>
    <g id="xtick_7">
     <g id="line2d_12">
      <g>
       <use style="stroke:#000000;stroke-width:0.8;" x="506.928125" xlink:href="#ma4412be37a" y="362.158125"/>
      </g>
     </g>
     <g id="text_13">
      <!-- 42 -->
      <g transform="translate(500.565625 376.756563)scale(0.1 -0.1)">
       <use xlink:href="#DejaVuSans-34"/>
       <use x="63.623047" xlink:href="#DejaVuSans-32"/>
      </g>
     </g>
    </g>
    <g id="text_14">
     <!-- Time (days) -->
     <g transform="translate(254.201562 390.434688)scale(0.1 -0.1)">
      <defs>
       <path d="M -19 4666 
L 3928 4666 
L 3928 4134 
L 2272 4134 
L 2272 0 
L 1638 0 
L 1638 4134 
L -19 4134 
L -19 4666 
z
" id="DejaVuSans-54" transform="scale(0.015625)"/>
       <path d="M 2059 -325 
Q 1816 -950 1584 -1140 
Q 1353 -1331 966 -1331 
L 506 -1331 
L 506 -850 
L 844 -850 
Q 1081 -850 1212 -737 
Q 1344 -625 1503 -206 
L 1606 56 
L 191 3500 
L 800 3500 
L 1894 763 
L 2988 3500 
L 3597 3500 
L 2059 -325 
z
" id="DejaVuSans-79" transform="scale(0.015625)"/>
      </defs>
      <use xlink:href="#DejaVuSans-54"/>
      <use x="57.958984" xlink:href="#DejaVuSans-69"/>
      <use x="85.742188" xlink:href="#DejaVuSans-6d"/>
      <use x="183.154297" xlink:href="#DejaVuSans-65"/>
      <use x="244.677734" xlink:href="#DejaVuSans-20"/>
      <use x="276.464844" xlink:href="#DejaVuSans-28"/>
      <use x="315.478516" xlink:href="#DejaVuSans-64"/>
      <use x="378.955078" xlink:href="#DejaVuSans-61"/>
      <use x="440.234375" xlink:href="#DejaVuSans-79"/>
      <use x="499.414062" xlink:href="#DejaVuSans-73"/>
      <use x="551.513672" xlink:href="#DejaVuSans-29"/>
     </g>
    </g>
   </g>
   <g id="matplotlib.axis_4">
    <g id="ytick_6">
     <g id="line2d_13">
      <defs>
       <path d="M 0 0 
L -3.5 0 
" id="m727f696cc4" style="stroke:#000000;stroke-width:0.8;"/>
      </defs>
      <g>
       <use style="stroke:#000000;stroke-width:0.8;" x="60.528125" xlink:href="#m727f696cc4" y="362.158125"/>
      </g>
     </g>
     <g id="text_15">
      <!-- 0 -->
      <g transform="translate(47.165625 365.957344)scale(0.1 -0.1)">
       <use xlink:href="#DejaVuSans-30"/>
      </g>
     </g>
    </g>
    <g id="ytick_7">
     <g id="line2d_14">
      <g>
       <use style="stroke:#000000;stroke-width:0.8;" x="60.528125" xlink:href="#m727f696cc4" y="298.159107"/>
      </g>
     </g>
     <g id="text_16">
      <!-- 500 -->
      <g transform="translate(34.440625 301.958326)scale(0.1 -0.1)">
       <use xlink:href="#DejaVuSans-35"/>
       <use x="63.623047" xlink:href="#DejaVuSans-30"/>
       <use x="127.246094" xlink:href="#DejaVuSans-30"/>
      </g>
     </g>
    </g>
    <g id="ytick_8">
     <g id="line2d_15">
      <g>
       <use style="stroke:#000000;stroke-width:0.8;" x="60.528125" xlink:href="#m727f696cc4" y="234.160089"/>
      </g>
     </g>
     <g id="text_17">
      <!-- 1000 -->
      <g transform="translate(28.078125 237.959308)scale(0.1 -0.1)">
       <use xlink:href="#DejaVuSans-31"/>
       <use x="63.623047" xlink:href="#DejaVuSans-30"/>
       <use x="127.246094" xlink:href="#DejaVuSans-30"/>
       <use x="190.869141" xlink:href="#DejaVuSans-30"/>
      </g>
     </g>
    </g>
    <g id="ytick_9">
     <g id="line2d_16">
      <g>
       <use style="stroke:#000000;stroke-width:0.8;" x="60.528125" xlink:href="#m727f696cc4" y="170.161071"/>
      </g>
     </g>
     <g id="text_18">
      <!-- 1500 -->
      <g transform="translate(28.078125 173.960289)scale(0.1 -0.1)">
       <use xlink:href="#DejaVuSans-31"/>
       <use x="63.623047" xlink:href="#DejaVuSans-35"/>
       <use x="127.246094" xlink:href="#DejaVuSans-30"/>
       <use x="190.869141" xlink:href="#DejaVuSans-30"/>
      </g>
     </g>
    </g>
    <g id="ytick_10">
     <g id="line2d_17">
      <g>
       <use style="stroke:#000000;stroke-width:0.8;" x="60.528125" xlink:href="#m727f696cc4" y="106.162053"/>
      </g>
     </g>
     <g id="text_19">
      <!-- 2000 -->
      <g transform="translate(28.078125 109.961271)scale(0.1 -0.1)">
       <use xlink:href="#DejaVuSans-32"/>
       <use x="63.623047" xlink:href="#DejaVuSans-30"/>
       <use x="127.246094" xlink:href="#DejaVuSans-30"/>
       <use x="190.869141" xlink:href="#DejaVuSans-30"/>
      </g>
     </g>
    </g>
    <g id="ytick_11">
     <g id="line2d_18">
      <g>
       <use style="stroke:#000000;stroke-width:0.8;" x="60.528125" xlink:href="#m727f696cc4" y="42.163034"/>
      </g>
     </g>
     <g id="text_20">
      <!-- 2500 -->
      <g transform="translate(28.078125 45.962253)scale(0.1 -0.1)">
       <use xlink:href="#DejaVuSans-32"/>
       <use x="63.623047" xlink:href="#DejaVuSans-35"/>
       <use x="127.246094" xlink:href="#DejaVuSans-30"/>
       <use x="190.869141" xlink:href="#DejaVuSans-30"/>
      </g>
     </g>
    </g>
    <g id="text_21">
     <!-- Estradiol concentrations (pg/mL) -->
     <g transform="translate(21.998438 277.695938)rotate(-90)scale(0.1 -0.1)">
      <defs>
       <path d="M 2906 1791 
Q 2906 2416 2648 2759 
Q 2391 3103 1925 3103 
Q 1463 3103 1205 2759 
Q 947 2416 947 1791 
Q 947 1169 1205 825 
Q 1463 481 1925 481 
Q 2391 481 2648 825 
Q 2906 1169 2906 1791 
z
M 3481 434 
Q 3481 -459 3084 -895 
Q 2688 -1331 1869 -1331 
Q 1566 -1331 1297 -1286 
Q 1028 -1241 775 -1147 
L 775 -588 
Q 1028 -725 1275 -790 
Q 1522 -856 1778 -856 
Q 2344 -856 2625 -561 
Q 2906 -266 2906 331 
L 2906 616 
Q 2728 306 2450 153 
Q 2172 0 1784 0 
Q 1141 0 747 490 
Q 353 981 353 1791 
Q 353 2603 747 3093 
Q 1141 3584 1784 3584 
Q 2172 3584 2450 3431 
Q 2728 3278 2906 2969 
L 2906 3500 
L 3481 3500 
L 3481 434 
z
" id="DejaVuSans-67" transform="scale(0.015625)"/>
      </defs>
      <use xlink:href="#DejaVuSans-45"/>
      <use x="63.183594" xlink:href="#DejaVuSans-73"/>
      <use x="115.283203" xlink:href="#DejaVuSans-74"/>
      <use x="154.492188" xlink:href="#DejaVuSans-72"/>
      <use x="195.605469" xlink:href="#DejaVuSans-61"/>
      <use x="256.884766" xlink:href="#DejaVuSans-64"/>
      <use x="320.361328" xlink:href="#DejaVuSans-69"/>
      <use x="348.144531" xlink:href="#DejaVuSans-6f"/>
      <use x="409.326172" xlink:href="#DejaVuSans-6c"/>
      <use x="437.109375" xlink:href="#DejaVuSans-20"/>
      <use x="468.896484" xlink:href="#DejaVuSans-63"/>
      <use x="523.876953" xlink:href="#DejaVuSans-6f"/>
      <use x="585.058594" xlink:href="#DejaVuSans-6e"/>
      <use x="648.4375" xlink:href="#DejaVuSans-63"/>
      <use x="703.417969" xlink:href="#DejaVuSans-65"/>
      <use x="764.941406" xlink:href="#DejaVuSans-6e"/>
      <use x="828.320312" xlink:href="#DejaVuSans-74"/>
      <use x="867.529297" xlink:href="#DejaVuSans-72"/>
      <use x="908.642578" xlink:href="#DejaVuSans-61"/>
      <use x="969.921875" xlink:href="#DejaVuSans-74"/>
      <use x="1009.130859" xlink:href="#DejaVuSans-69"/>
      <use x="1036.914062" xlink:href="#DejaVuSans-6f"/>
      <use x="1098.095703" xlink:href="#DejaVuSans-6e"/>
      <use x="1161.474609" xlink:href="#DejaVuSans-73"/>
      <use x="1213.574219" xlink:href="#DejaVuSans-20"/>
      <use x="1245.361328" xlink:href="#DejaVuSans-28"/>
      <use x="1284.375" xlink:href="#DejaVuSans-70"/>
      <use x="1347.851562" xlink:href="#DejaVuSans-67"/>
      <use x="1411.328125" xlink:href="#DejaVuSans-2f"/>
      <use x="1445.019531" xlink:href="#DejaVuSans-6d"/>
      <use x="1542.431641" xlink:href="#DejaVuSans-4c"/>
      <use x="1598.144531" xlink:href="#DejaVuSans-29"/>
     </g>
    </g>
   </g>
   <g id="line2d_19">
    <path clip-path="url(#pfaf26c064a)" d="M 60.528125 362.158125 
L 60.970982 362.006865 
L 61.413839 361.585268 
L 62.004315 360.677952 
L 62.742411 359.113331 
L 63.775744 356.372285 
L 65.694792 350.471724 
L 68.499554 341.932742 
L 70.270982 337.289031 
L 71.747173 334.010126 
L 73.223363 331.284281 
L 74.551935 329.286168 
L 75.880506 327.688728 
L 77.209077 326.455615 
L 78.537649 325.547857 
L 79.86622 324.926462 
L 81.194792 324.554047 
L 82.670982 324.39002 
L 84.147173 324.447149 
L 85.918601 324.753944 
L 87.837649 325.317628 
L 90.199554 326.256019 
L 93.151935 327.684383 
L 97.432887 330.026541 
L 110.423363 337.265354 
L 115.885268 339.982751 
L 121.199554 342.378272 
L 126.513839 344.532875 
L 132.123363 346.562585 
L 137.880506 348.407795 
L 143.932887 350.115203 
L 150.428125 351.713694 
L 157.36622 353.188152 
L 164.747173 354.529208 
L 172.86622 355.774117 
L 181.723363 356.901752 
L 191.46622 357.913529 
L 202.39003 358.818243 
L 209.623363 359.239976 
L 210.06622 358.930886 
L 210.656696 358.15157 
L 211.394792 356.716944 
L 212.428125 354.113097 
L 214.051934 349.28699 
L 217.299553 339.524828 
L 218.923363 335.323644 
L 220.399553 332.063443 
L 221.875744 329.354557 
L 223.204315 327.372496 
L 224.532887 325.79303 
L 225.861458 324.580372 
L 227.19003 323.695742 
L 228.518601 323.100104 
L 229.847173 322.755886 
L 231.175744 322.627998 
L 232.651934 322.700728 
L 234.275744 322.996801 
L 236.194792 323.578764 
L 238.409077 324.485584 
L 241.213839 325.88271 
L 245.199553 328.138815 
L 259.813839 336.623987 
L 265.128125 339.348796 
L 270.294792 341.751544 
L 275.609077 343.975992 
L 281.070982 346.018662 
L 286.828125 347.928534 
L 292.880506 349.695602 
L 299.228125 351.314808 
L 306.018601 352.815392 
L 313.251934 354.186404 
L 321.075744 355.443897 
L 329.637649 356.593927 
L 339.085268 357.635752 
L 349.56622 358.564923 
L 358.275744 359.172591 
L 358.718601 358.954687 
L 359.161458 358.481456 
L 359.751934 357.525577 
L 360.637649 355.56589 
L 361.818601 352.323511 
L 367.575744 335.590739 
L 369.051934 332.278405 
L 370.528125 329.517548 
L 371.856696 327.491202 
L 373.185268 325.871011 
L 374.513839 324.621746 
L 375.842411 323.704806 
L 377.170982 323.081084 
L 378.499553 322.712787 
L 379.828125 322.564517 
L 381.304315 322.618509 
L 382.928125 322.898155 
L 384.847172 323.465513 
L 387.061458 324.360766 
L 389.86622 325.749492 
L 393.851934 328.001999 
L 408.909077 336.746046 
L 414.223363 339.460665 
L 419.39003 341.853018 
L 424.704315 344.067123 
L 430.16622 346.099919 
L 435.923363 348.000359 
L 441.975744 349.758595 
L 448.323363 351.369659 
L 455.113839 352.86267 
L 462.494791 354.2524 
L 470.46622 355.521021 
L 479.175744 356.675632 
L 488.770982 357.71657 
L 499.399553 358.640549 
L 506.928125 359.176212 
L 506.928125 359.176212 
" style="fill:none;stroke:#1f77b4;stroke-linecap:square;stroke-width:1.5;"/>
   </g>
   <g id="line2d_20">
    <path clip-path="url(#pfaf26c064a)" d="M 60.528125 362.158125 
L 60.823363 362.02119 
L 61.118601 361.630041 
L 61.561458 360.626725 
L 62.151935 358.640017 
L 62.89003 355.351923 
L 64.070982 348.861919 
L 66.432887 334.122064 
L 68.647173 320.878612 
L 70.270982 312.419938 
L 71.747173 305.862126 
L 73.075744 300.906701 
L 74.404315 296.817425 
L 75.585268 293.863648 
L 76.76622 291.498988 
L 77.799554 289.870553 
L 78.832887 288.614618 
L 79.86622 287.694799 
L 80.899554 287.076111 
L 81.932887 286.725468 
L 82.96622 286.61198 
L 83.999554 286.707107 
L 85.180506 287.037833 
L 86.509077 287.651094 
L 87.985268 288.580314 
L 89.756696 289.968717 
L 91.970982 292.015669 
L 94.775744 294.936688 
L 99.204315 299.915064 
L 107.618601 309.391932 
L 112.194792 314.190751 
L 116.475744 318.364065 
L 120.609077 322.090288 
L 124.742411 325.523152 
L 128.875744 328.675677 
L 133.156696 331.663481 
L 137.585268 334.479146 
L 142.161458 337.118875 
L 146.885268 339.581747 
L 151.756696 341.869142 
L 156.923363 344.043037 
L 162.237649 346.036617 
L 167.847173 347.903608 
L 173.751934 349.635861 
L 180.099553 351.264033 
L 186.89003 352.772185 
L 194.123363 354.149767 
L 201.947173 355.413131 
L 209.328125 356.421718 
L 209.623363 356.321827 
L 209.918601 355.967483 
L 210.361458 355.01893 
L 210.951934 353.104415 
L 211.69003 349.905258 
L 212.870982 343.55459 
L 215.232887 329.082805 
L 217.447173 316.078359 
L 219.070982 307.78772 
L 220.547173 301.377557 
L 221.875744 296.550989 
L 223.204315 292.586867 
L 224.385268 289.741315 
L 225.56622 287.482113 
L 226.599553 285.943737 
L 227.632887 284.775842 
L 228.66622 283.94209 
L 229.699553 283.407539 
L 230.732887 283.139146 
L 231.76622 283.106065 
L 232.799553 283.279796 
L 233.980506 283.698199 
L 235.309077 284.407419 
L 236.932887 285.555463 
L 238.851934 287.22296 
L 241.213839 289.607294 
L 244.313839 293.083202 
L 250.513839 300.466916 
L 256.418601 307.350851 
L 260.994792 312.344679 
L 265.275744 316.683519 
L 269.409077 320.555463 
L 273.542411 324.121411 
L 277.675744 327.395482 
L 281.956696 330.498073 
L 286.237649 333.328645 
L 290.66622 335.993705 
L 295.242411 338.490788 
L 299.96622 340.819725 
L 304.985268 343.044241 
L 310.151934 345.092537 
L 315.613839 347.019891 
L 321.370982 348.816381 
L 327.570982 350.513439 
L 334.06622 352.06029 
L 341.151934 353.514402 
L 348.680506 354.830679 
L 356.947172 356.046311 
L 358.275744 356.187057 
L 358.570982 355.957739 
L 359.013839 355.171583 
L 359.604315 353.432144 
L 360.342411 350.395536 
L 361.375744 345.040633 
L 363.147172 334.386224 
L 366.099553 316.70763 
L 367.723363 308.311701 
L 369.199553 301.796955 
L 370.528125 296.876971 
L 371.856696 292.82428 
L 373.037649 289.905932 
L 374.218601 287.580391 
L 375.251934 285.989524 
L 376.285268 284.774326 
L 377.318601 283.898315 
L 378.351934 283.326315 
L 379.385268 283.024993 
L 380.418601 282.963176 
L 381.451934 283.112028 
L 382.632887 283.506285 
L 383.961458 284.193218 
L 385.437649 285.20635 
L 387.209077 286.697323 
L 389.423363 288.87382 
L 392.375744 292.127827 
L 397.247172 297.898418 
L 404.628125 306.603015 
L 409.204315 311.648908 
L 413.485268 316.039903 
L 417.618601 319.961939 
L 421.751934 323.576021 
L 425.885268 326.895443 
L 430.16622 330.041713 
L 434.447172 332.912544 
L 438.875744 335.615753 
L 443.451934 338.148727 
L 448.175744 340.511223 
L 453.194791 342.767843 
L 458.361458 344.845729 
L 463.823363 346.800941 
L 469.580506 348.623407 
L 475.632887 350.306679 
L 482.128125 351.880994 
L 489.06622 353.33238 
L 496.594791 354.676375 
L 504.713839 355.897358 
L 506.928125 356.194298 
L 506.928125 356.194298 
" style="fill:none;stroke:#ff7f0e;stroke-linecap:square;stroke-width:1.5;"/>
   </g>
   <g id="line2d_21">
    <path clip-path="url(#pfaf26c064a)" d="M 60.528125 362.158125 
L 60.675744 362.088391 
L 60.970982 361.553086 
L 61.413839 359.866697 
L 62.004315 356.237432 
L 62.742411 349.97895 
L 63.775744 339.014764 
L 65.547173 317.283062 
L 68.499554 281.256592 
L 70.123363 264.114698 
L 71.599554 250.777635 
L 72.928125 240.669245 
L 74.256696 232.303154 
L 75.437649 226.241013 
L 76.618601 221.370252 
L 77.651935 218.000914 
L 78.685268 215.38712 
L 79.570982 213.692634 
L 80.456696 212.454996 
L 81.342411 211.63161 
L 82.080506 211.23273 
L 82.818601 211.071437 
L 83.556696 211.126927 
L 84.442411 211.452221 
L 85.328125 212.030148 
L 86.361458 212.985246 
L 87.542411 214.396366 
L 88.870982 216.325383 
L 90.494792 219.077933 
L 92.561458 223.053362 
L 95.218601 228.682565 
L 99.499554 238.348494 
L 107.028125 255.341223 
L 111.309077 264.418171 
L 115.147173 272.047761 
L 118.837649 278.90144 
L 122.528125 285.281764 
L 126.070982 290.974412 
L 129.613839 296.262671 
L 133.156696 301.168837 
L 136.847173 305.898545 
L 140.537649 310.26598 
L 144.228125 314.297151 
L 148.06622 318.159527 
L 151.904315 321.711326 
L 155.89003 325.097288 
L 160.023363 328.310028 
L 164.156696 331.24453 
L 168.437649 334.01608 
L 172.86622 336.622092 
L 177.442411 339.061775 
L 182.313839 341.403305 
L 187.332887 343.567786 
L 192.647173 345.614079 
L 198.256696 347.530215 
L 204.161458 349.307949 
L 209.328125 350.68531 
L 209.475744 350.652681 
L 209.770982 350.191224 
L 210.06622 349.249167 
L 210.509077 347.050215 
L 211.099553 342.898157 
L 211.985268 334.708448 
L 213.313839 319.707831 
L 218.185268 262.154374 
L 219.661458 248.024063 
L 220.99003 237.182412 
L 222.318601 228.114284 
L 223.499553 221.477201 
L 224.680506 216.089113 
L 225.713839 212.318399 
L 226.747173 209.352017 
L 227.632887 207.39356 
L 228.518601 205.926041 
L 229.404315 204.905282 
L 230.142411 204.365423 
L 230.880506 204.083283 
L 231.618601 204.036855 
L 232.356696 204.205365 
L 233.242411 204.663889 
L 234.128125 205.372481 
L 235.161458 206.476846 
L 236.342411 208.054462 
L 237.818601 210.419356 
L 239.59003 213.711513 
L 241.804315 218.332551 
L 244.904315 225.387116 
L 259.370982 259.067927 
L 263.209077 267.102857 
L 266.899553 274.325388 
L 270.59003 281.051917 
L 274.132887 287.0551 
L 277.675744 292.632838 
L 281.218601 297.808199 
L 284.761458 302.605769 
L 288.451934 307.228234 
L 292.142411 311.495026 
L 295.832887 315.432311 
L 299.670982 319.204087 
L 303.509077 322.672173 
L 307.494792 325.978076 
L 311.628125 329.114692 
L 315.909077 332.077158 
L 320.337649 334.862698 
L 324.913839 337.47046 
L 329.637649 339.901334 
L 334.509077 342.157766 
L 339.675744 344.301512 
L 344.99003 346.267047 
L 350.599553 348.107558 
L 356.651934 349.855047 
L 358.275744 350.215988 
L 358.570982 349.757352 
L 358.86622 348.818097 
L 359.309077 346.623314 
L 359.899553 342.476753 
L 360.785268 334.295155 
L 362.113839 319.306413 
L 366.985268 261.793653 
L 368.461458 247.67484 
L 369.79003 236.843223 
L 371.118601 227.784842 
L 372.299553 221.156185 
L 373.480506 215.77631 
L 374.513839 212.012609 
L 375.547172 209.053083 
L 376.432887 207.10038 
L 377.318601 205.638504 
L 378.204315 204.623279 
L 378.942411 204.087951 
L 379.680506 203.810269 
L 380.418601 203.768228 
L 381.156696 203.941054 
L 382.042411 204.404665 
L 382.928125 205.118246 
L 383.961458 206.228311 
L 385.142411 207.812286 
L 386.618601 210.184899 
L 388.39003 213.485995 
L 390.604315 218.117728 
L 393.704315 225.186421 
L 408.023363 258.601971 
L 411.861458 266.668858 
L 415.551934 273.9218 
L 419.24241 280.677654 
L 422.785268 286.707591 
L 426.328125 292.310543 
L 429.870982 297.509521 
L 433.413839 302.329124 
L 437.104315 306.97291 
L 440.794791 311.259441 
L 444.485268 315.214977 
L 448.323363 319.00426 
L 452.161458 322.488457 
L 456.147172 325.809728 
L 460.280506 328.960931 
L 464.561458 331.937177 
L 468.84241 334.646707 
L 473.418601 337.275101 
L 478.14241 339.725208 
L 483.013839 341.999495 
L 488.180506 344.160205 
L 493.494791 346.141294 
L 499.104315 347.99637 
L 505.009077 349.717453 
L 506.928125 350.230471 
L 506.928125 350.230471 
" style="fill:none;stroke:#2ca02c;stroke-linecap:square;stroke-width:1.5;"/>
   </g>
   <g id="line2d_22">
    <path clip-path="url(#pfaf26c064a)" d="M 60.528125 362.158125 
L 60.675744 362.053524 
L 60.970982 361.250566 
L 61.413839 358.720982 
L 62.004315 353.277085 
L 62.742411 343.889363 
L 63.775744 327.443083 
L 65.547173 294.84553 
L 68.499554 240.805825 
L 70.123363 215.092985 
L 71.599554 195.08739 
L 72.928125 179.924806 
L 74.256696 167.375669 
L 75.437649 158.282456 
L 76.618601 150.976315 
L 77.651935 145.922309 
L 78.685268 142.001617 
L 79.570982 139.459888 
L 80.456696 137.603431 
L 81.194792 136.53366 
L 81.932887 135.860154 
L 82.523363 135.584141 
L 83.113839 135.52405 
L 83.704315 135.664382 
L 84.442411 136.099269 
L 85.180506 136.797249 
L 86.06622 137.946634 
L 87.099554 139.666888 
L 88.280506 142.062503 
L 89.756696 145.589901 
L 91.528125 150.43565 
L 93.742411 157.169576 
L 96.842411 167.366967 
L 109.980506 211.413862 
L 113.818601 223.116883 
L 117.509077 233.654474 
L 121.051934 243.099593 
L 124.594792 251.90016 
L 127.99003 259.7525 
L 131.385268 267.06402 
L 134.780506 273.865304 
L 138.175744 280.187701 
L 141.718601 286.307925 
L 145.261458 291.974489 
L 148.804315 297.219792 
L 152.347173 302.074379 
L 156.037649 306.746599 
L 159.728125 311.056044 
L 163.418601 315.030672 
L 167.256696 318.836914 
L 171.094792 322.33588 
L 175.080506 325.670705 
L 179.213839 328.834435 
L 183.494792 331.822304 
L 187.775744 334.542294 
L 192.204315 337.099719 
L 196.928125 339.567149 
L 201.799553 341.857489 
L 206.818601 343.974629 
L 209.328125 344.948903 
L 209.475744 344.899958 
L 209.770982 344.207774 
L 210.06622 342.794688 
L 210.509077 339.49626 
L 211.099553 333.268174 
L 211.985268 320.983609 
L 213.313839 298.482684 
L 218.185268 212.152498 
L 219.661458 190.957032 
L 220.99003 174.694555 
L 222.318601 161.092364 
L 223.499553 151.136738 
L 224.680506 143.054607 
L 225.713839 137.398536 
L 226.747173 132.948963 
L 227.632887 130.011277 
L 228.518601 127.809999 
L 229.256696 126.490238 
L 229.994792 125.599015 
L 230.585268 125.17091 
L 231.175744 124.977364 
L 231.76622 125.001945 
L 232.356696 125.228986 
L 233.094792 125.774867 
L 233.980506 126.778346 
L 235.013839 128.37434 
L 236.194792 130.681961 
L 237.523363 133.794371 
L 239.147173 138.194527 
L 241.213839 144.505632 
L 243.870982 153.395349 
L 248.299553 169.126268 
L 255.385268 194.214693 
L 259.518601 208.000776 
L 263.356696 220.022922 
L 266.899553 230.40902 
L 270.442411 240.109306 
L 273.837649 248.778012 
L 277.232887 256.858118 
L 280.628125 264.379756 
L 284.023363 271.375243 
L 287.418601 277.877368 
L 290.813839 283.918354 
L 294.356696 289.763921 
L 297.899553 295.174739 
L 301.442411 300.182399 
L 304.985268 304.816473 
L 308.675744 309.276086 
L 312.36622 313.389192 
L 316.204315 317.328031 
L 320.042411 320.948881 
L 324.028125 324.399866 
L 328.013839 327.561906 
L 332.147172 330.56169 
L 336.428125 333.394711 
L 340.856696 336.058411 
L 345.432887 338.552031 
L 350.156696 340.87646 
L 355.175744 343.095911 
L 358.128125 344.291739 
L 358.275744 344.24492 
L 358.570982 343.556966 
L 358.86622 342.148084 
L 359.309077 338.855909 
L 359.899553 332.636067 
L 360.785268 320.36367 
L 362.113839 297.880558 
L 366.985268 211.611417 
L 368.461458 190.433197 
L 369.79003 174.185772 
L 371.118601 160.5982 
L 372.299553 150.655216 
L 373.480506 142.585403 
L 374.513839 136.939851 
L 375.547172 132.500561 
L 376.432887 129.571507 
L 377.318601 127.378694 
L 378.056696 126.065862 
L 378.794791 125.181457 
L 379.385268 124.758728 
L 379.975744 124.570488 
L 380.56622 124.600307 
L 381.156696 124.832518 
L 381.894791 125.384769 
L 382.780506 126.395757 
L 383.813839 128.000328 
L 384.994791 130.317518 
L 386.323363 133.4404 
L 387.947172 137.852946 
L 390.013839 144.179196 
L 392.670982 153.087403 
L 397.099553 168.84684 
L 404.185268 193.975503 
L 408.318601 207.782326 
L 412.156696 219.822117 
L 415.699553 230.223235 
L 419.24241 239.937419 
L 422.637649 248.618466 
L 426.032887 256.710026 
L 429.428125 264.242297 
L 432.823363 271.247654 
L 436.218601 277.758938 
L 439.613839 283.808427 
L 443.156696 289.662217 
L 446.699553 295.080643 
L 450.24241 300.095341 
L 453.785268 304.735927 
L 457.475744 309.201806 
L 461.16622 313.32069 
L 465.004315 317.265062 
L 468.84241 320.890998 
L 472.828125 324.346831 
L 476.813839 327.513313 
L 480.947172 330.51731 
L 485.228125 333.354311 
L 489.656696 336.021751 
L 494.232887 338.518874 
L 498.956696 340.846568 
L 503.975744 343.069136 
L 506.928125 344.266644 
L 506.928125 344.266644 
" style="fill:none;stroke:#d62728;stroke-linecap:square;stroke-width:1.5;"/>
   </g>
   <g id="line2d_23">
    <path clip-path="url(#pfaf26c064a)" d="M 60.528125 362.158125 
L 60.675744 362.018657 
L 60.970982 360.948046 
L 61.413839 357.575268 
L 62.004315 350.316739 
L 62.742411 337.799776 
L 63.775744 315.871402 
L 65.547173 272.407999 
L 68.499554 200.355059 
L 70.123363 166.071271 
L 71.599554 139.397146 
L 72.928125 119.180366 
L 74.256696 102.448183 
L 75.437649 90.3239 
L 76.618601 80.582379 
L 77.651935 73.843703 
L 78.685268 68.616115 
L 79.570982 65.227142 
L 80.456696 62.751866 
L 81.194792 61.325505 
L 81.785268 60.567004 
L 82.375744 60.123664 
L 82.96622 59.973547 
L 83.556696 60.095729 
L 84.147173 60.470313 
L 84.885268 61.264817 
L 85.623363 62.389598 
L 86.509077 64.130002 
L 87.542411 66.634606 
L 88.870982 70.492641 
L 90.494792 75.997741 
L 92.413839 83.352682 
L 94.923363 93.915147 
L 98.761458 111.158621 
L 107.323363 149.811248 
L 111.456696 167.283585 
L 115.147173 181.937397 
L 118.69003 195.114748 
L 122.085268 206.92337 
L 125.480506 217.950451 
L 128.875744 228.228334 
L 132.270982 237.795547 
L 135.66622 246.693325 
L 139.061458 254.963457 
L 142.456696 262.646982 
L 145.851934 269.783441 
L 149.247173 276.410461 
L 152.642411 282.563561 
L 156.037649 288.276091 
L 159.580506 293.80099 
L 163.123363 298.913159 
L 166.66622 303.643273 
L 170.356696 308.194863 
L 174.047173 312.392518 
L 177.737649 316.263717 
L 181.575744 319.970702 
L 185.561458 323.50371 
L 189.547173 326.740861 
L 193.680506 329.811875 
L 197.961458 332.71215 
L 202.39003 335.439072 
L 206.96622 337.991873 
L 209.328125 339.212495 
L 209.475744 339.147236 
L 209.770982 338.224324 
L 210.06622 336.340209 
L 210.509077 331.942305 
L 211.099553 323.63819 
L 211.985268 307.258771 
L 213.313839 277.257537 
L 218.185268 162.150623 
L 219.661458 133.890001 
L 220.99003 112.206699 
L 222.318601 94.070444 
L 223.499553 80.796276 
L 224.680506 70.020102 
L 225.713839 62.478673 
L 226.747173 56.545909 
L 227.632887 52.628995 
L 228.518601 49.693957 
L 229.256696 47.934276 
L 229.994792 46.745979 
L 230.585268 46.175172 
L 231.175744 45.917111 
L 231.76622 45.949885 
L 232.356696 46.252606 
L 232.947173 46.805404 
L 233.685268 47.819453 
L 234.570982 49.464743 
L 235.604315 51.905582 
L 236.785268 55.285739 
L 238.261458 60.243632 
L 240.032887 67.035707 
L 242.247173 76.455668 
L 245.347173 90.699336 
L 258.19003 150.826477 
L 262.028125 167.215156 
L 265.570982 181.407328 
L 269.113839 194.682315 
L 272.509077 206.557354 
L 275.904315 217.633403 
L 279.299553 227.948594 
L 282.694792 237.545214 
L 286.09003 246.466938 
L 289.485268 254.75715 
L 292.880506 262.457938 
L 296.275744 269.609539 
L 299.670982 276.250049 
L 303.06622 282.41531 
L 306.461458 288.138895 
L 310.004315 293.674329 
L 313.547172 298.796143 
L 317.09003 303.535116 
L 320.780506 308.09519 
L 324.470982 312.300641 
L 328.161458 316.179014 
L 331.999553 319.892857 
L 335.985268 323.432394 
L 339.970982 326.675525 
L 344.104315 329.752208 
L 348.385268 332.657835 
L 352.813839 335.389788 
L 357.39003 337.947299 
L 358.128125 338.336277 
L 358.275744 338.273852 
L 358.570982 337.35658 
L 358.86622 335.47807 
L 359.309077 331.088504 
L 359.899553 322.79538 
L 360.785268 306.432185 
L 362.113839 276.454702 
L 366.985268 161.429181 
L 368.461458 133.191555 
L 369.79003 111.528321 
L 371.118601 93.411558 
L 372.299553 80.154246 
L 373.480506 69.394495 
L 374.513839 61.867093 
L 375.547172 55.94804 
L 376.432887 52.042634 
L 377.318601 49.118883 
L 378.056696 47.368442 
L 378.794791 46.189235 
L 379.385268 45.625596 
L 379.975744 45.374609 
L 380.56622 45.414368 
L 381.156696 45.723983 
L 381.747172 46.283586 
L 382.485268 47.306018 
L 383.370982 48.961191 
L 384.404315 51.41332 
L 385.585268 54.80607 
L 387.061458 59.779252 
L 388.832887 66.589032 
L 391.047172 76.030178 
L 394.147172 90.301828 
L 406.99003 150.526595 
L 410.828125 166.939496 
L 414.370982 181.152287 
L 417.913839 194.446351 
L 421.309077 206.338331 
L 424.704315 217.430106 
L 428.099553 227.759893 
L 431.494791 237.370061 
L 434.89003 246.304361 
L 438.285268 254.606245 
L 441.680506 262.317868 
L 445.075744 269.479525 
L 448.470982 276.12937 
L 451.86622 282.303295 
L 455.261458 288.034923 
L 458.804315 293.578134 
L 462.347172 298.707143 
L 465.89003 303.452774 
L 469.580506 308.019253 
L 473.270982 312.230612 
L 476.961458 316.114432 
L 480.799553 319.833491 
L 484.785268 323.378001 
L 488.770982 326.625686 
L 492.904315 329.706691 
L 497.185268 332.616399 
L 501.613839 335.35219 
L 506.190029 337.913293 
L 506.928125 338.302817 
L 506.928125 338.302817 
" style="fill:none;stroke:#9467bd;stroke-linecap:square;stroke-width:1.5;"/>
   </g>
   <g id="patch_5">
    <path d="M 60.528125 362.158125 
L 60.528125 29.518125 
" style="fill:none;stroke:#000000;stroke-linecap:square;stroke-linejoin:miter;stroke-width:0.8;"/>
   </g>
   <g id="patch_6">
    <path d="M 506.928125 362.158125 
L 506.928125 29.518125 
" style="fill:none;stroke:#000000;stroke-linecap:square;stroke-linejoin:miter;stroke-width:0.8;"/>
   </g>
   <g id="patch_7">
    <path d="M 60.528125 362.158125 
L 506.928125 362.158125 
" style="fill:none;stroke:#000000;stroke-linecap:square;stroke-linejoin:miter;stroke-width:0.8;"/>
   </g>
   <g id="patch_8">
    <path d="M 60.528125 29.518125 
L 506.928125 29.518125 
" style="fill:none;stroke:#000000;stroke-linecap:square;stroke-linejoin:miter;stroke-width:0.8;"/>
   </g>
   <g id="text_22">
    <!-- Estradiol valerate at different doses every 2 weeks i.m. -->
    <g transform="translate(117.463437 23.518125)scale(0.12 -0.12)">
     <defs>
      <path d="M 191 3500 
L 800 3500 
L 1894 563 
L 2988 3500 
L 3597 3500 
L 2284 0 
L 1503 0 
L 191 3500 
z
" id="DejaVuSans-76" transform="scale(0.015625)"/>
      <path d="M 2375 4863 
L 2375 4384 
L 1825 4384 
Q 1516 4384 1395 4259 
Q 1275 4134 1275 3809 
L 1275 3500 
L 2222 3500 
L 2222 3053 
L 1275 3053 
L 1275 0 
L 697 0 
L 697 3053 
L 147 3053 
L 147 3500 
L 697 3500 
L 697 3744 
Q 697 4328 969 4595 
Q 1241 4863 1831 4863 
L 2375 4863 
z
" id="DejaVuSans-66" transform="scale(0.015625)"/>
      <path d="M 269 3500 
L 844 3500 
L 1563 769 
L 2278 3500 
L 2956 3500 
L 3675 769 
L 4391 3500 
L 4966 3500 
L 4050 0 
L 3372 0 
L 2619 2869 
L 1863 0 
L 1184 0 
L 269 3500 
z
" id="DejaVuSans-77" transform="scale(0.015625)"/>
      <path d="M 581 4863 
L 1159 4863 
L 1159 1991 
L 2875 3500 
L 3609 3500 
L 1753 1863 
L 3688 0 
L 2938 0 
L 1159 1709 
L 1159 0 
L 581 0 
L 581 4863 
z
" id="DejaVuSans-6b" transform="scale(0.015625)"/>
      <path d="M 684 794 
L 1344 794 
L 1344 0 
L 684 0 
L 684 794 
z
" id="DejaVuSans-2e" transform="scale(0.015625)"/>
     </defs>
     <use xlink:href="#DejaVuSans-45"/>
     <use x="63.183594" xlink:href="#DejaVuSans-73"/>
     <use x="115.283203" xlink:href="#DejaVuSans-74"/>
     <use x="154.492188" xlink:href="#DejaVuSans-72"/>
     <use x="195.605469" xlink:href="#DejaVuSans-61"/>
     <use x="256.884766" xlink:href="#DejaVuSans-64"/>
     <use x="320.361328" xlink:href="#DejaVuSans-69"/>
     <use x="348.144531" xlink:href="#DejaVuSans-6f"/>
     <use x="409.326172" xlink:href="#DejaVuSans-6c"/>
     <use x="437.109375" xlink:href="#DejaVuSans-20"/>
     <use x="468.896484" xlink:href="#DejaVuSans-76"/>
     <use x="528.076172" xlink:href="#DejaVuSans-61"/>
     <use x="589.355469" xlink:href="#DejaVuSans-6c"/>
     <use x="617.138672" xlink:href="#DejaVuSans-65"/>
     <use x="678.662109" xlink:href="#DejaVuSans-72"/>
     <use x="719.775391" xlink:href="#DejaVuSans-61"/>
     <use x="781.054688" xlink:href="#DejaVuSans-74"/>
     <use x="820.263672" xlink:href="#DejaVuSans-65"/>
     <use x="881.787109" xlink:href="#DejaVuSans-20"/>
     <use x="913.574219" xlink:href="#DejaVuSans-61"/>
     <use x="974.853516" xlink:href="#DejaVuSans-74"/>
     <use x="1014.0625" xlink:href="#DejaVuSans-20"/>
     <use x="1045.849609" xlink:href="#DejaVuSans-64"/>
     <use x="1109.326172" xlink:href="#DejaVuSans-69"/>
     <use x="1137.109375" xlink:href="#DejaVuSans-66"/>
     <use x="1172.314453" xlink:href="#DejaVuSans-66"/>
     <use x="1207.519531" xlink:href="#DejaVuSans-65"/>
     <use x="1269.042969" xlink:href="#DejaVuSans-72"/>
     <use x="1307.90625" xlink:href="#DejaVuSans-65"/>
     <use x="1369.429688" xlink:href="#DejaVuSans-6e"/>
     <use x="1432.808594" xlink:href="#DejaVuSans-74"/>
     <use x="1472.017578" xlink:href="#DejaVuSans-20"/>
     <use x="1503.804688" xlink:href="#DejaVuSans-64"/>
     <use x="1567.28125" xlink:href="#DejaVuSans-6f"/>
     <use x="1628.462891" xlink:href="#DejaVuSans-73"/>
     <use x="1680.5625" xlink:href="#DejaVuSans-65"/>
     <use x="1742.085938" xlink:href="#DejaVuSans-73"/>
     <use x="1794.185547" xlink:href="#DejaVuSans-20"/>
     <use x="1825.972656" xlink:href="#DejaVuSans-65"/>
     <use x="1887.496094" xlink:href="#DejaVuSans-76"/>
     <use x="1946.675781" xlink:href="#DejaVuSans-65"/>
     <use x="2008.199219" xlink:href="#DejaVuSans-72"/>
     <use x="2049.3125" xlink:href="#DejaVuSans-79"/>
     <use x="2108.492188" xlink:href="#DejaVuSans-20"/>
     <use x="2140.279297" xlink:href="#DejaVuSans-32"/>
     <use x="2203.902344" xlink:href="#DejaVuSans-20"/>
     <use x="2235.689453" xlink:href="#DejaVuSans-77"/>
     <use x="2317.476562" xlink:href="#DejaVuSans-65"/>
     <use x="2379" xlink:href="#DejaVuSans-65"/>
     <use x="2440.523438" xlink:href="#DejaVuSans-6b"/>
     <use x="2498.433594" xlink:href="#DejaVuSans-73"/>
     <use x="2550.533203" xlink:href="#DejaVuSans-20"/>
     <use x="2582.320312" xlink:href="#DejaVuSans-69"/>
     <use x="2610.103516" xlink:href="#DejaVuSans-2e"/>
     <use x="2641.890625" xlink:href="#DejaVuSans-6d"/>
     <use x="2739.302734" xlink:href="#DejaVuSans-2e"/>
    </g>
   </g>
   <g id="legend_1">
    <g id="patch_9">
     <path d="M 435.935938 110.90875 
L 499.928125 110.90875 
Q 501.928125 110.90875 501.928125 108.90875 
L 501.928125 36.518125 
Q 501.928125 34.518125 499.928125 34.518125 
L 435.935938 34.518125 
Q 433.935938 34.518125 433.935938 36.518125 
L 433.935938 108.90875 
Q 433.935938 110.90875 435.935938 110.90875 
z
" style="fill:#ffffff;opacity:0.8;stroke:#cccccc;stroke-linejoin:miter;"/>
    </g>
    <g id="line2d_24">
     <path d="M 437.935938 42.616563 
L 457.935938 42.616563 
" style="fill:none;stroke:#1f77b4;stroke-linecap:square;stroke-width:1.5;"/>
    </g>
    <g id="line2d_25"/>
    <g id="text_23">
     <!-- 5 mg -->
     <g transform="translate(465.935938 46.116563)scale(0.1 -0.1)">
      <use xlink:href="#DejaVuSans-35"/>
      <use x="63.623047" xlink:href="#DejaVuSans-20"/>
      <use x="95.410156" xlink:href="#DejaVuSans-6d"/>
      <use x="192.822266" xlink:href="#DejaVuSans-67"/>
     </g>
    </g>
    <g id="line2d_26">
     <path d="M 437.935938 57.294688 
L 457.935938 57.294688 
" style="fill:none;stroke:#ff7f0e;stroke-linecap:square;stroke-width:1.5;"/>
    </g>
    <g id="line2d_27"/>
    <g id="text_24">
     <!-- 10 mg -->
     <g transform="translate(465.935938 60.794688)scale(0.1 -0.1)">
      <use xlink:href="#DejaVuSans-31"/>
      <use x="63.623047" xlink:href="#DejaVuSans-30"/>
      <use x="127.246094" xlink:href="#DejaVuSans-20"/>
      <use x="159.033203" xlink:href="#DejaVuSans-6d"/>
      <use x="256.445312" xlink:href="#DejaVuSans-67"/>
     </g>
    </g>
    <g id="line2d_28">
     <path d="M 437.935938 71.972813 
L 457.935938 71.972813 
" style="fill:none;stroke:#2ca02c;stroke-linecap:square;stroke-width:1.5;"/>
    </g>
    <g id="line2d_29"/>
    <g id="text_25">
     <!-- 20 mg -->
     <g transform="translate(465.935938 75.472813)scale(0.1 -0.1)">
      <use xlink:href="#DejaVuSans-32"/>
      <use x="63.623047" xlink:href="#DejaVuSans-30"/>
      <use x="127.246094" xlink:href="#DejaVuSans-20"/>
      <use x="159.033203" xlink:href="#DejaVuSans-6d"/>
      <use x="256.445312" xlink:href="#DejaVuSans-67"/>
     </g>
    </g>
    <g id="line2d_30">
     <path d="M 437.935938 86.650938 
L 457.935938 86.650938 
" style="fill:none;stroke:#d62728;stroke-linecap:square;stroke-width:1.5;"/>
    </g>
    <g id="line2d_31"/>
    <g id="text_26">
     <!-- 30 mg -->
     <g transform="translate(465.935938 90.150938)scale(0.1 -0.1)">
      <use xlink:href="#DejaVuSans-33"/>
      <use x="63.623047" xlink:href="#DejaVuSans-30"/>
      <use x="127.246094" xlink:href="#DejaVuSans-20"/>
      <use x="159.033203" xlink:href="#DejaVuSans-6d"/>
      <use x="256.445312" xlink:href="#DejaVuSans-67"/>
     </g>
    </g>
    <g id="line2d_32">
     <path d="M 437.935938 101.329063 
L 457.935938 101.329063 
" style="fill:none;stroke:#9467bd;stroke-linecap:square;stroke-width:1.5;"/>
    </g>
    <g id="line2d_33"/>
    <g id="text_27">
     <!-- 40 mg -->
     <g transform="translate(465.935938 104.829063)scale(0.1 -0.1)">
      <use xlink:href="#DejaVuSans-34"/>
      <use x="63.623047" xlink:href="#DejaVuSans-30"/>
      <use x="127.246094" xlink:href="#DejaVuSans-20"/>
      <use x="159.033203" xlink:href="#DejaVuSans-6d"/>
      <use x="256.445312" xlink:href="#DejaVuSans-67"/>
     </g>
    </g>
   </g>
  </g>
 </g>
 <defs>
  <clipPath id="pfaf26c064a">
   <rect height="332.64" width="446.4" x="60.528125" y="29.518125"/>
  </clipPath>
 </defs>
</svg>
