<?xml version="1.0" encoding="utf-8" standalone="no"?>
<!DOCTYPE svg PUBLIC "-//W3C//DTD SVG 1.1//EN"
  "http://www.w3.org/Graphics/SVG/1.1/DTD/svg11.dtd">
<svg height="406.914375pt" version="1.1" viewBox="0 0 561.09375 406.914375" width="561.09375pt" xmlns="http://www.w3.org/2000/svg" xmlns:xlink="http://www.w3.org/1999/xlink">
 <metadata>
  <rdf:RDF xmlns:cc="http://creativecommons.org/ns#" xmlns:dc="http://purl.org/dc/elements/1.1/" xmlns:rdf="http://www.w3.org/1999/02/22-rdf-syntax-ns#">
   <cc:Work>
    <dc:type rdf:resource="http://purl.org/dc/dcmitype/StillImage"/>
    <dc:date>2021-07-15T02:40:28.930682</dc:date>
    <dc:format>image/svg+xml</dc:format>
    <dc:creator>
     <cc:Agent>
      <dc:title>Matplotlib v3.4.1, https://matplotlib.org/</dc:title>
     </cc:Agent>
    </dc:creator>
   </cc:Work>
  </rdf:RDF>
 </metadata>
 <defs>
  <style type="text/css">*{stroke-linecap:butt;stroke-linejoin:round;}</style>
 </defs>
 <g id="figure_1">
  <g id="patch_1">
   <path d="M 0 406.914375 
L 561.09375 406.914375 
L 561.09375 0 
L 0 0 
z
" style="fill:#ffffff;"/>
  </g>
  <g id="axes_1">
   <g id="patch_2">
    <path d="M 54.165625 362.158125 
L 500.565625 362.158125 
L 500.565625 29.518125 
L 54.165625 29.518125 
z
" style="fill:#ffffff;"/>
   </g>
   <g id="axes_2">
    <g id="patch_3">
     <path d="M 500.565625 362.158125 
L 500.565625 362.158125 
L 500.565625 29.518125 
L 500.565625 29.518125 
z
" style="fill:#ffffff;"/>
    </g>
    <g id="matplotlib.axis_1"/>
    <g id="matplotlib.axis_2">
     <g id="ytick_1">
      <g id="line2d_1">
       <defs>
        <path d="M 0 0 
L 3.5 0 
" id="m8d14ca00a9" style="stroke:#000000;stroke-width:0.8;"/>
       </defs>
       <g>
        <use style="stroke:#000000;stroke-width:0.8;" x="500.565625" xlink:href="#m8d14ca00a9" y="362.158125"/>
       </g>
      </g>
      <g id="text_1">
       <!-- 0 -->
       <g transform="translate(507.565625 365.957344)scale(0.1 -0.1)">
        <defs>
         <path d="M 2034 4250 
Q 1547 4250 1301 3770 
Q 1056 3291 1056 2328 
Q 1056 1369 1301 889 
Q 1547 409 2034 409 
Q 2525 409 2770 889 
Q 3016 1369 3016 2328 
Q 3016 3291 2770 3770 
Q 2525 4250 2034 4250 
z
M 2034 4750 
Q 2819 4750 3233 4129 
Q 3647 3509 3647 2328 
Q 3647 1150 3233 529 
Q 2819 -91 2034 -91 
Q 1250 -91 836 529 
Q 422 1150 422 2328 
Q 422 3509 836 4129 
Q 1250 4750 2034 4750 
z
" id="DejaVuSans-30" transform="scale(0.015625)"/>
        </defs>
        <use xlink:href="#DejaVuSans-30"/>
       </g>
      </g>
     </g>
     <g id="ytick_2">
      <g id="line2d_2">
       <g>
        <use style="stroke:#000000;stroke-width:0.8;" x="500.565625" xlink:href="#m8d14ca00a9" y="324.402745"/>
       </g>
      </g>
      <g id="text_2">
       <!-- 250 -->
       <g transform="translate(507.565625 328.201964)scale(0.1 -0.1)">
        <defs>
         <path d="M 1228 531 
L 3431 531 
L 3431 0 
L 469 0 
L 469 531 
Q 828 903 1448 1529 
Q 2069 2156 2228 2338 
Q 2531 2678 2651 2914 
Q 2772 3150 2772 3378 
Q 2772 3750 2511 3984 
Q 2250 4219 1831 4219 
Q 1534 4219 1204 4116 
Q 875 4013 500 3803 
L 500 4441 
Q 881 4594 1212 4672 
Q 1544 4750 1819 4750 
Q 2544 4750 2975 4387 
Q 3406 4025 3406 3419 
Q 3406 3131 3298 2873 
Q 3191 2616 2906 2266 
Q 2828 2175 2409 1742 
Q 1991 1309 1228 531 
z
" id="DejaVuSans-32" transform="scale(0.015625)"/>
         <path d="M 691 4666 
L 3169 4666 
L 3169 4134 
L 1269 4134 
L 1269 2991 
Q 1406 3038 1543 3061 
Q 1681 3084 1819 3084 
Q 2600 3084 3056 2656 
Q 3513 2228 3513 1497 
Q 3513 744 3044 326 
Q 2575 -91 1722 -91 
Q 1428 -91 1123 -41 
Q 819 9 494 109 
L 494 744 
Q 775 591 1075 516 
Q 1375 441 1709 441 
Q 2250 441 2565 725 
Q 2881 1009 2881 1497 
Q 2881 1984 2565 2268 
Q 2250 2553 1709 2553 
Q 1456 2553 1204 2497 
Q 953 2441 691 2322 
L 691 4666 
z
" id="DejaVuSans-35" transform="scale(0.015625)"/>
        </defs>
        <use xlink:href="#DejaVuSans-32"/>
        <use x="63.623047" xlink:href="#DejaVuSans-35"/>
        <use x="127.246094" xlink:href="#DejaVuSans-30"/>
       </g>
      </g>
     </g>
     <g id="ytick_3">
      <g id="line2d_3">
       <g>
        <use style="stroke:#000000;stroke-width:0.8;" x="500.565625" xlink:href="#m8d14ca00a9" y="286.647365"/>
       </g>
      </g>
      <g id="text_3">
       <!-- 500 -->
       <g transform="translate(507.565625 290.446584)scale(0.1 -0.1)">
        <use xlink:href="#DejaVuSans-35"/>
        <use x="63.623047" xlink:href="#DejaVuSans-30"/>
        <use x="127.246094" xlink:href="#DejaVuSans-30"/>
       </g>
      </g>
     </g>
     <g id="ytick_4">
      <g id="line2d_4">
       <g>
        <use style="stroke:#000000;stroke-width:0.8;" x="500.565625" xlink:href="#m8d14ca00a9" y="248.891985"/>
       </g>
      </g>
      <g id="text_4">
       <!-- 750 -->
       <g transform="translate(507.565625 252.691204)scale(0.1 -0.1)">
        <defs>
         <path d="M 525 4666 
L 3525 4666 
L 3525 4397 
L 1831 0 
L 1172 0 
L 2766 4134 
L 525 4134 
L 525 4666 
z
" id="DejaVuSans-37" transform="scale(0.015625)"/>
        </defs>
        <use xlink:href="#DejaVuSans-37"/>
        <use x="63.623047" xlink:href="#DejaVuSans-35"/>
        <use x="127.246094" xlink:href="#DejaVuSans-30"/>
       </g>
      </g>
     </g>
     <g id="ytick_5">
      <g id="line2d_5">
       <g>
        <use style="stroke:#000000;stroke-width:0.8;" x="500.565625" xlink:href="#m8d14ca00a9" y="211.136605"/>
       </g>
      </g>
      <g id="text_5">
       <!-- 1000 -->
       <g transform="translate(507.565625 214.935824)scale(0.1 -0.1)">
        <defs>
         <path d="M 794 531 
L 1825 531 
L 1825 4091 
L 703 3866 
L 703 4441 
L 1819 4666 
L 2450 4666 
L 2450 531 
L 3481 531 
L 3481 0 
L 794 0 
L 794 531 
z
" id="DejaVuSans-31" transform="scale(0.015625)"/>
        </defs>
        <use xlink:href="#DejaVuSans-31"/>
        <use x="63.623047" xlink:href="#DejaVuSans-30"/>
        <use x="127.246094" xlink:href="#DejaVuSans-30"/>
        <use x="190.869141" xlink:href="#DejaVuSans-30"/>
       </g>
      </g>
     </g>
     <g id="ytick_6">
      <g id="line2d_6">
       <g>
        <use style="stroke:#000000;stroke-width:0.8;" x="500.565625" xlink:href="#m8d14ca00a9" y="173.381225"/>
       </g>
      </g>
      <g id="text_6">
       <!-- 1250 -->
       <g transform="translate(507.565625 177.180444)scale(0.1 -0.1)">
        <use xlink:href="#DejaVuSans-31"/>
        <use x="63.623047" xlink:href="#DejaVuSans-32"/>
        <use x="127.246094" xlink:href="#DejaVuSans-35"/>
        <use x="190.869141" xlink:href="#DejaVuSans-30"/>
       </g>
      </g>
     </g>
     <g id="ytick_7">
      <g id="line2d_7">
       <g>
        <use style="stroke:#000000;stroke-width:0.8;" x="500.565625" xlink:href="#m8d14ca00a9" y="135.625845"/>
       </g>
      </g>
      <g id="text_7">
       <!-- 1500 -->
       <g transform="translate(507.565625 139.425064)scale(0.1 -0.1)">
        <use xlink:href="#DejaVuSans-31"/>
        <use x="63.623047" xlink:href="#DejaVuSans-35"/>
        <use x="127.246094" xlink:href="#DejaVuSans-30"/>
        <use x="190.869141" xlink:href="#DejaVuSans-30"/>
       </g>
      </g>
     </g>
     <g id="ytick_8">
      <g id="line2d_8">
       <g>
        <use style="stroke:#000000;stroke-width:0.8;" x="500.565625" xlink:href="#m8d14ca00a9" y="97.870465"/>
       </g>
      </g>
      <g id="text_8">
       <!-- 1750 -->
       <g transform="translate(507.565625 101.669684)scale(0.1 -0.1)">
        <use xlink:href="#DejaVuSans-31"/>
        <use x="63.623047" xlink:href="#DejaVuSans-37"/>
        <use x="127.246094" xlink:href="#DejaVuSans-35"/>
        <use x="190.869141" xlink:href="#DejaVuSans-30"/>
       </g>
      </g>
     </g>
     <g id="ytick_9">
      <g id="line2d_9">
       <g>
        <use style="stroke:#000000;stroke-width:0.8;" x="500.565625" xlink:href="#m8d14ca00a9" y="60.115085"/>
       </g>
      </g>
      <g id="text_9">
       <!-- 2000 -->
       <g transform="translate(507.565625 63.914304)scale(0.1 -0.1)">
        <use xlink:href="#DejaVuSans-32"/>
        <use x="63.623047" xlink:href="#DejaVuSans-30"/>
        <use x="127.246094" xlink:href="#DejaVuSans-30"/>
        <use x="190.869141" xlink:href="#DejaVuSans-30"/>
       </g>
      </g>
     </g>
     <g id="text_10">
      <!-- Estradiol concentrations (pmol/L) -->
      <g transform="translate(544.614063 278.970156)rotate(-90)scale(0.1 -0.1)">
       <defs>
        <path d="M 628 4666 
L 3578 4666 
L 3578 4134 
L 1259 4134 
L 1259 2753 
L 3481 2753 
L 3481 2222 
L 1259 2222 
L 1259 531 
L 3634 531 
L 3634 0 
L 628 0 
L 628 4666 
z
" id="DejaVuSans-45" transform="scale(0.015625)"/>
        <path d="M 2834 3397 
L 2834 2853 
Q 2591 2978 2328 3040 
Q 2066 3103 1784 3103 
Q 1356 3103 1142 2972 
Q 928 2841 928 2578 
Q 928 2378 1081 2264 
Q 1234 2150 1697 2047 
L 1894 2003 
Q 2506 1872 2764 1633 
Q 3022 1394 3022 966 
Q 3022 478 2636 193 
Q 2250 -91 1575 -91 
Q 1294 -91 989 -36 
Q 684 19 347 128 
L 347 722 
Q 666 556 975 473 
Q 1284 391 1588 391 
Q 1994 391 2212 530 
Q 2431 669 2431 922 
Q 2431 1156 2273 1281 
Q 2116 1406 1581 1522 
L 1381 1569 
Q 847 1681 609 1914 
Q 372 2147 372 2553 
Q 372 3047 722 3315 
Q 1072 3584 1716 3584 
Q 2034 3584 2315 3537 
Q 2597 3491 2834 3397 
z
" id="DejaVuSans-73" transform="scale(0.015625)"/>
        <path d="M 1172 4494 
L 1172 3500 
L 2356 3500 
L 2356 3053 
L 1172 3053 
L 1172 1153 
Q 1172 725 1289 603 
Q 1406 481 1766 481 
L 2356 481 
L 2356 0 
L 1766 0 
Q 1100 0 847 248 
Q 594 497 594 1153 
L 594 3053 
L 172 3053 
L 172 3500 
L 594 3500 
L 594 4494 
L 1172 4494 
z
" id="DejaVuSans-74" transform="scale(0.015625)"/>
        <path d="M 2631 2963 
Q 2534 3019 2420 3045 
Q 2306 3072 2169 3072 
Q 1681 3072 1420 2755 
Q 1159 2438 1159 1844 
L 1159 0 
L 581 0 
L 581 3500 
L 1159 3500 
L 1159 2956 
Q 1341 3275 1631 3429 
Q 1922 3584 2338 3584 
Q 2397 3584 2469 3576 
Q 2541 3569 2628 3553 
L 2631 2963 
z
" id="DejaVuSans-72" transform="scale(0.015625)"/>
        <path d="M 2194 1759 
Q 1497 1759 1228 1600 
Q 959 1441 959 1056 
Q 959 750 1161 570 
Q 1363 391 1709 391 
Q 2188 391 2477 730 
Q 2766 1069 2766 1631 
L 2766 1759 
L 2194 1759 
z
M 3341 1997 
L 3341 0 
L 2766 0 
L 2766 531 
Q 2569 213 2275 61 
Q 1981 -91 1556 -91 
Q 1019 -91 701 211 
Q 384 513 384 1019 
Q 384 1609 779 1909 
Q 1175 2209 1959 2209 
L 2766 2209 
L 2766 2266 
Q 2766 2663 2505 2880 
Q 2244 3097 1772 3097 
Q 1472 3097 1187 3025 
Q 903 2953 641 2809 
L 641 3341 
Q 956 3463 1253 3523 
Q 1550 3584 1831 3584 
Q 2591 3584 2966 3190 
Q 3341 2797 3341 1997 
z
" id="DejaVuSans-61" transform="scale(0.015625)"/>
        <path d="M 2906 2969 
L 2906 4863 
L 3481 4863 
L 3481 0 
L 2906 0 
L 2906 525 
Q 2725 213 2448 61 
Q 2172 -91 1784 -91 
Q 1150 -91 751 415 
Q 353 922 353 1747 
Q 353 2572 751 3078 
Q 1150 3584 1784 3584 
Q 2172 3584 2448 3432 
Q 2725 3281 2906 2969 
z
M 947 1747 
Q 947 1113 1208 752 
Q 1469 391 1925 391 
Q 2381 391 2643 752 
Q 2906 1113 2906 1747 
Q 2906 2381 2643 2742 
Q 2381 3103 1925 3103 
Q 1469 3103 1208 2742 
Q 947 2381 947 1747 
z
" id="DejaVuSans-64" transform="scale(0.015625)"/>
        <path d="M 603 3500 
L 1178 3500 
L 1178 0 
L 603 0 
L 603 3500 
z
M 603 4863 
L 1178 4863 
L 1178 4134 
L 603 4134 
L 603 4863 
z
" id="DejaVuSans-69" transform="scale(0.015625)"/>
        <path d="M 1959 3097 
Q 1497 3097 1228 2736 
Q 959 2375 959 1747 
Q 959 1119 1226 758 
Q 1494 397 1959 397 
Q 2419 397 2687 759 
Q 2956 1122 2956 1747 
Q 2956 2369 2687 2733 
Q 2419 3097 1959 3097 
z
M 1959 3584 
Q 2709 3584 3137 3096 
Q 3566 2609 3566 1747 
Q 3566 888 3137 398 
Q 2709 -91 1959 -91 
Q 1206 -91 779 398 
Q 353 888 353 1747 
Q 353 2609 779 3096 
Q 1206 3584 1959 3584 
z
" id="DejaVuSans-6f" transform="scale(0.015625)"/>
        <path d="M 603 4863 
L 1178 4863 
L 1178 0 
L 603 0 
L 603 4863 
z
" id="DejaVuSans-6c" transform="scale(0.015625)"/>
        <path id="DejaVuSans-20" transform="scale(0.015625)"/>
        <path d="M 3122 3366 
L 3122 2828 
Q 2878 2963 2633 3030 
Q 2388 3097 2138 3097 
Q 1578 3097 1268 2742 
Q 959 2388 959 1747 
Q 959 1106 1268 751 
Q 1578 397 2138 397 
Q 2388 397 2633 464 
Q 2878 531 3122 666 
L 3122 134 
Q 2881 22 2623 -34 
Q 2366 -91 2075 -91 
Q 1284 -91 818 406 
Q 353 903 353 1747 
Q 353 2603 823 3093 
Q 1294 3584 2113 3584 
Q 2378 3584 2631 3529 
Q 2884 3475 3122 3366 
z
" id="DejaVuSans-63" transform="scale(0.015625)"/>
        <path d="M 3513 2113 
L 3513 0 
L 2938 0 
L 2938 2094 
Q 2938 2591 2744 2837 
Q 2550 3084 2163 3084 
Q 1697 3084 1428 2787 
Q 1159 2491 1159 1978 
L 1159 0 
L 581 0 
L 581 3500 
L 1159 3500 
L 1159 2956 
Q 1366 3272 1645 3428 
Q 1925 3584 2291 3584 
Q 2894 3584 3203 3211 
Q 3513 2838 3513 2113 
z
" id="DejaVuSans-6e" transform="scale(0.015625)"/>
        <path d="M 3597 1894 
L 3597 1613 
L 953 1613 
Q 991 1019 1311 708 
Q 1631 397 2203 397 
Q 2534 397 2845 478 
Q 3156 559 3463 722 
L 3463 178 
Q 3153 47 2828 -22 
Q 2503 -91 2169 -91 
Q 1331 -91 842 396 
Q 353 884 353 1716 
Q 353 2575 817 3079 
Q 1281 3584 2069 3584 
Q 2775 3584 3186 3129 
Q 3597 2675 3597 1894 
z
M 3022 2063 
Q 3016 2534 2758 2815 
Q 2500 3097 2075 3097 
Q 1594 3097 1305 2825 
Q 1016 2553 972 2059 
L 3022 2063 
z
" id="DejaVuSans-65" transform="scale(0.015625)"/>
        <path d="M 1984 4856 
Q 1566 4138 1362 3434 
Q 1159 2731 1159 2009 
Q 1159 1288 1364 580 
Q 1569 -128 1984 -844 
L 1484 -844 
Q 1016 -109 783 600 
Q 550 1309 550 2009 
Q 550 2706 781 3412 
Q 1013 4119 1484 4856 
L 1984 4856 
z
" id="DejaVuSans-28" transform="scale(0.015625)"/>
        <path d="M 1159 525 
L 1159 -1331 
L 581 -1331 
L 581 3500 
L 1159 3500 
L 1159 2969 
Q 1341 3281 1617 3432 
Q 1894 3584 2278 3584 
Q 2916 3584 3314 3078 
Q 3713 2572 3713 1747 
Q 3713 922 3314 415 
Q 2916 -91 2278 -91 
Q 1894 -91 1617 61 
Q 1341 213 1159 525 
z
M 3116 1747 
Q 3116 2381 2855 2742 
Q 2594 3103 2138 3103 
Q 1681 3103 1420 2742 
Q 1159 2381 1159 1747 
Q 1159 1113 1420 752 
Q 1681 391 2138 391 
Q 2594 391 2855 752 
Q 3116 1113 3116 1747 
z
" id="DejaVuSans-70" transform="scale(0.015625)"/>
        <path d="M 3328 2828 
Q 3544 3216 3844 3400 
Q 4144 3584 4550 3584 
Q 5097 3584 5394 3201 
Q 5691 2819 5691 2113 
L 5691 0 
L 5113 0 
L 5113 2094 
Q 5113 2597 4934 2840 
Q 4756 3084 4391 3084 
Q 3944 3084 3684 2787 
Q 3425 2491 3425 1978 
L 3425 0 
L 2847 0 
L 2847 2094 
Q 2847 2600 2669 2842 
Q 2491 3084 2119 3084 
Q 1678 3084 1418 2786 
Q 1159 2488 1159 1978 
L 1159 0 
L 581 0 
L 581 3500 
L 1159 3500 
L 1159 2956 
Q 1356 3278 1631 3431 
Q 1906 3584 2284 3584 
Q 2666 3584 2933 3390 
Q 3200 3197 3328 2828 
z
" id="DejaVuSans-6d" transform="scale(0.015625)"/>
        <path d="M 1625 4666 
L 2156 4666 
L 531 -594 
L 0 -594 
L 1625 4666 
z
" id="DejaVuSans-2f" transform="scale(0.015625)"/>
        <path d="M 628 4666 
L 1259 4666 
L 1259 531 
L 3531 531 
L 3531 0 
L 628 0 
L 628 4666 
z
" id="DejaVuSans-4c" transform="scale(0.015625)"/>
        <path d="M 513 4856 
L 1013 4856 
Q 1481 4119 1714 3412 
Q 1947 2706 1947 2009 
Q 1947 1309 1714 600 
Q 1481 -109 1013 -844 
L 513 -844 
Q 928 -128 1133 580 
Q 1338 1288 1338 2009 
Q 1338 2731 1133 3434 
Q 928 4138 513 4856 
z
" id="DejaVuSans-29" transform="scale(0.015625)"/>
       </defs>
       <use xlink:href="#DejaVuSans-45"/>
       <use x="63.183594" xlink:href="#DejaVuSans-73"/>
       <use x="115.283203" xlink:href="#DejaVuSans-74"/>
       <use x="154.492188" xlink:href="#DejaVuSans-72"/>
       <use x="195.605469" xlink:href="#DejaVuSans-61"/>
       <use x="256.884766" xlink:href="#DejaVuSans-64"/>
       <use x="320.361328" xlink:href="#DejaVuSans-69"/>
       <use x="348.144531" xlink:href="#DejaVuSans-6f"/>
       <use x="409.326172" xlink:href="#DejaVuSans-6c"/>
       <use x="437.109375" xlink:href="#DejaVuSans-20"/>
       <use x="468.896484" xlink:href="#DejaVuSans-63"/>
       <use x="523.876953" xlink:href="#DejaVuSans-6f"/>
       <use x="585.058594" xlink:href="#DejaVuSans-6e"/>
       <use x="648.4375" xlink:href="#DejaVuSans-63"/>
       <use x="703.417969" xlink:href="#DejaVuSans-65"/>
       <use x="764.941406" xlink:href="#DejaVuSans-6e"/>
       <use x="828.320312" xlink:href="#DejaVuSans-74"/>
       <use x="867.529297" xlink:href="#DejaVuSans-72"/>
       <use x="908.642578" xlink:href="#DejaVuSans-61"/>
       <use x="969.921875" xlink:href="#DejaVuSans-74"/>
       <use x="1009.130859" xlink:href="#DejaVuSans-69"/>
       <use x="1036.914062" xlink:href="#DejaVuSans-6f"/>
       <use x="1098.095703" xlink:href="#DejaVuSans-6e"/>
       <use x="1161.474609" xlink:href="#DejaVuSans-73"/>
       <use x="1213.574219" xlink:href="#DejaVuSans-20"/>
       <use x="1245.361328" xlink:href="#DejaVuSans-28"/>
       <use x="1284.375" xlink:href="#DejaVuSans-70"/>
       <use x="1347.851562" xlink:href="#DejaVuSans-6d"/>
       <use x="1445.263672" xlink:href="#DejaVuSans-6f"/>
       <use x="1506.445312" xlink:href="#DejaVuSans-6c"/>
       <use x="1534.228516" xlink:href="#DejaVuSans-2f"/>
       <use x="1567.919922" xlink:href="#DejaVuSans-4c"/>
       <use x="1623.632812" xlink:href="#DejaVuSans-29"/>
      </g>
     </g>
    </g>
    <g id="patch_4">
     <path d="M 500.565625 362.158125 
L 500.565625 29.518125 
" style="fill:none;stroke:#000000;stroke-linecap:square;stroke-linejoin:miter;stroke-width:0.8;"/>
    </g>
   </g>
   <g id="matplotlib.axis_3">
    <g id="xtick_1">
     <g id="line2d_10">
      <defs>
       <path d="M 0 0 
L 0 3.5 
" id="ma1c898f0c0" style="stroke:#000000;stroke-width:0.8;"/>
      </defs>
      <g>
       <use style="stroke:#000000;stroke-width:0.8;" x="54.165625" xlink:href="#ma1c898f0c0" y="362.158125"/>
      </g>
     </g>
     <g id="text_11">
      <!-- 0 -->
      <g transform="translate(50.984375 376.756563)scale(0.1 -0.1)">
       <use xlink:href="#DejaVuSans-30"/>
      </g>
     </g>
    </g>
    <g id="xtick_2">
     <g id="line2d_11">
      <g>
       <use style="stroke:#000000;stroke-width:0.8;" x="103.765625" xlink:href="#ma1c898f0c0" y="362.158125"/>
      </g>
     </g>
     <g id="text_12">
      <!-- 10 -->
      <g transform="translate(97.403125 376.756563)scale(0.1 -0.1)">
       <use xlink:href="#DejaVuSans-31"/>
       <use x="63.623047" xlink:href="#DejaVuSans-30"/>
      </g>
     </g>
    </g>
    <g id="xtick_3">
     <g id="line2d_12">
      <g>
       <use style="stroke:#000000;stroke-width:0.8;" x="153.365625" xlink:href="#ma1c898f0c0" y="362.158125"/>
      </g>
     </g>
     <g id="text_13">
      <!-- 20 -->
      <g transform="translate(147.003125 376.756563)scale(0.1 -0.1)">
       <use xlink:href="#DejaVuSans-32"/>
       <use x="63.623047" xlink:href="#DejaVuSans-30"/>
      </g>
     </g>
    </g>
    <g id="xtick_4">
     <g id="line2d_13">
      <g>
       <use style="stroke:#000000;stroke-width:0.8;" x="202.965625" xlink:href="#ma1c898f0c0" y="362.158125"/>
      </g>
     </g>
     <g id="text_14">
      <!-- 30 -->
      <g transform="translate(196.603125 376.756563)scale(0.1 -0.1)">
       <defs>
        <path d="M 2597 2516 
Q 3050 2419 3304 2112 
Q 3559 1806 3559 1356 
Q 3559 666 3084 287 
Q 2609 -91 1734 -91 
Q 1441 -91 1130 -33 
Q 819 25 488 141 
L 488 750 
Q 750 597 1062 519 
Q 1375 441 1716 441 
Q 2309 441 2620 675 
Q 2931 909 2931 1356 
Q 2931 1769 2642 2001 
Q 2353 2234 1838 2234 
L 1294 2234 
L 1294 2753 
L 1863 2753 
Q 2328 2753 2575 2939 
Q 2822 3125 2822 3475 
Q 2822 3834 2567 4026 
Q 2313 4219 1838 4219 
Q 1578 4219 1281 4162 
Q 984 4106 628 3988 
L 628 4550 
Q 988 4650 1302 4700 
Q 1616 4750 1894 4750 
Q 2613 4750 3031 4423 
Q 3450 4097 3450 3541 
Q 3450 3153 3228 2886 
Q 3006 2619 2597 2516 
z
" id="DejaVuSans-33" transform="scale(0.015625)"/>
       </defs>
       <use xlink:href="#DejaVuSans-33"/>
       <use x="63.623047" xlink:href="#DejaVuSans-30"/>
      </g>
     </g>
    </g>
    <g id="xtick_5">
     <g id="line2d_14">
      <g>
       <use style="stroke:#000000;stroke-width:0.8;" x="252.565625" xlink:href="#ma1c898f0c0" y="362.158125"/>
      </g>
     </g>
     <g id="text_15">
      <!-- 40 -->
      <g transform="translate(246.203125 376.756563)scale(0.1 -0.1)">
       <defs>
        <path d="M 2419 4116 
L 825 1625 
L 2419 1625 
L 2419 4116 
z
M 2253 4666 
L 3047 4666 
L 3047 1625 
L 3713 1625 
L 3713 1100 
L 3047 1100 
L 3047 0 
L 2419 0 
L 2419 1100 
L 313 1100 
L 313 1709 
L 2253 4666 
z
" id="DejaVuSans-34" transform="scale(0.015625)"/>
       </defs>
       <use xlink:href="#DejaVuSans-34"/>
       <use x="63.623047" xlink:href="#DejaVuSans-30"/>
      </g>
     </g>
    </g>
    <g id="xtick_6">
     <g id="line2d_15">
      <g>
       <use style="stroke:#000000;stroke-width:0.8;" x="302.165625" xlink:href="#ma1c898f0c0" y="362.158125"/>
      </g>
     </g>
     <g id="text_16">
      <!-- 50 -->
      <g transform="translate(295.803125 376.756563)scale(0.1 -0.1)">
       <use xlink:href="#DejaVuSans-35"/>
       <use x="63.623047" xlink:href="#DejaVuSans-30"/>
      </g>
     </g>
    </g>
    <g id="xtick_7">
     <g id="line2d_16">
      <g>
       <use style="stroke:#000000;stroke-width:0.8;" x="351.765625" xlink:href="#ma1c898f0c0" y="362.158125"/>
      </g>
     </g>
     <g id="text_17">
      <!-- 60 -->
      <g transform="translate(345.403125 376.756563)scale(0.1 -0.1)">
       <defs>
        <path d="M 2113 2584 
Q 1688 2584 1439 2293 
Q 1191 2003 1191 1497 
Q 1191 994 1439 701 
Q 1688 409 2113 409 
Q 2538 409 2786 701 
Q 3034 994 3034 1497 
Q 3034 2003 2786 2293 
Q 2538 2584 2113 2584 
z
M 3366 4563 
L 3366 3988 
Q 3128 4100 2886 4159 
Q 2644 4219 2406 4219 
Q 1781 4219 1451 3797 
Q 1122 3375 1075 2522 
Q 1259 2794 1537 2939 
Q 1816 3084 2150 3084 
Q 2853 3084 3261 2657 
Q 3669 2231 3669 1497 
Q 3669 778 3244 343 
Q 2819 -91 2113 -91 
Q 1303 -91 875 529 
Q 447 1150 447 2328 
Q 447 3434 972 4092 
Q 1497 4750 2381 4750 
Q 2619 4750 2861 4703 
Q 3103 4656 3366 4563 
z
" id="DejaVuSans-36" transform="scale(0.015625)"/>
       </defs>
       <use xlink:href="#DejaVuSans-36"/>
       <use x="63.623047" xlink:href="#DejaVuSans-30"/>
      </g>
     </g>
    </g>
    <g id="xtick_8">
     <g id="line2d_17">
      <g>
       <use style="stroke:#000000;stroke-width:0.8;" x="401.365625" xlink:href="#ma1c898f0c0" y="362.158125"/>
      </g>
     </g>
     <g id="text_18">
      <!-- 70 -->
      <g transform="translate(395.003125 376.756563)scale(0.1 -0.1)">
       <use xlink:href="#DejaVuSans-37"/>
       <use x="63.623047" xlink:href="#DejaVuSans-30"/>
      </g>
     </g>
    </g>
    <g id="xtick_9">
     <g id="line2d_18">
      <g>
       <use style="stroke:#000000;stroke-width:0.8;" x="450.965625" xlink:href="#ma1c898f0c0" y="362.158125"/>
      </g>
     </g>
     <g id="text_19">
      <!-- 80 -->
      <g transform="translate(444.603125 376.756563)scale(0.1 -0.1)">
       <defs>
        <path d="M 2034 2216 
Q 1584 2216 1326 1975 
Q 1069 1734 1069 1313 
Q 1069 891 1326 650 
Q 1584 409 2034 409 
Q 2484 409 2743 651 
Q 3003 894 3003 1313 
Q 3003 1734 2745 1975 
Q 2488 2216 2034 2216 
z
M 1403 2484 
Q 997 2584 770 2862 
Q 544 3141 544 3541 
Q 544 4100 942 4425 
Q 1341 4750 2034 4750 
Q 2731 4750 3128 4425 
Q 3525 4100 3525 3541 
Q 3525 3141 3298 2862 
Q 3072 2584 2669 2484 
Q 3125 2378 3379 2068 
Q 3634 1759 3634 1313 
Q 3634 634 3220 271 
Q 2806 -91 2034 -91 
Q 1263 -91 848 271 
Q 434 634 434 1313 
Q 434 1759 690 2068 
Q 947 2378 1403 2484 
z
M 1172 3481 
Q 1172 3119 1398 2916 
Q 1625 2713 2034 2713 
Q 2441 2713 2670 2916 
Q 2900 3119 2900 3481 
Q 2900 3844 2670 4047 
Q 2441 4250 2034 4250 
Q 1625 4250 1398 4047 
Q 1172 3844 1172 3481 
z
" id="DejaVuSans-38" transform="scale(0.015625)"/>
       </defs>
       <use xlink:href="#DejaVuSans-38"/>
       <use x="63.623047" xlink:href="#DejaVuSans-30"/>
      </g>
     </g>
    </g>
    <g id="xtick_10">
     <g id="line2d_19">
      <g>
       <use style="stroke:#000000;stroke-width:0.8;" x="500.565625" xlink:href="#ma1c898f0c0" y="362.158125"/>
      </g>
     </g>
     <g id="text_20">
      <!-- 90 -->
      <g transform="translate(494.203125 376.756563)scale(0.1 -0.1)">
       <defs>
        <path d="M 703 97 
L 703 672 
Q 941 559 1184 500 
Q 1428 441 1663 441 
Q 2288 441 2617 861 
Q 2947 1281 2994 2138 
Q 2813 1869 2534 1725 
Q 2256 1581 1919 1581 
Q 1219 1581 811 2004 
Q 403 2428 403 3163 
Q 403 3881 828 4315 
Q 1253 4750 1959 4750 
Q 2769 4750 3195 4129 
Q 3622 3509 3622 2328 
Q 3622 1225 3098 567 
Q 2575 -91 1691 -91 
Q 1453 -91 1209 -44 
Q 966 3 703 97 
z
M 1959 2075 
Q 2384 2075 2632 2365 
Q 2881 2656 2881 3163 
Q 2881 3666 2632 3958 
Q 2384 4250 1959 4250 
Q 1534 4250 1286 3958 
Q 1038 3666 1038 3163 
Q 1038 2656 1286 2365 
Q 1534 2075 1959 2075 
z
" id="DejaVuSans-39" transform="scale(0.015625)"/>
       </defs>
       <use xlink:href="#DejaVuSans-39"/>
       <use x="63.623047" xlink:href="#DejaVuSans-30"/>
      </g>
     </g>
    </g>
    <g id="text_21">
     <!-- Time (days) -->
     <g transform="translate(247.839063 390.434688)scale(0.1 -0.1)">
      <defs>
       <path d="M -19 4666 
L 3928 4666 
L 3928 4134 
L 2272 4134 
L 2272 0 
L 1638 0 
L 1638 4134 
L -19 4134 
L -19 4666 
z
" id="DejaVuSans-54" transform="scale(0.015625)"/>
       <path d="M 2059 -325 
Q 1816 -950 1584 -1140 
Q 1353 -1331 966 -1331 
L 506 -1331 
L 506 -850 
L 844 -850 
Q 1081 -850 1212 -737 
Q 1344 -625 1503 -206 
L 1606 56 
L 191 3500 
L 800 3500 
L 1894 763 
L 2988 3500 
L 3597 3500 
L 2059 -325 
z
" id="DejaVuSans-79" transform="scale(0.015625)"/>
      </defs>
      <use xlink:href="#DejaVuSans-54"/>
      <use x="57.958984" xlink:href="#DejaVuSans-69"/>
      <use x="85.742188" xlink:href="#DejaVuSans-6d"/>
      <use x="183.154297" xlink:href="#DejaVuSans-65"/>
      <use x="244.677734" xlink:href="#DejaVuSans-20"/>
      <use x="276.464844" xlink:href="#DejaVuSans-28"/>
      <use x="315.478516" xlink:href="#DejaVuSans-64"/>
      <use x="378.955078" xlink:href="#DejaVuSans-61"/>
      <use x="440.234375" xlink:href="#DejaVuSans-79"/>
      <use x="499.414062" xlink:href="#DejaVuSans-73"/>
      <use x="551.513672" xlink:href="#DejaVuSans-29"/>
     </g>
    </g>
   </g>
   <g id="matplotlib.axis_4">
    <g id="ytick_10">
     <g id="line2d_20">
      <defs>
       <path d="M 0 0 
L -3.5 0 
" id="m930cc72b98" style="stroke:#000000;stroke-width:0.8;"/>
      </defs>
      <g>
       <use style="stroke:#000000;stroke-width:0.8;" x="54.165625" xlink:href="#m930cc72b98" y="362.158125"/>
      </g>
     </g>
     <g id="text_22">
      <!-- 0 -->
      <g transform="translate(40.803125 365.957344)scale(0.1 -0.1)">
       <use xlink:href="#DejaVuSans-30"/>
      </g>
     </g>
    </g>
    <g id="ytick_11">
     <g id="line2d_21">
      <g>
       <use style="stroke:#000000;stroke-width:0.8;" x="54.165625" xlink:href="#m930cc72b98" y="306.718125"/>
      </g>
     </g>
     <g id="text_23">
      <!-- 100 -->
      <g transform="translate(28.078125 310.517344)scale(0.1 -0.1)">
       <use xlink:href="#DejaVuSans-31"/>
       <use x="63.623047" xlink:href="#DejaVuSans-30"/>
       <use x="127.246094" xlink:href="#DejaVuSans-30"/>
      </g>
     </g>
    </g>
    <g id="ytick_12">
     <g id="line2d_22">
      <g>
       <use style="stroke:#000000;stroke-width:0.8;" x="54.165625" xlink:href="#m930cc72b98" y="251.278125"/>
      </g>
     </g>
     <g id="text_24">
      <!-- 200 -->
      <g transform="translate(28.078125 255.077344)scale(0.1 -0.1)">
       <use xlink:href="#DejaVuSans-32"/>
       <use x="63.623047" xlink:href="#DejaVuSans-30"/>
       <use x="127.246094" xlink:href="#DejaVuSans-30"/>
      </g>
     </g>
    </g>
    <g id="ytick_13">
     <g id="line2d_23">
      <g>
       <use style="stroke:#000000;stroke-width:0.8;" x="54.165625" xlink:href="#m930cc72b98" y="195.838125"/>
      </g>
     </g>
     <g id="text_25">
      <!-- 300 -->
      <g transform="translate(28.078125 199.637344)scale(0.1 -0.1)">
       <use xlink:href="#DejaVuSans-33"/>
       <use x="63.623047" xlink:href="#DejaVuSans-30"/>
       <use x="127.246094" xlink:href="#DejaVuSans-30"/>
      </g>
     </g>
    </g>
    <g id="ytick_14">
     <g id="line2d_24">
      <g>
       <use style="stroke:#000000;stroke-width:0.8;" x="54.165625" xlink:href="#m930cc72b98" y="140.398125"/>
      </g>
     </g>
     <g id="text_26">
      <!-- 400 -->
      <g transform="translate(28.078125 144.197344)scale(0.1 -0.1)">
       <use xlink:href="#DejaVuSans-34"/>
       <use x="63.623047" xlink:href="#DejaVuSans-30"/>
       <use x="127.246094" xlink:href="#DejaVuSans-30"/>
      </g>
     </g>
    </g>
    <g id="ytick_15">
     <g id="line2d_25">
      <g>
       <use style="stroke:#000000;stroke-width:0.8;" x="54.165625" xlink:href="#m930cc72b98" y="84.958125"/>
      </g>
     </g>
     <g id="text_27">
      <!-- 500 -->
      <g transform="translate(28.078125 88.757344)scale(0.1 -0.1)">
       <use xlink:href="#DejaVuSans-35"/>
       <use x="63.623047" xlink:href="#DejaVuSans-30"/>
       <use x="127.246094" xlink:href="#DejaVuSans-30"/>
      </g>
     </g>
    </g>
    <g id="ytick_16">
     <g id="line2d_26">
      <g>
       <use style="stroke:#000000;stroke-width:0.8;" x="54.165625" xlink:href="#m930cc72b98" y="29.518125"/>
      </g>
     </g>
     <g id="text_28">
      <!-- 600 -->
      <g transform="translate(28.078125 33.317344)scale(0.1 -0.1)">
       <use xlink:href="#DejaVuSans-36"/>
       <use x="63.623047" xlink:href="#DejaVuSans-30"/>
       <use x="127.246094" xlink:href="#DejaVuSans-30"/>
      </g>
     </g>
    </g>
    <g id="text_29">
     <!-- Estradiol concentrations (pg/mL) -->
     <g transform="translate(21.998438 277.695938)rotate(-90)scale(0.1 -0.1)">
      <defs>
       <path d="M 2906 1791 
Q 2906 2416 2648 2759 
Q 2391 3103 1925 3103 
Q 1463 3103 1205 2759 
Q 947 2416 947 1791 
Q 947 1169 1205 825 
Q 1463 481 1925 481 
Q 2391 481 2648 825 
Q 2906 1169 2906 1791 
z
M 3481 434 
Q 3481 -459 3084 -895 
Q 2688 -1331 1869 -1331 
Q 1566 -1331 1297 -1286 
Q 1028 -1241 775 -1147 
L 775 -588 
Q 1028 -725 1275 -790 
Q 1522 -856 1778 -856 
Q 2344 -856 2625 -561 
Q 2906 -266 2906 331 
L 2906 616 
Q 2728 306 2450 153 
Q 2172 0 1784 0 
Q 1141 0 747 490 
Q 353 981 353 1791 
Q 353 2603 747 3093 
Q 1141 3584 1784 3584 
Q 2172 3584 2450 3431 
Q 2728 3278 2906 2969 
L 2906 3500 
L 3481 3500 
L 3481 434 
z
" id="DejaVuSans-67" transform="scale(0.015625)"/>
      </defs>
      <use xlink:href="#DejaVuSans-45"/>
      <use x="63.183594" xlink:href="#DejaVuSans-73"/>
      <use x="115.283203" xlink:href="#DejaVuSans-74"/>
      <use x="154.492188" xlink:href="#DejaVuSans-72"/>
      <use x="195.605469" xlink:href="#DejaVuSans-61"/>
      <use x="256.884766" xlink:href="#DejaVuSans-64"/>
      <use x="320.361328" xlink:href="#DejaVuSans-69"/>
      <use x="348.144531" xlink:href="#DejaVuSans-6f"/>
      <use x="409.326172" xlink:href="#DejaVuSans-6c"/>
      <use x="437.109375" xlink:href="#DejaVuSans-20"/>
      <use x="468.896484" xlink:href="#DejaVuSans-63"/>
      <use x="523.876953" xlink:href="#DejaVuSans-6f"/>
      <use x="585.058594" xlink:href="#DejaVuSans-6e"/>
      <use x="648.4375" xlink:href="#DejaVuSans-63"/>
      <use x="703.417969" xlink:href="#DejaVuSans-65"/>
      <use x="764.941406" xlink:href="#DejaVuSans-6e"/>
      <use x="828.320312" xlink:href="#DejaVuSans-74"/>
      <use x="867.529297" xlink:href="#DejaVuSans-72"/>
      <use x="908.642578" xlink:href="#DejaVuSans-61"/>
      <use x="969.921875" xlink:href="#DejaVuSans-74"/>
      <use x="1009.130859" xlink:href="#DejaVuSans-69"/>
      <use x="1036.914062" xlink:href="#DejaVuSans-6f"/>
      <use x="1098.095703" xlink:href="#DejaVuSans-6e"/>
      <use x="1161.474609" xlink:href="#DejaVuSans-73"/>
      <use x="1213.574219" xlink:href="#DejaVuSans-20"/>
      <use x="1245.361328" xlink:href="#DejaVuSans-28"/>
      <use x="1284.375" xlink:href="#DejaVuSans-70"/>
      <use x="1347.851562" xlink:href="#DejaVuSans-67"/>
      <use x="1411.328125" xlink:href="#DejaVuSans-2f"/>
      <use x="1445.019531" xlink:href="#DejaVuSans-6d"/>
      <use x="1542.431641" xlink:href="#DejaVuSans-4c"/>
      <use x="1598.144531" xlink:href="#DejaVuSans-29"/>
     </g>
    </g>
   </g>
   <g id="line2d_27">
    <path clip-path="url(#p4f3b8d62d2)" d="M 54.165625 362.158125 
L 91.365625 289.247583 
L 128.565625 262.198358 
L 202.965625 281.599417 
" style="fill:none;stroke:#1f77b4;stroke-linecap:square;stroke-width:1.5;"/>
   </g>
   <g id="line2d_28">
    <path clip-path="url(#p4f3b8d62d2)" d="M 54.165625 362.158125 
L 84.120091 -1 
" style="fill:none;stroke:#ff7f0e;stroke-linecap:square;stroke-width:1.5;"/>
   </g>
   <g id="line2d_29">
    <path clip-path="url(#p4f3b8d62d2)" d="M 54.165625 362.158125 
L 64.085625 198.815318 
L 71.908341 -1 
" style="fill:none;stroke:#2ca02c;stroke-linecap:square;stroke-width:1.5;"/>
   </g>
   <g id="line2d_30">
    <path clip-path="url(#p4f3b8d62d2)" d="M 54.165625 362.158125 
L 70.082353 -1 
" style="fill:none;stroke:#d62728;stroke-linecap:square;stroke-width:1.5;"/>
   </g>
   <g id="line2d_31">
    <path clip-path="url(#p4f3b8d62d2)" d="M 54.165625 362.158125 
L 74.005625 203.779381 
L 88.885625 249.597716 
L 123.605625 44.638083 
L 193.045625 123.674014 
" style="fill:none;stroke:#9467bd;stroke-linecap:square;stroke-width:1.5;"/>
   </g>
   <g id="line2d_32">
    <path clip-path="url(#p4f3b8d62d2)" d="M 54.165625 362.158125 
L 74.005625 308.191453 
L 88.885625 269.631313 
L 123.605625 219.312221 
L 193.045625 214.567138 
" style="fill:none;stroke:#8c564b;stroke-linecap:square;stroke-width:1.5;"/>
   </g>
   <g id="line2d_33">
    <path clip-path="url(#p4f3b8d62d2)" d="M 54.165625 362.158125 
L 74.005625 235.547744 
L 88.885625 185.670928 
L 123.605625 78.243938 
L 193.045625 144.74636 
" style="fill:none;stroke:#e377c2;stroke-linecap:square;stroke-width:1.5;"/>
   </g>
   <g id="line2d_34">
    <path clip-path="url(#p4f3b8d62d2)" d="M 54.165625 362.158125 
L 128.565625 71.098125 
L 202.965625 143.863125 
" style="fill:none;stroke:#7f7f7f;stroke-linecap:square;stroke-width:1.5;"/>
   </g>
   <g id="line2d_35">
    <path clip-path="url(#p4f3b8d62d2)" d="M 54.165625 362.158125 
L 128.565625 234.219663 
L 202.965625 226.543356 
" style="fill:none;stroke:#bcbd22;stroke-linecap:square;stroke-width:1.5;"/>
   </g>
   <g id="line2d_36">
    <path clip-path="url(#p4f3b8d62d2)" d="M 54.165625 362.158125 
L 128.565625 159.025529 
L 202.965625 94.868438 
" style="fill:none;stroke:#17becf;stroke-linecap:square;stroke-width:1.5;"/>
   </g>
   <g id="line2d_37">
    <path clip-path="url(#p4f3b8d62d2)" d="M 54.165625 362.158125 
L 59.061145 338.905056 
L 63.941785 344.271317 
L 73.717945 335.633568 
L 87.348025 323.830708 
L 122.613625 308.190954 
L 156.837625 309.269306 
L 191.046745 304.46918 
" style="fill:none;stroke:#1f77b4;stroke-dasharray:9,1.5;stroke-dashoffset:0;stroke-width:1.5;"/>
   </g>
   <g id="line2d_38">
    <path clip-path="url(#p4f3b8d62d2)" d="M 54.165625 362.158125 
L 59.061145 336.376757 
L 63.941785 342.307695 
L 73.717945 336.549196 
L 87.348025 325.41302 
L 122.613625 314.986517 
L 156.837625 312.904617 
L 191.046745 312.952706 
" style="fill:none;stroke:#ff7f0e;stroke-dasharray:9,1.5;stroke-dashoffset:0;stroke-width:1.5;"/>
   </g>
   <g id="line2d_39">
    <path clip-path="url(#p4f3b8d62d2)" d="M 54.165625 362.158125 
L 59.061145 310.598303 
L 63.941785 328.000216 
L 73.717945 334.191636 
L 87.348025 326.19689 
L 122.613625 311.717822 
L 156.837625 305.262279 
L 191.046745 309.156735 
" style="fill:none;stroke:#2ca02c;stroke-dasharray:9,1.5;stroke-dashoffset:0;stroke-width:1.5;"/>
   </g>
   <g id="line2d_40">
    <path clip-path="url(#p4f3b8d62d2)" d="M 54.165625 362.158125 
L 63.135877 323.506819 
L 73.937181 326.7802 
L 88.885625 316.775931 
L 123.605625 300.849781 
L 158.325625 299.247676 
L 193.045625 304.083074 
L 227.765625 309.780982 
L 262.485625 316.401877 
L 331.925625 322.438408 
L 401.365625 329.635265 
L 470.805625 332.205296 
" style="fill:none;stroke:#d62728;stroke-dasharray:9,1.5;stroke-dashoffset:0;stroke-width:1.5;"/>
   </g>
   <g id="line2d_41">
    <path clip-path="url(#p4f3b8d62d2)" d="M 54.165625 362.158125 
L 123.605625 307.014512 
L 193.045625 311.202842 
" style="fill:none;stroke:#9467bd;stroke-dasharray:9,1.5;stroke-dashoffset:0;stroke-width:1.5;"/>
   </g>
   <g id="line2d_42">
    <path clip-path="url(#p4f3b8d62d2)" d="M 54.165625 362.158125 
L 57.478942 352.552058 
L 60.489695 344.528762 
L 63.495489 337.143906 
L 66.496322 330.353815 
L 69.492195 324.117754 
L 72.488069 318.388644 
L 75.483942 313.133316 
L 78.484775 308.313064 
L 81.490569 303.900738 
L 84.506282 299.864425 
L 87.536876 296.17602 
L 90.58731 292.810775 
L 93.662544 289.746899 
L 96.767538 286.965206 
L 99.912213 284.445052 
L 103.101529 282.172837 
L 106.345405 280.133651 
L 109.658722 278.312964 
L 113.051399 276.70237 
L 116.533358 275.295475 
L 120.124438 274.084541 
L 123.839519 273.066844 
L 127.703402 272.239843 
L 131.735927 271.605409 
L 135.961894 271.167028 
L 140.416023 270.930291 
L 145.133036 270.904294 
L 150.162532 271.101496 
L 155.554112 271.538146 
L 161.387136 272.236806 
L 167.755847 273.227181 
L 174.804085 274.552643 
L 182.735214 276.275633 
L 191.896435 278.499962 
L 202.962318 281.424744 
L 217.718482 285.570924 
L 275.870168 302.135183 
L 292.734356 306.581695 
L 308.780134 310.583567 
L 324.528309 314.282532 
L 340.251684 317.747241 
L 356.1189 321.015632 
L 372.258919 324.112645 
L 388.775903 327.054847 
L 405.764092 329.854197 
L 423.307807 332.518657 
L 441.496329 335.054888 
L 460.413979 337.466921 
L 480.159958 339.758882 
L 500.565625 341.906207 
L 500.565625 341.906207 
" style="fill:none;stroke:#000000;stroke-linecap:square;stroke-width:3;"/>
   </g>
   <g id="patch_5">
    <path d="M 54.165625 362.158125 
L 54.165625 29.518125 
" style="fill:none;stroke:#000000;stroke-linecap:square;stroke-linejoin:miter;stroke-width:0.8;"/>
   </g>
   <g id="patch_6">
    <path d="M 500.565625 362.158125 
L 500.565625 29.518125 
" style="fill:none;stroke:#000000;stroke-linecap:square;stroke-linejoin:miter;stroke-width:0.8;"/>
   </g>
   <g id="patch_7">
    <path d="M 54.165625 362.158125 
L 500.565625 362.158125 
" style="fill:none;stroke:#000000;stroke-linecap:square;stroke-linejoin:miter;stroke-width:0.8;"/>
   </g>
   <g id="patch_8">
    <path d="M 54.165625 29.518125 
L 500.565625 29.518125 
" style="fill:none;stroke:#000000;stroke-linecap:square;stroke-linejoin:miter;stroke-width:0.8;"/>
   </g>
   <g id="text_30">
    <!-- Polyestradiol phosphate solution studies (scaled to 160 mg) -->
    <g transform="translate(97.44625 23.518125)scale(0.12 -0.12)">
     <defs>
      <path d="M 1259 4147 
L 1259 2394 
L 2053 2394 
Q 2494 2394 2734 2622 
Q 2975 2850 2975 3272 
Q 2975 3691 2734 3919 
Q 2494 4147 2053 4147 
L 1259 4147 
z
M 628 4666 
L 2053 4666 
Q 2838 4666 3239 4311 
Q 3641 3956 3641 3272 
Q 3641 2581 3239 2228 
Q 2838 1875 2053 1875 
L 1259 1875 
L 1259 0 
L 628 0 
L 628 4666 
z
" id="DejaVuSans-50" transform="scale(0.015625)"/>
      <path d="M 3513 2113 
L 3513 0 
L 2938 0 
L 2938 2094 
Q 2938 2591 2744 2837 
Q 2550 3084 2163 3084 
Q 1697 3084 1428 2787 
Q 1159 2491 1159 1978 
L 1159 0 
L 581 0 
L 581 4863 
L 1159 4863 
L 1159 2956 
Q 1366 3272 1645 3428 
Q 1925 3584 2291 3584 
Q 2894 3584 3203 3211 
Q 3513 2838 3513 2113 
z
" id="DejaVuSans-68" transform="scale(0.015625)"/>
      <path d="M 544 1381 
L 544 3500 
L 1119 3500 
L 1119 1403 
Q 1119 906 1312 657 
Q 1506 409 1894 409 
Q 2359 409 2629 706 
Q 2900 1003 2900 1516 
L 2900 3500 
L 3475 3500 
L 3475 0 
L 2900 0 
L 2900 538 
Q 2691 219 2414 64 
Q 2138 -91 1772 -91 
Q 1169 -91 856 284 
Q 544 659 544 1381 
z
M 1991 3584 
L 1991 3584 
z
" id="DejaVuSans-75" transform="scale(0.015625)"/>
     </defs>
     <use xlink:href="#DejaVuSans-50"/>
     <use x="56.677734" xlink:href="#DejaVuSans-6f"/>
     <use x="117.859375" xlink:href="#DejaVuSans-6c"/>
     <use x="145.642578" xlink:href="#DejaVuSans-79"/>
     <use x="204.822266" xlink:href="#DejaVuSans-65"/>
     <use x="266.345703" xlink:href="#DejaVuSans-73"/>
     <use x="318.445312" xlink:href="#DejaVuSans-74"/>
     <use x="357.654297" xlink:href="#DejaVuSans-72"/>
     <use x="398.767578" xlink:href="#DejaVuSans-61"/>
     <use x="460.046875" xlink:href="#DejaVuSans-64"/>
     <use x="523.523438" xlink:href="#DejaVuSans-69"/>
     <use x="551.306641" xlink:href="#DejaVuSans-6f"/>
     <use x="612.488281" xlink:href="#DejaVuSans-6c"/>
     <use x="640.271484" xlink:href="#DejaVuSans-20"/>
     <use x="672.058594" xlink:href="#DejaVuSans-70"/>
     <use x="735.535156" xlink:href="#DejaVuSans-68"/>
     <use x="798.914062" xlink:href="#DejaVuSans-6f"/>
     <use x="860.095703" xlink:href="#DejaVuSans-73"/>
     <use x="912.195312" xlink:href="#DejaVuSans-70"/>
     <use x="975.671875" xlink:href="#DejaVuSans-68"/>
     <use x="1039.050781" xlink:href="#DejaVuSans-61"/>
     <use x="1100.330078" xlink:href="#DejaVuSans-74"/>
     <use x="1139.539062" xlink:href="#DejaVuSans-65"/>
     <use x="1201.0625" xlink:href="#DejaVuSans-20"/>
     <use x="1232.849609" xlink:href="#DejaVuSans-73"/>
     <use x="1284.949219" xlink:href="#DejaVuSans-6f"/>
     <use x="1346.130859" xlink:href="#DejaVuSans-6c"/>
     <use x="1373.914062" xlink:href="#DejaVuSans-75"/>
     <use x="1437.292969" xlink:href="#DejaVuSans-74"/>
     <use x="1476.501953" xlink:href="#DejaVuSans-69"/>
     <use x="1504.285156" xlink:href="#DejaVuSans-6f"/>
     <use x="1565.466797" xlink:href="#DejaVuSans-6e"/>
     <use x="1628.845703" xlink:href="#DejaVuSans-20"/>
     <use x="1660.632812" xlink:href="#DejaVuSans-73"/>
     <use x="1712.732422" xlink:href="#DejaVuSans-74"/>
     <use x="1751.941406" xlink:href="#DejaVuSans-75"/>
     <use x="1815.320312" xlink:href="#DejaVuSans-64"/>
     <use x="1878.796875" xlink:href="#DejaVuSans-69"/>
     <use x="1906.580078" xlink:href="#DejaVuSans-65"/>
     <use x="1968.103516" xlink:href="#DejaVuSans-73"/>
     <use x="2020.203125" xlink:href="#DejaVuSans-20"/>
     <use x="2051.990234" xlink:href="#DejaVuSans-28"/>
     <use x="2091.003906" xlink:href="#DejaVuSans-73"/>
     <use x="2143.103516" xlink:href="#DejaVuSans-63"/>
     <use x="2198.083984" xlink:href="#DejaVuSans-61"/>
     <use x="2259.363281" xlink:href="#DejaVuSans-6c"/>
     <use x="2287.146484" xlink:href="#DejaVuSans-65"/>
     <use x="2348.669922" xlink:href="#DejaVuSans-64"/>
     <use x="2412.146484" xlink:href="#DejaVuSans-20"/>
     <use x="2443.933594" xlink:href="#DejaVuSans-74"/>
     <use x="2483.142578" xlink:href="#DejaVuSans-6f"/>
     <use x="2544.324219" xlink:href="#DejaVuSans-20"/>
     <use x="2576.111328" xlink:href="#DejaVuSans-31"/>
     <use x="2639.734375" xlink:href="#DejaVuSans-36"/>
     <use x="2703.357422" xlink:href="#DejaVuSans-30"/>
     <use x="2766.980469" xlink:href="#DejaVuSans-20"/>
     <use x="2798.767578" xlink:href="#DejaVuSans-6d"/>
     <use x="2896.179688" xlink:href="#DejaVuSans-67"/>
     <use x="2959.65625" xlink:href="#DejaVuSans-29"/>
    </g>
   </g>
   <g id="legend_1">
    <g id="patch_9">
     <path d="M 370.6875 272.368125 
L 493.565625 272.368125 
Q 495.565625 272.368125 495.565625 270.368125 
L 495.565625 36.518125 
Q 495.565625 34.518125 493.565625 34.518125 
L 370.6875 34.518125 
Q 368.6875 34.518125 368.6875 36.518125 
L 368.6875 270.368125 
Q 368.6875 272.368125 370.6875 272.368125 
z
" style="fill:#ffffff;opacity:0.8;stroke:#cccccc;stroke-linejoin:miter;"/>
    </g>
    <g id="line2d_43">
     <path d="M 372.6875 42.616563 
L 392.6875 42.616563 
" style="fill:none;stroke:#1f77b4;stroke-linecap:square;stroke-width:1.5;"/>
    </g>
    <g id="line2d_44"/>
    <g id="text_31">
     <!-- J76 (n=16) -->
     <g transform="translate(400.6875 46.116563)scale(0.1 -0.1)">
      <defs>
       <path d="M 628 4666 
L 1259 4666 
L 1259 325 
Q 1259 -519 939 -900 
Q 619 -1281 -91 -1281 
L -331 -1281 
L -331 -750 
L -134 -750 
Q 284 -750 456 -515 
Q 628 -281 628 325 
L 628 4666 
z
" id="DejaVuSans-4a" transform="scale(0.015625)"/>
       <path d="M 678 2906 
L 4684 2906 
L 4684 2381 
L 678 2381 
L 678 2906 
z
M 678 1631 
L 4684 1631 
L 4684 1100 
L 678 1100 
L 678 1631 
z
" id="DejaVuSans-3d" transform="scale(0.015625)"/>
      </defs>
      <use xlink:href="#DejaVuSans-4a"/>
      <use x="29.492188" xlink:href="#DejaVuSans-37"/>
      <use x="93.115234" xlink:href="#DejaVuSans-36"/>
      <use x="156.738281" xlink:href="#DejaVuSans-20"/>
      <use x="188.525391" xlink:href="#DejaVuSans-28"/>
      <use x="227.539062" xlink:href="#DejaVuSans-6e"/>
      <use x="290.917969" xlink:href="#DejaVuSans-3d"/>
      <use x="374.707031" xlink:href="#DejaVuSans-31"/>
      <use x="438.330078" xlink:href="#DejaVuSans-36"/>
      <use x="501.953125" xlink:href="#DejaVuSans-29"/>
     </g>
    </g>
    <g id="line2d_45">
     <path d="M 372.6875 57.294688 
L 392.6875 57.294688 
" style="fill:none;stroke:#ff7f0e;stroke-linecap:square;stroke-width:1.5;"/>
    </g>
    <g id="line2d_46"/>
    <g id="text_32">
     <!-- L79 (n=10) [excl.] -->
     <g transform="translate(400.6875 60.794688)scale(0.1 -0.1)">
      <defs>
       <path d="M 550 4863 
L 1875 4863 
L 1875 4416 
L 1125 4416 
L 1125 -397 
L 1875 -397 
L 1875 -844 
L 550 -844 
L 550 4863 
z
" id="DejaVuSans-5b" transform="scale(0.015625)"/>
       <path d="M 3513 3500 
L 2247 1797 
L 3578 0 
L 2900 0 
L 1881 1375 
L 863 0 
L 184 0 
L 1544 1831 
L 300 3500 
L 978 3500 
L 1906 2253 
L 2834 3500 
L 3513 3500 
z
" id="DejaVuSans-78" transform="scale(0.015625)"/>
       <path d="M 684 794 
L 1344 794 
L 1344 0 
L 684 0 
L 684 794 
z
" id="DejaVuSans-2e" transform="scale(0.015625)"/>
       <path d="M 1947 4863 
L 1947 -844 
L 622 -844 
L 622 -397 
L 1369 -397 
L 1369 4416 
L 622 4416 
L 622 4863 
L 1947 4863 
z
" id="DejaVuSans-5d" transform="scale(0.015625)"/>
      </defs>
      <use xlink:href="#DejaVuSans-4c"/>
      <use x="55.712891" xlink:href="#DejaVuSans-37"/>
      <use x="119.335938" xlink:href="#DejaVuSans-39"/>
      <use x="182.958984" xlink:href="#DejaVuSans-20"/>
      <use x="214.746094" xlink:href="#DejaVuSans-28"/>
      <use x="253.759766" xlink:href="#DejaVuSans-6e"/>
      <use x="317.138672" xlink:href="#DejaVuSans-3d"/>
      <use x="400.927734" xlink:href="#DejaVuSans-31"/>
      <use x="464.550781" xlink:href="#DejaVuSans-30"/>
      <use x="528.173828" xlink:href="#DejaVuSans-29"/>
      <use x="567.1875" xlink:href="#DejaVuSans-20"/>
      <use x="598.974609" xlink:href="#DejaVuSans-5b"/>
      <use x="637.988281" xlink:href="#DejaVuSans-65"/>
      <use x="697.761719" xlink:href="#DejaVuSans-78"/>
      <use x="755.191406" xlink:href="#DejaVuSans-63"/>
      <use x="810.171875" xlink:href="#DejaVuSans-6c"/>
      <use x="837.955078" xlink:href="#DejaVuSans-2e"/>
      <use x="869.742188" xlink:href="#DejaVuSans-5d"/>
     </g>
    </g>
    <g id="line2d_47">
     <path d="M 372.6875 71.972813 
L 392.6875 71.972813 
" style="fill:none;stroke:#2ca02c;stroke-linecap:square;stroke-width:1.5;"/>
    </g>
    <g id="line2d_48"/>
    <g id="text_33">
     <!-- L80 (n=8) [excl.] -->
     <g transform="translate(400.6875 75.472813)scale(0.1 -0.1)">
      <use xlink:href="#DejaVuSans-4c"/>
      <use x="55.712891" xlink:href="#DejaVuSans-38"/>
      <use x="119.335938" xlink:href="#DejaVuSans-30"/>
      <use x="182.958984" xlink:href="#DejaVuSans-20"/>
      <use x="214.746094" xlink:href="#DejaVuSans-28"/>
      <use x="253.759766" xlink:href="#DejaVuSans-6e"/>
      <use x="317.138672" xlink:href="#DejaVuSans-3d"/>
      <use x="400.927734" xlink:href="#DejaVuSans-38"/>
      <use x="464.550781" xlink:href="#DejaVuSans-29"/>
      <use x="503.564453" xlink:href="#DejaVuSans-20"/>
      <use x="535.351562" xlink:href="#DejaVuSans-5b"/>
      <use x="574.365234" xlink:href="#DejaVuSans-65"/>
      <use x="634.138672" xlink:href="#DejaVuSans-78"/>
      <use x="691.568359" xlink:href="#DejaVuSans-63"/>
      <use x="746.548828" xlink:href="#DejaVuSans-6c"/>
      <use x="774.332031" xlink:href="#DejaVuSans-2e"/>
      <use x="806.119141" xlink:href="#DejaVuSans-5d"/>
     </g>
    </g>
    <g id="line2d_49">
     <path d="M 372.6875 86.650938 
L 392.6875 86.650938 
" style="fill:none;stroke:#d62728;stroke-linecap:square;stroke-width:1.5;"/>
    </g>
    <g id="line2d_50"/>
    <g id="text_34">
     <!-- J82 (n=4) [excl.] -->
     <g transform="translate(400.6875 90.150938)scale(0.1 -0.1)">
      <use xlink:href="#DejaVuSans-4a"/>
      <use x="29.492188" xlink:href="#DejaVuSans-38"/>
      <use x="93.115234" xlink:href="#DejaVuSans-32"/>
      <use x="156.738281" xlink:href="#DejaVuSans-20"/>
      <use x="188.525391" xlink:href="#DejaVuSans-28"/>
      <use x="227.539062" xlink:href="#DejaVuSans-6e"/>
      <use x="290.917969" xlink:href="#DejaVuSans-3d"/>
      <use x="374.707031" xlink:href="#DejaVuSans-34"/>
      <use x="438.330078" xlink:href="#DejaVuSans-29"/>
      <use x="477.34375" xlink:href="#DejaVuSans-20"/>
      <use x="509.130859" xlink:href="#DejaVuSans-5b"/>
      <use x="548.144531" xlink:href="#DejaVuSans-65"/>
      <use x="607.917969" xlink:href="#DejaVuSans-78"/>
      <use x="665.347656" xlink:href="#DejaVuSans-63"/>
      <use x="720.328125" xlink:href="#DejaVuSans-6c"/>
      <use x="748.111328" xlink:href="#DejaVuSans-2e"/>
      <use x="779.898438" xlink:href="#DejaVuSans-5d"/>
     </g>
    </g>
    <g id="line2d_51">
     <path d="M 372.6875 101.329063 
L 392.6875 101.329063 
" style="fill:none;stroke:#9467bd;stroke-linecap:square;stroke-width:1.5;"/>
    </g>
    <g id="line2d_52"/>
    <g id="text_35">
     <!-- N87a (n=3) -->
     <g transform="translate(400.6875 104.829063)scale(0.1 -0.1)">
      <defs>
       <path d="M 628 4666 
L 1478 4666 
L 3547 763 
L 3547 4666 
L 4159 4666 
L 4159 0 
L 3309 0 
L 1241 3903 
L 1241 0 
L 628 0 
L 628 4666 
z
" id="DejaVuSans-4e" transform="scale(0.015625)"/>
      </defs>
      <use xlink:href="#DejaVuSans-4e"/>
      <use x="74.804688" xlink:href="#DejaVuSans-38"/>
      <use x="138.427734" xlink:href="#DejaVuSans-37"/>
      <use x="202.050781" xlink:href="#DejaVuSans-61"/>
      <use x="263.330078" xlink:href="#DejaVuSans-20"/>
      <use x="295.117188" xlink:href="#DejaVuSans-28"/>
      <use x="334.130859" xlink:href="#DejaVuSans-6e"/>
      <use x="397.509766" xlink:href="#DejaVuSans-3d"/>
      <use x="481.298828" xlink:href="#DejaVuSans-33"/>
      <use x="544.921875" xlink:href="#DejaVuSans-29"/>
     </g>
    </g>
    <g id="line2d_53">
     <path d="M 372.6875 116.007188 
L 392.6875 116.007188 
" style="fill:none;stroke:#8c564b;stroke-linecap:square;stroke-width:1.5;"/>
    </g>
    <g id="line2d_54"/>
    <g id="text_36">
     <!-- N87b (n=3) -->
     <g transform="translate(400.6875 119.507188)scale(0.1 -0.1)">
      <defs>
       <path d="M 3116 1747 
Q 3116 2381 2855 2742 
Q 2594 3103 2138 3103 
Q 1681 3103 1420 2742 
Q 1159 2381 1159 1747 
Q 1159 1113 1420 752 
Q 1681 391 2138 391 
Q 2594 391 2855 752 
Q 3116 1113 3116 1747 
z
M 1159 2969 
Q 1341 3281 1617 3432 
Q 1894 3584 2278 3584 
Q 2916 3584 3314 3078 
Q 3713 2572 3713 1747 
Q 3713 922 3314 415 
Q 2916 -91 2278 -91 
Q 1894 -91 1617 61 
Q 1341 213 1159 525 
L 1159 0 
L 581 0 
L 581 4863 
L 1159 4863 
L 1159 2969 
z
" id="DejaVuSans-62" transform="scale(0.015625)"/>
      </defs>
      <use xlink:href="#DejaVuSans-4e"/>
      <use x="74.804688" xlink:href="#DejaVuSans-38"/>
      <use x="138.427734" xlink:href="#DejaVuSans-37"/>
      <use x="202.050781" xlink:href="#DejaVuSans-62"/>
      <use x="265.527344" xlink:href="#DejaVuSans-20"/>
      <use x="297.314453" xlink:href="#DejaVuSans-28"/>
      <use x="336.328125" xlink:href="#DejaVuSans-6e"/>
      <use x="399.707031" xlink:href="#DejaVuSans-3d"/>
      <use x="483.496094" xlink:href="#DejaVuSans-33"/>
      <use x="547.119141" xlink:href="#DejaVuSans-29"/>
     </g>
    </g>
    <g id="line2d_55">
     <path d="M 372.6875 130.685313 
L 392.6875 130.685313 
" style="fill:none;stroke:#e377c2;stroke-linecap:square;stroke-width:1.5;"/>
    </g>
    <g id="line2d_56"/>
    <g id="text_37">
     <!-- N87c (n=3) -->
     <g transform="translate(400.6875 134.185313)scale(0.1 -0.1)">
      <use xlink:href="#DejaVuSans-4e"/>
      <use x="74.804688" xlink:href="#DejaVuSans-38"/>
      <use x="138.427734" xlink:href="#DejaVuSans-37"/>
      <use x="202.050781" xlink:href="#DejaVuSans-63"/>
      <use x="257.03125" xlink:href="#DejaVuSans-20"/>
      <use x="288.818359" xlink:href="#DejaVuSans-28"/>
      <use x="327.832031" xlink:href="#DejaVuSans-6e"/>
      <use x="391.210938" xlink:href="#DejaVuSans-3d"/>
      <use x="475" xlink:href="#DejaVuSans-33"/>
      <use x="538.623047" xlink:href="#DejaVuSans-29"/>
     </g>
    </g>
    <g id="line2d_57">
     <path d="M 372.6875 145.363438 
L 392.6875 145.363438 
" style="fill:none;stroke:#7f7f7f;stroke-linecap:square;stroke-width:1.5;"/>
    </g>
    <g id="line2d_58"/>
    <g id="text_38">
     <!-- N87d (n=4) -->
     <g transform="translate(400.6875 148.863438)scale(0.1 -0.1)">
      <use xlink:href="#DejaVuSans-4e"/>
      <use x="74.804688" xlink:href="#DejaVuSans-38"/>
      <use x="138.427734" xlink:href="#DejaVuSans-37"/>
      <use x="202.050781" xlink:href="#DejaVuSans-64"/>
      <use x="265.527344" xlink:href="#DejaVuSans-20"/>
      <use x="297.314453" xlink:href="#DejaVuSans-28"/>
      <use x="336.328125" xlink:href="#DejaVuSans-6e"/>
      <use x="399.707031" xlink:href="#DejaVuSans-3d"/>
      <use x="483.496094" xlink:href="#DejaVuSans-34"/>
      <use x="547.119141" xlink:href="#DejaVuSans-29"/>
     </g>
    </g>
    <g id="line2d_59">
     <path d="M 372.6875 160.041563 
L 392.6875 160.041563 
" style="fill:none;stroke:#bcbd22;stroke-linecap:square;stroke-width:1.5;"/>
    </g>
    <g id="line2d_60"/>
    <g id="text_39">
     <!-- N87e (n=4) -->
     <g transform="translate(400.6875 163.541563)scale(0.1 -0.1)">
      <use xlink:href="#DejaVuSans-4e"/>
      <use x="74.804688" xlink:href="#DejaVuSans-38"/>
      <use x="138.427734" xlink:href="#DejaVuSans-37"/>
      <use x="202.050781" xlink:href="#DejaVuSans-65"/>
      <use x="263.574219" xlink:href="#DejaVuSans-20"/>
      <use x="295.361328" xlink:href="#DejaVuSans-28"/>
      <use x="334.375" xlink:href="#DejaVuSans-6e"/>
      <use x="397.753906" xlink:href="#DejaVuSans-3d"/>
      <use x="481.542969" xlink:href="#DejaVuSans-34"/>
      <use x="545.166016" xlink:href="#DejaVuSans-29"/>
     </g>
    </g>
    <g id="line2d_61">
     <path d="M 372.6875 174.719688 
L 392.6875 174.719688 
" style="fill:none;stroke:#17becf;stroke-linecap:square;stroke-width:1.5;"/>
    </g>
    <g id="line2d_62"/>
    <g id="text_40">
     <!-- N87f (n=4) -->
     <g transform="translate(400.6875 178.219688)scale(0.1 -0.1)">
      <defs>
       <path d="M 2375 4863 
L 2375 4384 
L 1825 4384 
Q 1516 4384 1395 4259 
Q 1275 4134 1275 3809 
L 1275 3500 
L 2222 3500 
L 2222 3053 
L 1275 3053 
L 1275 0 
L 697 0 
L 697 3053 
L 147 3053 
L 147 3500 
L 697 3500 
L 697 3744 
Q 697 4328 969 4595 
Q 1241 4863 1831 4863 
L 2375 4863 
z
" id="DejaVuSans-66" transform="scale(0.015625)"/>
      </defs>
      <use xlink:href="#DejaVuSans-4e"/>
      <use x="74.804688" xlink:href="#DejaVuSans-38"/>
      <use x="138.427734" xlink:href="#DejaVuSans-37"/>
      <use x="202.050781" xlink:href="#DejaVuSans-66"/>
      <use x="237.255859" xlink:href="#DejaVuSans-20"/>
      <use x="269.042969" xlink:href="#DejaVuSans-28"/>
      <use x="308.056641" xlink:href="#DejaVuSans-6e"/>
      <use x="371.435547" xlink:href="#DejaVuSans-3d"/>
      <use x="455.224609" xlink:href="#DejaVuSans-34"/>
      <use x="518.847656" xlink:href="#DejaVuSans-29"/>
     </g>
    </g>
    <g id="line2d_63">
     <path d="M 372.6875 189.397813 
L 392.6875 189.397813 
" style="fill:none;stroke:#1f77b4;stroke-dasharray:9,1.5;stroke-dashoffset:0;stroke-width:1.5;"/>
    </g>
    <g id="line2d_64"/>
    <g id="text_41">
     <!-- S88a (n=9) -->
     <g transform="translate(400.6875 192.897813)scale(0.1 -0.1)">
      <defs>
       <path d="M 3425 4513 
L 3425 3897 
Q 3066 4069 2747 4153 
Q 2428 4238 2131 4238 
Q 1616 4238 1336 4038 
Q 1056 3838 1056 3469 
Q 1056 3159 1242 3001 
Q 1428 2844 1947 2747 
L 2328 2669 
Q 3034 2534 3370 2195 
Q 3706 1856 3706 1288 
Q 3706 609 3251 259 
Q 2797 -91 1919 -91 
Q 1588 -91 1214 -16 
Q 841 59 441 206 
L 441 856 
Q 825 641 1194 531 
Q 1563 422 1919 422 
Q 2459 422 2753 634 
Q 3047 847 3047 1241 
Q 3047 1584 2836 1778 
Q 2625 1972 2144 2069 
L 1759 2144 
Q 1053 2284 737 2584 
Q 422 2884 422 3419 
Q 422 4038 858 4394 
Q 1294 4750 2059 4750 
Q 2388 4750 2728 4690 
Q 3069 4631 3425 4513 
z
" id="DejaVuSans-53" transform="scale(0.015625)"/>
      </defs>
      <use xlink:href="#DejaVuSans-53"/>
      <use x="63.476562" xlink:href="#DejaVuSans-38"/>
      <use x="127.099609" xlink:href="#DejaVuSans-38"/>
      <use x="190.722656" xlink:href="#DejaVuSans-61"/>
      <use x="252.001953" xlink:href="#DejaVuSans-20"/>
      <use x="283.789062" xlink:href="#DejaVuSans-28"/>
      <use x="322.802734" xlink:href="#DejaVuSans-6e"/>
      <use x="386.181641" xlink:href="#DejaVuSans-3d"/>
      <use x="469.970703" xlink:href="#DejaVuSans-39"/>
      <use x="533.59375" xlink:href="#DejaVuSans-29"/>
     </g>
    </g>
    <g id="line2d_65">
     <path d="M 372.6875 204.075938 
L 392.6875 204.075938 
" style="fill:none;stroke:#ff7f0e;stroke-dasharray:9,1.5;stroke-dashoffset:0;stroke-width:1.5;"/>
    </g>
    <g id="line2d_66"/>
    <g id="text_42">
     <!-- S88b (n=9) -->
     <g transform="translate(400.6875 207.575938)scale(0.1 -0.1)">
      <use xlink:href="#DejaVuSans-53"/>
      <use x="63.476562" xlink:href="#DejaVuSans-38"/>
      <use x="127.099609" xlink:href="#DejaVuSans-38"/>
      <use x="190.722656" xlink:href="#DejaVuSans-62"/>
      <use x="254.199219" xlink:href="#DejaVuSans-20"/>
      <use x="285.986328" xlink:href="#DejaVuSans-28"/>
      <use x="325" xlink:href="#DejaVuSans-6e"/>
      <use x="388.378906" xlink:href="#DejaVuSans-3d"/>
      <use x="472.167969" xlink:href="#DejaVuSans-39"/>
      <use x="535.791016" xlink:href="#DejaVuSans-29"/>
     </g>
    </g>
    <g id="line2d_67">
     <path d="M 372.6875 218.754063 
L 392.6875 218.754063 
" style="fill:none;stroke:#2ca02c;stroke-dasharray:9,1.5;stroke-dashoffset:0;stroke-width:1.5;"/>
    </g>
    <g id="line2d_68"/>
    <g id="text_43">
     <!-- S88c (n=9) -->
     <g transform="translate(400.6875 222.254063)scale(0.1 -0.1)">
      <use xlink:href="#DejaVuSans-53"/>
      <use x="63.476562" xlink:href="#DejaVuSans-38"/>
      <use x="127.099609" xlink:href="#DejaVuSans-38"/>
      <use x="190.722656" xlink:href="#DejaVuSans-63"/>
      <use x="245.703125" xlink:href="#DejaVuSans-20"/>
      <use x="277.490234" xlink:href="#DejaVuSans-28"/>
      <use x="316.503906" xlink:href="#DejaVuSans-6e"/>
      <use x="379.882812" xlink:href="#DejaVuSans-3d"/>
      <use x="463.671875" xlink:href="#DejaVuSans-39"/>
      <use x="527.294922" xlink:href="#DejaVuSans-29"/>
     </g>
    </g>
    <g id="line2d_69">
     <path d="M 372.6875 233.432188 
L 392.6875 233.432188 
" style="fill:none;stroke:#d62728;stroke-dasharray:9,1.5;stroke-dashoffset:0;stroke-width:1.5;"/>
    </g>
    <g id="line2d_70"/>
    <g id="text_44">
     <!-- S96 (n=11) -->
     <g transform="translate(400.6875 236.932188)scale(0.1 -0.1)">
      <use xlink:href="#DejaVuSans-53"/>
      <use x="63.476562" xlink:href="#DejaVuSans-39"/>
      <use x="127.099609" xlink:href="#DejaVuSans-36"/>
      <use x="190.722656" xlink:href="#DejaVuSans-20"/>
      <use x="222.509766" xlink:href="#DejaVuSans-28"/>
      <use x="261.523438" xlink:href="#DejaVuSans-6e"/>
      <use x="324.902344" xlink:href="#DejaVuSans-3d"/>
      <use x="408.691406" xlink:href="#DejaVuSans-31"/>
      <use x="472.314453" xlink:href="#DejaVuSans-31"/>
      <use x="535.9375" xlink:href="#DejaVuSans-29"/>
     </g>
    </g>
    <g id="line2d_71">
     <path d="M 372.6875 248.110313 
L 392.6875 248.110313 
" style="fill:none;stroke:#9467bd;stroke-dasharray:9,1.5;stroke-dashoffset:0;stroke-width:1.5;"/>
    </g>
    <g id="line2d_72"/>
    <g id="text_45">
     <!-- H99 (n=17) -->
     <g transform="translate(400.6875 251.610313)scale(0.1 -0.1)">
      <defs>
       <path d="M 628 4666 
L 1259 4666 
L 1259 2753 
L 3553 2753 
L 3553 4666 
L 4184 4666 
L 4184 0 
L 3553 0 
L 3553 2222 
L 1259 2222 
L 1259 0 
L 628 0 
L 628 4666 
z
" id="DejaVuSans-48" transform="scale(0.015625)"/>
      </defs>
      <use xlink:href="#DejaVuSans-48"/>
      <use x="75.195312" xlink:href="#DejaVuSans-39"/>
      <use x="138.818359" xlink:href="#DejaVuSans-39"/>
      <use x="202.441406" xlink:href="#DejaVuSans-20"/>
      <use x="234.228516" xlink:href="#DejaVuSans-28"/>
      <use x="273.242188" xlink:href="#DejaVuSans-6e"/>
      <use x="336.621094" xlink:href="#DejaVuSans-3d"/>
      <use x="420.410156" xlink:href="#DejaVuSans-31"/>
      <use x="484.033203" xlink:href="#DejaVuSans-37"/>
      <use x="547.65625" xlink:href="#DejaVuSans-29"/>
     </g>
    </g>
    <g id="line2d_73">
     <path d="M 372.6875 262.788438 
L 392.6875 262.788438 
" style="fill:none;stroke:#000000;stroke-linecap:square;stroke-width:3;"/>
    </g>
    <g id="line2d_74"/>
    <g id="text_46">
     <!-- Fit of data -->
     <g transform="translate(400.6875 266.288438)scale(0.1 -0.1)">
      <defs>
       <path d="M 628 4666 
L 3309 4666 
L 3309 4134 
L 1259 4134 
L 1259 2759 
L 3109 2759 
L 3109 2228 
L 1259 2228 
L 1259 0 
L 628 0 
L 628 4666 
z
" id="DejaVuSans-46" transform="scale(0.015625)"/>
      </defs>
      <use xlink:href="#DejaVuSans-46"/>
      <use x="50.269531" xlink:href="#DejaVuSans-69"/>
      <use x="78.052734" xlink:href="#DejaVuSans-74"/>
      <use x="117.261719" xlink:href="#DejaVuSans-20"/>
      <use x="149.048828" xlink:href="#DejaVuSans-6f"/>
      <use x="210.230469" xlink:href="#DejaVuSans-66"/>
      <use x="245.435547" xlink:href="#DejaVuSans-20"/>
      <use x="277.222656" xlink:href="#DejaVuSans-64"/>
      <use x="340.699219" xlink:href="#DejaVuSans-61"/>
      <use x="401.978516" xlink:href="#DejaVuSans-74"/>
      <use x="441.1875" xlink:href="#DejaVuSans-61"/>
     </g>
    </g>
   </g>
  </g>
 </g>
 <defs>
  <clipPath id="p4f3b8d62d2">
   <rect height="332.64" width="446.4" x="54.165625" y="29.518125"/>
  </clipPath>
 </defs>
</svg>
